<?xml version="1.0" encoding="UTF-8"?>
<svg xmlns="http://www.w3.org/2000/svg" width="732.08" height="622.39" xmlns:xlink="http://www.w3.org/1999/xlink" viewBox="0 0 732.08 622.39">
  <defs>
    <linearGradient id="Degradado_sin_nombre" data-name="Degradado sin nombre" x1="-3271.53" y1="814.87" x2="-1633.13" y2="814.87" gradientTransform="translate(1467.95 -11778.77) rotate(-90) scale(3.97 -1.35)" gradientUnits="userSpaceOnUse">
      <stop offset="0" stop-color="red"/>
      <stop offset=".16" stop-color="#ff0"/>
      <stop offset=".36" stop-color="lime"/>
      <stop offset=".5" stop-color="aqua"/>
      <stop offset=".67" stop-color="blue"/>
      <stop offset=".83" stop-color="#f0f"/>
      <stop offset="1" stop-color="red"/>
    </linearGradient>
  </defs>
  <g id="Capa_1" data-name="Capa 1">
    <path d="M520.99,236.36c266.27,167.67,239.45,281-80.45,340-319.9,59-453.03-24.82-399.4-251.45,53.63-226.67,213.58-256.18,479.85-88.55" fill="url(#Degradado_sin_nombre)" fill-rule="evenodd"/>
  </g>
  <g id="Capa_6" data-name="Capa 6">
    <path d="M122.02,468.8c-11.77-46.53-17.07-89.2-15.9-128l-11.45,1.1c-.7.07-1.35-.05-1.95-.35-.67-.33-1.18-.78-1.55-1.35-.37-.6-.57-1.25-.6-1.95-.3-12.13.65-23.78,2.85-34.95.13-.8.5-1.47,1.1-2,.57-.57,1.25-.9,2.05-1l12.7-1.25c2.33-20.63,6-40.55,11-59.75.13-.63.43-1.18.9-1.65.47-.47,1.02-.8,1.65-1,22.7-6.6,46.3-10.5,70.8-11.7l3.4-.15,4.15-.15c8.53-.23,17.17-.15,25.9.25.67.03,1.28.25,1.85.65.57.37,1.02.85,1.35,1.45l.25.65.1,1.3-.8,9.65.7.75c32.8,35.13,50.45,65.53,52.95,91.2l1.35-41.05c.03-.87.33-1.63.9-2.3.37-.47.83-.82,1.4-1.05-1.9-1.73-3.63-3.75-5.2-6.05-5.27-7.67-7.1-16.58-5.5-26.75v.05c1.43-10.07,5.78-18.32,13.05-24.75v-.05c7.5-6.77,15.78-9.7,24.85-8.8l-.05-.05c9.27.7,16.55,5.1,21.85,13.2,5.27,7.6,7.17,16.47,5.7,26.6-.97,6.53-3.15,12.33-6.55,17.4l.15.05c.73.33,1.3.87,1.7,1.6.37.7.52,1.45.45,2.25-.6,4.8-1.15,9.63-1.65,14.5l12.15-2.8,2.35.25c.73.33,1.32.87,1.75,1.6.4.73.55,1.52.45,2.35-5.2,36.27-1.53,70.23,11,101.9,17.17-51.83,20.48-101.33,9.95-148.5-.2-.87-.1-1.7.3-2.5.4-.8,1.02-1.38,1.85-1.75,15.3-6.87,30.58-13.75,45.85-20.65.77-.37,1.55-.45,2.35-.25.83.2,1.52.63,2.05,1.3.53.63.82,1.38.85,2.25,3.57,109.13-16.85,187.22-61.25,234.25-.5.5-1.08.85-1.75,1.05l-2.05-.05c-.7-.2-1.28-.57-1.75-1.1-13.23-14.97-23.75-30.95-31.55-47.95-.3,13.23-.38,26.5-.25,39.8,0,.83-.23,1.6-.7,2.3-.5.67-1.15,1.12-1.95,1.35l-34.8,10.3-18.4,5.45-2.6-.15c-.87-.4-1.48-1-1.85-1.8-.43-.83-.52-1.7-.25-2.6l.2-.7,2.55-11.05-4.8,2.5c-.7.33-1.42.47-2.15.4-.77-.1-1.45-.4-2.05-.9-.57-.5-.95-1.12-1.15-1.85-4.23-15.2-14.15-27.07-29.75-35.6-1.6-.9-3.27-1.75-5-2.55.93,5.5,2.07,10.93,3.4,16.3.17.7.15,1.38-.05,2.05l-1.15,1.7c-.57.47-1.2.75-1.9.85l-31.3,4.55-.9.05c-.67-.03-1.28-.27-1.85-.7-.83-.63-1.33-1.45-1.5-2.45-2.03-12.93-3.42-25.73-4.15-38.4l-6.2.55c-1.07.07-1.98-.23-2.75-.9-.83-.67-1.28-1.52-1.35-2.55l-2.55-34.1c-.07-.73.08-1.4.45-2,.33-.67.8-1.17,1.4-1.5.63-.37,1.3-.55,2-.55l8.7.2c.9-19.7,3.5-39.68,7.8-59.95,2.23-10.57,4.93-21.2,8.1-31.9l-8.1-.05c-15.53.2-28.93,2.05-40.2,5.55-.67,7.5-1.17,14.02-1.5,19.55l31.8-3.4c.8-.1,1.55.05,2.25.45.7.4,1.23.98,1.6,1.75.3.73.38,1.5.25,2.3-2.3,11.03-3.83,22.17-4.6,33.4-.07.93-.42,1.73-1.05,2.4-.67.63-1.45,1-2.35,1.1l-29.6,2.75c-.33,35.6,9,73.2,28,112.8.43.9.48,1.83.15,2.8-.33.97-.95,1.68-1.85,2.15l-28.15,14.35-19.15,9.7c-.7.33-1.42.47-2.15.4-.77-.1-1.43-.4-2-.9-.6-.53-.98-1.17-1.15-1.9l-1.9-7.3M233.57,299.25l-3.05,13.25c-4.03,18.63-6.58,35.58-7.65,50.85,2.77-.6,5.32-1.33,7.65-2.2,9.97-3.7,15.77-9.72,17.4-18.05,1.63-10.9-3.15-25.52-14.35-43.85M278.22,404.7c1.7-15.47,3.12-33.55,4.25-54.25-3.63,16.27-14.53,30.22-32.7,41.85,11.97,3.73,21.45,7.87,28.45,12.4" fill-rule="evenodd"/>
  </g>
  <g id="Capa_5" data-name="Capa 5" opacity=".1">
    <path d="M527.41,312.65c.87,0,1.65.27,2.35.8l95.95,75.85c.6.5,1.02,1.13,1.25,1.9.23.77.22,1.53-.05,2.3-.27.73-.72,1.33-1.35,1.8-.67.47-1.4.7-2.2.7h-35.7v39.85c0,1.03-.37,1.92-1.1,2.65-.73.73-1.62,1.1-2.65,1.1h-113.1c-1.03,0-1.92-.37-2.65-1.1-.73-.73-1.1-1.62-1.1-2.65v-39.85h-35.75c-.8,0-1.52-.23-2.15-.7-.67-.47-1.13-1.07-1.4-1.8-.27-.77-.28-1.53-.05-2.3s.67-1.4,1.3-1.9l96.1-75.85c.67-.53,1.43-.8,2.3-.8" fill-rule="evenodd"/>
  </g>
  <g id="Capa_2" data-name="Capa 2">
    <g>
      <path d="M409.07,210.94c3.53,107.87-16.55,185.05-60.25,231.55-17.17-19.43-29.7-40.62-37.6-63.55-.7,19.23-.95,38.55-.75,57.95l-53.2,15.75c1.57-5.9,3-12.45,4.3-19.65l-11.7,6.1c-5.37-19.7-19.73-34.13-43.1-43.3,1.1,7.9,2.6,15.68,4.5,23.35l-31.3,4.55c-2.2-14.1-3.65-28.05-4.35-41.85l-10.05.85-2.55-34.1,12.4.3c1.13-32.33,6.88-65.43,17.25-99.3-22.8-.97-41.72,1.13-56.75,6.3-.97,10.77-1.65,19.62-2.05,26.55l36.25-3.9c-2.33,11.23-3.88,22.55-4.65,33.95l-32.95,3.05c-1,37.13,8.43,76.42,28.3,117.85l-47.3,24.05c-13.43-50.7-19.27-96.87-17.5-138.5l-15.7,1.5c-.3-11.83.62-23.22,2.75-34.15l15.55-1.4c2.3-21.57,6.05-42.35,11.25-62.35,32.43-9.43,66.77-13.3,103-11.6l-.95,11.3c66.97,70.9,71.78,122.07,14.45,153.5,19.1,5.2,32.7,11.23,40.8,18.1,3.63-29.83,6.1-70.48,7.4-121.95l8.35-1.7c-4.77-1.9-8.73-5.2-11.9-9.9-4.7-6.9-6.33-14.93-4.9-24.1,1.3-9.13,5.25-16.63,11.85-22.5,6.63-6,13.97-8.63,22-7.9,8.07.63,14.4,4.47,19,11.5,4.77,6.87,6.48,14.87,5.15,24-1.37,9.17-5.37,16.72-12,22.65l-.45.35,8.15-1.6c-.8,6.53-1.52,13.12-2.15,19.75l17.2-3.95c-5.77,40.43-.73,78.07,15.1,112.9,20.17-55.9,24.58-109.17,13.25-159.8l45.85-20.65M218.02,272.19c-7.7,29.73-12.1,55.73-13.2,78,39.3-6.23,43.7-32.23,13.2-78" fill="#f04" fill-rule="evenodd"/>
      <path d="M462.42,384.19h-39.5l96.1-75.85,95.95,75.85h-39.45v43.6h-113.1v-43.6" fill="#00da68" fill-rule="evenodd"/>
    </g>
  </g>
  <g id="Capa_3" data-name="Capa 3">
    <path d="M464.07,383.36h-39.5l96.1-75.85,95.95,75.85h-39.45v43.6h-113.1v-43.6" fill="#00da68" fill-rule="evenodd"/>
    <path d="M462.42,384.19h-39.5l96.1-75.85,95.95,75.85h-39.45v43.6h-113.1v-43.6" fill="none" stroke="#0e9033" stroke-linecap="round" stroke-linejoin="round" stroke-width="7.5"/>
    <path d="M409.07,210.94c3.53,107.87-16.55,185.05-60.25,231.55-17.17-19.43-29.7-40.62-37.6-63.55-.7,19.23-.95,38.55-.75,57.95l-53.2,15.75c1.57-5.9,3-12.45,4.3-19.65l-11.7,6.1c-5.37-19.7-19.73-34.13-43.1-43.3,1.1,7.9,2.6,15.68,4.5,23.35l-31.3,4.55c-2.2-14.1-3.65-28.05-4.35-41.85l-10.05.85-2.55-34.1,12.4.3c1.13-32.33,6.88-65.43,17.25-99.3-22.8-.97-41.72,1.13-56.75,6.3-.97,10.77-1.65,19.62-2.05,26.55l36.25-3.9c-2.33,11.23-3.88,22.55-4.65,33.95l-32.95,3.05c-1,37.13,8.43,76.42,28.3,117.85l-47.3,24.05c-13.43-50.7-19.27-96.87-17.5-138.5l-15.7,1.5c-.3-11.83.62-23.22,2.75-34.15l15.55-1.4c2.3-21.57,6.05-42.35,11.25-62.35,32.43-9.43,66.77-13.3,103-11.6l-.95,11.3c66.97,70.9,71.78,122.07,14.45,153.5,19.1,5.2,32.7,11.23,40.8,18.1,3.63-29.83,6.1-70.48,7.4-121.95l8.35-1.7c-4.77-1.9-8.73-5.2-11.9-9.9-4.7-6.9-6.33-14.93-4.9-24.1,1.3-9.13,5.25-16.63,11.85-22.5,6.63-6,13.97-8.63,22-7.9,8.07.63,14.4,4.47,19,11.5,4.77,6.87,6.48,14.87,5.15,24-1.37,9.17-5.37,16.72-12,22.65l-.45.35,8.15-1.6c-.8,6.53-1.52,13.12-2.15,19.75l17.2-3.95c-5.77,40.43-.73,78.07,15.1,112.9,20.17-55.9,24.58-109.17,13.25-159.8l45.85-20.65M218.02,272.19c30.5,45.77,26.1,71.77-13.2,78,1.1-22.27,5.5-48.27,13.2-78" fill="none" stroke="#970000" stroke-linecap="round" stroke-linejoin="round" stroke-width="7.5"/>
  </g>
  <g id="Capa_7" data-name="Capa 7">
    <path d="M496.12,374.97v-10.2h5.7v10.2h-5.7v5.05h-11.4v10.15h17.1v5.1h-22.85v-15.25h5.75v-5.05h11.4M484.72,364.77v-5.1h11.4v5.1h-11.4v5.1h-5.75v-5.1h5.75M507.57,390.17v-10.15h5.75v10.15h-5.75M507.57,374.97v-15.3h22.85v5.1h-17.1v5.1h11.4v5.1h-17.15M541.82,395.28v-5.1h11.5v5.1h-11.5M524.72,390.17v5.1h-11.4v-5.1h11.4v-15.2h5.7v15.2h-5.7M536.12,364.77h5.7v25.4h-5.7v-25.4M553.32,364.77h5.65v25.4h-5.65v-25.4h-11.5v-5.1h11.5v5.1" fill="#fff" fill-rule="evenodd"/>
  </g>
  <g id="Capa_4" data-name="Capa 4">
    <g>
      <path d="M447.75,217.1c2.07,2.1,3.1,4.62,3.1,7.55s-1.03,5.45-3.1,7.55c-2.1,2.07-4.62,3.1-7.55,3.1s-5.43-1.03-7.5-3.1c-2.1-2.1-3.15-4.62-3.15-7.55s1.05-5.45,3.15-7.55c2.07-2.07,4.57-3.1,7.5-3.1,2.93,0,5.45,1.03,7.55,3.1" fill="#f04" fill-rule="evenodd"/>
      <path d="M447.75,217.1c2.07,2.1,3.1,4.62,3.1,7.55s-1.03,5.45-3.1,7.55c-2.1,2.07-4.62,3.1-7.55,3.1s-5.43-1.03-7.5-3.1c-2.1-2.1-3.15-4.62-3.15-7.55s1.05-5.45,3.15-7.55c2.07-2.07,4.57-3.1,7.5-3.1,2.93,0,5.45,1.03,7.55,3.1Z" fill="none" stroke="#970000" stroke-linecap="round" stroke-linejoin="round" stroke-width="5"/>
      <path d="M443.15,219.85c.67.6,1,1.33,1,2.2,0,1.2-.62,2.08-1.85,2.65.53.23,1.03.9,1.5,2l1.4,3.05h-2.9l-.9-2.05c-.47-1-.85-1.63-1.15-1.9-.33-.3-.68-.45-1.05-.45h-.7v4.4h-2.75v-10.8h4.85c1.03,0,1.88.3,2.55.9M438.5,223.35h1.35l1.1-.3c.3-.2.45-.52.45-.95,0-.8-.52-1.2-1.55-1.2h-1.35v2.45" fill="#fff" fill-rule="evenodd"/>
      <path d="M127.15,110.5l14.7,21.4,2,2.9c2.3-1.07,4.82-1.6,7.55-1.6,5,0,9.28,1.73,12.85,5.2l2.95-1.9,21.2-13.45,2.85,4.25-12.8,8.8c5.03-1.63,10.2-3.02,15.5-4.15l10.35-2c8.57-1.4,17.42-2.25,26.55-2.55,37.97-1.2,81.08,7.12,129.35,24.95l45.35,31.75c-2.93-1.47-5.87-2.88-8.8-4.25-15.33-7.23-30.18-13.57-44.55-19-45.3-17.13-85.75-25.27-121.35-24.4-9.17.23-18.02,1.05-26.55,2.45-3.8.63-7.25,1.37-10.35,2.2-5.8,1.53-10.35,3.43-13.65,5.7-5.07,3.47-7.78,5.68-8.15,6.65-.37.93-1.05,2.2-2.05,3.8l-2.9,4.2c-.97,1.23-3.3,2.88-7,4.95-3.73,2.07-6.68,3.25-8.85,3.55l-6.5.85c-2.13.23-9.65,4.02-22.55,11.35-12.93,7.3-26.83,26.07-41.7,56.3l-.9,1.85c-8.03,16.67-14.98,35.33-20.85,56l-4.5-21.85c4.53-12.83,9.53-24.83,15-36,9.07-18.5,19.37-34.68,30.9-48.55l5.3-6.1-6.5,4.15-2.35-3.8,34.2-23.6,1.65-1.15,1.55-1.15c-.77-2.03-1.15-4.23-1.15-6.6,0-5.1,1.8-9.45,5.4-13.05l.35-.3-1.9-3-13.95-22,4.3-2.8" fill="#fff" fill-rule="evenodd"/>
      <path d="M115.65,93.75l11.5,16.75-4.3,2.8-10.95-17.25,3.75-2.3M188.4,123.05l16.55-10.5,2.55,3.6-16.25,11.15-2.85-4.25M360.2,152.35c16.83,6.2,34.3,13.58,52.4,22.15,15.23,7.17,30.92,15.18,47.05,24.05l29.95,32.4c-29.43-18.27-57.45-33.88-84.05-46.85l-45.35-31.75M58.85,296.3c-1.87,6.5-3.62,13.22-5.25,20.15-1.53,6.53-2.9,12.93-4.1,19.2l-7.35-20.6c3.6-14.37,7.67-27.9,12.2-40.6l4.5,21.85M99.05,187.95l-18.75,11.9-2-3.05,18.4-12.65,2.35,3.8" fill="rgba(255, 255, 255, .8)" fill-rule="evenodd"/>
      <path d="M92.5,60.15l12.55,18.25-3.05,2-11.85-18.7,2.35-1.55M221.35,102.15l19.1-12.05,1.45,2.35-18.55,12.75-2-3.05M459.65,198.55c15.07,8.23,30.55,17.22,46.45,26.95l25.4,32.8c-11.2-7.7-23.1-15.52-35.7-23.45l-6.2-3.9-29.95-32.4M49.5,335.65c-1.6,8.2-2.9,16.17-3.9,23.9l-.9,7.7-9.15-22.4c1.37-7.23,2.93-14.6,4.7-22.1l1.9-7.7,7.35,20.6M61.7,211.7l-17.7,11.2-1.1-1.65,17.25-11.9,1.55,2.35" fill="rgba(255, 255, 255, .6)" fill-rule="evenodd"/>
      <path d="M74.65,45.85c.23-1.5.93-2.83,2.1-4l.55-.5,1.6-1c.93-.47,1.97-.7,3.1-.7l2.4.4.05.8c0,1.67-.6,3.12-1.8,4.35l-.25.25c-.53.5-1.13.88-1.8,1.15l-2.35.4c-1.37,0-2.57-.38-3.6-1.15M257.65,79.2l42.25-26.8.05.1-41.2,28.35-1.1-1.65M506.1,225.5l14,8.7c16.97,10.67,32.75,21.13,47.35,31.4l9.35,26.2c-13.5-10.87-28.6-22.03-45.3-33.5l-25.4-32.8M44.7,367.25c-1.53,14.13-2.07,27.52-1.6,40.15l-13.1-23.45c.4-4.73.93-9.55,1.6-14.45,1.03-8,2.35-16.22,3.95-24.65l9.15,22.4M25,235L0,250.85l24.35-16.75.65.9" fill="rgba(255, 255, 255, .4)" fill-rule="evenodd"/>
      <path d="M567.45,265.6c15.27,10.73,29.23,21.22,41.9,31.45l14.05,37.75c-6.57-7.23-13.97-14.62-22.2-22.15-7.47-6.83-15.6-13.78-24.4-20.85l-9.35-26.2M43.1,407.4c.57,15.03,2.53,28.98,5.9,41.85l-20.25-33.1c-.17-10.3.25-21.03,1.25-32.2l13.1,23.45" fill="rgba(255, 255, 255, .2)" fill-rule="evenodd"/>
      <path d="M291.1,468.2c55.13-.4,102.35-.57,141.65-.5,134.2.27,208.7-7.95,223.5-24.65-8.7,17.6-25.78,33.65-51.25,48.15-40.2,22.87-101.3,41.87-183.3,57-74.63,13.77-138.25,19.1-190.85,16-12.97-.8-25.27-2.08-36.9-3.85-13.63-2.1-26.35-4.92-38.15-8.45l-8.8-2.8c-31.53-11.97-55.15-19.93-70.85-23.9-5.57-1.43-10.13-2.37-13.7-2.8l-3.85-5.1c-9.23-12.8-16.32-27.22-21.25-43.25l-1.4-4.9v-.05h.05l-4.05-18.45c16.73,8.4,43.63,14.35,80.7,17.85h9.7l1.9,7.3c.17.73.55,1.37,1.15,1.9.57.5,1.23.8,2,.9.73.07,1.45-.07,2.15-.4l19.15-9.7,45.25.15,36.1.2h.8l37.35-.45-.2.7c-.27.9-.18,1.77.25,2.6.37.8.98,1.4,1.85,1.8l2.6.15,18.4-5.45M663,415.6c.2-10.83-2.28-22.15-7.45-33.95,3.57-14.1,3.57-28.2,0-42.3l4.1,4.45c10.83,12.03,19.57,23.68,26.2,34.95-5.9,15.7-13.52,27.98-22.85,36.85" fill-rule="evenodd"/>
      <path d="M74.65,45.85c1.03.77,2.23,1.15,3.6,1.15l2.35-.4c.67-.27,1.27-.65,1.8-1.15l.25-.25c1.2-1.23,1.8-2.68,1.8-4.35l-.05-.8c1.07.33,2.05.93,2.95,1.8,1.43,1.47,2.15,3.23,2.15,5.3s-.72,3.83-2.15,5.3l-.05.1,5.2,7.6-2.35,1.55-4.9-7.75c-1,.47-2.08.7-3.25.7-2.07,0-3.82-.73-5.25-2.2-1.47-1.47-2.2-3.23-2.2-5.3l.1-1.3M240.45,90.1l17.2-10.9,1.1,1.65-16.85,11.6-1.45-2.35M44,222.9l-19,12.1-.65-.9,18.55-12.85,1.1,1.65" fill="rgba(255, 255, 255, .5)" fill-rule="evenodd"/>
      <path d="M105.05,78.4l10.6,15.35-3.75,2.3-9.9-15.65,3.05-2M141.85,131.9c2.87-1.4,6.03-2.1,9.5-2.1,6.1,0,11.32,2.17,15.65,6.5l.2.2-2.95,1.9c-3.57-3.47-7.85-5.2-12.85-5.2-2.73,0-5.25.53-7.55,1.6l-2-2.9M204.95,112.55l16.4-10.4,2,3.05-15.85,10.95-2.55-3.6M352.2,160.85c-53.97-18.03-94.42-25.4-121.35-22.1l-3.45.5c-14.33,2.37-25.48,4.72-33.45,7.05-6.97,2.07-11.5,4.12-13.6,6.15-4.47,4.4-7.85,8.1-10.15,11.1l-4.15,4.95c-3.33,3.1-7.28,4.8-11.85,5.1-4.57.27-9.85,1.78-15.85,4.55-21.37,11.7-40.55,31.8-57.55,60.3l-1.1,1.85.9-1.85c14.87-30.23,28.77-49,41.7-56.3,12.9-7.33,20.42-11.12,22.55-11.35l6.5-.85c2.17-.3,5.12-1.48,8.85-3.55,3.7-2.07,6.03-3.72,7-4.95l2.9-4.2c1-1.6,1.68-2.87,2.05-3.8.37-.97,3.08-3.18,8.15-6.65,3.3-2.27,7.85-4.17,13.65-5.7,3.1-.83,6.55-1.57,10.35-2.2,8.53-1.4,17.38-2.22,26.55-2.45,35.6-.87,76.05,7.27,121.35,24.4M80.3,199.85l-18.6,11.85-1.55-2.35,18.15-12.55,2,3.05M130.9,160.55c-1.1-2.67-1.65-5.55-1.65-8.65,0-6.1,2.15-11.3,6.45-15.6l1.1-1,1.9,3-.35.3c-3.6,3.6-5.4,7.95-5.4,13.05,0,2.37.38,4.57,1.15,6.6l-1.55,1.15-1.65,1.15" fill="rgba(255, 255, 255, .7)" fill-rule="evenodd"/>
      <path d="M659.65,343.8c140.1,124.4,76.97,211.17-189.4,260.3-99.2,18.3-180.43,22.87-243.7,13.7-11.47-1.67-22.33-3.77-32.6-6.3-46.33-11.53-80.7-32.22-103.1-62.05,26.1,19.03,60.47,31.75,103.1,38.15,11.67,1.77,23.97,3.05,36.9,3.85,57.37,3.6,126.97-2.15,208.8-17.25,217.3-40.07,299.37-105.22,246.2-195.45-6.63-11.27-15.37-22.92-26.2-34.95" fill-rule="evenodd"/>
      <path d="M84.4,40.05l-2.4-.4c-1.13,0-2.17.23-3.1.7l-1.6,1-.55.5c-1.17,1.17-1.87,2.5-2.1,4l-.75-.65c-1.2-1.23-1.8-2.68-1.8-4.35,0-1.73.6-3.2,1.8-4.4l.2-.15L51.1,0l24.35,35.3c.83-.43,1.77-.65,2.8-.65,1.73,0,3.2.6,4.4,1.8,1,1.03,1.58,2.23,1.75,3.6" fill="rgba(255, 255, 255, .3)" fill-rule="evenodd"/>
      <path d="M159.85,104.45c.7,1.43,1.05,3.02,1.05,4.75,0,3.2-1.13,5.93-3.4,8.2-2.3,2.3-5.03,3.45-8.2,3.45-3.2,0-5.93-1.15-8.2-3.45-2.27-2.27-3.4-5-3.4-8.2,0-2.27.57-4.32,1.7-6.15,3.07,2.87,6.75,4.3,11.05,4.3,3.53,0,6.67-.97,9.4-2.9" fill="rgba(255, 255, 255, .1)" fill-rule="evenodd"/>
      <path d="M139.4,103.05l1.7-2c2.27-2.3,5-3.45,8.2-3.45,3.17,0,5.9,1.15,8.2,3.45,1,1,1.78,2.13,2.35,3.4-2.73,1.93-5.87,2.9-9.4,2.9-4.3,0-7.98-1.43-11.05-4.3" fill="rgba(255, 255, 255, .25)" fill-rule="evenodd"/>
      <path d="M139.4,103.05l-.7-.7c-3.33-3.27-5-7.18-5-11.75s1.67-8.63,5-11.9c3.2-3.23,7.12-4.85,11.75-4.85s8.6,1.62,11.9,4.85c3.23,3.27,4.85,7.23,4.85,11.9s-1.62,8.48-4.85,11.75c-.77.77-1.6,1.47-2.5,2.1-.57-1.27-1.35-2.4-2.35-3.4-2.3-2.3-5.03-3.45-8.2-3.45-3.2,0-5.93,1.15-8.2,3.45l-1.7,2" fill="rgba(255, 255, 255, .15)" fill-rule="evenodd"/>
      <path d="M459.25,242.9c0,3.37-1.18,6.25-3.55,8.65-2.4,2.4-5.28,3.6-8.65,3.6s-6.23-1.2-8.6-3.6-3.55-5.28-3.55-8.65c0-3.33,1.18-6.2,3.55-8.6,2.37-2.37,5.23-3.55,8.6-3.55,3.37,0,6.25,1.18,8.65,3.55,2.37,2.4,3.55,5.27,3.55,8.6" fill-rule="evenodd"/>
    </g>
    <path d="M657.22,443.36c4.33-8.77,6.58-17.92,6.75-27.45,9.33-8.87,16.95-21.15,22.85-36.85,53.17,90.23-28.9,155.38-246.2,195.45-81.83,15.1-151.43,20.85-208.8,17.25-12.93-.8-25.23-2.08-36.9-3.85-42.63-6.4-77-19.12-103.1-38.15-10.9-7.93-20.37-16.95-28.4-27.05,3.57.43,8.13,1.37,13.7,2.8,15.7,3.97,39.32,11.93,70.85,23.9l8.8,2.8c11.8,3.53,24.52,6.35,38.15,8.45,11.63,1.77,23.93,3.05,36.9,3.85,52.6,3.1,116.22-2.23,190.85-16,82-15.13,143.1-34.13,183.3-57,25.47-14.5,42.55-30.55,51.25-48.15" fill-rule="evenodd"/>
  </g>
</svg>