<?xml version="1.0" encoding="UTF-8"?>
<svg id="Capa_1" xmlns="http://www.w3.org/2000/svg" version="1.1" xmlns:ffdec="https://www.free-decompiler.com/flash" xmlns:xlink="http://www.w3.org/1999/xlink" viewBox="0 0 672.9 465.2">
  <!-- Generator: Adobe Illustrator 29.5.1, SVG Export Plug-In . SVG Version: 2.1.0 Build 141)  -->
  <defs>
    <style>
      .st0 {
        fill-opacity: .8;
      }

      .st0, .st1, .st2, .st3, .st4, .st5, .st6, .st7, .st8, .st9, .st10, .st11, .st12, .st13, .st14, .st15 {
        fill-rule: evenodd;
      }

      .st0, .st4, .st5, .st6, .st7, .st10, .st12, .st13, .st15 {
        fill: #fff;
      }

      .st1, .st5 {
        fill-opacity: .3;
      }

      .st2 {
        fill: url(#Degradado_sin_nombre);
      }

      .st16 {
        stroke-width: 5px;
      }

      .st16, .st17 {
        stroke: #970000;
      }

      .st16, .st17, .st18 {
        fill: none;
        stroke-linecap: round;
        stroke-linejoin: round;
      }

      .st3 {
        fill: #00da68;
      }

      .st4 {
        fill-opacity: .6;
      }

      .st7, .st8 {
        fill-opacity: .1;
      }

      .st9 {
        fill: #f04;
      }

      .st17, .st18 {
        stroke-width: 7.5px;
      }

      .st19 {
        opacity: 0;
      }

      .st10 {
        fill-opacity: .5;
      }

      .st12 {
        fill-opacity: .2;
      }

      .st18 {
        stroke: #0e9033;
      }

      .st13 {
        fill-opacity: .4;
      }

      .st14 {
        fill-opacity: 0;
      }

      .st15 {
        fill-opacity: .7;
      }
    </style>
    <linearGradient id="Degradado_sin_nombre" data-name="Degradado sin nombre" x1="-5723.4" y1="2622.9" x2="-4539.9" y2="2622.9" gradientTransform="translate(-3327.3 -21943.7) rotate(-90) scale(4 1.4)" gradientUnits="userSpaceOnUse">
      <stop offset="0" stop-color="red"/>
      <stop offset=".2" stop-color="#ff0"/>
      <stop offset=".4" stop-color="lime"/>
      <stop offset=".5" stop-color="aqua"/>
      <stop offset=".7" stop-color="blue"/>
      <stop offset=".8" stop-color="#f0f"/>
      <stop offset="1" stop-color="red"/>
    </linearGradient>
  </defs>
  <g id="Capa_11" data-name="Capa_1" ffdec:objectType="shape">
    <path class="st2" d="M456.8,175.8c192.4,121.1,173,203-58.1,245.6-231.1,42.6-327.3-17.9-288.5-181.7,38.7-163.7,154.2-185,346.6-63.9"/>
  </g>
  <g id="Capa_6">
    <path class="st8" d="M168.5,343.6c-8.5-33.6-12.4-64.4-11.5-92.5l-8.2.8c-.5,0-.9,0-1.4-.3-.5-.2-.9-.6-1.1-.9-.3-.4-.4-.9-.4-1.4-.2-8.7.5-17.2,2.1-25.2,0-.6.4-1.1.8-1.4.4-.4.9-.7,1.4-.7l9.2-.9c1.7-14.9,4.3-29.3,7.9-43.2,0-.4.3-.9.7-1.2.4-.4.7-.6,1.2-.7,16.4-4.8,33.4-7.6,51.1-8.5h2.5c0-.1,3-.1,3-.1,6.1-.3,12.4-.2,18.7,0,.5,0,.9.1,1.4.4.4.3.7.6.9,1.1v.5c.1,0,.1.9.1.9,0,0-.5,7-.5,7l.5.6c23.7,25.4,36.5,47.3,38.3,65.9l1-29.7c0-.7.2-1.2.7-1.7.3-.4.6-.6,1-.8-1.4-1.2-2.6-2.7-3.8-4.4-3.8-5.6-5.1-12-4-19.4h0c1-7.2,4.2-13.2,9.5-17.8h0c5.4-4.9,11.4-7.1,18-6.4h0c6.7.5,11.9,3.7,15.8,9.5,3.8,5.5,5.2,11.9,4.1,19.2-.7,4.7-2.2,8.9-4.8,12.6h0c.5.3.9.7,1.2,1.2.3.5.4,1,.4,1.6-.4,3.5-.9,6.9-1.2,10.5l8.8-2h1.7c.5.4.9.8,1.3,1.3.3.5.4,1.1.4,1.7-3.8,26.2-1.1,50.7,7.9,73.6,12.4-37.4,14.8-73.2,7.2-107.3-.1-.7,0-1.2.2-1.8s.7-1,1.4-1.3c11.1-5,22.1-10,33.2-15,.6-.3,1.1-.3,1.7-.1.6.1,1.1.4,1.5.9.4.4.6,1,.7,1.6,2.6,78.8-12.2,135.2-44.2,169.3-.4.4-.8.7-1.3.7h-1.5c-.5-.1-.9-.4-1.3-.8-9.5-10.8-17.2-22.4-22.8-34.7-.2,9.5-.3,19.1-.1,28.8,0,.6-.1,1.2-.5,1.7-.4.5-.8.8-1.4,1l-25.1,7.4-13.3,4h-1.9c-.7-.4-1.1-.9-1.3-1.4-.3-.6-.4-1.2-.1-1.9v-.5c.1,0,2-8,2-8l-3.5,1.8c-.5.2-1,.4-1.5.3-.6,0-1-.3-1.5-.7-.4-.4-.7-.8-.9-1.3-3-11-10.2-19.6-21.5-25.7-1.2-.7-2.4-1.3-3.6-1.9.7,4,1.5,7.9,2.5,11.8.1.5,0,1,0,1.4l-.8,1.2c-.4.4-.9.6-1.4.7l-22.6,3.3h-.7c-.5,0-.9-.1-1.4-.4-.6-.4-.9-1.1-1.1-1.8-1.4-9.3-2.5-18.6-3-27.7l-4.5.4c-.8,0-1.4-.1-2-.7-.6-.5-.9-1.1-1-1.8l-1.9-24.6c0-.5,0-1,.4-1.4.2-.5.6-.9,1-1.1.4-.3.9-.4,1.4-.4h6.3c.7-14.1,2.5-28.5,5.6-43.1,1.6-7.7,3.5-15.3,5.9-23h-5.9c-11.2,0-20.9,1.4-29,4-.5,5.4-.9,10.1-1.1,14.2l23-2.5c.6,0,1.2,0,1.6.3.5.3.9.7,1.2,1.3.2.5.3,1.1.1,1.7-1.7,7.9-2.7,16-3.3,24.1,0,.7-.3,1.2-.8,1.7-.5.4-1.1.7-1.7.8l-21.4,2c-.2,25.7,6.5,52.9,20.2,81.5.3.7.4,1.3,0,2-.2.7-.7,1.2-1.4,1.5l-20.3,10.4-13.9,7c-.5.2-1,.4-1.6.3-.6,0-1-.3-1.4-.7s-.7-.9-.8-1.4l-1.4-5.3M249.2,221.2l-2.2,9.5c-2.9,13.4-4.8,25.7-5.5,36.8,2-.4,3.8-.9,5.5-1.6,7.2-2.7,11.4-7,12.6-13.1,1.2-7.9-2.2-18.4-10.4-31.7M281.4,297.3c1.2-11.2,2.2-24.3,3-39.2-2.6,11.8-10.5,21.8-23.6,30.3,8.7,2.7,15.5,5.7,20.6,9"/>
  </g>
  <g id="Capa_5" class="st19">
    <path class="st11" d="M461.4,230.9c.7,0,1.2.2,1.7.6l69.3,54.8c.4.4.7.8.9,1.4s.1,1.1,0,1.7c-.2.5-.5.9-1,1.3s-1,.5-1.6.5h-25.8v28.8c0,.7-.3,1.4-.8,1.9-.5.5-1.2.8-1.9.8h-81.7c-.7,0-1.4-.3-1.9-.8s-.8-1.2-.8-1.9v-28.8h-25.9c-.6,0-1.1-.1-1.5-.5-.5-.4-.8-.8-1-1.3-.2-.6-.2-1.1,0-1.7s.5-1,.9-1.4l69.4-54.8c.5-.4,1-.6,1.7-.6"/>
  </g>
  <g id="Capa_2">
    <g>
      <path class="st9" d="M375.9,157.4c2.5,77.9-11.9,133.7-43.5,167.3-12.4-14-21.5-29.3-27.2-45.9-.5,13.9-.7,27.9-.6,41.8l-38.4,11.4c1.2-4.3,2.2-9,3.1-14.2l-8.5,4.4c-3.9-14.2-14.2-24.6-31.1-31.3.8,5.7,1.9,11.3,3.3,16.9l-22.6,3.3c-1.6-10.2-2.6-20.3-3.1-30.3l-7.3.6-1.9-24.6,9,.2c.8-23.3,5-47.2,12.4-71.7-16.5-.7-30.1.8-41,4.6-.7,7.8-1.2,14.2-1.5,19.1l26.2-2.8c-1.7,8.1-2.8,16.3-3.4,24.5l-23.8,2.2c-.7,26.8,6.1,55.2,20.4,85.1l-34.2,17.4c-9.7-36.6-13.9-70-12.6-100l-11.3,1.1c-.2-8.5.4-16.8,2-24.6l11.2-1c1.7-15.6,4.4-30.6,8.1-45,23.4-6.8,48.3-9.6,74.4-8.4l-.7,8.2c48.4,51.2,51.9,88.2,10.5,110.9,13.8,3.8,23.6,8.1,29.5,13.1,2.6-21.5,4.4-50.9,5.3-88.1l6-1.2c-3.5-1.4-6.3-3.8-8.6-7.2-3.4-5-4.6-10.8-3.5-17.4.9-6.6,3.8-12,8.5-16.3,4.8-4.3,10.1-6.2,15.9-5.7,5.9.4,10.4,3.3,13.7,8.3,3.5,5,4.7,10.8,3.7,17.3-1,6.6-3.9,12.1-8.7,16.3l-.4.3,5.9-1.2c-.6,4.7-1.1,9.5-1.5,14.3l12.4-2.8c-4.2,29.2-.5,56.4,10.9,81.6,14.6-40.4,17.8-78.9,9.5-115.4l33.1-15M237.9,201.6c-5.6,21.5-8.7,40.2-9.5,56.3,28.4-4.5,31.6-23.3,9.5-56.3"/>
      <path class="st3" d="M414.4,282.5h-28.5l69.4-54.8,69.3,54.8h-28.5v31.5h-81.7v-31.5"/>
    </g>
  </g>
  <g id="Capa_3">
    <path class="st3" d="M415.7,282h-28.5l69.4-54.8,69.3,54.8h-28.5v31.5h-81.7v-31.5"/>
    <path class="st18" d="M414.4,282.5h-28.5l69.4-54.8,69.3,54.8h-28.5v31.5h-81.7v-31.5"/>
    <path class="st17" d="M375.9,157.4c2.5,77.9-11.9,133.7-43.5,167.3-12.4-14-21.5-29.3-27.2-45.9-.5,13.9-.7,27.9-.6,41.8l-38.4,11.4c1.2-4.3,2.2-9,3.1-14.2l-8.5,4.4c-3.9-14.2-14.2-24.6-31.1-31.3.8,5.7,1.9,11.3,3.3,16.9l-22.6,3.3c-1.6-10.2-2.6-20.3-3.1-30.3l-7.3.6-1.9-24.6,9,.2c.8-23.3,5-47.2,12.4-71.7-16.5-.7-30.1.8-41,4.6-.7,7.8-1.2,14.2-1.5,19.1l26.2-2.8c-1.7,8.1-2.8,16.3-3.4,24.5l-23.8,2.2c-.7,26.8,6.1,55.2,20.4,85.1l-34.2,17.4c-9.7-36.6-13.9-70-12.6-100l-11.3,1.1c-.2-8.5.4-16.8,2-24.6l11.2-1c1.7-15.6,4.4-30.6,8.1-45,23.4-6.8,48.3-9.6,74.4-8.4l-.7,8.2c48.4,51.2,51.9,88.2,10.5,110.9,13.8,3.8,23.6,8.1,29.5,13.1,2.6-21.5,4.4-50.9,5.3-88.1l6-1.2c-3.5-1.4-6.3-3.8-8.6-7.2-3.4-5-4.6-10.8-3.5-17.4.9-6.6,3.8-12,8.5-16.3,4.8-4.3,10.1-6.2,15.9-5.7,5.9.4,10.4,3.3,13.7,8.3,3.5,5,4.7,10.8,3.7,17.3-1,6.6-3.9,12.1-8.7,16.3l-.4.3,5.9-1.2c-.6,4.7-1.1,9.5-1.5,14.3l12.4-2.8c-4.2,29.2-.5,56.4,10.9,81.6,14.6-40.4,17.8-78.9,9.5-115.4l33.1-15M237.9,201.6c22,33.1,18.9,51.9-9.5,56.3.8-16.1,4-34.9,9.5-56.3"/>
  </g>
  <g id="Capa_7">
    <path class="st6" d="M438.8,275.9v-7.4h4.1v7.4h-4.1v3.7h-8.2v7.4h12.4v3.7h-16.5v-11.1h4.2v-3.7h8.2M430.5,268.5v-3.7h8.2v3.7h-8.2v3.7h-4.2v-3.7h4.2M447.1,286.9v-7.4h4.2v7.4h-4.2M447.1,275.9v-11.1h16.5v3.7h-12.4v3.7h8.2v3.7h-12.4M471.8,290.6v-3.7h8.3v3.7h-8.3M459.4,286.9v3.7h-8.2v-3.7h8.2v-11h4.1v11h-4.1M467.7,268.5h4.1v18.3h-4.1v-18.3M480.1,268.5h4v18.3h-4v-18.3h-8.3v-3.7h8.3v3.7"/>
  </g>
  <g id="Capa_4">
    <g>
      <path class="st9" d="M403.9,161.8c1.5,1.5,2.2,3.3,2.2,5.4s-.7,3.9-2.2,5.5c-1.5,1.5-3.3,2.2-5.4,2.2s-3.9-.7-5.4-2.2-2.2-3.3-2.2-5.5.7-3.9,2.2-5.4,3.3-2.2,5.4-2.2,3.9.7,5.4,2.2"/>
      <path class="st16" d="M403.9,161.8c1.5,1.5,2.2,3.3,2.2,5.4s-.7,3.9-2.2,5.5c-1.5,1.5-3.3,2.2-5.4,2.2s-3.9-.7-5.4-2.2-2.2-3.3-2.2-5.5.7-3.9,2.2-5.4,3.3-2.2,5.4-2.2,3.9.7,5.4,2.2Z"/>
      <path class="st6" d="M400.6,163.9c.5.4.7.9.7,1.6s-.4,1.5-1.4,2c.4.1.7.7,1.1,1.4l1,2.2h-2.1l-.7-1.4c-.4-.7-.7-1.2-.9-1.4-.2-.2-.5-.3-.7-.3h-.5v3.2h-2v-7.8h3.5c.7,0,1.4.2,1.9.7M397.2,166.4h1l.8-.2c.2-.1.4-.4.4-.7,0-.6-.4-.9-1.2-.9h-1v1.8"/>
      <path class="st6" d="M172.3,84.8l10.6,15.5,1.4,2.1c1.7-.8,3.5-1.2,5.4-1.2,3.6,0,6.7,1.2,9.3,3.8l2.1-1.4,15.3-9.7,2.1,3-9.2,6.4c3.6-1.2,7.4-2.2,11.2-3l7.5-1.4c6.2-1,12.6-1.7,19.1-1.9,27.5-.9,58.6,5.1,93.5,18l32.8,23c-2.1-1.1-4.3-2.1-6.4-3-11.1-5.2-21.8-9.8-32.1-13.7-32.7-12.4-62-18.3-87.7-17.6-6.6.1-13,.8-19.1,1.8-2.7.4-5.3,1-7.5,1.6-4.2,1.1-7.4,2.5-9.8,4.1-3.7,2.5-5.6,4.1-5.9,4.8s-.8,1.6-1.5,2.7l-2.1,3c-.7.9-2.4,2.1-5.1,3.5-2.7,1.5-4.8,2.4-6.4,2.6l-4.7.6c-1.5.1-7,2.9-16.3,8.2s-19.4,18.9-30.1,40.7l-.7,1.3c-5.8,12.1-10.8,25.5-15.1,40.5l-3.3-15.8c3.3-9.2,6.9-17.9,10.8-26,6.6-13.4,14-25.1,22.3-35.1l3.8-4.4-4.7,3-1.7-2.7,24.7-17,1.2-.9,1.2-.8c-.6-1.4-.9-3-.9-4.8,0-3.7,1.3-6.8,3.9-9.5l.2-.2-1.4-2.2-10-15.9,3.1-2"/>
      <path class="st0" d="M164,72.8l8.3,12.1-3.1,2-7.9-12.4,2.7-1.7M216.5,93.9l12-7.6,1.9,2.6-11.7,8-2.1-3M340.6,115.1c12.1,4.5,24.8,9.8,37.9,16,11,5.2,22.3,11,34,17.3l21.6,23.4c-21.2-13.2-41.5-24.5-60.7-33.9l-32.8-23M123,219c-1.4,4.7-2.6,9.5-3.8,14.5-1.1,4.7-2.1,9.3-3,13.9l-5.3-14.9c2.6-10.4,5.6-20.2,8.8-29.3l3.3,15.8M152,140.8l-13.6,8.6-1.4-2.2,13.3-9.2,1.7,2.7"/>
      <path class="st4" d="M147.2,48.5l9,13.1-2.2,1.4-8.6-13.5,1.7-1.2M240.3,78.8l13.8-8.7,1,1.7-13.4,9.2-1.4-2.2M412.5,148.5c10.9,5.9,22,12.4,33.5,19.4l18.3,23.7c-8.1-5.6-16.7-11.2-25.8-16.9l-4.5-2.8-21.6-23.4M116.2,247.5c-1.2,5.9-2.1,11.7-2.8,17.3l-.7,5.6-6.6-16.2c1-5.2,2.1-10.5,3.4-16l1.4-5.6,5.3,14.9M125,157.9l-12.8,8.1-.8-1.2,12.5-8.6,1.1,1.7"/>
      <path class="st13" d="M134.4,38.2c.1-1.1.7-2,1.5-2.9l.4-.4,1.2-.7c.7-.4,1.4-.5,2.2-.5l1.7.3v.6c0,1.2-.4,2.2-1.3,3.1h-.1c-.4.5-.8.8-1.3,1l-1.7.3c-1,0-1.9-.3-2.6-.8M266.6,62.2l30.6-19.4h0l-29.8,20.6-.8-1.2M446,167.9l10.1,6.3c12.3,7.7,23.6,15.2,34.2,22.7l6.7,18.9c-9.8-7.9-20.7-15.9-32.7-24.2l-18.3-23.7M112.7,270.3c-1.1,10.2-1.5,19.9-1.2,29l-9.5-17c.3-3.4.7-6.9,1.2-10.4.7-5.8,1.7-11.7,2.8-17.8l6.6,16.2M98.5,174.8l-18.1,11.5,17.6-12.1.4.7"/>
      <path class="st12" d="M490.4,196.9c11.1,7.7,21.1,15.3,30.3,22.7l10.1,27.3c-4.8-5.2-10.1-10.5-16-16-5.4-4.9-11.3-10-17.6-15.1l-6.7-18.9M111.5,299.3c.4,10.8,1.8,20.9,4.3,30.3l-14.6-23.9c-.1-7.4.1-15.2.9-23.3l9.5,17"/>
      <path class="st14" d="M290.7,343.2c39.8-.3,74-.4,102.3-.4,96.9.2,150.8-5.8,161.5-17.8-6.3,12.7-18.6,24.3-37,34.7-29,16.5-73.2,30.3-132.4,41.2-53.9,10-99.8,13.8-137.9,11.6-9.4-.6-18.3-1.5-26.7-2.8-9.8-1.5-19-3.5-27.6-6.1l-6.4-2c-22.8-8.7-39.9-14.4-51.2-17.3-4-1-7.3-1.7-9.9-2l-2.8-3.7c-6.6-9.2-11.8-19.6-15.3-31.2l-1-3.5h0l-3-13.3c12.1,6.1,31.5,10.4,58.3,12.9h7l1.4,5.3c.1.5.4,1,.8,1.4s.9.6,1.4.7c.5,0,1.1,0,1.6-.3l13.9-7h32.7c0,0,26.1.2,26.1.2h.6l27-.3v.5c-.4.7-.3,1.3,0,1.9.3.6.7,1,1.3,1.3h1.9c0,0,13.3-3.8,13.3-3.8M559.3,305.2c.1-7.8-1.7-16-5.4-24.5,2.6-10.2,2.6-20.4,0-30.6l3,3.2c7.8,8.7,14.2,17.1,18.9,25.2-4.3,11.3-9.8,20.2-16.5,26.6"/>
      <path class="st10" d="M134.4,38.2c.7.6,1.6.8,2.6.8l1.7-.3c.5-.2.9-.5,1.3-.9h.1c.9-1,1.3-2.1,1.3-3.3v-.6c.7.2,1.4.7,2.1,1.3,1,1.1,1.5,2.3,1.5,3.8s-.5,2.7-1.5,3.8h0l3.8,5.6-1.7,1.2-3.5-5.6c-.7.4-1.5.5-2.3.5-1.5,0-2.7-.5-3.8-1.6-1.1-1.1-1.6-2.3-1.6-3.8v-.9M254.1,70.1l12.4-7.9.8,1.2-12.2,8.4-1-1.7M112.2,166l-13.7,8.7-.4-.7,13.4-9.3.8,1.2"/>
      <path class="st15" d="M156.3,61.6l7.7,11.1-2.7,1.7-7.2-11.3,2.2-1.4M182.9,100.3c2.1-1,4.3-1.5,6.9-1.5,4.4,0,8.2,1.6,11.3,4.7h.1c0,.1-2.1,1.5-2.1,1.5-2.6-2.5-5.7-3.8-9.3-3.8s-3.8.4-5.4,1.2l-1.4-2.1M228.5,86.3l11.8-7.5,1.4,2.2-11.4,7.9-1.9-2.6M334.8,121.2c-39-13-68.2-18.3-87.7-16l-2.5.4c-10.3,1.7-18.4,3.4-24.1,5.1-5.1,1.5-8.3,3-9.8,4.4-3.3,3.2-5.6,5.9-7.3,8l-3,3.6c-2.4,2.2-5.3,3.5-8.6,3.7s-7.1,1.3-11.4,3.3c-15.5,8.5-29.3,23-41.6,43.6l-.8,1.3.7-1.3c10.8-21.8,20.8-35.4,30.1-40.7,9.3-5.3,14.7-8,16.3-8.2l4.7-.6c1.6-.2,3.7-1.1,6.4-2.6s4.3-2.7,5.1-3.5l2.1-3c.7-1.2,1.2-2.1,1.5-2.7.3-.7,2.2-2.3,5.9-4.8,2.4-1.7,5.6-3,9.8-4.1,2.2-.6,4.8-1.2,7.5-1.6,6.1-1,12.6-1.6,19.1-1.8,25.7-.7,54.9,5.3,87.7,17.6M138.4,149.4l-13.4,8.5-1.1-1.7,13.1-9.1,1.4,2.2M175,121c-.8-2-1.2-4-1.2-6.2,0-4.4,1.6-8.2,4.6-11.3l.8-.7,1.4,2.2-.2.2c-2.6,2.6-3.9,5.7-3.9,9.5s.3,3.3.9,4.8l-1.2.8-1.2.9"/>
      <path class="st1" d="M557,253.4c101.2,89.9,55.6,152.6-136.8,188-71.7,13.2-130.3,16.5-176,9.9-8.3-1.2-16.1-2.7-23.5-4.6-33.4-8.3-58.3-23.3-74.5-44.9,18.9,13.7,43.7,23,74.5,27.5,8.5,1.3,17.3,2.2,26.7,2.8,41.5,2.6,91.7-1.5,150.8-12.4,157-29,216.3-76,177.8-141.2-4.8-8.2-11.1-16.5-18.9-25.2"/>
      <path class="st5" d="M141.4,34l-1.7-.3c-.8,0-1.6.1-2.2.5l-1.2.7-.4.4c-.9.9-1.4,1.8-1.5,2.9l-.6-.5c-.9-.9-1.3-2-1.3-3.1s.4-2.3,1.3-3.2h.1c0-.1-16.6-26.4-16.6-26.4l17.6,25.5c.6-.3,1.3-.5,2-.5,1.2,0,2.3.4,3.2,1.3.7.7,1.2,1.6,1.3,2.6"/>
      <path class="st7" d="M195.9,80.5c.5,1,.8,2.2.8,3.5,0,2.3-.8,4.3-2.5,5.9-1.7,1.7-3.6,2.5-5.9,2.5-2.3,0-4.3-.9-5.9-2.5-1.7-1.7-2.5-3.6-2.5-5.9s.4-3.1,1.2-4.4c2.2,2.1,4.9,3.1,8,3.1s4.8-.7,6.8-2.1"/>
      <path class="st5" d="M181.1,79.5l1.2-1.4c1.7-1.7,3.6-2.5,5.9-2.5s4.3.8,5.9,2.5c.7.7,1.3,1.5,1.7,2.5-2,1.4-4.3,2.1-6.8,2.1s-5.8-1-8-3.1"/>
      <path class="st7" d="M181.1,79.5l-.5-.5c-2.4-2.4-3.6-5.2-3.6-8.5s1.2-6.2,3.6-8.6c2.3-2.3,5.1-3.5,8.5-3.5s6.2,1.2,8.6,3.5c2.3,2.4,3.5,5.2,3.5,8.6s-1.2,6.1-3.5,8.5c-.6.6-1.2,1.1-1.8,1.5-.4-.9-.9-1.7-1.7-2.5-1.7-1.7-3.6-2.5-5.9-2.5s-4.3.8-5.9,2.5l-1.2,1.4"/>
      <path class="st14" d="M412.2,180.5c0,2.5-.9,4.5-2.5,6.3-1.7,1.7-3.8,2.6-6.2,2.6s-4.5-.9-6.2-2.6-2.5-3.8-2.5-6.3.9-4.5,2.5-6.2c1.7-1.7,3.8-2.6,6.2-2.6s4.5.9,6.2,2.6,2.5,3.8,2.5,6.2"/>
    </g>
    <path class="st8" d="M555.2,325.3c3.1-6.4,4.8-12.9,4.9-19.9,6.7-6.4,12.3-15.2,16.5-26.6,38.4,65.2-20.9,112.3-177.8,141.2-59.1,10.9-109.4,15.1-150.8,12.4-9.3-.6-18.2-1.5-26.7-2.8-30.8-4.6-55.6-13.8-74.5-27.5-7.9-5.7-14.7-12.3-20.5-19.5,2.6.3,5.9,1,9.9,2,11.3,2.9,28.4,8.6,51.2,17.3l6.4,2c8.5,2.5,17.7,4.6,27.6,6.1,8.4,1.3,17.3,2.2,26.7,2.8,38,2.2,83.9-1.6,137.9-11.6,59.2-10.9,103.4-24.6,132.4-41.2,18.4-10.5,30.8-22,37-34.7"/>
  </g>
</svg>