<?xml version="1.0" encoding="UTF-8"?>
<svg xmlns="http://www.w3.org/2000/svg" version="1.1" xmlns:ffdec="https://www.free-decompiler.com/flash" xmlns:xlink="http://www.w3.org/1999/xlink" viewBox="0 0 672.9 465.2">
  <!-- Generator: Adobe Illustrator 29.5.1, SVG Export Plug-In . SVG Version: 2.1.0 Build 141)  -->
  <defs>
    <style>
      .st0 {
        fill-opacity: .8;
      }

      .st0, .st1, .st2, .st3, .st4, .st5, .st6, .st7, .st8, .st9, .st10, .st11, .st12, .st13, .st14, .st15, .st16, .st17, .st18 {
        fill-rule: evenodd;
      }

      .st0, .st1, .st5, .st7, .st10, .st11, .st12, .st13, .st16, .st17, .st18 {
        fill: #fff;
      }

      .st1 {
        fill-opacity: .3;
      }

      .st2 {
        fill: url(#Degradado_sin_nombre);
      }

      .st3, .st12 {
        fill-opacity: .1;
      }

      .st19 {
        stroke-width: 5px;
      }

      .st19, .st20 {
        stroke: #970000;
      }

      .st19, .st20, .st21 {
        fill: none;
        stroke-linecap: round;
        stroke-linejoin: round;
      }

      .st4 {
        fill: #00da68;
      }

      .st5 {
        fill-opacity: .6;
      }

      .st6 {
        fill-opacity: 0;
      }

      .st8 {
        fill: #f04;
      }

      .st9, .st10 {
        fill-opacity: .3;
      }

      .st11 {
        fill-opacity: .1;
      }

      .st20, .st21 {
        stroke-width: 7.5px;
      }

      .st13 {
        fill-opacity: .7;
      }

      .st15 {
        fill-opacity: 0;
      }

      .st22 {
        opacity: 0;
      }

      .st16 {
        fill-opacity: .2;
      }

      .st17 {
        fill-opacity: .5;
      }

      .st21 {
        stroke: #0e9033;
      }

      .st18 {
        fill-opacity: .4;
      }
    </style>
    <linearGradient id="Degradado_sin_nombre" data-name="Degradado sin nombre" x1="-3301.1" y1="685.4" x2="-1662.7" y2="685.4" gradientTransform="translate(1263.3 -12025.7) rotate(-90) scale(4 -1.4)" gradientUnits="userSpaceOnUse">
      <stop offset="0" stop-color="red"/>
      <stop offset=".2" stop-color="#ff0"/>
      <stop offset=".4" stop-color="lime"/>
      <stop offset=".5" stop-color="aqua"/>
      <stop offset=".7" stop-color="blue"/>
      <stop offset=".8" stop-color="#f0f"/>
      <stop offset="1" stop-color="red"/>
    </linearGradient>
  </defs>
  <g id="Capa_1" ffdec:objectType="shape">
    <path class="st2" d="M491.4,106.9c266.3,167.7,239.5,281-80.4,340C91.1,505.9-42.1,422.1,11.6,195.4,65.2-31.2,225.1-60.7,491.4,106.9"/>
  </g>
  <g id="Capa_6">
    <path class="st3" d="M92.4,339.3c-11.8-46.5-17.1-89.2-15.9-128l-11.4,1.1c-.7,0-1.3,0-2-.4-.7-.3-1.2-.8-1.5-1.3-.4-.6-.6-1.3-.6-2-.3-12.1.7-23.8,2.9-34.9.1-.8.5-1.5,1.1-2,.6-.6,1.2-.9,2-1l12.7-1.2c2.3-20.6,6-40.5,11-59.8.1-.6.4-1.2.9-1.6.5-.5,1-.8,1.6-1,22.7-6.6,46.3-10.5,70.8-11.7l3.4-.2h4.2c8.5-.4,17.2-.3,25.9.1.7,0,1.3.2,1.9.6.6.4,1,.8,1.3,1.5l.2.7v1.3c.1,0-.7,9.7-.7,9.7l.7.8c32.8,35.1,50.5,65.5,53,91.2l1.4-41.1c0-.9.3-1.6.9-2.3.4-.5.8-.8,1.4-1.1-1.9-1.7-3.6-3.8-5.2-6.1-5.3-7.7-7.1-16.6-5.5-26.8h0c1.4-10,5.8-18.3,13.1-24.7h0c7.5-6.8,15.8-9.8,24.9-8.9h0c9.3.7,16.5,5.1,21.9,13.2,5.3,7.6,7.2,16.5,5.7,26.6-1,6.5-3.1,12.3-6.6,17.4h.1c.7.4,1.3.9,1.7,1.6.4.7.5,1.4.5,2.2-.6,4.8-1.2,9.6-1.7,14.5l12.2-2.8,2.3.2c.7.3,1.3.9,1.8,1.6.4.7.6,1.5.5,2.3-5.2,36.3-1.5,70.2,11,101.9,17.2-51.8,20.5-101.3,10-148.5-.2-.9-.1-1.7.3-2.5.4-.8,1-1.4,1.9-1.8,15.3-6.9,30.6-13.8,45.9-20.7.8-.4,1.5-.4,2.3-.2.8.2,1.5.6,2.1,1.3.5.6.8,1.4.9,2.2,3.6,109.1-16.9,187.2-61.2,234.3-.5.5-1.1.9-1.8,1h-2.1c-.7-.2-1.3-.6-1.8-1.1-13.2-15-23.8-31-31.5-48-.3,13.2-.4,26.5-.2,39.8,0,.8-.2,1.6-.7,2.3-.5.7-1.1,1.1-1.9,1.4l-34.8,10.3-18.4,5.5h-2.6c-.9-.5-1.5-1.2-1.8-2-.4-.8-.5-1.7-.2-2.6l.2-.7,2.6-11.1-4.8,2.5c-.7.3-1.4.5-2.1.4-.8-.1-1.4-.4-2.1-.9-.6-.5-1-1.1-1.2-1.8-4.2-15.2-14.1-27.1-29.8-35.6-1.6-.9-3.3-1.8-5-2.6.9,5.5,2.1,10.9,3.4,16.3.2.7.1,1.4,0,2l-1.1,1.7c-.6.5-1.2.8-1.9.9l-31.3,4.5h-.9c-.7,0-1.3-.2-1.9-.6-.8-.6-1.3-1.5-1.5-2.5-2-12.9-3.4-25.7-4.1-38.4l-6.2.5c-1.1,0-2-.2-2.8-.9-.8-.7-1.3-1.5-1.4-2.5l-2.6-34.1c0-.7,0-1.4.5-2,.3-.7.8-1.2,1.4-1.5.6-.4,1.3-.6,2-.6l8.7.2c.9-19.7,3.5-39.7,7.8-59.9,2.2-10.6,4.9-21.2,8.1-31.9h-8.1c-15.5.1-28.9,2-40.2,5.5-.7,7.5-1.2,14-1.5,19.6l31.8-3.4c.8-.1,1.6,0,2.2.4.7.4,1.2,1,1.6,1.8.3.7.4,1.5.2,2.3-2.3,11-3.8,22.2-4.6,33.4,0,.9-.4,1.7-1.1,2.4-.7.6-1.5,1-2.4,1.1l-29.6,2.8c-.3,35.6,9,73.2,28,112.8.4.9.5,1.8.1,2.8-.3,1-.9,1.7-1.9,2.1l-28.1,14.4-19.2,9.7c-.7.3-1.4.5-2.2.4-.8-.1-1.4-.4-2-.9-.6-.5-1-1.2-1.1-1.9l-1.9-7.3M204,169.8l-3.1,13.2c-4,18.6-6.6,35.6-7.6,50.9,2.8-.6,5.3-1.3,7.6-2.2,10-3.7,15.8-9.7,17.4-18.1,1.6-10.9-3.1-25.5-14.4-43.9M248.6,275.2c1.7-15.5,3.1-33.6,4.2-54.2-3.6,16.3-14.5,30.2-32.7,41.9,12,3.7,21.5,7.9,28.5,12.4"/>
  </g>
  <g id="Capa_5" class="st22">
    <path class="st14" d="M497.8,183.2c.9,0,1.7.3,2.4.8l96,75.9c.6.5,1,1.1,1.2,1.9.2.8.2,1.5,0,2.3-.3.7-.7,1.3-1.4,1.8-.7.5-1.4.7-2.2.7h-35.7v39.9c0,1-.4,1.9-1.1,2.6-.7.7-1.6,1.1-2.6,1.1h-113.1c-1,0-1.9-.4-2.6-1.1-.7-.7-1.1-1.6-1.1-2.6v-39.9h-35.8c-.8,0-1.5-.2-2.1-.7-.7-.5-1.1-1.1-1.4-1.8-.3-.8-.3-1.5,0-2.3s.7-1.4,1.3-1.9l96.1-75.9c.7-.5,1.4-.8,2.3-.8"/>
  </g>
  <g id="Capa_2">
    <g>
      <path class="st8" d="M379.5,81.5c3.5,107.9-16.5,185.1-60.2,231.6-17.2-19.4-29.7-40.6-37.6-63.6-.7,19.2-1,38.6-.8,57.9l-53.2,15.8c1.6-5.9,3-12.5,4.3-19.6l-11.7,6.1c-5.4-19.7-19.7-34.1-43.1-43.3,1.1,7.9,2.6,15.7,4.5,23.4l-31.3,4.6c-2.2-14.1-3.6-28.1-4.3-41.9l-10.1.8-2.6-34.1,12.4.3c1.1-32.3,6.9-65.4,17.2-99.3-22.8-1-41.7,1.1-56.7,6.3-1,10.8-1.7,19.6-2.1,26.5l36.3-3.9c-2.3,11.2-3.9,22.5-4.7,33.9l-32.9,3.1c-1,37.1,8.4,76.4,28.3,117.8l-47.3,24.1c-13.4-50.7-19.3-96.9-17.5-138.5l-15.7,1.5c-.3-11.8.6-23.2,2.8-34.1l15.5-1.4c2.3-21.6,6.1-42.3,11.2-62.3,32.4-9.4,66.8-13.3,103-11.6l-1,11.3c67,70.9,71.8,122.1,14.5,153.5,19.1,5.2,32.7,11.2,40.8,18.1,3.6-29.8,6.1-70.5,7.4-122l8.3-1.7c-4.8-1.9-8.7-5.2-11.9-9.9-4.7-6.9-6.3-14.9-4.9-24.1,1.3-9.1,5.2-16.6,11.8-22.5,6.6-6,14-8.6,22-7.9,8.1.6,14.4,4.5,19,11.5,4.8,6.9,6.5,14.9,5.1,24-1.4,9.2-5.4,16.7-12,22.6l-.5.4,8.1-1.6c-.8,6.5-1.5,13.1-2.1,19.8l17.2-3.9c-5.8,40.4-.7,78.1,15.1,112.9,20.2-55.9,24.6-109.2,13.2-159.8l45.8-20.7M188.4,142.7c-7.7,29.7-12.1,55.7-13.2,78,39.3-6.2,43.7-32.2,13.2-78"/>
      <path class="st4" d="M432.8,254.7h-39.5l96.1-75.8,96,75.8h-39.5v43.6h-113.1v-43.6"/>
    </g>
  </g>
  <g id="Capa_3">
    <path class="st4" d="M434.5,253.9h-39.5l96.1-75.8,96,75.8h-39.5v43.6h-113.1v-43.6"/>
    <path class="st21" d="M432.8,254.7h-39.5l96.1-75.8,96,75.8h-39.5v43.6h-113.1v-43.6"/>
    <path class="st20" d="M379.5,81.5c3.5,107.9-16.5,185.1-60.2,231.6-17.2-19.4-29.7-40.6-37.6-63.6-.7,19.2-1,38.6-.8,57.9l-53.2,15.8c1.6-5.9,3-12.5,4.3-19.6l-11.7,6.1c-5.4-19.7-19.7-34.1-43.1-43.3,1.1,7.9,2.6,15.7,4.5,23.4l-31.3,4.6c-2.2-14.1-3.6-28.1-4.3-41.9l-10.1.8-2.6-34.1,12.4.3c1.1-32.3,6.9-65.4,17.2-99.3-22.8-1-41.7,1.1-56.7,6.3-1,10.8-1.7,19.6-2.1,26.5l36.3-3.9c-2.3,11.2-3.9,22.5-4.7,33.9l-32.9,3.1c-1,37.1,8.4,76.4,28.3,117.8l-47.3,24.1c-13.4-50.7-19.3-96.9-17.5-138.5l-15.7,1.5c-.3-11.8.6-23.2,2.8-34.1l15.5-1.4c2.3-21.6,6.1-42.3,11.2-62.3,32.4-9.4,66.8-13.3,103-11.6l-1,11.3c67,70.9,71.8,122.1,14.5,153.5,19.1,5.2,32.7,11.2,40.8,18.1,3.6-29.8,6.1-70.5,7.4-122l8.3-1.7c-4.8-1.9-8.7-5.2-11.9-9.9-4.7-6.9-6.3-14.9-4.9-24.1,1.3-9.1,5.2-16.6,11.8-22.5,6.6-6,14-8.6,22-7.9,8.1.6,14.4,4.5,19,11.5,4.8,6.9,6.5,14.9,5.1,24-1.4,9.2-5.4,16.7-12,22.6l-.5.4,8.1-1.6c-.8,6.5-1.5,13.1-2.1,19.8l17.2-3.9c-5.8,40.4-.7,78.1,15.1,112.9,20.2-55.9,24.6-109.2,13.2-159.8l45.8-20.7M188.4,142.7c30.5,45.8,26.1,71.8-13.2,78,1.1-22.3,5.5-48.3,13.2-78"/>
  </g>
  <g id="Capa_7">
    <path class="st7" d="M466.5,245.5v-10.2h5.7v10.2h-5.7v5.1h-11.4v10.2h17.1v5.1h-22.9v-15.3h5.8v-5.1h11.4M455.1,235.3v-5.1h11.4v5.1h-11.4v5.1h-5.8v-5.1h5.8M478,260.7v-10.2h5.8v10.2h-5.8M478,245.5v-15.3h22.9v5.1h-17.1v5.1h11.4v5.1h-17.1M512.2,265.8v-5.1h11.5v5.1h-11.5M495.1,260.7v5.1h-11.4v-5.1h11.4v-15.2h5.7v15.2h-5.7M506.5,235.3h5.7v25.4h-5.7v-25.4M523.7,235.3h5.6v25.4h-5.6v-25.4h-11.5v-5.1h11.5v5.1"/>
  </g>
  <g id="Capa_4">
    <g>
      <path class="st8" d="M418.2,87.6c2.1,2.1,3.1,4.6,3.1,7.5s-1,5.4-3.1,7.6c-2.1,2.1-4.6,3.1-7.5,3.1s-5.4-1-7.5-3.1c-2.1-2.1-3.1-4.6-3.1-7.6s1-5.4,3.1-7.5c2.1-2.1,4.6-3.1,7.5-3.1,2.9,0,5.4,1,7.5,3.1"/>
      <path class="st19" d="M418.2,87.6c2.1,2.1,3.1,4.6,3.1,7.5s-1,5.4-3.1,7.6c-2.1,2.1-4.6,3.1-7.5,3.1s-5.4-1-7.5-3.1c-2.1-2.1-3.1-4.6-3.1-7.6s1-5.4,3.1-7.5c2.1-2.1,4.6-3.1,7.5-3.1,2.9,0,5.4,1,7.5,3.1Z"/>
      <path class="st7" d="M413.6,90.4c.7.6,1,1.3,1,2.2,0,1.2-.6,2.1-1.9,2.7.5.2,1,.9,1.5,2l1.4,3h-2.9l-.9-2c-.5-1-.9-1.6-1.2-1.9-.3-.3-.7-.4-1-.4h-.7v4.4h-2.8v-10.8h4.9c1,0,1.9.3,2.6.9M408.9,93.9h1.4l1.1-.3c.3-.2.5-.5.5-.9,0-.8-.5-1.2-1.6-1.2h-1.4v2.5"/>
      <path class="st7" d="M97.6-19l14.7,21.4,2,2.9c2.3-1.1,4.8-1.6,7.5-1.6,5,0,9.3,1.7,12.9,5.2l2.9-1.9,21.2-13.4,2.9,4.2-12.8,8.8c5-1.6,10.2-3,15.5-4.2l10.4-2c8.6-1.4,17.4-2.3,26.5-2.6,38-1.2,81.1,7.1,129.4,24.9l45.4,31.8c-2.9-1.5-5.9-2.9-8.8-4.2-15.3-7.2-30.2-13.6-44.5-19-45.3-17.1-85.8-25.3-121.4-24.4-9.2.2-18,1.1-26.5,2.5-3.8.6-7.3,1.4-10.4,2.2-5.8,1.5-10.3,3.4-13.6,5.7-5.1,3.5-7.8,5.7-8.2,6.6-.4.9-1.1,2.2-2.1,3.8l-2.9,4.2c-1,1.2-3.3,2.9-7,4.9-3.7,2.1-6.7,3.3-8.8,3.6l-6.5.8c-2.1.2-9.7,4-22.6,11.3-12.9,7.3-26.8,26.1-41.7,56.3l-.9,1.8c-8,16.7-15,35.3-20.9,56l-4.5-21.9c4.5-12.8,9.5-24.8,15-36,9.1-18.5,19.4-34.7,30.9-48.6l5.3-6.1-6.5,4.2-2.3-3.8,34.2-23.6,1.7-1.2,1.6-1.1c-.8-2-1.2-4.2-1.2-6.6,0-5.1,1.8-9.4,5.4-13.1l.3-.3-1.9-3-13.9-22,4.3-2.8"/>
      <path class="st0" d="M86.1-35.7l11.5,16.8-4.3,2.8-11-17.2,3.8-2.3M158.8-6.4l16.6-10.5,2.6,3.6-16.2,11.1-2.9-4.2M330.6,22.9c16.8,6.2,34.3,13.6,52.4,22.2,15.2,7.2,30.9,15.2,47.1,24l29.9,32.4c-29.4-18.3-57.5-33.9-84-46.9l-45.4-31.8M29.3,166.8c-1.9,6.5-3.6,13.2-5.2,20.1-1.5,6.5-2.9,12.9-4.1,19.2l-7.3-20.6c3.6-14.4,7.7-27.9,12.2-40.6l4.5,21.9M69.5,58.5l-18.8,11.9-2-3.1,18.4-12.7,2.3,3.8"/>
      <path class="st5" d="M62.9-69.3l12.5,18.2-3,2-11.9-18.7,2.3-1.6M191.8-27.3l19.1-12.1,1.4,2.4-18.6,12.7-2-3M430.1,69.1c15.1,8.2,30.5,17.2,46.4,26.9l25.4,32.8c-11.2-7.7-23.1-15.5-35.7-23.4l-6.2-3.9-29.9-32.4M19.9,206.2c-1.6,8.2-2.9,16.2-3.9,23.9l-.9,7.7-9.2-22.4c1.4-7.2,2.9-14.6,4.7-22.1l1.9-7.7,7.3,20.6M32.1,82.2l-17.7,11.2-1.1-1.7,17.3-11.9,1.5,2.3"/>
      <path class="st18" d="M45.1-83.6c.2-1.5.9-2.8,2.1-4l.5-.5,1.6-1c.9-.5,2-.7,3.1-.7l2.4.4v.8c0,1.7-.6,3.1-1.8,4.3l-.2.2c-.5.5-1.1.9-1.8,1.2l-2.4.4c-1.4,0-2.6-.4-3.6-1.1M228.1-50.3l42.3-26.8h0c0,0-41.2,28.5-41.2,28.5l-1.1-1.6M476.5,96l14,8.7c17,10.7,32.7,21.1,47.4,31.4l9.3,26.2c-13.5-10.9-28.6-22-45.3-33.5l-25.4-32.8M15.1,237.8c-1.5,14.1-2.1,27.5-1.6,40.2L.4,254.5c.4-4.7.9-9.6,1.6-14.4,1-8,2.3-16.2,3.9-24.6l9.2,22.4M-4.6,105.5l-25,15.9,24.4-16.8.6.9"/>
      <path class="st16" d="M537.9,136.1c15.3,10.7,29.2,21.2,41.9,31.4l14,37.8c-6.6-7.2-14-14.6-22.2-22.1-7.5-6.8-15.6-13.8-24.4-20.9l-9.3-26.2M13.5,277.9c.6,15,2.5,29,5.9,41.9L-.8,286.7c-.2-10.3.2-21,1.2-32.2l13.1,23.5"/>
      <path class="st6" d="M261.5,338.7c55.1-.4,102.4-.6,141.6-.5,134.2.3,208.7-8,223.5-24.6-8.7,17.6-25.8,33.6-51.2,48.1-40.2,22.9-101.3,41.9-183.3,57-74.6,13.8-138.2,19.1-190.9,16-13-.8-25.3-2.1-36.9-3.9-13.6-2.1-26.3-4.9-38.2-8.4l-8.8-2.8c-31.5-12-55.2-19.9-70.9-23.9-5.6-1.4-10.1-2.4-13.7-2.8l-3.9-5.1c-9.2-12.8-16.3-27.2-21.2-43.2l-1.4-4.9h0c0,0,0,0,0,0l-4.1-18.4c16.7,8.4,43.6,14.4,80.7,17.9h9.7l1.9,7.3c.2.7.5,1.4,1.1,1.9.6.5,1.2.8,2,.9.7,0,1.5,0,2.2-.4l19.2-9.7h45.2c0,.1,36.1.3,36.1.3h.8l37.4-.4-.2.7c-.3.9-.2,1.8.2,2.6.4.8,1,1.4,1.8,1.8h2.6c0,.1,18.4-5.3,18.4-5.3M633.4,286.1c.2-10.8-2.3-22.1-7.5-33.9,3.6-14.1,3.6-28.2,0-42.3l4.1,4.4c10.8,12,19.6,23.7,26.2,34.9-5.9,15.7-13.5,28-22.9,36.8"/>
      <path class="st17" d="M45.1-83.6c1,.8,2.2,1.1,3.6,1.1l2.4-.4c.7-.3,1.3-.7,1.8-1.2l.2-.2c1.2-1.2,1.8-2.7,1.8-4.3v-.8c1,.3,2,.9,2.9,1.8,1.4,1.5,2.1,3.2,2.1,5.3s-.7,3.8-2.1,5.3h0c0,0,5.2,7.7,5.2,7.7l-2.3,1.6-4.9-7.8c-1,.5-2.1.7-3.2.7-2.1,0-3.8-.7-5.2-2.2-1.5-1.5-2.2-3.2-2.2-5.3v-1.3M210.9-39.4l17.2-10.9,1.1,1.6-16.9,11.6-1.4-2.4M14.4,93.4l-19,12.1-.6-.9,18.5-12.9,1.1,1.7"/>
      <path class="st13" d="M75.5-51.1l10.6,15.4-3.8,2.3-9.9-15.7,3-2M112.3,2.4c2.9-1.4,6-2.1,9.5-2.1,6.1,0,11.3,2.2,15.7,6.5l.2.2-2.9,1.9c-3.6-3.5-7.9-5.2-12.9-5.2s-5.2.5-7.5,1.6l-2-2.9M175.4-16.9l16.4-10.4,2,3-15.8,11-2.6-3.6M322.6,31.4c-54-18-94.4-25.4-121.4-22.1l-3.4.5c-14.3,2.4-25.5,4.7-33.4,7.1-7,2.1-11.5,4.1-13.6,6.1-4.5,4.4-7.8,8.1-10.1,11.1l-4.1,5c-3.3,3.1-7.3,4.8-11.9,5.1-4.6.3-9.8,1.8-15.8,4.5-21.4,11.7-40.6,31.8-57.6,60.3l-1.1,1.8.9-1.8c14.9-30.2,28.8-49,41.7-56.3,12.9-7.3,20.4-11.1,22.6-11.3l6.5-.8c2.2-.3,5.1-1.5,8.8-3.6,3.7-2.1,6-3.7,7-4.9l2.9-4.2c1-1.6,1.7-2.9,2.1-3.8.4-1,3.1-3.2,8.2-6.6,3.3-2.3,7.8-4.2,13.6-5.7,3.1-.8,6.6-1.6,10.4-2.2,8.5-1.4,17.4-2.2,26.5-2.5,35.6-.9,76,7.3,121.4,24.4M50.7,70.4l-18.6,11.8-1.5-2.3,18.1-12.6,2,3.1M101.3,31.1c-1.1-2.7-1.6-5.6-1.6-8.6,0-6.1,2.2-11.3,6.4-15.6l1.1-1,1.9,3-.3.3c-3.6,3.6-5.4,7.9-5.4,13.1s.4,4.6,1.2,6.6l-1.6,1.1-1.7,1.2"/>
      <path class="st9" d="M630.1,214.3c140.1,124.4,77,211.2-189.4,260.3-99.2,18.3-180.4,22.9-243.7,13.7-11.5-1.7-22.3-3.8-32.6-6.3-46.3-11.5-80.7-32.2-103.1-62.1,26.1,19,60.5,31.8,103.1,38.1,11.7,1.8,24,3.1,36.9,3.9,57.4,3.6,127-2.1,208.8-17.2,217.3-40.1,299.4-105.2,246.2-195.4-6.6-11.3-15.4-22.9-26.2-34.9"/>
      <path class="st10" d="M54.8-89.4l-2.4-.4c-1.1,0-2.2.2-3.1.7l-1.6,1-.5.5c-1.2,1.2-1.9,2.5-2.1,4l-.8-.7c-1.2-1.2-1.8-2.7-1.8-4.3,0-1.7.6-3.2,1.8-4.4l.2-.2-23-36.3,24.4,35.3c.8-.4,1.8-.7,2.8-.7,1.7,0,3.2.6,4.4,1.8,1,1,1.6,2.2,1.8,3.6"/>
      <path class="st12" d="M130.3-25c.7,1.4,1.1,3,1.1,4.8,0,3.2-1.1,5.9-3.4,8.2-2.3,2.3-5,3.5-8.2,3.4-3.2,0-5.9-1.2-8.2-3.4-2.3-2.3-3.4-5-3.4-8.2s.6-4.3,1.7-6.1c3.1,2.9,6.8,4.3,11.1,4.3s6.7-1,9.4-2.9"/>
      <path class="st1" d="M109.8-26.4l1.7-2c2.3-2.3,5-3.5,8.2-3.5,3.2,0,5.9,1.1,8.2,3.5,1,1,1.8,2.1,2.3,3.4-2.7,1.9-5.9,2.9-9.4,2.9s-8-1.4-11.1-4.3"/>
      <path class="st11" d="M109.8-26.4l-.7-.7c-3.3-3.3-5-7.2-5-11.8s1.7-8.6,5-11.9c3.2-3.2,7.1-4.9,11.8-4.9s8.6,1.6,11.9,4.9c3.2,3.3,4.9,7.2,4.9,11.9s-1.6,8.5-4.9,11.8c-.8.8-1.6,1.5-2.5,2.1-.6-1.3-1.3-2.4-2.3-3.4-2.3-2.3-5-3.5-8.2-3.5-3.2,0-5.9,1.1-8.2,3.5l-1.7,2"/>
      <path class="st15" d="M429.7,113.4c0,3.4-1.2,6.2-3.5,8.7-2.4,2.4-5.3,3.6-8.6,3.6s-6.2-1.2-8.6-3.6-3.5-5.3-3.5-8.7c0-3.3,1.2-6.2,3.5-8.6,2.4-2.4,5.2-3.6,8.6-3.6,3.4,0,6.2,1.2,8.6,3.6,2.4,2.4,3.5,5.3,3.5,8.6"/>
    </g>
    <path class="st3" d="M627.6,313.9c4.3-8.8,6.6-17.9,6.8-27.5,9.3-8.9,17-21.1,22.9-36.8,53.2,90.2-28.9,155.4-246.2,195.4-81.8,15.1-151.4,20.9-208.8,17.2-12.9-.8-25.2-2.1-36.9-3.9-42.6-6.4-77-19.1-103.1-38.1-10.9-7.9-20.4-17-28.4-27,3.6.4,8.1,1.4,13.7,2.8,15.7,4,39.3,11.9,70.9,23.9l8.8,2.8c11.8,3.5,24.5,6.3,38.2,8.4,11.6,1.8,23.9,3.1,36.9,3.9,52.6,3.1,116.2-2.2,190.9-16,82-15.1,143.1-34.1,183.3-57,25.5-14.5,42.6-30.5,51.2-48.1"/>
  </g>
</svg>