<?xml version="1.0" encoding="UTF-8"?>
<svg id="Capa_1" data-name="Capa 1" xmlns="http://www.w3.org/2000/svg" width="41.2" height="41.95" viewBox="0 0 41.2 41.95">
  <path d="M2.25,36.95l-.8-.75,1.95-1.7.3.35-1.45,2.1M35.8,1.7l.6.8-2.25,1.25-.3-.4,1.95-1.65" fill="#cbcbde" fill-rule="evenodd"/>
  <path d="M.85,35.4l-.45-.9,2.45-.85.25.5-2.25,1.25M34.15.5l.9.5-1.65,2-.45-.25,1.2-2.25" fill="#f2f2f7" fill-rule="evenodd"/>
  <path d="M3.05,37.4l-.8-.45,1.45-2.1.45.25-1.1,2.3M36.4,2.5l.45.8-2.45.85-.15-.3-.1-.1,2.25-1.25" fill="#b7b7d2" fill-rule="evenodd"/>
  <path d="M1.45,36.2l-.6-.8,2.25-1.25.3.35-1.95,1.7M35.05,1l.75.7-1.95,1.65-.45-.35,1.65-2" fill="#dedeeb" fill-rule="evenodd"/>
  <path d="M37.25,4.65l.05.85v26.9c0,1.53-.55,2.85-1.65,3.95s-2.33,1.62-3.8,1.65H5.45l-.85-.05-.2-.05c-.47-.1-.92-.27-1.35-.5l1.1-2.3,1.3.25h26.4c.77,0,1.45-.28,2.05-.85.57-.6.83-1.3.8-2.1V7.7l-.05-2.8-.25-.75,2.45-.85.2.55.15.6.05.2" fill="#a4a4c6" fill-rule="evenodd"/>
  <path d="M.4,34.5c-.27-.67-.4-1.37-.4-2.1V5.5c0-1.53.53-2.85,1.6-3.95C2.67.48,3.95-.03,5.45,0h26.4c.83-.03,1.6.13,2.3.5l-1.2,2.25-1.1-.1H5.45c-.77-.03-1.45.22-2.05.75v.05l-.3.4c-.23.33-.38.68-.45,1.05l-.05,2.35v25.15c-.03.47.05.88.25,1.25l-2.45.85" fill="#fff" fill-rule="evenodd"/>
  <path d="M32.95,2.75l.45.25.45.35.3.4.1.1.15.3.25.75.05,2.8c-10.23-2.9-20.93-3.05-32.1-.45l.05-2.35c.07-.37.22-.72.45-1.05l.3-.4v-.05c.6-.53,1.28-.78,2.05-.75h26.4l1.1.1" fill="rgba(255, 255, 255, .25)" fill-rule="evenodd"/>
</svg>