<?xml version="1.0" encoding="UTF-8"?>
<svg id="Capa_1" data-name="Capa 1" xmlns="http://www.w3.org/2000/svg" width="54.48" height="42.41" viewBox="0 0 54.48 42.41">
  <path d="M7.05,9.46L.85,1.96C.15,1.19-.12.66.05.36.21-.01.83-.09,1.9.11l34.05,5.75,6.75,1.95c-23.73-4.6-31.25-3.45-22.55,3.45,1.23.97,2.75,2.02,4.55,3.15l1.9,1.25,2.25,1.35,5.4,3.15.75,13.3-.8-3c-2.33-7.13-7.33-13.48-15-19.05L4.15,2.71c1.57,2.17,2.53,4.42,2.9,6.75" fill="#93daff" fill-rule="evenodd"/>
  <path d="M26.15,32.76L7.05,9.46c-.37-2.33-1.33-4.58-2.9-6.75l15.05,8.7c7.67,5.57,12.67,11.92,15,19.05l.8,3,.2,3.55c-.83-2.33-1.92-4.65-3.25-6.95-4-7-10.15-13.82-18.45-20.45,7.03,7.3,11.25,15.02,12.65,23.15M53.25,10.66l-7.3,3.6c-3.3,1.53-6.53,2.65-9.7,3.35l-.3.05c-2.9.57-6.02-.1-9.35-2l-1.9-1.25c-1.8-1.13-3.32-2.18-4.55-3.15-3.43-5.03,2.85-6.22,18.85-3.55l7.65,1.45,3.65.8,2.95.7" fill="#72c3ff" fill-rule="evenodd"/>
  <path d="M53.25,10.66c-8.67,4.63-14.17,11.37-16.5,20.2-.6,2.2-1,4.55-1.2,7.05-.1,1.07-.15,2.17-.15,3.3l-.2-4.2-.2-3.55-.75-13.3,11.7-5.9,7.3-3.6" fill="#5db5ff" fill-rule="evenodd"/>
  <path d="M54.3,10.16c.37.77.18,1.77-.55,3l-15.7,27.3-.15.3c-.77,1.1-1.58,1.65-2.45,1.65l-.05-1.2c0-1.13.05-2.23.15-3.3.2-2.5.6-4.85,1.2-7.05,2.33-8.83,7.83-15.57,16.5-20.2l1.05-.5" fill="#5db5ff" fill-rule="evenodd"/>
  <path d="M35.45,42.41c-.8.03-1.7-.53-2.7-1.7l-6.6-7.95c-1.4-8.13-5.62-15.85-12.65-23.15,8.3,6.63,14.45,13.45,18.45,20.45,1.33,2.3,2.42,4.62,3.25,6.95l.2,4.2.05,1.2" fill="#72c3ff" fill-rule="evenodd"/>
  <path d="M35.95,5.86l15.15,2.55c1.73.27,2.8.85,3.2,1.75l-1.05.5-2.95-.7-3.65-.8-7.65-1.45c-16-2.67-22.28-1.48-18.85,3.55-8.7-6.9-1.18-8.05,22.55-3.45l-6.75-1.95M45.95,14.26l-11.7,5.9-5.4-3.15-2.25-1.35c3.33,1.9,6.45,2.57,9.35,2l.3-.05c3.17-.7,6.4-1.82,9.7-3.35" fill="#72c3ff" fill-rule="evenodd"/>
</svg>