<?xml version="1.0" encoding="UTF-8" standalone="no"?>
<svg xmlns:ffdec="https://www.free-decompiler.com/flash" xmlns:xlink="http://www.w3.org/1999/xlink" ffdec:objectType="frame" height="42.4px" width="54.5px" xmlns="http://www.w3.org/2000/svg">
  <g transform="matrix(1.0, 0.0, 0.0, 1.0, 0.0, 0.0)">
    <use ffdec:characterId="90" height="42.4" transform="matrix(1.0, 0.0, 0.0, 1.0, 0.0, 0.0)" width="54.5" xlink:href="#shape0"/>
  </g>
  <defs>
    <g id="shape0" transform="matrix(1.0, 0.0, 0.0, 1.0, 0.0, 0.0)">
      <path d="M7.05 9.45 L0.85 1.95 Q-0.2 0.8 0.05 0.35 0.3 -0.2 1.9 0.1 L35.95 5.85 42.7 7.8 Q7.1 0.9 20.15 11.25 22.0 12.7 24.7 14.4 L26.6 15.65 28.85 17.0 34.25 20.15 35.0 33.45 34.2 30.45 Q30.7 19.75 19.2 11.4 L4.15 2.7 Q6.5 5.95 7.05 9.45" fill="#ffffff" fill-rule="evenodd" stroke="none"/>
      <path d="M26.15 32.75 L7.05 9.45 Q6.5 5.95 4.15 2.7 L19.2 11.4 Q30.7 19.75 34.2 30.45 L35.0 33.45 35.2 37.0 Q33.95 33.5 31.95 30.05 25.95 19.55 13.5 9.6 24.05 20.55 26.15 32.75 M53.25 10.65 L45.95 14.25 Q41.0 16.55 36.25 17.6 L35.95 17.65 Q31.6 18.5 26.6 15.65 L24.7 14.4 Q22.0 12.7 20.15 11.25 15.0 3.7 39.0 7.7 L46.65 9.15 50.3 9.95 53.25 10.65" fill="#f2f2f7" fill-rule="evenodd" stroke="none"/>
      <path d="M53.25 10.65 Q40.25 17.6 36.75 30.85 35.85 34.15 35.55 37.9 35.4 39.5 35.4 41.2 L35.2 37.0 35.0 33.45 34.25 20.15 45.95 14.25 53.25 10.65" fill="#b7b7d2" fill-rule="evenodd" stroke="none"/>
      <path d="M54.3 10.15 Q54.85 11.3 53.75 13.15 L38.05 40.45 37.9 40.75 Q36.75 42.4 35.45 42.4 L35.4 41.2 Q35.4 39.5 35.55 37.9 35.85 34.15 36.75 30.85 40.25 17.6 53.25 10.65 L54.3 10.15" fill="#a4a4c6" fill-rule="evenodd" stroke="none"/>
      <path d="M35.45 42.4 Q34.25 42.45 32.75 40.7 L26.15 32.75 Q24.05 20.55 13.5 9.6 25.95 19.55 31.95 30.05 33.95 33.5 35.2 37.0 L35.4 41.2 35.45 42.4" fill="#e4e4ef" fill-rule="evenodd" stroke="none"/>
      <path d="M35.95 5.85 L51.1 8.4 Q53.7 8.8 54.3 10.15 L53.25 10.65 50.3 9.95 46.65 9.15 39.0 7.7 Q15.0 3.7 20.15 11.25 7.1 0.9 42.7 7.8 L35.95 5.85 M45.95 14.25 L34.25 20.15 28.85 17.0 26.6 15.65 Q31.6 18.5 35.95 17.65 L36.25 17.6 Q41.0 16.55 45.95 14.25" fill="#f9f9fb" fill-rule="evenodd" stroke="none"/>
    </g>
  </defs>
</svg>
