<?xml version="1.0" encoding="UTF-8" standalone="no"?>
<svg xmlns:ffdec="https://www.free-decompiler.com/flash" xmlns:xlink="http://www.w3.org/1999/xlink" ffdec:objectType="shape" height="995.45px" width="2199.7px" xmlns="http://www.w3.org/2000/svg">
  <g transform="matrix(1.0, 0.0, 0.0, 1.0, 559.2, 200.45)">
    <path d="M209.25 301.85 Q-71.95 194.3 -555.4 280.35 -275.6 88.75 181.75 145.5 639.1 202.2 928.3 122.0 1217.45 41.85 1429.75 24.8 1112.3 122.9 801.35 266.1 490.4 409.3 209.25 301.85" fill="#000000" fill-opacity="0.050980393" fill-rule="evenodd" stroke="none"/>
    <path d="M210.9 317.35 Q-75.0 165.45 -557.2 262.9 -282.95 18.75 177.95 109.45 638.85 200.1 926.4 103.7 1213.85 7.5 1426.35 -7.9 1111.1 111.15 803.9 290.2 496.7 469.2 210.9 317.35" fill="#000000" fill-opacity="0.050980393" fill-rule="evenodd" stroke="none"/>
    <path d="M212.4 331.6 Q-78.15 135.3 -559.2 244.15 -290.45 -52.5 174.05 72.1 638.5 196.65 924.35 84.2 1210.1 -28.15 1422.8 -41.85 1109.75 98.2 806.3 313.0 502.85 527.75 212.4 331.6" fill="#000000" fill-opacity="0.050980393" fill-rule="evenodd" stroke="none"/>
    <path d="M218.3 713.5 Q-80.6 530.25 -556.3 660.35 -301.0 352.1 168.45 455.95 637.9 559.75 918.45 434.7 1198.9 309.85 1410.7 286.75 1104.25 440.5 810.65 668.55 517.1 896.55 218.3 713.5" fill="#000000" fill-opacity="0.050980393" fill-rule="evenodd" stroke="none"/>
    <path d="M1146.5 87.95 Q863.7 -18.0 400.65 37.05 -62.35 92.25 -326.1 -148.5 150.75 -29.7 441.75 -151.7 732.6 -273.6 1031.8 -90.7 1330.9 92.3 1640.5 220.75 1429.25 193.7 1146.5 87.95" fill="#000000" fill-opacity="0.050980393" fill-rule="evenodd" stroke="none"/>
  </g>
</svg>
