<?xml version="1.0" encoding="UTF-8" standalone="no"?>
<svg xmlns:ffdec="https://www.free-decompiler.com/flash" xmlns:xlink="http://www.w3.org/1999/xlink" ffdec:objectType="shape" height="50.0px" width="50.0px" xmlns="http://www.w3.org/2000/svg">
  <g transform="matrix(1.0, 0.0, 0.0, 1.0, 0.0, 0.0)">
    <path d="M6.2 37.35 L1.95 34.9 Q0.0 30.3 0.0 25.0 0.0 14.6 7.35 7.3 14.65 0.0 25.0 0.0 34.6 0.0 41.55 6.2 L42.15 10.35 40.95 9.05 Q34.4 2.45 25.05 2.45 15.7 2.45 9.15 9.05 2.55 15.65 2.55 25.0 2.55 31.9 6.2 37.35" fill="#ffffff" fill-opacity="0.2" fill-rule="evenodd" stroke="none"/>
    <path d="M6.2 37.35 Q7.45 39.2 9.15 40.85 15.7 47.5 25.05 47.5 34.4 47.5 40.95 40.85 47.55 34.3 47.55 25.0 47.55 16.55 42.15 10.35 L41.55 6.2 42.7 7.3 Q50.0 14.6 50.0 25.0 50.0 35.35 42.7 42.65 35.4 50.0 25.0 50.0 14.65 50.0 7.35 42.65 3.8 39.15 1.95 34.9 L6.2 37.35" fill="#000000" fill-opacity="0.2" fill-rule="evenodd" stroke="none"/>
  </g>
</svg>
