<?xml version="1.0" encoding="UTF-8" standalone="no"?>
<svg xmlns:ffdec="https://www.free-decompiler.com/flash" xmlns:xlink="http://www.w3.org/1999/xlink" ffdec:objectType="shape" height="40.75px" width="127.55px" xmlns="http://www.w3.org/2000/svg">
  <g transform="matrix(1.0, 0.0, 0.0, 1.0, 1.5, 1.5)">
    <path d="M0.0 18.1 L0.0 5.0 Q0.0 0.0 5.0 0.0 L119.55 0.0 Q124.55 0.0 124.55 5.0 L124.55 18.1 0.0 18.1" fill="#ffffff" fill-rule="evenodd" stroke="none"/>
    <path d="M0.0 18.1 L124.55 18.1 124.55 32.75 Q124.55 37.75 119.55 37.75 L5.0 37.75 Q0.0 37.75 0.0 32.75 L0.0 18.1" fill="#cccccc" fill-rule="evenodd" stroke="none"/>
    <path d="M124.55 18.1 L124.55 5.0 Q124.55 0.0 119.55 0.0 L5.0 0.0 Q0.0 0.0 0.0 5.0 L0.0 18.1 0.0 32.75 Q0.0 37.75 5.0 37.75 L119.55 37.75 Q124.55 37.75 124.55 32.75 L124.55 18.1 Z" fill="none" stroke="#999999" stroke-linecap="round" stroke-linejoin="round" stroke-width="3.0"/>
    <path d="M37.75 3.7 Q44.3 3.7 44.3 10.25 L44.3 27.65 Q44.3 34.2 37.75 34.2 L10.8 34.2 Q4.25 34.2 4.25 27.65 L4.25 10.25 Q4.25 3.7 10.8 3.7 L37.75 3.7" fill="#ff0000" fill-rule="evenodd" stroke="none"/>
    <path d="M33.75 18.95 L17.05 28.2 17.05 10.15 33.75 18.95" fill="#ffffff" fill-rule="evenodd" stroke="none"/>
    <path d="M33.75 18.95 L17.05 10.15 17.05 28.2 33.75 18.95 Z" fill="none" stroke="#ffffff" stroke-linecap="round" stroke-linejoin="round" stroke-width="3.0"/>
  </g>
</svg>
