<?xml version="1.0" encoding="UTF-8" standalone="no"?>
<svg xmlns:ffdec="https://www.free-decompiler.com/flash" xmlns:xlink="http://www.w3.org/1999/xlink" ffdec:objectType="shape" height="40.75px" width="127.55px" xmlns="http://www.w3.org/2000/svg">
  <g transform="matrix(1.0, 0.0, 0.0, 1.0, 1.5, 1.5)">
    <path d="M124.55 18.1 L124.55 32.75 Q124.55 37.75 119.55 37.75 L5.0 37.75 Q0.0 37.75 0.0 32.75 L0.0 18.1 124.55 18.1" fill="#bf0000" fill-rule="evenodd" stroke="none"/>
    <path d="M0.0 18.1 L0.0 5.0 Q0.0 0.0 5.0 0.0 L119.55 0.0 Q124.55 0.0 124.55 5.0 L124.55 18.1 0.0 18.1" fill="#ea0000" fill-rule="evenodd" stroke="none"/>
    <path d="M124.55 18.1 L124.55 32.75 Q124.55 37.75 119.55 37.75 L5.0 37.75 Q0.0 37.75 0.0 32.75 L0.0 18.1 0.0 5.0 Q0.0 0.0 5.0 0.0 L119.55 0.0 Q124.55 0.0 124.55 5.0 L124.55 18.1 Z" fill="none" stroke="#400000" stroke-linecap="round" stroke-linejoin="round" stroke-width="3.0"/>
  </g>
</svg>
