<?xml version="1.0" encoding="UTF-8" standalone="no"?>
<svg xmlns:ffdec="https://www.free-decompiler.com/flash" xmlns:xlink="http://www.w3.org/1999/xlink" ffdec:objectType="shape" height="211.25px" width="211.2px" xmlns="http://www.w3.org/2000/svg">
  <g transform="matrix(1.0, 0.0, 0.0, 1.0, 66.15, 0.0)">
    <path d="M143.55 1.7 L144.15 2.5 141.9 3.75 141.6 3.35 143.55 1.7 M-63.9 210.2 L-64.7 209.45 -62.75 207.75 -62.45 208.1 -63.9 210.2" fill="#cbcbde" fill-rule="evenodd" stroke="none"/>
    <path d="M142.8 1.0 L143.55 1.7 141.6 3.35 141.15 3.0 142.8 1.0 M-64.7 209.45 L-65.3 208.65 -63.05 207.4 -62.75 207.75 -64.7 209.45" fill="#dedeeb" fill-rule="evenodd" stroke="none"/>
    <path d="M141.9 0.5 L142.8 1.0 141.15 3.0 140.7 2.75 141.9 0.5 M-65.3 208.65 L-65.75 207.75 -63.3 206.9 -63.05 207.4 -65.3 208.65" fill="#f2f2f7" fill-rule="evenodd" stroke="none"/>
    <path d="M140.7 2.75 L141.15 3.0 141.6 3.35 141.9 3.75 142.0 3.85 142.15 4.15 142.4 4.9 142.45 5.5 142.45 205.65 Q142.5 206.85 141.65 207.75 140.75 208.6 139.6 208.6 L-60.7 208.6 -62.0 208.35 -62.45 208.1 -62.75 207.75 -63.05 207.4 -63.3 206.9 Q-63.6 206.35 -63.55 205.65 L-63.55 5.5 -63.5 4.9 -63.05 3.85 -62.75 3.45 -62.75 3.4 Q-61.85 2.6 -60.7 2.65 L139.6 2.65 140.7 2.75" fill="#000000" fill-opacity="0.49803922" fill-rule="evenodd" stroke="none"/>
    <path d="M144.15 2.5 L144.6 3.3 142.15 4.15 142.0 3.85 141.9 3.75 144.15 2.5 M-63.1 210.65 L-63.9 210.2 -62.45 208.1 -62.0 208.35 -63.1 210.65" fill="#b7b7d2" fill-rule="evenodd" stroke="none"/>
    <path d="M144.6 3.3 L144.8 3.85 145.05 5.5 145.05 205.65 Q145.05 207.95 143.4 209.6 141.8 211.2 139.6 211.25 L-60.7 211.25 Q-62.0 211.25 -63.1 210.65 L-62.0 208.35 -60.7 208.6 139.6 208.6 Q140.75 208.6 141.65 207.75 142.5 206.85 142.45 205.65 L142.45 5.5 142.4 4.9 142.15 4.15 144.6 3.3" fill="#a4a4c6" fill-rule="evenodd" stroke="none"/>
    <path d="M-65.75 207.75 Q-66.15 206.75 -66.15 205.65 L-66.15 5.5 Q-66.15 3.2 -64.55 1.55 -62.95 -0.05 -60.7 0.0 L139.6 0.0 Q140.85 -0.05 141.9 0.5 L140.7 2.75 139.6 2.65 -60.7 2.65 Q-61.85 2.6 -62.75 3.4 L-62.75 3.45 -63.05 3.85 -63.5 4.9 -63.55 5.5 -63.55 205.65 Q-63.6 206.35 -63.3 206.9 L-65.75 207.75" fill="#ffffff" fill-rule="evenodd" stroke="none"/>
  </g>
</svg>
