<?xml version="1.0" encoding="UTF-8" standalone="no"?>
<svg xmlns:ffdec="https://www.free-decompiler.com/flash" xmlns:xlink="http://www.w3.org/1999/xlink" ffdec:objectType="shape" height="52.3px" width="116.2px" xmlns="http://www.w3.org/2000/svg">
  <g transform="matrix(1.0, 0.0, 0.0, 1.0, 0.0, 0.0)">
    <path d="M95.95 35.15 Q95.95 34.3 95.35 33.7 94.75 33.1 93.9 33.1 93.05 33.1 92.45 33.7 91.85 34.3 91.85 35.15 91.85 36.0 92.45 36.6 93.05 37.2 93.9 37.2 94.75 37.2 95.35 36.6 95.95 36.0 95.95 35.15 M91.75 33.0 Q92.65 32.1 93.9 32.1 95.15 32.1 96.05 33.0 96.95 33.9 96.95 35.15 96.95 36.4 96.05 37.3 95.15 38.2 93.9 38.2 92.65 38.2 91.75 37.3 90.85 36.4 90.85 35.15 90.85 33.9 91.75 33.0 M84.35 33.7 Q83.75 34.3 83.75 35.15 83.75 36.0 84.35 36.6 84.95 37.2 85.8 37.2 86.65 37.2 87.25 36.6 87.85 36.0 87.85 35.15 87.85 34.3 87.25 33.7 86.65 33.1 85.8 33.1 84.95 33.1 84.35 33.7 M83.65 33.0 Q84.55 32.1 85.8 32.1 87.05 32.1 87.95 33.0 88.85 33.9 88.85 35.15 88.85 36.4 87.95 37.3 87.05 38.2 85.8 38.2 84.55 38.2 83.65 37.3 82.75 36.4 82.75 35.15 82.75 33.9 83.65 33.0 M109.45 43.25 Q109.85 44.0 109.85 45.0 109.85 46.0 109.45 46.7 109.1 47.45 108.6 47.45 108.1 47.45 107.7 46.7 107.35 46.0 107.35 45.0 107.35 44.0 107.7 43.25 108.1 42.55 108.6 42.55 109.1 42.55 109.45 43.25 M104.75 41.3 L104.75 48.85 112.3 48.85 112.3 41.3 104.75 41.3 M103.8 46.25 L103.8 40.35 109.6 40.35 113.2 40.35 113.2 49.85 103.8 49.85 103.8 46.25 M108.55 30.0 L0.85 30.0 0.85 49.7 0.85 51.45 115.35 51.45 115.35 30.0 108.55 30.0 M45.05 29.0 L116.2 29.15 116.2 52.3 0.0 52.3 0.0 29.15 14.85 29.0 19.45 29.0 30.7 29.0 34.95 29.0 45.05 29.0 M57.15 47.55 L3.25 47.55 3.25 43.7 57.15 43.7 57.15 47.55 M57.15 42.3 L3.25 42.3 3.25 38.45 57.15 38.45 57.15 42.3 M57.15 37.05 L3.25 37.05 3.25 33.2 57.15 33.2 57.15 37.05 M74.5 35.15 Q74.5 33.9 75.4 33.0 76.3 32.1 77.55 32.1 78.8 32.1 79.7 33.0 80.6 33.9 80.6 35.15 80.6 36.4 79.7 37.3 78.8 38.2 77.55 38.2 76.3 38.2 75.4 37.3 74.5 36.4 74.5 35.15 M77.55 33.1 Q76.7 33.1 76.1 33.7 75.5 34.3 75.5 35.15 75.5 36.0 76.1 36.6 76.7 37.2 77.55 37.2 78.4 37.2 79.0 36.6 79.6 36.0 79.6 35.15 79.6 34.3 79.0 33.7 78.4 33.1 77.55 33.1" fill="#666666" fill-rule="evenodd" stroke="none"/>
    <path d="M91.75 33.0 Q90.85 33.9 90.85 35.15 90.85 36.4 91.75 37.3 92.65 38.2 93.9 38.2 95.15 38.2 96.05 37.3 96.95 36.4 96.95 35.15 96.95 33.9 96.05 33.0 95.15 32.1 93.9 32.1 92.65 32.1 91.75 33.0 M83.65 33.0 Q82.75 33.9 82.75 35.15 82.75 36.4 83.65 37.3 84.55 38.2 85.8 38.2 87.05 38.2 87.95 37.3 88.85 36.4 88.85 35.15 88.85 33.9 87.95 33.0 87.05 32.1 85.8 32.1 84.55 32.1 83.65 33.0 M109.6 40.35 L103.8 40.35 103.8 46.25 Q54.95 51.4 0.85 49.7 L0.85 30.0 108.55 30.0 Q112.05 35.4 109.6 40.35 M57.15 37.05 L57.15 33.2 3.25 33.2 3.25 37.05 57.15 37.05 M57.15 42.3 L57.15 38.45 3.25 38.45 3.25 42.3 57.15 42.3 M57.15 47.55 L57.15 43.7 3.25 43.7 3.25 47.55 57.15 47.55 M74.5 35.15 Q74.5 36.4 75.4 37.3 76.3 38.2 77.55 38.2 78.8 38.2 79.7 37.3 80.6 36.4 80.6 35.15 80.6 33.9 79.7 33.0 78.8 32.1 77.55 32.1 76.3 32.1 75.4 33.0 74.5 33.9 74.5 35.15" fill="#999999" fill-rule="evenodd" stroke="none"/>
    <path d="M45.05 29.0 L34.95 29.0 Q35.55 23.85 35.05 18.25 33.25 23.95 30.7 29.0 L19.45 29.0 Q18.15 25.75 17.75 21.95 16.6 11.75 19.1 2.0 23.35 5.5 24.8 11.7 25.9 16.55 25.3 23.05 28.7 20.3 31.65 15.35 34.85 10.1 37.55 2.35 39.4 7.8 39.5 14.6 39.65 20.4 38.65 26.2 L39.4 23.3 Q39.85 21.35 41.9 18.25 43.9 15.15 44.75 11.35 46.4 15.35 46.15 22.45 46.05 26.1 45.05 29.0" fill="#ffd200" fill-rule="evenodd" stroke="none"/>
    <path d="M24.8 11.7 Q28.6 6.2 31.35 0.0 32.3 8.05 31.65 15.35 28.7 20.3 25.3 23.05 25.9 16.55 24.8 11.7 M39.5 14.6 L42.15 9.1 Q42.7 13.4 41.9 18.25 39.85 21.35 39.4 23.3 L38.65 26.2 Q39.65 20.4 39.5 14.6" fill="#ff8000" fill-rule="evenodd" stroke="none"/>
    <path d="M34.95 29.0 L30.7 29.0 Q33.25 23.95 35.05 18.25 35.55 23.85 34.95 29.0 M19.45 29.0 L14.85 29.0 14.25 27.6 Q13.3 25.25 13.3 22.8 13.25 11.55 19.1 2.0 16.6 11.75 17.75 21.95 18.15 25.75 19.45 29.0" fill="#ff0000" fill-rule="evenodd" stroke="none"/>
    <path d="M109.45 43.25 Q109.1 42.55 108.6 42.55 108.1 42.55 107.7 43.25 107.35 44.0 107.35 45.0 107.35 46.0 107.7 46.7 108.1 47.45 108.6 47.45 109.1 47.45 109.45 46.7 109.85 46.0 109.85 45.0 109.85 44.0 109.45 43.25 M104.75 41.3 L112.3 41.3 112.3 48.85 104.75 48.85 104.75 41.3 M103.8 46.25 L103.8 49.85 113.2 49.85 113.2 40.35 109.6 40.35 Q112.05 35.4 108.55 30.0 L115.35 30.0 115.35 51.45 0.85 51.45 0.85 49.7 Q54.95 51.4 103.8 46.25" fill="#8f8f8f" fill-rule="evenodd" stroke="none"/>
  </g>
</svg>
