<?xml version="1.0" encoding="UTF-8" standalone="no"?>
<svg xmlns:ffdec="https://www.free-decompiler.com/flash" xmlns:xlink="http://www.w3.org/1999/xlink" ffdec:objectType="shape" height="4.1px" width="20.45px" xmlns="http://www.w3.org/2000/svg">
  <g transform="matrix(1.0, 0.0, 0.0, 1.0, -75.5, -33.1)">
    <path d="M95.35 33.7 Q95.95 34.3 95.95 35.15 95.95 36.0 95.35 36.6 94.75 37.2 93.9 37.2 93.05 37.2 92.45 36.6 91.85 36.0 91.85 35.15 91.85 34.3 92.45 33.7 93.05 33.1 93.9 33.1 94.75 33.1 95.35 33.7" fill="#00ff00" fill-rule="evenodd" stroke="none"/>
    <path d="M87.85 35.15 Q87.85 36.0 87.25 36.6 86.65 37.2 85.8 37.2 84.95 37.2 84.35 36.6 83.75 36.0 83.75 35.15 83.75 34.3 84.35 33.7 84.95 33.1 85.8 33.1 86.65 33.1 87.25 33.7 87.85 34.3 87.85 35.15 M75.5 35.15 Q75.5 34.3 76.1 33.7 76.7 33.1 77.55 33.1 78.4 33.1 79.0 33.7 79.6 34.3 79.6 35.15 79.6 36.0 79.0 36.6 78.4 37.2 77.55 37.2 76.7 37.2 76.1 36.6 75.5 36.0 75.5 35.15" fill="#006633" fill-rule="evenodd" stroke="none"/>
  </g>
</svg>
