<?xml version="1.0" encoding="UTF-8" standalone="no"?>
<svg xmlns:ffdec="https://www.free-decompiler.com/flash" xmlns:xlink="http://www.w3.org/1999/xlink" ffdec:objectType="shape" height="251.75px" width="534.7px" xmlns="http://www.w3.org/2000/svg">
  <g transform="matrix(1.0, 0.0, 0.0, 1.0, -54.5, -76.95)">
    <path d="M383.3 82.2 Q388.6 244.0 323.05 313.75 297.3 284.6 285.45 250.2 284.4 279.05 284.7 308.15 L231.5 323.9 Q233.85 315.05 235.8 304.25 L224.1 310.35 Q216.05 280.8 181.0 267.05 182.65 278.9 185.5 290.4 L154.2 294.95 Q150.9 273.8 149.85 253.1 L139.8 253.95 137.25 219.85 149.65 220.15 Q151.35 171.65 166.9 120.85 132.7 119.4 110.15 127.15 108.7 143.3 108.1 153.7 L144.35 149.8 Q140.85 166.65 139.7 183.75 L106.75 186.8 Q105.25 242.5 135.05 304.65 L87.75 328.7 Q67.6 252.65 70.25 190.2 L54.55 191.7 Q54.1 173.95 57.3 157.55 L72.85 156.15 Q76.3 123.8 84.1 93.8 132.75 79.65 187.1 82.2 L186.15 93.5 Q286.6 199.85 200.6 247.0 229.25 254.8 241.4 265.1 246.85 220.35 248.8 143.15 L257.15 141.45 Q250.0 138.6 245.25 131.55 238.2 121.2 240.35 107.45 242.3 93.75 252.2 84.95 262.15 75.95 274.2 77.05 286.3 78.0 293.2 88.55 300.35 98.85 298.35 112.55 296.3 126.3 286.35 135.2 L285.9 135.55 294.05 133.95 Q292.85 143.75 291.9 153.7 L309.1 149.75 Q300.45 210.4 324.2 262.65 354.45 178.8 337.45 102.85 L383.3 82.2 M192.25 143.45 Q180.7 188.05 179.05 221.45 238.0 212.1 192.25 143.45" fill="#bf5b00" fill-rule="evenodd" stroke="none"/>
    <path d="M436.65 255.45 L397.15 255.45 493.25 179.6 589.2 255.45 549.75 255.45 549.75 299.05 436.65 299.05 436.65 255.45" fill="#009900" fill-rule="evenodd" stroke="none"/>
  </g>
</svg>
