<?xml version="1.0" encoding="UTF-8" standalone="no"?>
<svg xmlns:ffdec="https://www.free-decompiler.com/flash" xmlns:xlink="http://www.w3.org/1999/xlink" ffdec:objectType="shape" height="269.05px" width="549.8px" xmlns="http://www.w3.org/2000/svg">
  <g transform="matrix(1.0, 0.0, 0.0, 1.0, -43.4, -62.1)">
    <path d="M99.35 77.7 Q111.05 76.2 119.95 82.3 128.85 88.4 129.75 98.55 130.65 108.65 123.05 116.8 115.4 125.05 103.75 126.5 92.0 128.0 83.05 121.9 74.2 115.75 73.3 105.65 72.4 95.45 80.05 87.35 87.65 79.15 99.35 77.7" fill="#bf5b00" fill-rule="evenodd" stroke="none"/>
    <path d="M247.7 82.55 Q253.55 82.55 257.75 87.45 261.85 92.45 261.85 99.4 261.85 106.25 257.75 111.25 253.55 116.15 247.7 116.15 241.85 116.15 237.7 111.25 233.6 106.25 233.6 99.4 233.6 92.45 237.7 87.45 241.85 82.55 247.7 82.55 M99.35 77.7 Q87.65 79.15 80.05 87.35 72.4 95.45 73.3 105.65 74.2 115.75 83.05 121.9 92.0 128.0 103.75 126.5 115.4 125.05 123.05 116.8 130.65 108.65 129.75 98.55 128.85 88.4 119.95 82.3 111.05 76.2 99.35 77.7 M114.65 62.1 Q118.25 62.55 121.75 63.65 136.65 68.4 141.3 82.7 145.95 96.95 137.55 112.45 129.15 127.85 112.65 135.4 96.15 142.85 81.2 138.2 66.25 133.45 61.6 119.15 57.0 104.8 65.45 89.4 73.8 73.95 90.3 66.45 97.9 62.95 105.2 62.1 L114.65 62.1" fill="#b55600" fill-rule="evenodd" stroke="none"/>
    <path d="M247.7 82.55 Q241.85 82.55 237.7 87.45 233.6 92.45 233.6 99.4 233.6 106.25 237.7 111.25 241.85 116.15 247.7 116.15 253.55 116.15 257.75 111.25 261.85 106.25 261.85 99.4 261.85 92.45 257.75 87.45 253.55 82.55 247.7 82.55 M264.25 76.35 Q272.05 85.65 272.05 98.7 272.05 111.85 264.25 121.05 256.45 130.35 245.45 130.35 234.5 130.35 226.8 121.3 L226.6 121.05 Q218.8 111.85 218.8 98.7 218.8 85.65 226.6 76.35 L226.8 76.15 Q234.5 67.2 245.45 67.2 256.45 67.2 264.25 76.35 M105.2 62.1 Q97.9 62.95 90.3 66.45 73.8 73.95 65.45 89.4 57.0 104.8 61.6 119.15 66.25 133.45 81.2 138.2 96.15 142.85 112.65 135.4 129.15 127.85 137.55 112.45 145.95 96.95 141.3 82.7 136.65 68.4 121.75 63.65 118.25 62.55 114.65 62.1 L150.95 62.1 152.6 65.3 Q161.35 83.8 152.45 107.0 143.5 130.1 122.15 144.4 100.75 158.65 79.45 155.7 58.15 152.75 49.35 134.25 40.6 115.7 49.5 92.5 56.4 74.7 70.7 62.1 L105.2 62.1" fill="#aa5100" fill-rule="evenodd" stroke="none"/>
    <path d="M264.25 76.35 Q256.45 67.2 245.45 67.2 234.5 67.2 226.8 76.15 L226.6 76.35 Q218.8 85.65 218.8 98.7 218.8 111.85 226.6 121.05 L226.8 121.3 Q234.5 130.35 245.45 130.35 256.45 130.35 264.25 121.05 272.05 111.85 272.05 98.7 272.05 85.65 264.25 76.35 M271.35 62.1 Q283.9 77.4 283.9 98.85 283.9 120.65 270.9 136.1 257.9 151.5 239.55 151.5 232.8 151.5 226.8 149.45 216.4 145.85 208.15 136.1 204.7 131.95 202.15 127.4 195.2 114.8 195.2 98.85 195.2 82.9 202.15 70.35 204.55 66.0 207.75 62.1 L271.35 62.1 M170.5 62.1 Q174.95 79.45 168.7 100.95 L165.25 110.95 Q162.25 118.4 158.2 125.2 148.9 140.8 133.95 153.2 108.1 174.6 80.55 173.9 56.45 173.35 43.4 156.1 L43.4 78.5 Q47.9 69.8 54.1 62.1 L70.7 62.1 Q56.4 74.7 49.5 92.5 40.6 115.7 49.35 134.25 58.15 152.75 79.45 155.7 100.75 158.65 122.15 144.4 143.5 130.1 152.45 107.0 161.35 83.8 152.6 65.3 L150.95 62.1 170.5 62.1" fill="#9f4b00" fill-rule="evenodd" stroke="none"/>
    <path d="M43.4 277.85 Q94.65 306.4 158.2 311.85 L165.25 312.35 188.8 313.1 202.15 312.85 226.8 311.1 Q308.15 302.3 368.85 254.8 380.0 246.1 389.45 236.9 L389.45 331.15 43.4 331.15 43.4 277.85" fill="#6a3300" fill-rule="evenodd" stroke="none"/>
    <path d="M358.85 62.1 Q368.65 85.35 368.65 111.7 368.65 176.1 310.25 221.65 273.35 250.45 226.8 261.05 214.8 263.8 202.15 265.35 186.25 267.25 169.35 267.25 L165.25 267.25 158.2 267.05 Q92.9 264.5 43.4 232.35 L43.4 207.6 43.65 207.75 Q92.6 240.5 158.2 236.2 L162.7 235.85 165.25 235.65 Q184.6 233.8 202.15 229.05 214.95 225.6 226.8 220.6 254.75 208.75 277.4 188.25 323.55 146.4 320.35 93.05 319.4 76.65 313.95 62.1 L358.85 62.1" fill="#803d00" fill-rule="evenodd" stroke="none"/>
    <path d="M290.75 62.1 Q299.5 78.25 299.5 98.75 299.5 127.4 282.45 147.65 265.4 167.85 241.3 167.85 233.75 167.85 226.8 165.95 216.7 163.15 207.75 156.3 205.05 154.25 202.15 152.8 186.25 144.7 165.25 155.2 161.8 156.9 158.2 159.15 152.15 162.9 145.7 168.1 L144.85 168.7 Q111.2 196.5 75.4 195.65 56.9 195.2 43.4 187.25 L43.4 156.1 Q56.45 173.35 80.55 173.9 108.1 174.6 133.95 153.2 148.9 140.8 158.2 125.2 162.25 118.4 165.25 110.95 L168.7 100.95 Q174.95 79.45 170.5 62.1 L207.75 62.1 Q204.55 66.0 202.15 70.35 195.2 82.9 195.2 98.85 195.2 114.8 202.15 127.4 204.7 131.95 208.15 136.1 216.4 145.85 226.8 149.45 232.8 151.5 239.55 151.5 257.9 151.5 270.9 136.1 283.9 120.65 283.9 98.85 283.9 77.4 271.35 62.1 L290.75 62.1 M54.1 62.1 Q47.9 69.8 43.4 78.5 L43.4 62.1 54.1 62.1" fill="#954700" fill-rule="evenodd" stroke="none"/>
    <path d="M358.85 62.1 L389.45 62.1 389.45 236.9 Q380.0 246.1 368.85 254.8 308.15 302.3 226.8 311.1 L202.15 312.85 188.8 313.1 165.25 312.35 158.2 311.85 Q94.65 306.4 43.4 277.85 L43.4 232.35 Q92.9 264.5 158.2 267.05 L165.25 267.25 169.35 267.25 Q186.25 267.25 202.15 265.35 214.8 263.8 226.8 261.05 273.35 250.45 310.25 221.65 368.65 176.1 368.65 111.7 368.65 85.35 358.85 62.1" fill="#753700" fill-rule="evenodd" stroke="none"/>
    <path d="M43.4 187.25 Q56.9 195.2 75.4 195.65 111.2 196.5 144.85 168.7 L145.7 168.1 Q152.15 162.9 158.2 159.15 161.8 156.9 165.25 155.2 186.25 144.7 202.15 152.8 205.05 154.25 207.75 156.3 216.7 163.15 226.8 165.95 233.75 167.85 241.3 167.85 265.4 167.85 282.45 147.65 299.5 127.4 299.5 98.75 299.5 78.25 290.75 62.1 L313.95 62.1 Q319.4 76.65 320.35 93.05 323.55 146.4 277.4 188.25 254.75 208.75 226.8 220.6 214.95 225.6 202.15 229.05 184.6 233.8 165.25 235.65 L162.7 235.85 158.2 236.2 Q92.6 240.5 43.65 207.75 L43.4 207.6 43.4 187.25" fill="#8a4200" fill-rule="evenodd" stroke="none"/>
    <path d="M458.8 238.05 L458.8 232.95 453.05 232.95 453.05 238.05 458.8 238.05 M458.8 232.95 L470.2 232.95 470.2 227.85 458.8 227.85 458.8 232.95 M470.2 243.15 L475.9 243.15 475.9 232.95 470.2 232.95 470.2 243.15 458.8 243.15 458.8 248.2 453.05 248.2 453.05 263.45 475.9 263.45 475.9 258.35 458.8 258.35 458.8 248.2 470.2 248.2 470.2 243.15 M481.65 243.15 L498.8 243.15 498.8 238.05 487.4 238.05 487.4 232.95 504.5 232.95 504.5 227.85 481.65 227.85 481.65 243.15 M481.65 258.35 L487.4 258.35 487.4 248.2 481.65 248.2 481.65 258.35 M436.65 255.45 L397.15 255.45 493.25 179.6 589.2 255.45 549.75 255.45 549.75 299.05 436.65 299.05 436.65 255.45 M527.4 227.85 L515.9 227.85 515.9 232.95 527.4 232.95 527.4 227.85 M527.4 232.95 L527.4 258.35 533.05 258.35 533.05 232.95 527.4 232.95 M498.8 243.15 L498.8 258.35 504.5 258.35 504.5 243.15 498.8 243.15 M510.2 232.95 L510.2 258.35 515.9 258.35 515.9 232.95 510.2 232.95 M498.8 258.35 L487.4 258.35 487.4 263.45 498.8 263.45 498.8 258.35 M515.9 263.45 L527.4 263.45 527.4 258.35 515.9 258.35 515.9 263.45" fill="#009900" fill-rule="evenodd" stroke="none"/>
    <path d="M470.2 243.15 L470.2 232.95 475.9 232.95 475.9 243.15 470.2 243.15 470.2 248.2 458.8 248.2 458.8 258.35 475.9 258.35 475.9 263.45 453.05 263.45 453.05 248.2 458.8 248.2 458.8 243.15 470.2 243.15 M458.8 232.95 L458.8 227.85 470.2 227.85 470.2 232.95 458.8 232.95 458.8 238.05 453.05 238.05 453.05 232.95 458.8 232.95 M481.65 258.35 L481.65 248.2 487.4 248.2 487.4 258.35 481.65 258.35 M481.65 243.15 L481.65 227.85 504.5 227.85 504.5 232.95 487.4 232.95 487.4 238.05 498.8 238.05 498.8 243.15 481.65 243.15 M515.9 263.45 L515.9 258.35 527.4 258.35 527.4 263.45 515.9 263.45 M498.8 258.35 L498.8 263.45 487.4 263.45 487.4 258.35 498.8 258.35 498.8 243.15 504.5 243.15 504.5 258.35 498.8 258.35 M510.2 232.95 L515.9 232.95 515.9 258.35 510.2 258.35 510.2 232.95 M527.4 232.95 L533.05 232.95 533.05 258.35 527.4 258.35 527.4 232.95 515.9 232.95 515.9 227.85 527.4 227.85 527.4 232.95" fill="#00ff00" fill-rule="evenodd" stroke="none"/>
    <path d="M391.15 75.05 L391.15 81.35 Q371.6 96.05 347.55 107.5 354.9 148.7 342.85 201.5 L337.05 201.5 Q341.6 151.5 333.65 101.55 L391.15 75.05 M208.3 181.9 L212.35 180.65 Q222.3 223.9 183.1 228.65 176.15 226.25 175.65 218.9 218.05 211.45 208.3 181.9 M249.75 82.5 Q273.65 65.55 292.6 81.35 243.35 81.05 243.2 134.1 225.8 99.4 249.75 82.5 M259.3 139.75 Q253.55 201.95 239.55 260.6 L247.0 142.05 259.3 139.75 M66.25 153.45 L85.05 80.9 Q195.8 68.45 196.05 91.2 131.6 88.35 92.05 102.1 82.3 130.2 75.3 155.6 67.05 157.9 66.25 153.45 M105.9 157.45 L105.9 150.6 147.55 145.9 147.55 162.0 Q128.25 156.0 105.9 157.45" fill="#ffff00" fill-opacity="0.2" fill-rule="evenodd" stroke="none"/>
    <path d="M389.45 259.65 L494.05 176.9 541.95 216.8 493.4 190.6 Q447.8 225.3 415.45 259.65 L389.45 259.65" fill="#00ff00" fill-opacity="0.2" fill-rule="evenodd" stroke="none"/>
    <path d="M434.3 291.4 L541.65 291.4 541.65 249.5 587.25 249.5 593.2 257.45 551.55 257.45 552.05 300.55 434.3 300.55 434.3 291.4" fill="#000000" fill-opacity="0.101960786" fill-rule="evenodd" stroke="none"/>
  </g>
</svg>
