<?xml version="1.0" encoding="UTF-8" standalone="no"?>
<svg xmlns:ffdec="https://www.free-decompiler.com/flash" xmlns:xlink="http://www.w3.org/1999/xlink" ffdec:objectType="shape" height="622.4px" width="732.1px" xmlns="http://www.w3.org/2000/svg">
  <g transform="matrix(1.0, 0.0, 0.0, 1.0, 28.7, 127.3)">
    <path d="M419.05 89.8 Q422.15 92.95 422.15 97.35 422.15 101.75 419.05 104.9 415.9 108.0 411.5 108.0 407.1 108.0 404.0 104.9 400.85 101.75 400.85 97.35 400.85 92.95 404.0 89.8 407.1 86.7 411.5 86.7 415.9 86.7 419.05 89.8" fill="#753700" fill-rule="evenodd" stroke="none"/>
    <path d="M383.3 82.2 Q388.6 244.0 323.05 313.75 297.3 284.6 285.45 250.2 284.4 279.05 284.7 308.15 L231.5 323.9 Q233.85 315.05 235.8 304.25 L224.1 310.35 Q216.05 280.8 181.0 267.05 182.65 278.9 185.5 290.4 L154.2 294.95 Q150.9 273.8 149.85 253.1 L139.8 253.95 137.25 219.85 149.65 220.15 Q151.35 171.65 166.9 120.85 132.7 119.4 110.15 127.15 108.7 143.3 108.1 153.7 L144.35 149.8 Q140.85 166.65 139.7 183.75 L106.75 186.8 Q105.25 242.5 135.05 304.65 L87.75 328.7 Q67.6 252.65 70.25 190.2 L54.55 191.7 Q54.1 173.95 57.3 157.55 L72.85 156.15 Q76.3 123.8 84.1 93.8 132.75 79.65 187.1 82.2 L186.15 93.5 Q286.6 199.85 200.6 247.0 229.25 254.8 241.4 265.1 246.85 220.35 248.8 143.15 L257.15 141.45 Q250.0 138.6 245.25 131.55 238.2 121.2 240.35 107.45 242.3 93.75 252.2 84.95 262.15 75.95 274.2 77.05 286.3 78.0 293.2 88.55 300.35 98.85 298.35 112.55 296.3 126.3 286.35 135.2 L285.9 135.55 294.05 133.95 Q292.85 143.75 291.9 153.7 L309.1 149.75 Q300.45 210.4 324.2 262.65 354.45 178.8 337.45 102.85 L383.3 82.2 M436.65 255.45 L397.15 255.45 493.25 179.6 589.2 255.45 549.75 255.45 549.75 299.05 436.65 299.05 436.65 255.45 M192.25 143.45 Q238.0 212.1 179.05 221.45 180.7 188.05 192.25 143.45" fill="none" stroke="#000000" stroke-linecap="round" stroke-linejoin="round" stroke-width="7.5"/>
    <path d="M419.05 89.8 Q422.15 92.95 422.15 97.35 422.15 101.75 419.05 104.9 415.9 108.0 411.5 108.0 407.1 108.0 404.0 104.9 400.85 101.75 400.85 97.35 400.85 92.95 404.0 89.8 407.1 86.7 411.5 86.7 415.9 86.7 419.05 89.8 Z" fill="none" stroke="#000000" stroke-linecap="round" stroke-linejoin="round" stroke-width="5.0"/>
    <path d="M414.45 92.55 Q415.45 93.45 415.45 94.75 415.45 96.55 413.6 97.4 414.4 97.75 415.1 99.4 L416.5 102.45 413.6 102.45 412.7 100.4 Q412.0 98.9 411.55 98.5 411.05 98.05 410.5 98.05 L409.8 98.05 409.8 102.45 407.05 102.45 407.05 91.65 411.9 91.65 Q413.45 91.65 414.45 92.55 M409.8 96.05 L411.15 96.05 412.25 95.75 Q412.7 95.45 412.7 94.8 412.7 93.6 411.15 93.6 L409.8 93.6 409.8 96.05" fill="#000000" fill-rule="evenodd" stroke="none"/>
    <path d="M98.45 -16.8 L113.15 4.6 115.15 7.5 Q118.6 5.9 122.7 5.9 130.2 5.9 135.55 11.1 L138.5 9.2 159.7 -4.25 162.55 0.0 149.75 8.8 Q157.3 6.35 165.25 4.65 L175.6 2.65 Q188.45 0.55 202.15 0.1 259.1 -1.7 331.5 25.05 L376.85 56.8 Q372.45 54.6 368.05 52.55 345.05 41.7 323.5 33.55 255.55 7.85 202.15 9.15 188.4 9.5 175.6 11.6 169.9 12.55 165.25 13.8 156.55 16.1 151.6 19.5 144.0 24.7 143.45 26.15 142.9 27.55 141.4 29.95 L138.5 34.15 Q137.05 36.0 131.5 39.1 125.9 42.2 122.65 42.65 L116.15 43.5 Q112.95 43.85 93.6 54.85 74.2 65.8 51.9 111.15 L51.0 113.0 Q38.95 138.0 30.15 169.0 L25.65 147.15 Q32.45 127.9 40.65 111.15 54.25 83.4 71.55 62.6 L76.85 56.5 70.35 60.65 68.0 56.85 102.2 33.25 103.85 32.1 105.4 30.95 Q104.25 27.9 104.25 24.35 104.25 16.7 109.65 11.3 L110.0 11.0 108.1 8.0 94.15 -14.0 98.45 -16.8" fill="#ffffff" fill-rule="evenodd" stroke="none"/>
    <path d="M86.95 -33.55 L98.45 -16.8 94.15 -14.0 83.2 -31.25 86.95 -33.55 M159.7 -4.25 L176.25 -14.75 178.8 -11.15 162.55 0.0 159.7 -4.25 M331.5 25.05 Q356.75 34.35 383.9 47.2 406.75 57.95 430.95 71.25 L460.9 103.65 Q416.75 76.25 376.85 56.8 L331.5 25.05 M30.15 169.0 Q27.35 178.75 24.9 189.15 22.6 198.95 20.8 208.35 L13.45 187.75 Q18.85 166.2 25.65 147.15 L30.15 169.0 M70.35 60.65 L51.6 72.55 49.6 69.5 68.0 56.85 70.35 60.65" fill="#ffffff" fill-opacity="0.8" fill-rule="evenodd" stroke="none"/>
    <path d="M63.8 -67.15 L76.35 -48.9 73.3 -46.9 61.45 -65.6 63.8 -67.15 M192.65 -25.15 L211.75 -37.2 213.2 -34.85 194.65 -22.1 192.65 -25.15 M430.95 71.25 Q453.55 83.6 477.4 98.2 L502.8 131.0 Q486.0 119.45 467.1 107.55 L460.9 103.65 430.95 71.25 M20.8 208.35 Q18.4 220.65 16.9 232.25 L16.0 239.95 6.85 217.55 Q8.9 206.7 11.55 195.45 L13.45 187.75 20.8 208.35 M33.0 84.4 L15.3 95.6 14.2 93.95 31.45 82.05 33.0 84.4" fill="#ffffff" fill-opacity="0.6" fill-rule="evenodd" stroke="none"/>
    <path d="M45.95 -81.45 Q46.3 -83.7 48.05 -85.45 L48.6 -85.95 50.2 -86.95 Q51.6 -87.65 53.3 -87.65 L55.7 -87.25 55.75 -86.45 Q55.75 -83.95 53.95 -82.1 L53.7 -81.85 Q52.9 -81.1 51.9 -80.7 L49.55 -80.3 Q47.5 -80.3 45.95 -81.45 M228.95 -48.1 L271.2 -74.9 271.25 -74.8 230.05 -46.45 228.95 -48.1 M477.4 98.2 L491.4 106.9 Q516.85 122.9 538.75 138.3 L548.1 164.5 Q527.85 148.2 502.8 131.0 L477.4 98.2 M16.0 239.95 Q13.7 261.15 14.4 280.1 L1.3 256.65 Q1.9 249.55 2.9 242.2 4.45 230.2 6.85 217.55 L16.0 239.95 M-3.7 107.7 L-28.7 123.55 -4.35 106.8 -3.7 107.7" fill="#ffffff" fill-opacity="0.4" fill-rule="evenodd" stroke="none"/>
    <path d="M538.75 138.3 Q561.65 154.4 580.65 169.75 L594.7 207.5 Q584.85 196.65 572.5 185.35 561.3 175.1 548.1 164.5 L538.75 138.3 M14.4 280.1 Q15.25 302.65 20.3 321.95 L0.05 288.85 Q-0.2 273.4 1.3 256.65 L14.4 280.1" fill="#ffffff" fill-opacity="0.2" fill-rule="evenodd" stroke="none"/>
    <path d="M504.65 194.7 Q505.95 194.7 507.0 195.5 L602.95 271.35 Q603.85 272.1 604.2 273.25 604.55 274.4 604.15 275.55 603.75 276.65 602.8 277.35 601.8 278.05 600.6 278.05 L564.9 278.05 564.9 317.9 Q564.9 319.45 563.8 320.55 562.7 321.65 561.15 321.65 L448.05 321.65 Q446.5 321.65 445.4 320.55 444.3 319.45 444.3 317.9 L444.3 278.05 408.55 278.05 Q407.35 278.05 406.4 277.35 405.4 276.65 405.0 275.55 404.6 274.4 404.95 273.25 405.3 272.1 406.25 271.35 L502.35 195.5 Q503.35 194.7 504.65 194.7 M93.65 341.2 Q76.0 271.4 77.75 213.2 L66.3 214.3 Q65.25 214.4 64.35 213.95 63.35 213.45 62.8 212.6 62.25 211.7 62.2 210.65 61.75 192.45 65.05 175.7 65.25 174.5 66.15 173.7 67.0 172.85 68.2 172.7 L80.9 171.45 Q84.4 140.5 91.9 111.7 92.1 110.75 92.8 110.05 93.5 109.35 94.45 109.05 128.5 99.15 165.25 97.35 L168.65 97.2 172.8 97.05 Q185.6 96.7 198.7 97.3 199.7 97.35 200.55 97.95 201.4 98.5 201.9 99.4 L202.15 100.05 202.25 101.35 201.45 111.0 202.15 111.75 Q251.35 164.45 255.1 202.95 L256.45 161.9 Q256.5 160.6 257.35 159.6 257.9 158.9 258.75 158.55 255.9 155.95 253.55 152.5 245.65 141.0 248.05 125.75 L248.05 125.8 Q250.2 110.7 261.1 101.05 L261.1 101.0 Q272.35 90.85 285.95 92.2 L285.9 92.15 Q299.8 93.2 307.75 105.35 315.65 116.75 313.45 131.95 312.0 141.75 306.9 149.35 L307.05 149.4 Q308.15 149.9 308.75 151.0 309.3 152.05 309.2 153.25 308.3 160.45 307.55 167.75 L319.7 164.95 322.05 165.2 Q323.15 165.7 323.8 166.8 324.4 167.9 324.25 169.15 316.45 223.55 335.25 271.05 361.0 193.3 345.2 122.55 344.9 121.25 345.5 120.05 346.1 118.85 347.35 118.3 370.3 108.0 393.2 97.65 394.35 97.1 395.55 97.4 396.8 97.7 397.6 98.7 398.4 99.65 398.45 100.95 403.8 264.65 337.2 335.2 336.45 335.95 335.45 336.25 L333.4 336.2 Q332.35 335.9 331.65 335.1 311.8 312.65 300.1 287.15 299.65 307.0 299.85 326.95 299.85 328.2 299.15 329.25 298.4 330.25 297.2 330.6 L262.4 340.9 244.0 346.35 241.4 346.2 Q240.1 345.6 239.55 344.4 238.9 343.15 239.3 341.8 L239.5 341.1 242.05 330.05 237.25 332.55 Q236.2 333.05 235.1 332.95 233.95 332.8 233.05 332.05 232.2 331.3 231.9 330.2 225.55 307.4 202.15 294.6 199.75 293.25 197.15 292.05 198.55 300.3 200.55 308.35 200.8 309.4 200.5 310.4 L199.35 312.1 Q198.5 312.8 197.45 312.95 L166.15 317.5 165.25 317.55 Q164.25 317.5 163.4 316.85 162.15 315.9 161.9 314.4 158.85 295.0 157.75 276.0 L151.55 276.55 Q149.95 276.65 148.8 275.65 147.55 274.65 147.45 273.1 L144.9 239.0 Q144.8 237.9 145.35 237.0 145.85 236.0 146.75 235.5 147.7 234.95 148.75 234.95 L157.45 235.15 Q158.8 205.6 165.25 175.2 168.6 159.35 173.35 143.3 L165.25 143.25 Q141.95 143.55 125.05 148.8 124.05 160.05 123.55 168.35 L155.35 164.95 Q156.55 164.8 157.6 165.4 158.65 166.0 159.2 167.15 159.65 168.25 159.45 169.45 156.0 186.0 154.85 202.85 154.75 204.25 153.8 205.25 152.8 206.2 151.45 206.35 L121.85 209.1 Q121.35 262.5 149.85 321.9 150.5 323.25 150.0 324.7 149.5 326.15 148.15 326.85 L120.0 341.2 100.85 350.9 Q99.8 351.4 98.7 351.3 97.55 351.15 96.7 350.4 95.8 349.6 95.55 348.5 L93.65 341.2 M627.55 315.75 Q634.05 302.6 634.3 288.3 648.3 275.0 657.15 251.45 736.9 386.8 410.95 446.9 288.2 469.55 202.15 464.15 182.75 462.95 165.25 460.3 101.3 450.7 62.15 422.15 45.8 410.25 33.75 395.1 39.1 395.75 47.45 397.9 71.0 403.85 118.3 421.8 L127.1 424.6 Q144.8 429.9 165.25 433.05 182.7 435.7 202.15 436.9 281.05 441.55 393.0 420.9 516.0 398.2 576.3 363.9 614.5 342.15 627.55 315.75 M205.2 171.65 L202.15 184.9 Q196.1 212.85 194.5 235.75 198.65 234.85 202.15 233.55 217.1 228.0 219.55 215.5 222.0 199.15 205.2 171.65 M249.85 277.1 Q252.4 253.9 254.1 222.85 248.65 247.25 221.4 264.7 239.35 270.3 249.85 277.1" fill="#000000" fill-opacity="0.101960786" fill-rule="evenodd" stroke="none"/>
    <path d="M262.4 340.9 Q345.1 340.3 404.05 340.4 605.35 340.8 627.55 315.75 614.5 342.15 576.3 363.9 516.0 398.2 393.0 420.9 281.05 441.55 202.15 436.9 182.7 435.7 165.25 433.05 144.8 429.9 127.1 424.6 L118.3 421.8 Q71.0 403.85 47.45 397.9 39.1 395.75 33.75 395.1 L29.9 390.0 Q16.05 370.8 8.65 346.75 L7.25 341.85 7.25 341.8 7.3 341.8 3.25 323.35 Q28.35 335.95 83.95 341.2 L93.65 341.2 95.55 348.5 Q95.8 349.6 96.7 350.4 97.55 351.15 98.7 351.3 99.8 351.4 100.85 350.9 L120.0 341.2 165.25 341.35 201.35 341.55 202.15 341.55 239.5 341.1 239.3 341.8 Q238.9 343.15 239.55 344.4 240.1 345.6 241.4 346.2 L244.0 346.35 262.4 340.9 M634.3 288.3 Q634.6 272.05 626.85 254.35 632.2 233.2 626.85 212.05 L630.95 216.5 Q647.2 234.55 657.15 251.45 648.3 275.0 634.3 288.3" fill="#000000" fill-opacity="0.050980393" fill-rule="evenodd" stroke="none"/>
    <path d="M45.95 -81.45 Q47.5 -80.3 49.55 -80.3 L51.9 -80.7 Q52.9 -81.1 53.7 -81.85 L53.95 -82.1 Q55.75 -83.95 55.75 -86.45 L55.7 -87.25 Q57.3 -86.75 58.65 -85.45 60.8 -83.25 60.8 -80.15 60.8 -77.05 58.65 -74.85 L58.6 -74.75 63.8 -67.15 61.45 -65.6 56.55 -73.35 Q55.05 -72.65 53.3 -72.65 50.2 -72.65 48.05 -74.85 45.85 -77.05 45.85 -80.15 L45.95 -81.45 M211.75 -37.2 L228.95 -48.1 230.05 -46.45 213.2 -34.85 211.75 -37.2 M15.3 95.6 L-3.7 107.7 -4.35 106.8 14.2 93.95 15.3 95.6" fill="#ffffff" fill-opacity="0.49803922" fill-rule="evenodd" stroke="none"/>
    <path d="M76.35 -48.9 L86.95 -33.55 83.2 -31.25 73.3 -46.9 76.35 -48.9 M113.15 4.6 Q117.45 2.5 122.65 2.5 131.8 2.5 138.3 9.0 L138.5 9.2 135.55 11.1 Q130.2 5.9 122.7 5.9 118.6 5.9 115.15 7.5 L113.15 4.6 M176.25 -14.75 L192.65 -25.15 194.65 -22.1 178.8 -11.15 176.25 -14.75 M323.5 33.55 Q242.55 6.5 202.15 11.45 L198.7 11.95 Q177.2 15.5 165.25 19.0 154.8 22.1 151.65 25.15 144.95 31.75 141.5 36.25 L137.35 41.2 Q132.35 45.85 125.5 46.3 118.65 46.7 109.65 50.85 77.6 68.4 52.1 111.15 L51.0 113.0 51.9 111.15 Q74.2 65.8 93.6 54.85 112.95 43.85 116.15 43.5 L122.65 42.65 Q125.9 42.2 131.5 39.1 137.05 36.0 138.5 34.15 L141.4 29.95 Q142.9 27.55 143.45 26.15 144.0 24.7 151.6 19.5 156.55 16.1 165.25 13.8 169.9 12.55 175.6 11.6 188.4 9.5 202.15 9.15 255.55 7.85 323.5 33.55 M51.6 72.55 L33.0 84.4 31.45 82.05 49.6 69.5 51.6 72.55 M102.2 33.25 Q100.55 29.25 100.55 24.6 100.55 15.45 107.0 9.0 L108.1 8.0 110.0 11.0 109.65 11.3 Q104.25 16.7 104.25 24.35 104.25 27.9 105.4 30.95 L103.85 32.1 102.2 33.25" fill="#ffffff" fill-opacity="0.7019608" fill-rule="evenodd" stroke="none"/>
    <path d="M630.95 216.5 Q841.1 403.1 441.55 476.8 292.75 504.25 197.85 490.5 180.65 488.0 165.25 484.2 95.75 466.9 62.15 422.15 101.3 450.7 165.25 460.3 182.75 462.95 202.15 464.15 288.2 469.55 410.95 446.9 736.9 386.8 657.15 251.45 647.2 234.55 630.95 216.5" fill="#000000" fill-opacity="0.3019608" fill-rule="evenodd" stroke="none"/>
    <path d="M55.7 -87.25 L53.3 -87.65 Q51.6 -87.65 50.2 -86.95 L48.6 -85.95 48.05 -85.45 Q46.3 -83.7 45.95 -81.45 L45.2 -82.1 Q43.4 -83.95 43.4 -86.45 43.4 -89.05 45.2 -90.85 L45.4 -91.0 22.4 -127.3 46.75 -92.0 Q48.0 -92.65 49.55 -92.65 52.15 -92.65 53.95 -90.85 55.45 -89.3 55.7 -87.25" fill="#ffffff" fill-opacity="0.3019608" fill-rule="evenodd" stroke="none"/>
    <path d="M131.15 -22.85 Q132.2 -20.7 132.2 -18.1 132.2 -13.3 128.8 -9.9 125.35 -6.45 120.6 -6.45 115.8 -6.45 112.4 -9.9 109.0 -13.3 109.0 -18.1 109.0 -21.5 110.7 -24.25 115.3 -19.95 121.75 -19.95 127.05 -19.95 131.15 -22.85" fill="#ffffff" fill-opacity="0.101960786" fill-rule="evenodd" stroke="none"/>
    <path d="M110.7 -24.25 L112.4 -26.25 Q115.8 -29.7 120.6 -29.7 125.35 -29.7 128.8 -26.25 130.3 -24.75 131.15 -22.85 127.05 -19.95 121.75 -19.95 115.3 -19.95 110.7 -24.25" fill="#ffffff" fill-opacity="0.2509804" fill-rule="evenodd" stroke="none"/>
    <path d="M110.7 -24.25 L110.0 -24.95 Q105.0 -29.85 105.0 -36.7 105.0 -43.7 110.0 -48.6 114.8 -53.45 121.75 -53.45 128.7 -53.45 133.65 -48.6 138.5 -43.7 138.5 -36.7 138.5 -29.85 133.65 -24.95 132.5 -23.8 131.15 -22.85 130.3 -24.75 128.8 -26.25 125.35 -29.7 120.6 -29.7 115.8 -29.7 112.4 -26.25 L110.7 -24.25" fill="#ffffff" fill-opacity="0.14901961" fill-rule="evenodd" stroke="none"/>
    <path d="M430.55 115.6 Q430.55 120.65 427.0 124.25 423.4 127.85 418.35 127.85 413.3 127.85 409.75 124.25 406.2 120.65 406.2 115.6 406.2 110.6 409.75 107.0 413.3 103.45 418.35 103.45 423.4 103.45 427.0 107.0 430.55 110.6 430.55 115.6" fill="#000000" fill-opacity="0.09803922" fill-rule="evenodd" stroke="none"/>
  </g>
</svg>
