<?xml version="1.0" encoding="UTF-8" standalone="no"?>
<svg xmlns:ffdec="https://www.free-decompiler.com/flash" xmlns:xlink="http://www.w3.org/1999/xlink" ffdec:objectType="shape" height="75.15px" width="74.4px" xmlns="http://www.w3.org/2000/svg">
  <g transform="matrix(1.0, 0.0, 0.0, 1.0, 0.0, 0.0)">
    <path d="M13.2 47.7 Q11.55 45.8 10.4 43.7 7.5 38.45 7.5 32.0 7.5 21.85 14.65 14.65 21.85 7.5 32.0 7.5 39.35 7.5 45.15 11.25 47.35 12.7 49.3 14.65 L51.95 17.7 Q54.0 22.35 54.0 27.9 54.0 38.35 46.6 45.7 39.25 53.1 28.8 53.1 19.85 53.1 13.2 47.7" fill="#950000" fill-rule="evenodd" stroke="none"/>
    <path d="M51.95 17.7 Q56.5 23.9 56.5 32.0 56.5 42.15 49.3 49.3 42.15 56.5 32.0 56.5 21.85 56.5 14.65 49.3 L13.2 47.7 Q19.85 53.1 28.8 53.1 39.25 53.1 46.6 45.7 54.0 38.35 54.0 27.9 54.0 22.35 51.95 17.7" fill="#800000" fill-rule="evenodd" stroke="none"/>
    <path d="M14.4 58.8 Q22.1 64.0 32.0 64.0 45.25 64.0 54.6 54.6 64.0 45.25 64.0 32.0 64.0 23.35 60.0 16.4 62.65 18.15 65.05 20.55 74.4 29.9 74.4 43.15 74.4 56.45 65.05 65.8 55.65 75.15 42.4 75.15 29.15 75.15 19.8 65.8 16.5 62.5 14.4 58.8" fill="#000000" fill-opacity="0.101960786" fill-rule="evenodd" stroke="none"/>
    <path d="M51.95 17.7 L49.3 14.65 Q47.35 12.7 45.15 11.25 39.35 7.5 32.0 7.5 21.85 7.5 14.65 14.65 7.5 21.85 7.5 32.0 7.5 38.45 10.4 43.7 11.55 45.8 13.2 47.7 L14.65 49.3 Q21.85 56.5 32.0 56.5 42.15 56.5 49.3 49.3 56.5 42.15 56.5 32.0 56.5 23.9 51.95 17.7 M14.4 58.8 Q11.75 57.0 9.35 54.6 0.0 45.25 0.0 32.0 0.0 18.75 9.35 9.35 18.75 0.0 32.0 0.0 45.25 0.0 54.6 9.35 57.9 12.65 60.0 16.4 64.0 23.35 64.0 32.0 64.0 45.25 54.6 54.6 45.25 64.0 32.0 64.0 22.1 64.0 14.4 58.8" fill="#4a0000" fill-rule="evenodd" stroke="none"/>
    <path d="M47.4 24.7 Q47.4 26.6 46.55 28.0 45.65 29.35 44.25 30.3 45.55 30.85 46.65 31.85 47.55 32.85 48.1 34.25 48.65 35.45 48.65 36.85 48.65 38.55 47.95 40.2 47.25 41.8 45.85 43.1 44.55 44.4 42.7 45.05 40.85 45.8 38.65 45.8 36.4 45.8 34.55 44.95 32.75 44.2 31.6 42.95 L29.75 40.4 Q29.2 39.1 29.2 38.2 29.2 36.95 30.0 36.25 30.85 35.45 32.0 35.45 32.55 35.45 33.2 35.85 L34.0 36.8 Q34.85 39.15 35.85 40.25 36.95 41.4 38.65 41.4 L40.65 40.95 42.25 39.4 Q42.95 38.4 42.95 37.1 42.95 35.15 41.85 34.0 40.7 32.85 38.85 32.85 L37.8 33.0 36.7 33.1 Q35.6 33.1 34.95 32.45 34.25 31.85 34.25 30.75 34.25 29.75 35.0 29.05 35.8 28.45 37.25 28.45 L38.0 28.45 Q39.55 28.45 40.65 27.55 41.7 26.7 41.7 25.05 41.7 23.75 40.85 22.9 39.95 21.9 38.55 21.9 L36.85 22.2 Q36.25 22.5 35.85 23.0 L35.0 24.3 34.45 25.75 33.6 26.5 32.35 26.75 Q31.4 26.75 30.75 26.0 30.0 25.35 30.0 24.2 30.0 23.15 30.6 22.05 31.2 21.0 32.35 19.9 33.45 19.0 35.25 18.3 L39.0 17.75 42.35 18.2 Q43.85 18.8 45.1 19.75 46.15 20.7 46.8 21.9 47.4 23.3 47.4 24.7 M24.0 18.6 Q24.65 19.45 24.65 20.9 L24.65 41.8 Q24.65 45.8 21.8 45.8 20.45 45.8 19.75 44.95 18.95 44.1 18.95 42.5 L18.95 26.2 17.1 27.75 Q14.85 28.95 13.85 26.95 13.25 25.4 15.0 23.9 L17.05 22.5 19.35 19.9 20.75 18.15 Q21.15 17.75 22.05 17.75 23.2 17.75 24.0 18.6" fill="#ffffff" fill-rule="evenodd" stroke="none"/>
  </g>
</svg>
