<?xml version="1.0" encoding="UTF-8" standalone="no"?>
<svg xmlns:ffdec="https://www.free-decompiler.com/flash" xmlns:xlink="http://www.w3.org/1999/xlink" ffdec:objectType="shape" height="465.2px" width="672.9px" xmlns="http://www.w3.org/2000/svg">
  <g transform="matrix(1.0, 0.0, 0.0, 1.0, 0.0, 0.0)">
    <path d="M491.4 106.9 Q558.25 149.0 600.45 186.5 810.5 373.2 410.95 446.9 -68.9 535.4 11.55 195.45 L13.75 186.5 Q97.3 -141.2 491.4 106.9 M350.75 96.15 L350.75 121.15 375.75 121.15 375.75 146.15 400.75 146.15 400.75 121.15 425.75 121.15 425.8 146.15 450.75 146.15 450.75 171.15 475.75 171.15 475.75 196.15 500.75 196.15 500.75 221.15 525.75 221.15 525.75 246.15 550.75 246.15 550.75 271.15 525.75 271.15 525.75 296.15 550.75 296.15 550.75 321.15 525.75 321.15 525.75 346.15 500.75 346.15 500.75 371.15 475.75 371.15 475.75 346.15 450.75 346.15 450.75 371.15 425.75 371.15 425.75 346.15 400.75 346.15 400.75 371.15 375.75 371.15 375.75 396.15 350.75 396.15 350.75 371.15 325.75 371.15 325.75 396.15 300.75 396.15 300.75 371.15 275.75 371.15 275.75 396.15 250.75 396.15 250.75 421.15 225.75 421.15 225.75 396.15 200.75 396.15 200.75 371.15 175.75 371.15 175.75 396.15 150.8 396.15 150.75 371.15 125.75 371.15 125.75 346.15 100.75 346.15 100.75 321.15 75.8 321.15 75.75 296.15 100.75 296.15 100.75 271.15 75.8 271.15 75.75 246.15 100.75 246.15 100.75 221.15 75.8 221.15 75.75 196.15 100.75 196.15 100.75 171.15 125.75 171.15 125.75 146.15 150.75 146.15 150.75 171.15 175.75 171.15 175.75 146.15 150.8 146.15 150.75 121.15 175.75 121.15 175.75 96.15 200.75 96.15 200.75 71.15 225.75 71.15 225.75 96.15 250.75 96.15 250.75 71.15 275.75 71.15 275.75 96.15 300.75 96.15 300.75 121.15 325.75 121.15 325.75 96.15 350.75 96.15 M325.75 146.15 L350.75 146.15 350.75 121.15 325.75 121.15 325.75 146.15 300.75 146.15 300.75 121.15 275.75 121.15 275.75 96.15 250.75 96.15 250.75 121.15 225.75 121.15 225.75 96.15 200.75 96.15 200.75 121.15 175.75 121.15 175.75 146.15 200.75 146.15 200.75 171.15 175.75 171.15 175.75 196.15 150.8 196.15 150.75 171.15 125.75 171.15 125.75 196.15 100.75 196.15 100.75 221.15 125.75 221.15 125.75 246.15 100.75 246.15 100.75 271.15 125.75 271.15 125.75 296.15 100.75 296.15 100.75 321.15 125.75 321.15 125.75 346.15 150.75 346.15 150.75 371.15 175.75 371.15 175.75 346.15 200.75 346.15 200.75 371.15 225.75 371.15 225.75 396.15 250.75 396.15 250.75 371.15 275.75 371.15 275.75 346.15 300.75 346.15 300.75 371.15 325.75 371.15 325.75 346.15 350.75 346.15 350.75 371.15 375.75 371.15 375.75 346.15 400.75 346.15 400.75 321.15 425.75 321.15 425.8 346.15 450.75 346.15 450.75 321.15 475.75 321.15 475.75 346.15 500.75 346.15 500.75 321.15 525.75 321.15 525.75 296.15 500.75 296.15 500.75 271.15 525.75 271.15 525.75 246.15 500.75 246.15 500.75 221.15 475.75 221.15 475.75 196.15 450.75 196.15 450.75 171.15 425.75 171.15 425.75 146.15 400.75 146.15 400.75 171.15 375.75 171.15 375.75 146.15 350.75 146.15 350.75 171.15 325.75 171.15 325.75 146.15 M325.75 171.15 L325.75 196.15 350.75 196.15 350.75 171.15 375.75 171.15 375.75 196.15 400.75 196.15 400.75 171.15 425.75 171.15 425.8 196.15 450.75 196.15 450.75 221.15 475.75 221.15 475.75 246.15 500.75 246.15 500.75 271.15 475.75 271.15 475.75 296.15 500.75 296.15 500.75 321.15 475.75 321.15 475.75 296.15 450.75 296.15 450.75 321.15 425.75 321.15 425.75 296.15 400.75 296.15 400.75 321.15 375.75 321.15 375.75 346.15 350.75 346.15 350.75 321.15 325.75 321.15 325.75 346.15 300.75 346.15 300.75 321.15 275.75 321.15 275.75 346.15 250.75 346.15 250.75 371.15 225.75 371.15 225.75 346.15 200.75 346.15 200.75 321.15 175.75 321.15 175.75 346.15 150.8 346.15 150.75 321.15 125.75 321.15 125.75 296.15 150.75 296.15 150.75 321.15 175.75 321.15 175.75 296.15 150.8 296.15 150.75 271.15 125.75 271.15 125.75 246.15 150.75 246.15 150.75 271.15 175.75 271.15 175.75 246.15 150.8 246.15 150.75 221.15 125.75 221.15 125.75 196.15 150.75 196.15 150.75 221.15 175.75 221.15 175.75 196.15 200.75 196.15 200.75 171.15 225.75 171.15 225.75 146.15 200.75 146.15 200.75 121.15 225.75 121.15 225.75 146.15 250.75 146.15 250.75 121.15 275.75 121.15 275.75 146.15 300.75 146.15 300.75 171.15 325.75 171.15 M350.75 196.15 L350.75 221.15 375.75 221.15 375.75 196.15 350.75 196.15 M400.75 196.15 L400.75 221.15 425.75 221.15 425.75 196.15 400.75 196.15 M450.75 221.15 L425.75 221.15 425.8 246.15 450.75 246.15 450.75 221.15 M450.75 246.15 L450.75 271.15 475.75 271.15 475.75 246.15 450.75 246.15 M425.8 296.15 L450.75 296.15 450.75 271.15 425.75 271.15 425.8 296.15 M425.75 246.15 L400.75 246.15 400.75 271.15 425.75 271.15 425.75 246.15 M400.75 246.15 L400.75 221.15 375.75 221.15 375.75 246.15 400.75 246.15 M325.75 246.15 L350.75 246.15 350.75 221.15 325.75 221.15 325.75 246.15 300.75 246.15 300.75 221.15 325.75 221.15 325.75 196.15 300.75 196.15 300.75 171.15 275.75 171.15 275.75 146.15 250.75 146.15 250.75 171.15 225.75 171.15 225.75 196.15 200.75 196.15 200.75 221.15 175.75 221.15 175.75 246.15 200.75 246.15 200.75 271.15 175.75 271.15 175.75 296.15 200.75 296.15 200.75 321.15 225.75 321.15 225.75 346.15 250.75 346.15 250.75 321.15 275.75 321.15 275.75 296.15 300.75 296.15 300.75 321.15 325.75 321.15 325.75 296.15 350.75 296.15 350.75 321.15 375.75 321.15 375.75 296.15 400.75 296.15 400.75 271.15 375.75 271.15 375.75 246.15 350.75 246.15 350.75 271.15 325.75 271.15 325.75 246.15 M350.75 296.15 L350.75 271.15 375.75 271.15 375.75 296.15 350.75 296.15 M325.75 271.15 L325.75 296.15 300.75 296.15 300.75 271.15 275.75 271.15 275.75 296.15 250.75 296.15 250.75 321.15 225.75 321.15 225.75 296.15 200.75 296.15 200.75 271.15 225.75 271.15 225.75 246.15 200.75 246.15 200.75 221.15 225.75 221.15 225.75 196.15 250.75 196.15 250.75 171.15 275.75 171.15 275.75 196.15 300.75 196.15 300.75 221.15 275.75 221.15 275.75 246.15 300.75 246.15 300.75 271.15 325.75 271.15 M585.0 285.7 L560.0 285.7 560.0 260.7 585.0 260.7 585.0 285.7 M560.0 298.95 L585.0 298.95 585.0 323.95 560.0 323.95 560.0 298.95 M454.3 136.2 Q139.05 -62.25 72.2 199.9 L70.45 207.05 Q6.1 479.0 389.95 408.2 709.6 349.25 541.55 199.9 507.8 169.9 454.3 136.2 M250.75 196.15 L250.75 221.15 275.75 221.15 275.75 196.15 250.75 196.15 M168.4 112.05 L143.4 112.05 143.4 87.05 168.4 87.05 168.4 112.05 M140.55 140.75 L115.55 140.75 115.55 115.75 140.55 115.75 140.55 140.75 M250.75 246.15 L250.75 271.15 275.75 271.15 275.75 246.15 250.75 246.15 250.75 221.15 225.75 221.15 225.75 246.15 250.75 246.15 M250.75 271.15 L225.75 271.15 225.75 296.15 250.75 296.15 250.75 271.15" fill="#00ff00" fill-rule="evenodd" stroke="none"/>
  </g>
</svg>
