<?xml version="1.0" encoding="UTF-8" standalone="no"?>
<svg xmlns:ffdec="https://www.free-decompiler.com/flash" xmlns:xlink="http://www.w3.org/1999/xlink" ffdec:objectType="shape" height="702.05px" width="666.3px" xmlns="http://www.w3.org/2000/svg">
  <g transform="matrix(1.0, 0.0, 0.0, 1.0, -2.2, 0.0)">
    <path d="M659.15 108.65 Q652.2 118.2 644.5 126.75 636.7 135.5 626.7 141.0 621.85 143.6 621.75 139.05 616.2 145.1 611.5 151.95 599.0 170.0 601.55 191.9 630.35 227.65 647.15 270.35 663.95 313.1 667.45 359.15 670.95 404.7 662.6 449.45 654.15 494.6 632.25 534.9 610.65 574.65 579.0 606.95 547.2 639.4 507.75 662.1 468.1 685.05 423.25 694.5 378.45 704.15 332.6 701.5 287.9 699.1 245.8 684.2 202.35 668.9 165.65 641.05 129.5 613.7 101.55 578.15 73.0 541.7 56.85 498.3 41.1 456.0 38.0 411.0 34.8 364.95 43.85 319.85 52.9 274.85 75.3 234.8 97.35 195.5 129.55 163.35 L138.35 154.9 Q171.2 124.05 211.1 103.7 250.3 83.7 293.65 76.1 349.35 66.4 405.4 74.95 470.0 85.05 524.8 121.3 530.05 120.85 535.1 119.2 555.4 112.05 568.2 94.3 L566.85 94.55 566.35 94.1 Q565.65 86.05 570.45 78.7 579.3 65.05 590.15 52.8 596.0 46.25 603.5 50.45 610.85 54.6 616.7 60.65 618.85 58.2 621.2 56.05 629.45 48.5 640.35 51.75 649.35 54.35 652.6 63.15 657.45 76.4 647.2 86.25 653.15 91.3 658.5 96.95 663.7 102.4 659.15 108.65 M634.65 59.4 Q627.25 59.75 623.45 66.3 L640.45 80.6 Q645.9 76.15 645.55 69.5 644.1 60.3 634.65 59.4" fill="#000000" fill-opacity="0.2" fill-rule="evenodd" stroke="none"/>
    <path d="M516.85 75.65 Q528.15 69.5 538.2 58.65 L538.3 58.45 573.9 17.0 588.05 27.35 Q538.25 77.1 516.85 75.65" fill="#3e0000" fill-rule="evenodd" stroke="none"/>
    <path d="M588.05 27.35 L599.05 36.1 Q533.8 100.2 506.25 80.2 L512.9 77.55 514.0 77.05 516.1 76.0 Q516.5 75.85 516.85 75.65 538.25 77.1 588.05 27.35" fill="#360000" fill-rule="evenodd" stroke="none"/>
    <path d="M599.05 36.1 L608.3 46.5 572.7 87.95 572.5 88.15 Q554.35 110.9 555.15 135.95 547.0 126.5 537.95 117.5 518.35 97.9 497.0 82.5 501.7 81.7 506.25 80.2 533.8 100.2 599.05 36.1" fill="#320000" fill-rule="evenodd" stroke="none"/>
    <path d="M555.15 135.95 Q555.3 140.65 556.1 145.5 556.4 147.1 557.45 148.4 623.05 229.5 623.0 337.75 623.0 464.25 533.55 553.65 444.15 643.05 317.7 643.05 191.3 643.05 101.85 553.65 12.5 464.25 12.5 337.75 12.5 211.35 101.85 121.9 191.3 32.5 317.7 32.5 412.1 32.45 485.85 82.35 487.65 83.5 489.8 83.4 L497.0 82.5 Q518.35 97.9 537.95 117.5 547.0 126.5 555.15 135.95" fill="url(#gradient0)" fill-rule="evenodd" stroke="none"/>
    <path d="M436.5 67.55 Q438.6 63.85 446.05 64.6 453.5 65.4 461.9 70.25 470.25 75.1 474.65 81.15 479.05 87.15 476.9 90.85 474.75 94.55 467.3 93.8 459.85 93.0 451.5 88.15 443.15 83.35 438.8 77.3 434.35 71.25 436.5 67.55 M598.25 222.4 L603.75 224.05 Q606.2 231.95 606.2 241.15 613.25 257.9 616.4 272.0 611.55 264.4 604.45 257.35 602.3 268.05 597.4 280.15 595.75 262.15 592.85 244.1 582.1 233.5 570.75 224.2 L588.95 222.55 Q586.05 208.5 582.45 194.45 591.8 207.85 598.25 222.4 M327.95 32.7 Q339.9 35.75 349.35 41.65 L380.1 41.65 363.75 49.6 383.6 68.0 Q365.9 62.8 347.85 59.5 L323.3 76.1 322.25 53.05 289.0 47.35 323.75 42.9 Q325.1 37.6 327.95 32.7 M596.0 343.9 Q600.65 351.55 600.65 362.45 600.65 373.3 596.0 380.9 591.4 388.6 584.75 388.6 578.2 388.6 573.55 380.9 568.9 373.3 568.9 362.45 568.9 351.55 573.55 343.9 578.2 336.25 584.75 336.25 591.4 336.25 596.0 343.9 M252.0 54.3 L234.8 73.7 Q239.5 78.6 234.8 86.35 221.6 81.7 209.65 78.95 L207.35 80.55 205.05 81.65 202.85 82.3 Q201.45 82.5 200.0 82.3 199.0 82.1 198.05 81.5 L197.0 80.4 Q196.7 79.8 196.7 79.2 196.7 78.6 197.05 78.0 L197.9 76.65 Q187.1 74.9 177.45 74.9 185.05 68.0 192.6 67.75 223.3 45.6 248.5 41.9 263.05 41.2 252.0 54.3 M138.35 98.65 Q134.5 103.85 127.65 109.5 120.8 115.15 114.95 117.95 109.15 120.75 107.75 119.05 106.3 117.3 110.15 112.1 113.95 106.9 120.8 101.25 127.65 95.55 133.55 92.8 139.35 90.0 140.75 91.7 142.15 93.45 138.35 98.65 M76.85 155.65 Q83.25 151.0 86.85 153.2 90.45 155.45 89.15 163.25 87.8 171.05 82.35 179.85 76.9 188.65 70.5 193.3 64.1 197.95 60.45 195.7 56.9 193.5 58.2 185.7 59.5 177.9 65.0 169.1 70.45 160.3 76.85 155.65 M24.5 338.2 L27.3 302.8 36.75 330.6 57.3 320.05 Q49.2 335.55 43.3 350.95 48.8 368.2 55.8 385.05 L35.4 371.35 27.3 396.25 24.35 360.3 Q18.0 353.2 15.2 346.15 18.15 341.65 24.5 338.2 M264.9 487.0 L267.5 491.35 270.2 495.9 273.0 500.8 275.8 506.1 278.7 511.7 281.6 517.6 Q290.0 518.65 298.35 527.7 280.8 531.3 262.55 534.05 263.2 537.3 260.95 539.75 260.1 540.65 259.0 541.0 L252.65 541.45 Q249.55 541.0 247.1 539.05 245.65 537.95 244.7 536.45 L212.0 539.75 Q210.0 528.95 217.55 527.2 L215.95 521.8 214.55 516.6 213.25 511.65 212.15 506.9 210.8 500.4 209.75 494.4 209.1 488.95 208.9 482.6 Q208.9 479.3 209.5 476.1 210.05 473.0 211.55 470.3 213.25 467.4 215.5 465.0 217.55 462.8 220.2 461.4 222.8 460.05 225.75 459.65 228.9 459.2 232.1 459.6 235.05 460.0 238.0 460.95 241.0 461.85 243.85 463.35 245.5 464.2 247.05 465.4 L251.5 469.3 254.95 473.2 258.6 477.75 262.3 483.05 264.9 487.0 M322.85 561.85 Q333.9 561.85 341.7 567.1 349.45 572.4 349.45 579.8 349.45 587.3 341.7 592.55 333.9 597.8 322.85 597.8 311.85 597.8 304.05 592.55 296.3 587.3 296.3 579.8 296.3 572.4 304.05 567.1 311.85 561.85 322.85 561.85 M63.25 441.65 Q69.75 446.75 74.3 456.2 78.85 465.6 78.8 473.85 78.7 482.1 74.1 484.35 69.55 486.55 63.05 481.45 56.55 476.35 52.05 466.9 47.5 457.45 47.55 449.2 47.6 441.0 52.2 438.8 56.8 436.55 63.25 441.65 M60.15 496.5 Q69.65 510.7 80.35 523.75 87.7 526.9 95.8 528.15 92.7 533.85 92.15 539.55 101.05 550.85 112.85 562.15 L97.65 550.05 Q81.55 533.55 68.45 515.75 L60.15 496.5 M152.05 525.6 Q160.25 532.7 163.15 541.1 166.05 549.5 161.95 554.2 157.8 558.95 149.1 557.25 140.4 555.6 132.2 548.45 124.0 541.35 121.05 532.9 118.2 524.5 122.3 519.8 126.45 515.1 135.1 516.75 143.85 518.45 152.05 525.6 M307.5 639.55 Q313.85 641.2 313.75 642.75 L313.1 643.5 Q291.1 643.2 270.2 640.15 269.65 639.7 269.65 639.2 269.85 637.7 276.35 637.1 282.9 636.6 292.0 637.3 301.15 638.0 307.5 639.55 M204.55 615.0 Q193.3 614.2 180.15 609.5 L185.45 603.25 Q172.2 595.45 161.6 583.1 176.85 590.4 192.55 596.6 L208.3 583.1 218.65 605.95 Q236.0 611.6 253.8 616.0 237.5 617.5 223.25 615.75 225.6 621.6 229.9 628.0 L204.55 615.0 M515.7 492.75 Q504.1 484.7 492.2 474.15 509.4 472.3 526.4 469.25 L542.95 431.7 Q547.25 448.65 549.1 464.65 561.5 461.85 573.8 458.4 560.1 474.55 550.2 483.25 550.2 497.2 548.15 511.55 539.0 508.0 529.95 502.9 513.15 518.55 500.5 527.5 L515.7 492.75 M612.9 427.15 L612.7 427.75 Q610.05 436.3 607.0 444.6 L603.65 450.2 Q602.6 456.1 599.0 456.85 594.35 462.85 588.45 468.5 589.55 461.85 594.65 454.05 L602.75 414.15 Q611.15 380.4 616.4 392.5 618.3 406.2 612.9 427.15 M488.05 582.1 Q479.8 587.85 472.1 589.25 464.4 590.65 461.8 586.85 459.15 583.1 463.1 576.3 467.05 569.6 475.35 563.85 483.6 558.1 491.3 556.7 498.95 555.35 501.65 559.05 504.25 562.85 500.25 569.6 496.3 576.35 488.05 582.1 M365.15 527.65 Q361.9 518.75 367.65 509.5 373.4 500.3 384.75 496.15 396.15 492.0 406.55 495.35 416.85 498.7 420.1 507.65 423.35 516.5 417.6 525.8 411.85 535.0 400.45 539.15 389.1 543.3 378.75 539.95 368.4 536.6 365.15 527.65 M431.4 610.85 Q430.25 612.45 428.55 613.9 423.15 618.75 418.25 622.2 L409.75 627.85 Q408.35 632.95 385.7 632.9 383.5 635.35 378.7 635.15 374.9 634.9 376.3 632.7 L352.55 631.1 Q359.4 626.3 369.45 627.2 375.35 622.9 381.45 619.1 387.75 615.05 394.25 611.5 401.0 607.8 407.95 604.45 L410.7 603.15 Q420.45 599.35 426.85 600.1 438.45 601.45 431.4 610.85" fill="#ffffff" fill-opacity="0.050980393" fill-rule="evenodd" stroke="none"/>
    <path d="M436.5 67.55 Q438.6 63.85 446.05 64.6 453.5 65.4 461.9 70.25 470.25 75.1 474.65 81.15 479.05 87.15 476.9 90.85 474.75 94.55 467.3 93.8 459.85 93.0 451.5 88.15 443.15 83.35 438.8 77.3 434.35 71.25 436.5 67.55 M327.95 32.7 Q325.1 37.6 323.75 42.9 L289.0 47.35 322.25 53.05 323.3 76.1 347.85 59.5 Q365.9 62.8 383.6 68.0 L363.75 49.6 380.1 41.65 349.35 41.65 Q339.9 35.75 327.95 32.7 M598.25 222.4 Q591.8 207.85 582.45 194.45 586.05 208.5 588.95 222.55 L570.75 224.2 Q582.1 233.5 592.85 244.1 595.75 262.15 597.4 280.15 602.3 268.05 604.45 257.35 611.55 264.4 616.4 272.0 613.25 257.9 606.2 241.15 606.2 231.95 603.75 224.05 L598.25 222.4 M596.0 343.9 Q600.65 351.55 600.65 362.45 600.65 373.3 596.0 380.9 591.4 388.6 584.75 388.6 578.2 388.6 573.55 380.9 568.9 373.3 568.9 362.45 568.9 351.55 573.55 343.9 578.2 336.25 584.75 336.25 591.4 336.25 596.0 343.9 M252.0 54.3 L234.8 73.7 Q239.5 78.6 234.8 86.35 221.6 81.7 209.65 78.95 L207.35 80.55 205.05 81.65 202.85 82.3 Q201.45 82.5 200.0 82.3 199.0 82.1 198.05 81.5 L197.0 80.4 Q196.7 79.8 196.7 79.2 196.7 78.6 197.05 78.0 L197.9 76.65 Q187.1 74.9 177.45 74.9 185.05 68.0 192.6 67.75 223.3 45.6 248.5 41.9 263.05 41.2 252.0 54.3 M138.35 98.65 Q134.5 103.85 127.65 109.5 120.8 115.15 114.95 117.95 109.15 120.75 107.75 119.05 106.3 117.3 110.15 112.1 113.95 106.9 120.8 101.25 127.65 95.55 133.55 92.8 139.35 90.0 140.75 91.7 142.15 93.45 138.35 98.65 M76.85 155.65 Q83.25 151.0 86.85 153.2 90.45 155.45 89.15 163.25 87.8 171.05 82.35 179.85 76.9 188.65 70.5 193.3 64.1 197.95 60.45 195.7 56.9 193.5 58.2 185.7 59.5 177.9 65.0 169.1 70.45 160.3 76.85 155.65 M24.5 338.2 Q18.15 341.65 15.2 346.15 18.0 353.2 24.35 360.3 L27.3 396.25 35.4 371.35 55.8 385.05 Q48.8 368.2 43.3 350.95 49.2 335.55 57.3 320.05 L36.75 330.6 27.3 302.8 24.5 338.2 M264.9 487.0 L267.5 491.35 270.2 495.9 273.0 500.8 275.8 506.1 278.7 511.7 281.6 517.6 Q290.0 518.65 298.35 527.7 280.8 531.3 262.55 534.05 263.2 537.3 260.95 539.75 260.1 540.65 259.0 541.0 L252.65 541.45 Q249.55 541.0 247.1 539.05 245.65 537.95 244.7 536.45 L212.0 539.75 Q210.0 528.95 217.55 527.2 L215.95 521.8 214.55 516.6 213.25 511.65 212.15 506.9 210.8 500.4 209.75 494.4 209.1 488.95 208.9 482.6 Q208.9 479.3 209.5 476.1 210.05 473.0 211.55 470.3 213.25 467.4 215.5 465.0 217.55 462.8 220.2 461.4 222.8 460.05 225.75 459.65 228.9 459.2 232.1 459.6 235.05 460.0 238.0 460.95 241.0 461.85 243.85 463.35 245.5 464.2 247.05 465.4 L251.5 469.3 254.95 473.2 258.6 477.75 262.3 483.05 264.9 487.0 M322.85 561.85 Q333.9 561.85 341.7 567.1 349.45 572.4 349.45 579.8 349.45 587.3 341.7 592.55 333.9 597.8 322.85 597.8 311.85 597.8 304.05 592.55 296.3 587.3 296.3 579.8 296.3 572.4 304.05 567.1 311.85 561.85 322.85 561.85 M63.25 441.65 Q69.75 446.75 74.3 456.2 78.85 465.6 78.8 473.85 78.7 482.1 74.1 484.35 69.55 486.55 63.05 481.45 56.55 476.35 52.05 466.9 47.5 457.45 47.55 449.2 47.6 441.0 52.2 438.8 56.8 436.55 63.25 441.65 M60.15 496.5 Q69.65 510.7 80.35 523.75 87.7 526.9 95.8 528.15 92.7 533.85 92.15 539.55 101.05 550.85 112.85 562.15 L97.65 550.05 Q81.55 533.55 68.45 515.75 L60.15 496.5 M152.05 525.6 Q160.25 532.7 163.15 541.1 166.05 549.5 161.95 554.2 157.8 558.95 149.1 557.25 140.4 555.6 132.2 548.45 124.0 541.35 121.05 532.9 118.2 524.5 122.3 519.8 126.45 515.1 135.1 516.75 143.85 518.45 152.05 525.6 M307.5 639.55 Q313.85 641.2 313.75 642.75 L313.1 643.5 Q291.1 643.2 270.2 640.15 269.65 639.7 269.65 639.2 269.85 637.7 276.35 637.1 282.9 636.6 292.0 637.3 301.15 638.0 307.5 639.55 M204.55 615.0 Q193.3 614.2 180.15 609.5 L185.45 603.25 Q172.2 595.45 161.6 583.1 176.85 590.4 192.55 596.6 L208.3 583.1 218.65 605.95 Q236.0 611.6 253.8 616.0 237.5 617.5 223.25 615.75 225.6 621.6 229.9 628.0 L204.55 615.0 M612.9 427.15 Q618.3 406.2 616.4 392.5 611.15 380.4 602.75 414.15 L594.65 454.05 Q589.55 461.85 588.45 468.5 594.35 462.85 599.0 456.85 602.6 456.1 603.65 450.2 L607.0 444.6 Q610.05 436.3 612.7 427.75 L612.9 427.15 M515.7 492.75 L500.5 527.5 Q513.15 518.55 529.95 502.9 539.0 508.0 548.15 511.55 550.2 497.2 550.2 483.25 560.1 474.55 573.8 458.4 561.5 461.85 549.1 464.65 547.25 448.65 542.95 431.7 L526.4 469.25 Q509.4 472.3 492.2 474.15 504.1 484.7 515.7 492.75 M488.05 582.1 Q479.8 587.85 472.1 589.25 464.4 590.65 461.8 586.85 459.15 583.1 463.1 576.3 467.05 569.6 475.35 563.85 483.6 558.1 491.3 556.7 498.95 555.35 501.65 559.05 504.25 562.85 500.25 569.6 496.3 576.35 488.05 582.1 M365.15 527.65 Q361.9 518.75 367.65 509.5 373.4 500.3 384.75 496.15 396.15 492.0 406.55 495.35 416.85 498.7 420.1 507.65 423.35 516.5 417.6 525.8 411.85 535.0 400.45 539.15 389.1 543.3 378.75 539.95 368.4 536.6 365.15 527.65 M431.4 610.85 Q438.45 601.45 426.85 600.1 420.45 599.35 410.7 603.15 L407.95 604.45 Q401.0 607.8 394.25 611.5 387.75 615.05 381.45 619.1 375.35 622.9 369.45 627.2 359.4 626.3 352.55 631.1 L376.3 632.7 Q374.9 634.9 378.7 635.15 383.5 635.35 385.7 632.9 408.35 632.95 409.75 627.85 L418.25 622.2 Q423.15 618.75 428.55 613.9 430.25 612.45 431.4 610.85 Z" fill="none" stroke="#ffffff" stroke-linecap="round" stroke-linejoin="round" stroke-opacity="0.101960786" stroke-width="4.0"/>
    <path d="M535.25 182.35 Q523.7 167.3 509.7 153.25 429.55 73.15 316.25 73.15 202.9 73.15 122.75 153.25 42.6 233.4 42.6 346.8 42.6 416.0 72.5 472.9 17.95 401.95 17.95 308.4 17.95 195.05 98.05 114.9 178.2 34.75 291.55 34.75 404.9 34.75 485.0 114.9 516.2 146.05 535.25 182.35" fill="#ffffff" fill-opacity="0.101960786" fill-rule="evenodd" stroke="none"/>
    <path d="M483.45 72.45 Q513.15 91.25 539.7 117.8 630.9 209.05 630.9 338.1 630.9 467.15 539.7 558.35 448.45 649.6 319.45 649.6 190.6 649.6 99.4 558.55 171.8 604.3 263.1 604.3 392.15 604.3 483.4 513.05 574.6 421.85 574.6 292.8 574.6 163.75 483.4 72.45 L483.45 72.45" fill="#000000" fill-opacity="0.2" fill-rule="evenodd" stroke="none"/>
    <path d="M50.6 483.0 Q71.1 520.05 103.3 552.3 192.15 641.1 317.7 641.1 443.3 641.1 532.1 552.3 620.95 463.5 620.95 337.9 621.0 230.35 555.8 149.85 554.8 148.55 554.5 146.95 553.65 142.15 553.55 137.45 552.7 112.6 570.85 90.05 L571.0 89.85 606.35 48.65 Q608.0 46.7 610.55 46.55 613.05 46.35 615.05 48.05 617.0 49.7 617.2 52.25 617.35 54.75 615.7 56.75 L580.35 97.9 Q563.2 119.4 566.55 143.35 633.3 226.8 633.35 337.9 633.35 468.6 540.85 561.0 448.4 653.45 317.7 653.45 187.05 653.45 94.55 561.0 74.25 540.65 58.4 518.5 L50.6 483.0" fill="#2b0000" fill-rule="evenodd" stroke="none"/>
    <path d="M25.85 460.4 Q2.2 404.05 2.2 337.9 2.2 207.2 94.55 114.8 187.05 22.4 317.7 22.4 414.15 22.4 489.8 72.75 510.9 70.4 527.55 52.35 L562.75 11.35 Q564.5 9.35 567.05 9.2 569.55 9.0 571.55 10.65 573.45 12.3 573.7 14.9 573.85 17.4 572.2 19.35 L536.8 60.55 536.7 60.7 Q526.75 71.45 515.5 77.6 L514.75 77.95 512.65 79.0 511.6 79.45 Q508.3 81.0 504.95 82.1 500.45 83.6 495.8 84.4 L488.6 85.3 Q486.5 85.4 484.7 84.25 411.45 34.7 317.7 34.75 192.15 34.75 103.3 123.55 14.6 212.35 14.6 337.9 14.6 382.65 25.85 422.7 L25.85 460.4" fill="#550000" fill-rule="evenodd" stroke="none"/>
    <path d="M50.6 483.0 L58.4 518.5 Q38.65 490.85 25.85 460.4 L25.85 422.7 Q34.7 454.3 50.6 483.0" fill="#400000" fill-rule="evenodd" stroke="none"/>
    <path d="M502.0 130.45 Q503.35 130.25 504.4 129.6 509.55 126.75 515.25 126.9 519.1 126.95 520.95 130.0 L523.85 135.6 Q528.65 146.35 532.05 157.55 533.6 162.55 534.6 167.75 536.0 174.85 538.45 181.65 542.4 192.6 542.45 204.2 542.5 208.95 544.25 213.35 546.1 218.0 545.7 223.1 544.85 233.05 547.35 242.95 550.85 256.7 546.45 270.15 545.75 272.35 546.3 274.65 550.25 292.15 544.2 309.0 542.75 313.05 542.0 317.3 L535.65 351.25 Q534.7 355.9 532.75 360.3 527.6 371.95 523.35 383.85 521.75 388.15 519.45 392.15 513.2 402.75 508.4 414.2 L506.35 417.95 Q494.7 434.3 482.2 450.1 481.7 450.7 480.75 450.75 474.5 449.8 471.6 443.45 469.95 439.8 467.65 436.4 466.4 434.55 464.6 433.4 457.0 428.55 453.1 420.25 451.85 417.65 450.2 415.25 442.6 404.15 437.7 391.65 435.75 386.75 431.45 384.75 430.95 384.55 430.3 384.75 428.55 387.05 428.7 390.2 429.05 400.75 428.8 411.35 428.5 424.95 429.95 438.45 430.55 443.65 427.5 447.35 L426.6 448.15 Q417.2 453.75 406.35 455.15 402.35 455.5 398.45 456.55 386.45 459.5 376.6 466.4 373.45 468.55 369.55 469.05 L357.65 471.0 Q354.15 471.7 351.05 473.15 345.05 475.95 338.85 476.9 L337.65 476.75 Q335.75 475.5 336.1 473.15 337.15 465.75 339.3 457.7 340.0 455.0 338.3 453.2 333.1 454.35 327.8 456.85 326.95 457.3 326.15 456.55 320.6 451.6 318.4 444.35 316.7 438.65 312.95 433.95 L302.15 420.5 Q296.95 413.95 290.7 408.35 286.4 404.55 281.0 402.9 272.55 400.2 265.4 395.0 263.35 393.45 260.9 394.2 259.25 396.7 259.95 399.75 L266.15 424.15 Q266.5 425.35 265.75 426.1 263.15 429.15 258.95 429.95 248.7 432.45 238.3 431.65 232.25 431.1 227.0 434.15 221.75 437.25 215.7 436.35 L211.6 435.75 Q209.15 428.45 208.0 420.65 207.75 418.7 206.9 416.75 201.35 404.25 201.15 390.3 L200.6 377.35 Q200.35 373.3 197.4 370.75 196.1 369.65 194.55 370.35 189.85 372.5 186.45 369.4 185.55 368.65 185.15 367.5 182.55 361.0 183.3 354.05 185.0 338.05 179.55 323.1 177.55 317.5 179.2 311.75 L179.95 309.75 Q180.9 307.55 183.35 307.35 L191.1 306.9 Q194.15 306.45 195.45 303.65 197.45 299.15 197.05 294.15 196.55 287.85 198.45 281.8 201.75 271.3 201.15 260.25 200.85 255.85 201.2 251.45 202.4 237.15 206.75 223.6 L209.75 215.25 Q212.85 207.35 213.35 198.7 213.6 193.25 215.3 188.15 217.85 180.35 221.2 173.15 222.6 170.1 221.95 167.15 L221.5 165.65 Q218.0 164.1 213.8 165.55 211.5 166.3 209.1 166.15 195.05 167.15 182.1 172.75 172.8 176.7 162.95 178.95 152.65 181.35 152.65 191.7 152.65 194.95 151.0 197.65 148.0 202.75 150.3 208.15 156.8 210.45 163.6 206.9 169.4 203.8 175.95 203.8 182.8 203.8 188.8 200.85 192.75 198.9 196.65 200.5 199.3 201.7 199.05 204.55 198.55 211.25 196.9 219.35 195.7 225.55 193.7 231.25 190.9 239.3 191.4 247.6 191.75 253.1 189.2 257.85 188.4 259.45 186.55 259.95 178.3 262.45 169.35 261.75 167.85 262.15 166.5 262.85 161.55 265.35 156.1 265.5 152.95 265.55 149.95 266.3 143.95 267.8 143.55 274.15 143.25 279.3 143.85 284.35 144.95 294.25 145.15 304.3 145.45 320.3 150.2 335.75 152.9 344.4 153.7 353.55 153.95 356.45 155.2 359.2 159.3 368.15 161.35 378.15 162.35 382.7 164.1 386.95 170.2 402.1 177.3 416.75 L178.9 420.55 Q183.7 433.4 190.5 445.35 190.8 445.85 190.55 446.65 190.15 447.95 188.75 448.55 168.0 457.95 148.85 470.15 145.65 472.25 142.0 473.75 L132.15 477.8 130.35 477.7 Q127.8 476.65 126.75 474.15 118.4 455.2 113.05 435.35 110.95 427.5 109.55 419.35 108.2 411.75 105.6 404.45 103.55 398.7 102.7 392.55 99.55 370.95 94.5 349.95 93.05 344.05 93.2 337.95 93.35 333.0 92.95 328.15 91.4 307.95 92.1 287.8 92.15 285.15 91.15 282.65 L90.65 281.8 Q86.5 280.1 81.85 282.35 L79.7 282.25 Q77.75 281.15 77.65 278.85 L77.65 278.75 77.65 273.6 Q77.95 259.75 81.1 246.15 L81.55 242.1 Q81.65 235.6 84.8 229.9 85.35 228.95 86.6 228.75 93.15 227.5 97.75 223.0 101.15 219.7 101.95 215.05 103.15 207.6 104.6 200.15 106.15 192.2 110.4 185.2 112.7 181.5 112.85 177.05 117.3 160.5 126.95 146.15 129.65 142.25 134.2 141.15 141.0 139.45 146.55 134.75 148.35 133.15 150.6 132.3 157.0 129.65 163.75 127.75 180.85 123.2 197.2 116.55 205.3 113.4 214.1 113.25 221.85 112.5 229.3 110.8 239.75 108.6 250.4 107.5 257.15 107.15 263.75 107.35 265.0 108.6 265.8 110.55 267.45 114.4 265.85 118.45 265.2 120.1 264.05 121.5 272.75 125.05 277.6 133.0 278.95 135.25 281.0 137.0 L299.15 153.55 Q301.15 155.4 302.7 157.65 311.1 169.95 321.7 180.1 324.85 183.1 326.8 187.1 333.55 200.75 341.75 213.95 344.05 217.65 345.3 221.75 350.5 238.95 350.75 256.95 351.15 284.15 336.25 307.05 334.15 310.3 332.55 313.85 329.65 320.2 324.2 324.75 312.3 334.9 302.2 346.65 L300.75 347.95 Q299.35 348.95 299.35 350.6 303.05 354.95 309.45 355.75 313.1 356.3 316.55 357.75 326.55 362.05 337.15 365.3 341.0 366.4 344.05 368.85 346.3 370.7 348.95 370.15 351.0 368.75 351.0 365.95 351.0 342.3 354.4 318.75 355.55 310.55 355.2 302.25 354.15 279.65 355.7 257.15 356.75 241.65 355.7 226.15 354.95 215.05 353.85 203.95 352.75 192.75 354.2 181.85 L354.35 181.4 355.35 179.25 Q354.1 175.35 350.3 172.5 348.55 171.2 347.2 169.45 340.45 160.2 337.15 149.35 333.35 136.55 339.45 124.15 L340.6 121.75 Q343.45 115.35 348.2 110.55 L349.75 108.95 Q356.75 101.35 367.15 99.7 L377.55 97.45 Q380.75 96.7 383.9 97.4 394.35 99.6 404.55 102.5 407.75 103.35 409.85 105.95 410.4 106.65 411.35 107.0 420.1 110.75 424.6 118.95 L426.15 121.7 Q430.65 129.85 431.95 139.15 433.65 151.5 427.35 162.1 424.9 166.15 427.85 169.2 L429.25 170.9 Q431.6 174.05 430.75 178.1 429.2 185.0 429.8 192.05 429.95 193.5 431.05 194.45 L434.55 194.8 Q441.85 192.95 449.3 191.6 453.2 190.95 452.9 194.55 452.3 201.35 453.2 208.05 454.75 219.2 455.3 230.5 L455.5 242.3 Q455.35 254.95 459.0 267.25 462.5 279.1 461.75 291.45 461.5 296.3 463.25 300.75 468.0 312.95 472.2 325.45 476.15 337.15 479.4 348.95 480.15 351.45 482.55 351.75 484.3 350.95 484.8 349.15 489.3 332.8 491.35 316.0 491.65 313.7 492.45 311.4 496.8 299.0 495.2 285.6 494.9 282.95 495.35 280.2 496.75 272.3 497.55 264.35 498.6 253.95 496.7 243.6 495.0 234.55 494.95 225.35 494.85 210.9 490.55 197.35 488.8 191.85 487.35 186.15 486.0 180.95 485.45 175.6 484.0 161.9 476.8 149.75 474.5 145.8 473.8 141.3 473.0 135.75 478.75 133.4 485.1 130.95 491.85 131.05 L502.0 130.45 M529.25 183.35 Q528.4 181.3 527.9 179.3 525.7 171.15 524.95 162.8 524.65 159.45 522.95 156.8 519.85 152.0 518.15 146.6 517.4 144.15 516.95 141.6 516.35 138.1 512.95 137.75 506.85 137.1 500.75 138.35 L490.85 140.0 Q484.5 141.15 484.95 147.5 485.15 149.7 486.15 151.55 488.9 156.35 490.0 161.75 L491.0 166.05 503.15 214.9 503.75 217.75 503.9 220.55 Q503.8 240.35 505.3 260.1 506.45 275.55 503.2 290.65 499.95 305.6 499.15 320.95 L498.95 325.5 Q498.45 339.8 492.75 352.8 488.55 362.35 486.2 372.4 482.45 375.05 480.35 370.95 L471.9 353.35 470.35 350.35 Q468.45 347.05 467.0 343.6 463.2 334.35 462.6 324.0 462.25 317.7 459.05 312.15 457.6 309.6 456.55 306.85 449.75 288.65 448.5 269.35 448.2 265.05 448.15 260.75 L447.9 257.25 Q444.75 238.05 445.9 218.55 446.35 211.55 445.35 204.55 444.75 200.45 440.55 201.65 L434.75 203.5 Q428.35 205.65 422.95 202.65 422.1 202.2 422.15 201.35 422.7 196.55 422.4 191.85 422.1 186.8 420.8 181.85 419.75 177.7 415.5 178.35 411.7 178.85 410.95 175.1 410.55 173.15 411.45 171.45 415.3 164.55 421.15 159.3 422.45 158.15 422.65 156.35 423.35 150.05 422.75 143.75 422.35 138.45 421.45 133.25 419.55 121.85 409.7 117.35 407.15 116.15 404.5 115.55 401.75 114.95 399.35 113.4 L398.95 113.1 396.4 110.8 Q393.85 107.75 389.7 107.15 L375.9 107.8 369.55 108.85 Q367.75 108.5 366.0 109.2 360.35 111.4 355.8 115.5 L353.75 117.4 Q344.0 126.55 344.8 140.65 345.1 145.55 346.7 150.05 347.45 152.2 348.55 154.25 352.0 160.95 356.0 167.1 357.15 168.85 359.05 170.15 365.8 175.15 373.3 178.7 374.4 179.3 374.45 180.7 374.6 184.15 371.35 184.75 367.2 185.2 364.0 187.55 362.55 188.55 362.15 190.35 360.45 198.35 362.6 205.95 363.75 210.0 363.95 213.95 364.25 219.15 363.9 224.25 L363.55 227.65 Q362.35 237.65 362.75 247.65 363.2 260.1 364.7 272.5 365.05 275.45 363.95 278.35 360.7 286.75 362.8 295.5 364.0 300.4 364.25 305.35 364.65 314.95 361.35 324.55 359.5 330.1 359.4 335.95 359.2 347.55 360.7 359.1 361.7 366.65 359.55 373.95 L358.25 377.5 Q357.55 379.25 357.05 381.25 356.35 384.0 353.4 384.15 348.3 378.15 340.55 376.3 335.0 375.1 330.05 372.55 L323.55 368.4 Q321.3 366.6 318.45 365.7 302.1 360.15 285.2 357.2 281.45 356.55 280.75 352.7 283.65 346.5 290.75 343.75 293.35 342.7 295.4 340.95 301.3 335.85 306.55 330.3 L311.25 325.8 Q317.15 320.75 321.35 314.0 322.9 311.65 324.6 309.35 L328.25 304.95 Q334.25 298.15 337.25 289.55 342.25 275.15 342.8 259.85 343.35 245.2 339.5 231.65 336.95 222.85 332.55 214.5 L323.95 198.15 Q316.45 183.95 305.5 172.2 L301.15 167.4 296.7 161.75 Q291.2 154.55 283.6 149.45 275.35 143.95 268.55 136.65 L259.15 127.05 Q257.75 125.65 257.35 123.55 256.75 120.2 255.6 117.25 255.2 116.15 254.1 115.75 L235.35 117.35 Q230.35 117.5 225.4 118.95 212.4 122.75 199.05 124.6 193.75 125.55 188.75 127.45 L174.35 132.75 Q166.1 135.75 157.6 138.35 146.6 141.75 137.55 148.75 L131.9 151.95 129.3 157.05 Q123.5 169.0 120.35 182.1 118.9 188.15 116.25 193.85 L113.95 199.15 Q108.2 213.4 106.3 228.8 106.0 230.95 103.95 231.3 97.35 232.65 92.45 236.15 91.0 237.25 90.65 238.95 L87.6 252.55 87.55 252.85 Q85.55 261.4 86.15 270.15 87.7 272.95 91.0 271.85 94.2 270.75 97.55 271.15 99.85 271.3 100.25 273.7 101.3 280.2 100.0 286.0 98.95 290.75 100.2 295.45 101.0 298.4 100.4 301.25 L100.3 301.95 Q98.35 311.95 101.1 321.95 102.2 326.15 102.45 330.45 103.1 341.55 104.35 352.6 106.95 376.15 112.25 399.3 L113.45 404.35 Q116.5 416.45 120.65 428.25 121.75 431.25 122.15 434.55 124.2 451.1 133.7 464.75 134.15 465.45 135.15 465.75 137.9 466.35 140.25 464.95 155.4 456.35 171.75 450.1 176.65 448.25 178.6 443.75 180.35 439.75 177.75 436.4 173.35 430.85 170.85 424.3 L169.5 420.7 Q163.95 406.35 157.6 392.45 153.55 383.5 151.5 373.8 149.9 366.4 147.75 359.2 L146.7 355.9 Q140.3 335.9 138.7 315.0 L137.9 306.95 137.5 304.2 Q134.8 285.95 134.85 267.75 134.85 264.7 136.1 261.95 L139.85 260.6 Q152.75 256.2 166.4 255.1 174.8 254.85 182.25 251.35 182.95 251.05 183.2 250.35 185.8 242.2 184.65 233.75 184.35 231.95 185.35 230.25 187.35 226.75 188.2 222.75 L188.7 219.3 189.25 213.1 Q189.35 211.85 188.65 210.9 183.2 208.75 177.5 211.35 171.75 213.95 165.75 215.35 L163.2 215.9 156.0 217.35 143.2 219.85 Q141.75 219.95 141.1 218.9 138.2 214.65 139.85 209.4 L140.85 206.3 Q144.35 194.65 146.3 182.65 146.7 180.15 148.15 177.95 150.1 174.85 153.65 173.6 158.85 171.75 163.85 169.4 166.35 168.2 168.95 167.4 172.65 166.25 176.6 165.8 181.05 165.3 185.25 163.75 198.7 159.1 212.55 156.95 L228.75 155.15 Q234.45 155.35 233.1 160.4 L229.0 174.95 228.85 175.5 Q228.35 177.15 228.15 178.8 225.95 193.1 218.8 205.5 218.15 206.55 218.3 207.95 219.35 219.3 215.7 230.0 L213.75 234.95 Q210.55 242.0 210.1 249.8 209.95 251.55 210.05 253.3 210.55 265.85 206.7 277.65 206.0 279.65 206.1 281.65 L206.3 286.35 206.7 304.6 Q206.7 309.85 203.7 314.15 203.0 315.15 201.85 315.35 L189.15 315.95 188.55 316.35 Q185.55 319.75 188.15 324.0 L188.4 324.4 Q189.2 325.6 189.4 327.1 190.75 337.9 191.7 348.75 L192.15 356.85 Q192.35 362.6 197.7 361.65 200.7 361.25 204.0 362.25 207.25 363.35 206.9 367.15 206.2 374.5 208.35 381.35 L209.15 384.2 Q212.45 396.35 212.45 409.05 212.45 411.7 212.8 414.35 213.85 421.7 218.7 426.35 219.35 426.95 220.35 427.15 237.55 425.5 253.9 421.15 256.5 420.4 256.05 417.8 L254.5 408.95 249.95 385.35 Q251.5 382.75 254.4 383.45 268.7 386.85 281.2 394.6 284.35 396.55 287.9 397.6 293.75 399.35 297.5 403.85 299.85 406.7 302.65 409.15 310.35 415.8 317.05 423.25 318.5 424.85 319.15 427.0 L319.75 429.45 Q322.15 431.5 323.85 433.95 326.1 437.35 326.95 441.55 327.15 442.8 328.25 443.55 332.65 446.7 337.7 443.95 342.4 441.35 347.35 440.75 351.2 440.6 351.5 444.6 346.05 453.35 348.45 463.05 348.8 464.6 350.5 465.0 L351.9 464.75 Q364.95 460.0 378.15 455.65 L382.25 454.75 Q389.95 454.7 395.85 450.15 408.15 449.1 417.6 441.35 419.35 439.9 419.85 437.8 L420.05 436.25 Q420.5 424.85 421.55 413.35 421.75 411.45 421.45 409.55 419.0 392.55 420.55 375.45 421.1 369.95 420.55 364.35 L420.3 362.35 Q419.55 356.75 422.15 351.6 423.7 348.7 426.6 350.05 430.15 351.75 430.8 356.2 431.15 358.3 431.85 360.35 L431.9 360.45 Q435.85 371.7 441.75 382.15 443.05 384.35 443.65 386.75 445.7 394.45 450.5 400.9 L459.55 413.4 465.65 421.75 466.95 423.5 468.25 425.3 Q472.4 431.35 477.45 436.8 479.65 439.1 482.0 437.2 485.25 434.7 486.9 430.75 488.85 426.1 492.75 422.7 496.65 419.3 498.6 414.4 500.8 408.95 503.25 403.6 L506.7 396.35 513.9 380.9 520.95 364.65 523.05 358.75 Q527.05 345.25 532.4 332.1 534.3 327.4 534.4 322.55 534.6 313.0 535.55 303.5 536.1 297.5 537.75 291.7 538.75 288.1 539.35 284.35 L539.85 280.25 Q541.3 266.1 538.55 251.95 537.2 245.05 537.75 238.15 538.1 233.2 536.7 228.2 535.7 224.65 536.0 220.9 536.9 210.95 535.15 201.15 533.55 192.6 529.9 184.75 L529.25 183.35 M251.65 236.15 Q252.0 232.95 252.95 229.9 256.35 217.95 258.95 205.85 259.85 201.7 261.7 197.9 264.2 192.65 265.65 187.05 265.85 186.2 266.4 185.45 269.5 184.0 271.55 186.65 L277.55 194.75 Q285.7 202.45 288.75 213.3 289.5 215.75 290.9 217.95 295.6 225.45 299.75 233.3 L301.75 237.4 Q306.3 247.75 306.35 259.2 306.4 264.35 305.35 269.35 304.95 271.2 304.95 273.15 304.6 284.3 296.15 291.55 292.95 294.3 290.15 297.6 285.3 303.45 278.35 305.95 L273.75 307.2 Q271.25 307.65 269.15 309.05 258.15 316.15 245.75 313.75 244.5 313.55 244.0 312.3 L243.75 311.2 Q243.55 304.85 243.8 298.55 244.25 285.85 246.6 273.35 249.95 255.85 251.45 237.9 L251.65 236.15 M277.7 211.55 Q275.55 206.85 272.55 203.25 272.0 202.55 271.1 202.25 268.85 202.75 268.3 205.15 265.5 217.2 261.25 228.65 259.75 232.55 259.6 236.7 258.95 250.9 256.1 264.75 L254.1 274.85 Q252.5 283.65 252.95 292.7 253.15 295.95 252.4 299.25 251.9 301.5 253.45 303.0 255.25 304.8 257.6 303.75 261.05 302.25 264.75 301.2 270.8 299.6 275.75 296.85 282.15 293.25 287.15 287.8 289.35 285.4 290.45 282.25 294.2 271.15 296.35 259.6 296.8 257.25 296.35 254.9 L292.25 235.35 Q288.3 224.55 280.55 215.85 278.75 213.9 277.7 211.55" fill="#ffffff" fill-rule="evenodd" stroke="none"/>
    <path d="M503.75 217.75 L503.15 214.9 491.0 166.05 490.0 161.75 Q488.9 156.35 486.15 151.55 485.15 149.7 484.95 147.5 484.5 141.15 490.85 140.0 L500.75 138.35 Q506.85 137.1 512.95 137.75 516.35 138.1 516.95 141.6 517.4 144.15 518.15 146.6 519.85 152.0 522.95 156.8 524.65 159.45 524.95 162.8 525.7 171.15 527.9 179.3 528.4 181.3 529.25 183.35 516.95 201.9 503.75 217.75 M206.3 286.35 L206.1 281.65 Q206.0 279.65 206.7 277.65 210.55 265.85 210.05 253.3 209.95 251.55 210.1 249.8 210.55 242.0 213.75 234.95 L215.7 230.0 Q234.05 234.15 251.65 236.15 L251.45 237.9 Q249.95 255.85 246.6 273.35 244.25 285.85 243.8 298.55 225.4 293.55 206.3 286.35 M140.85 206.3 L139.85 209.4 Q138.2 214.65 141.1 218.9 141.75 219.95 143.2 219.85 L156.0 217.35 163.2 215.9 165.75 215.35 Q177.15 219.4 188.2 222.75 187.35 226.75 185.35 230.25 184.35 231.95 184.65 233.75 185.8 242.2 183.2 250.35 182.95 251.05 182.25 251.35 174.8 254.85 166.4 255.1 152.75 256.2 139.85 260.6 114.0 253.55 87.6 252.55 L90.65 238.95 Q91.0 237.25 92.45 236.15 97.35 232.65 103.95 231.3 106.0 230.95 106.3 228.8 108.2 213.4 113.95 199.15 127.4 201.9 140.85 206.3 M339.5 231.65 Q343.35 245.2 342.8 259.85 342.25 275.15 337.25 289.55 334.25 298.15 328.25 304.95 L324.6 309.35 Q302.15 309.75 278.35 305.95 285.3 303.45 290.15 297.6 292.95 294.3 296.15 291.55 304.6 284.3 304.95 273.15 304.95 271.2 305.35 269.35 306.4 264.35 306.35 259.2 306.3 247.75 301.75 237.4 321.2 236.0 339.5 231.65 M364.25 305.35 Q364.0 300.4 362.8 295.5 360.7 286.75 363.95 278.35 365.05 275.45 364.7 272.5 363.2 260.1 362.75 247.65 362.35 237.65 363.55 227.65 L363.9 224.25 Q394.95 212.75 422.4 191.85 422.7 196.55 422.15 201.35 422.1 202.2 422.95 202.65 428.35 205.65 434.75 203.5 L440.55 201.65 Q444.75 200.45 445.35 204.55 446.35 211.55 445.9 218.55 444.75 238.05 447.9 257.25 L448.15 260.75 Q448.2 265.05 448.5 269.35 409.4 296.6 364.25 305.35" fill="#a5afff" fill-rule="evenodd" stroke="none"/>
    <path d="M529.25 183.35 L529.9 184.75 Q533.55 192.6 535.15 201.15 536.9 210.95 536.0 220.9 535.7 224.65 536.7 228.2 538.1 233.2 537.75 238.15 537.2 245.05 538.55 251.95 541.3 266.1 539.85 280.25 520.3 303.45 499.15 320.95 499.95 305.6 503.2 290.65 506.45 275.55 505.3 260.1 503.8 240.35 503.9 220.55 L503.75 217.75 Q516.95 201.9 529.25 183.35 M431.9 360.45 L431.85 360.35 Q431.15 358.3 430.8 356.2 430.15 351.75 426.6 350.05 423.7 348.7 422.15 351.6 419.55 356.75 420.3 362.35 L420.55 364.35 Q391.2 373.45 359.55 373.95 361.7 366.65 360.7 359.1 359.2 347.55 359.4 335.95 359.5 330.1 361.35 324.55 364.65 314.95 364.25 305.35 409.4 296.6 448.5 269.35 449.75 288.65 456.55 306.85 457.6 309.6 459.05 312.15 462.25 317.7 462.6 324.0 463.2 334.35 467.0 343.6 449.95 353.7 431.9 360.45 M188.15 324.0 Q185.55 319.75 188.55 316.35 L189.15 315.95 201.85 315.35 Q203.0 315.15 203.7 314.15 206.7 309.85 206.7 304.6 L206.3 286.35 Q225.4 293.55 243.8 298.55 243.55 304.85 243.75 311.2 L244.0 312.3 Q244.5 313.55 245.75 313.75 258.15 316.15 269.15 309.05 271.25 307.65 273.75 307.2 L278.35 305.95 Q302.15 309.75 324.6 309.35 322.9 311.65 321.35 314.0 317.15 320.75 311.25 325.8 L306.55 330.3 Q301.3 335.85 295.4 340.95 293.35 342.7 290.75 343.75 283.65 346.5 280.75 352.7 281.45 356.55 285.2 357.2 302.1 360.15 318.45 365.7 321.3 366.6 323.55 368.4 L330.05 372.55 Q268.95 366.05 199.55 329.65 L188.55 324.15 188.15 324.0 M139.85 260.6 L136.1 261.95 Q134.85 264.7 134.85 267.75 134.8 285.95 137.5 304.2 L137.9 306.95 Q119.35 302.85 100.35 301.95 L100.4 301.25 Q101.0 298.4 100.2 295.45 98.95 290.75 100.0 286.0 101.3 280.2 100.25 273.7 99.85 271.3 97.55 271.15 94.2 270.75 91.0 271.85 87.7 272.95 86.15 270.15 85.55 261.4 87.55 252.85 L87.6 252.55 Q114.0 253.55 139.85 260.6" fill="#9bafff" fill-rule="evenodd" stroke="none"/>
    <path d="M215.7 230.0 Q219.35 219.3 218.3 207.95 218.15 206.55 218.8 205.5 225.95 193.1 228.15 178.8 228.35 177.15 228.85 175.5 L229.0 174.95 Q267.3 176.15 301.15 167.4 L305.5 172.2 Q316.45 183.95 323.95 198.15 L332.55 214.5 Q336.95 222.85 339.5 231.65 321.2 236.0 301.75 237.4 L299.75 233.3 Q295.6 225.45 290.9 217.95 289.5 215.75 288.75 213.3 285.7 202.45 277.55 194.75 L271.55 186.65 Q269.5 184.0 266.4 185.45 265.85 186.2 265.65 187.05 264.2 192.65 261.7 197.9 259.85 201.7 258.95 205.85 256.35 217.95 252.95 229.9 252.0 232.95 251.65 236.15 234.05 234.15 215.7 230.0 M168.95 167.4 Q166.35 168.2 163.85 169.4 158.85 171.75 153.65 173.6 150.1 174.85 148.15 177.95 146.7 180.15 146.3 182.65 144.35 194.65 140.85 206.3 127.4 201.9 113.95 199.15 L116.25 193.85 Q118.9 188.15 120.35 182.1 123.5 169.0 129.3 157.05 149.6 163.3 168.95 167.4 M165.75 215.35 Q171.75 213.95 177.5 211.35 183.2 208.75 188.65 210.9 189.35 211.85 189.25 213.1 L188.7 219.3 188.2 222.75 Q177.15 219.4 165.75 215.35 M363.9 224.25 Q364.25 219.15 363.95 213.95 363.75 210.0 362.6 205.95 360.45 198.35 362.15 190.35 362.55 188.55 364.0 187.55 367.2 185.2 371.35 184.75 374.6 184.15 374.45 180.7 374.4 179.3 373.3 178.7 365.8 175.15 359.05 170.15 357.15 168.85 356.0 167.1 352.0 160.95 348.55 154.25 347.45 152.2 346.7 150.05 374.6 135.7 398.95 113.1 L399.35 113.4 Q401.75 114.95 404.5 115.55 407.15 116.15 409.7 117.35 419.55 121.85 421.45 133.25 422.35 138.45 422.75 143.75 423.35 150.05 422.65 156.35 422.45 158.15 421.15 159.3 415.3 164.55 411.45 171.45 410.55 173.15 410.95 175.1 411.7 178.85 415.5 178.35 419.75 177.7 420.8 181.85 422.1 186.8 422.4 191.85 394.95 212.75 363.9 224.25" fill="#afafff" fill-rule="evenodd" stroke="none"/>
    <path d="M229.0 174.95 L233.1 160.4 Q234.45 155.35 228.75 155.15 L212.55 156.95 Q198.7 159.1 185.25 163.75 181.05 165.3 176.6 165.8 172.65 166.25 168.95 167.4 149.6 163.3 129.3 157.05 L131.9 151.95 137.55 148.75 Q146.6 141.75 157.6 138.35 166.1 135.75 174.35 132.75 L188.75 127.45 Q193.75 125.55 199.05 124.6 212.4 122.75 225.4 118.95 230.35 117.5 235.35 117.35 L254.1 115.75 Q255.2 116.15 255.6 117.25 256.75 120.2 257.35 123.55 257.75 125.65 259.15 127.05 L268.55 136.65 Q275.35 143.95 283.6 149.45 291.2 154.55 296.7 161.75 L301.15 167.4 Q267.3 176.15 229.0 174.95 M346.7 150.05 Q345.1 145.55 344.8 140.65 344.0 126.55 353.75 117.4 L355.8 115.5 Q360.35 111.4 366.0 109.2 367.75 108.5 369.55 108.85 L375.9 107.8 389.7 107.15 Q393.85 107.75 396.4 110.8 L398.95 113.1 Q374.6 135.7 346.7 150.05" fill="#b9afff" fill-rule="evenodd" stroke="none"/>
    <path d="M539.85 280.25 L539.35 284.35 Q538.75 288.1 537.75 291.7 536.1 297.5 535.55 303.5 534.6 313.0 534.4 322.55 534.3 327.4 532.4 332.1 527.05 345.25 523.05 358.75 L520.95 364.65 513.9 380.9 506.7 396.35 503.25 403.6 Q485.55 415.35 466.95 423.5 L465.65 421.75 459.55 413.4 450.5 400.9 Q445.7 394.45 443.65 386.75 443.05 384.35 441.75 382.15 435.85 371.7 431.9 360.45 449.95 353.7 467.0 343.6 468.45 347.05 470.35 350.35 L471.9 353.35 480.35 370.95 Q482.45 375.05 486.2 372.4 488.55 362.35 492.75 352.8 498.45 339.8 498.95 325.5 L499.15 320.95 Q520.3 303.45 539.85 280.25 M420.55 364.35 Q421.1 369.95 420.55 375.45 419.0 392.55 421.45 409.55 421.75 411.45 421.55 413.35 420.5 424.85 420.05 436.25 L419.85 437.8 Q374.15 445.95 323.85 433.95 322.15 431.5 319.75 429.45 L319.15 427.0 Q318.5 424.85 317.05 423.25 310.35 415.8 302.65 409.15 299.85 406.7 297.5 403.85 293.75 399.35 287.9 397.6 284.35 396.55 281.2 394.6 268.7 386.85 254.4 383.45 251.5 382.75 249.95 385.35 L254.5 408.95 Q234.65 399.4 214.2 387.15 L209.15 384.2 208.35 381.35 Q206.2 374.5 206.9 367.15 207.25 363.35 204.0 362.25 200.7 361.25 197.7 361.65 192.35 362.6 192.15 356.85 L191.7 348.75 Q190.75 337.9 189.4 327.1 189.2 325.6 188.4 324.4 L188.55 324.15 199.55 329.65 Q268.95 366.05 330.05 372.55 335.0 375.1 340.55 376.3 348.3 378.15 353.4 384.15 356.35 384.0 357.05 381.25 357.55 379.25 358.25 377.5 L359.55 373.95 Q391.2 373.45 420.55 364.35 M137.9 306.95 L138.7 315.0 Q140.3 335.9 146.7 355.9 L147.75 359.2 Q126.4 353.8 104.35 352.6 103.1 341.55 102.45 330.45 102.2 326.15 101.1 321.95 98.35 311.95 100.3 301.95 L100.35 301.95 Q119.35 302.85 137.9 306.95" fill="#91afff" fill-rule="evenodd" stroke="none"/>
    <path d="M100.3 301.95 L100.4 301.25 100.35 301.95 100.3 301.95" fill="#cdcdff" fill-rule="evenodd" stroke="none"/>
    <path d="M503.25 403.6 Q500.8 408.95 498.6 414.4 496.65 419.3 492.75 422.7 488.85 426.1 486.9 430.75 485.25 434.7 482.0 437.2 479.65 439.1 477.45 436.8 472.4 431.35 468.25 425.3 L466.95 423.5 Q485.55 415.35 503.25 403.6 M419.85 437.8 Q419.35 439.9 417.6 441.35 408.15 449.1 395.85 450.15 389.95 454.7 382.25 454.75 L378.15 455.65 Q364.95 460.0 351.9 464.75 L350.5 465.0 Q348.8 464.6 348.45 463.05 346.05 453.35 351.5 444.6 351.2 440.6 347.35 440.75 342.4 441.35 337.7 443.95 332.65 446.7 328.25 443.55 327.15 442.8 326.95 441.55 326.1 437.35 323.85 433.95 374.15 445.95 419.85 437.8 M254.5 408.95 L256.05 417.8 Q256.5 420.4 253.9 421.15 237.55 425.5 220.35 427.15 219.35 426.95 218.7 426.35 213.85 421.7 212.8 414.35 212.45 411.7 212.45 409.05 212.45 396.35 209.15 384.2 L214.2 387.15 Q234.65 399.4 254.5 408.95 M147.75 359.2 Q149.9 366.4 151.5 373.8 153.55 383.5 157.6 392.45 163.95 406.35 169.5 420.7 142.35 408.95 113.45 404.35 L112.25 399.3 Q106.95 376.15 104.35 352.6 126.4 353.8 147.75 359.2" fill="#87afff" fill-rule="evenodd" stroke="none"/>
    <path d="M188.4 324.4 L188.15 324.0 188.55 324.15 188.4 324.4" fill="#c3c3ff" fill-rule="evenodd" stroke="none"/>
    <path d="M169.5 420.7 L170.85 424.3 Q173.35 430.85 177.75 436.4 180.35 439.75 178.6 443.75 176.65 448.25 171.75 450.1 155.4 456.35 140.25 464.95 137.9 466.35 135.15 465.75 134.15 465.45 133.7 464.75 124.2 451.1 122.15 434.55 121.75 431.25 120.65 428.25 116.5 416.45 113.45 404.35 142.35 408.95 169.5 420.7" fill="#7dafff" fill-rule="evenodd" stroke="none"/>
    <path d="M303.95 87.65 Q224.9 95.05 163.8 145.65 L136.25 112.05 Q207.0 53.35 298.45 44.5 L303.95 87.65 M151.15 156.75 L143.1 164.5 Q94.85 212.75 76.4 273.35 L34.95 259.9 Q56.45 189.7 112.35 133.8 L121.6 124.9 151.15 156.75 M181.9 189.9 L175.0 196.5 Q134.75 236.7 119.45 287.3 L89.1 277.45 Q106.65 219.85 152.5 174.0 L160.2 166.5 181.9 189.9 M192.5 180.6 L172.3 155.95 Q230.45 107.85 305.6 100.9 L309.65 132.55 Q243.6 138.45 192.5 180.6" fill="#ffffff" fill-opacity="0.14901961" fill-rule="evenodd" stroke="none"/>
    <path d="M412.7 246.95 Q412.7 241.65 408.9 237.85 405.1 234.1 399.8 234.1 394.5 234.1 390.7 237.85 386.9 241.65 386.9 246.95 386.9 252.3 390.7 256.05 394.5 259.85 399.8 259.85 405.1 259.85 408.9 256.05 412.7 252.3 412.7 246.95 M415.9 246.95 Q415.9 253.65 411.15 258.35 406.45 263.1 399.8 263.1 393.15 263.1 388.4 258.35 383.7 253.65 383.7 246.95 383.7 240.3 388.4 235.55 393.15 230.85 399.8 230.85 406.45 230.85 411.15 235.55 415.9 240.3 415.9 246.95" fill="#ffffff" fill-opacity="0.2" fill-rule="evenodd" stroke="none"/>
    <path d="M412.7 246.95 Q412.7 252.3 408.9 256.05 405.1 259.85 399.8 259.85 394.5 259.85 390.7 256.05 386.9 252.3 386.9 246.95 386.9 241.65 390.7 237.85 394.5 234.1 399.8 234.1 405.1 234.1 408.9 237.85 412.7 241.65 412.7 246.95" fill="#ffffff" fill-opacity="0.4" fill-rule="evenodd" stroke="none"/>
    <path d="M403.55 408.4 Q410.3 415.15 410.3 424.65 410.3 434.15 403.55 440.9 396.8 447.65 387.3 447.65 377.8 447.65 371.0 440.9 364.3 434.15 364.3 424.65 364.3 415.15 371.0 408.4 377.8 401.65 387.3 401.65 396.8 401.65 403.55 408.4 M387.3 406.25 Q379.7 406.25 374.3 411.65 368.9 417.05 368.9 424.65 368.9 432.25 374.3 437.65 379.7 443.05 387.3 443.05 394.9 443.05 400.3 437.65 405.7 432.25 405.7 424.65 405.7 417.05 400.3 411.65 394.9 406.25 387.3 406.25" fill="#ffffff" fill-opacity="0.2" fill-rule="evenodd" stroke="none"/>
    <path d="M387.3 406.25 Q394.9 406.25 400.3 411.65 405.7 417.05 405.7 424.65 405.7 432.25 400.3 437.65 394.9 443.05 387.3 443.05 379.7 443.05 374.3 437.65 368.9 432.25 368.9 424.65 368.9 417.05 374.3 411.65 379.7 406.25 387.3 406.25" fill="#ffffff" fill-opacity="0.4" fill-rule="evenodd" stroke="none"/>
    <path d="M234.15 344.55 Q238.2 348.6 238.2 354.3 238.2 360.05 234.15 364.05 230.1 368.15 224.4 368.15 218.7 368.15 214.6 364.05 210.6 360.05 210.6 354.3 210.6 348.6 214.6 344.55 218.7 340.5 224.4 340.5 230.1 340.5 234.15 344.55 M235.4 354.3 Q235.4 349.75 232.2 346.5 228.95 343.3 224.4 343.3 219.8 343.3 216.6 346.5 213.35 349.75 213.35 354.3 213.35 358.9 216.6 362.1 219.8 365.35 224.4 365.35 228.95 365.35 232.2 362.1 235.4 358.9 235.4 354.3" fill="#ffffff" fill-opacity="0.2" fill-rule="evenodd" stroke="none"/>
    <path d="M235.4 354.3 Q235.4 358.9 232.2 362.1 228.95 365.35 224.4 365.35 219.8 365.35 216.6 362.1 213.35 358.9 213.35 354.3 213.35 349.75 216.6 346.5 219.8 343.3 224.4 343.3 228.95 343.3 232.2 346.5 235.4 349.75 235.4 354.3" fill="#ffffff" fill-opacity="0.4" fill-rule="evenodd" stroke="none"/>
    <path d="M130.3 246.95 Q130.3 242.4 127.1 239.15 123.85 235.95 119.3 235.95 114.7 235.95 111.5 239.15 108.25 242.4 108.25 246.95 108.25 251.55 111.5 254.75 114.7 258.0 119.3 258.0 123.85 258.0 127.1 254.75 130.3 251.55 130.3 246.95 M133.1 246.95 Q133.1 252.7 129.05 256.7 125.0 260.8 119.3 260.8 113.6 260.8 109.5 256.7 105.5 252.7 105.5 246.95 105.5 241.25 109.5 237.2 113.6 233.15 119.3 233.15 125.0 233.15 129.05 237.2 133.1 241.25 133.1 246.95" fill="#ffffff" fill-opacity="0.2" fill-rule="evenodd" stroke="none"/>
    <path d="M130.3 246.95 Q130.3 251.55 127.1 254.75 123.85 258.0 119.3 258.0 114.7 258.0 111.5 254.75 108.25 251.55 108.25 246.95 108.25 242.4 111.5 239.15 114.7 235.95 119.3 235.95 123.85 235.95 127.1 239.15 130.3 242.4 130.3 246.95" fill="#ffffff" fill-opacity="0.4" fill-rule="evenodd" stroke="none"/>
    <path d="M154.15 392.7 Q160.9 399.45 160.9 408.95 160.9 418.45 154.15 425.2 147.4 431.95 137.9 431.95 128.4 431.95 121.6 425.2 114.9 418.45 114.9 408.95 114.9 399.45 121.6 392.7 128.4 385.95 137.9 385.95 147.4 385.95 154.15 392.7 M137.9 390.55 Q130.3 390.55 124.9 395.95 119.5 401.35 119.5 408.95 119.5 416.55 124.9 421.95 130.3 427.35 137.9 427.35 145.5 427.35 150.9 421.95 156.3 416.55 156.3 408.95 156.3 401.35 150.9 395.95 145.5 390.55 137.9 390.55" fill="#ffffff" fill-opacity="0.2" fill-rule="evenodd" stroke="none"/>
    <path d="M137.9 390.55 Q145.5 390.55 150.9 395.95 156.3 401.35 156.3 408.95 156.3 416.55 150.9 421.95 145.5 427.35 137.9 427.35 130.3 427.35 124.9 421.95 119.5 416.55 119.5 408.95 119.5 401.35 124.9 395.95 130.3 390.55 137.9 390.55" fill="#ffffff" fill-opacity="0.4" fill-rule="evenodd" stroke="none"/>
    <path d="M521.75 189.85 Q530.3 189.85 536.35 195.9 542.45 202.0 542.45 210.55 542.45 219.1 536.35 225.2 530.3 231.25 521.75 231.25 513.2 231.25 507.1 225.2 501.05 219.1 501.05 210.55 501.05 202.0 507.1 195.9 513.2 189.85 521.75 189.85 M538.3 210.55 Q538.3 203.7 533.45 198.85 528.6 194.0 521.75 194.0 514.9 194.0 510.05 198.85 505.2 203.7 505.2 210.55 505.2 217.4 510.05 222.25 514.9 227.1 521.75 227.1 528.6 227.1 533.45 222.25 538.3 217.4 538.3 210.55" fill="#ffffff" fill-opacity="0.2" fill-rule="evenodd" stroke="none"/>
    <path d="M538.3 210.55 Q538.3 217.4 533.45 222.25 528.6 227.1 521.75 227.1 514.9 227.1 510.05 222.25 505.2 217.4 505.2 210.55 505.2 203.7 510.05 198.85 514.9 194.0 521.75 194.0 528.6 194.0 533.45 198.85 538.3 203.7 538.3 210.55" fill="#ffffff" fill-opacity="0.4" fill-rule="evenodd" stroke="none"/>
    <path d="M462.95 369.95 Q465.65 367.25 465.65 363.45 465.65 359.65 462.95 356.95 460.25 354.25 456.45 354.25 452.65 354.25 449.95 356.95 447.25 359.65 447.25 363.45 447.25 367.25 449.95 369.95 452.65 372.65 456.45 372.65 460.25 372.65 462.95 369.95 M464.6 355.3 Q467.95 358.7 467.95 363.45 467.95 368.2 464.6 371.55 461.2 374.95 456.45 374.95 451.7 374.95 448.3 371.55 444.95 368.2 444.95 363.45 444.95 358.7 448.3 355.3 451.7 351.95 456.45 351.95 461.2 351.95 464.6 355.3" fill="#ffffff" fill-opacity="0.2" fill-rule="evenodd" stroke="none"/>
    <path d="M462.95 369.95 Q460.25 372.65 456.45 372.65 452.65 372.65 449.95 369.95 447.25 367.25 447.25 363.45 447.25 359.65 449.95 356.95 452.65 354.25 456.45 354.25 460.25 354.25 462.95 356.95 465.65 359.65 465.65 363.45 465.65 367.25 462.95 369.95" fill="#ffffff" fill-opacity="0.4" fill-rule="evenodd" stroke="none"/>
    <path d="M271.05 147.55 Q275.8 152.3 275.8 158.95 275.8 165.65 271.05 170.35 266.35 175.1 259.7 175.1 253.05 175.1 248.3 170.35 243.6 165.65 243.6 158.95 243.6 152.3 248.3 147.55 253.05 142.85 259.7 142.85 266.35 142.85 271.05 147.55 M272.6 158.95 Q272.6 153.65 268.8 149.85 265.0 146.1 259.7 146.1 254.4 146.1 250.6 149.85 246.8 153.65 246.8 158.95 246.8 164.3 250.6 168.05 254.4 171.85 259.7 171.85 265.0 171.85 268.8 168.05 272.6 164.3 272.6 158.95" fill="#ffffff" fill-opacity="0.2" fill-rule="evenodd" stroke="none"/>
    <path d="M272.6 158.95 Q272.6 164.3 268.8 168.05 265.0 171.85 259.7 171.85 254.4 171.85 250.6 168.05 246.8 164.3 246.8 158.95 246.8 153.65 250.6 149.85 254.4 146.1 259.7 146.1 265.0 146.1 268.8 149.85 272.6 153.65 272.6 158.95" fill="#ffffff" fill-opacity="0.4" fill-rule="evenodd" stroke="none"/>
    <path d="M319.55 384.25 Q326.2 384.25 330.9 388.95 335.65 393.7 335.65 400.35 335.65 407.05 330.9 411.75 326.2 416.5 319.55 416.5 312.9 416.5 308.15 411.75 303.45 407.05 303.45 400.35 303.45 393.7 308.15 388.95 312.9 384.25 319.55 384.25 M319.55 387.5 Q314.25 387.5 310.45 391.25 306.65 395.05 306.65 400.35 306.65 405.7 310.45 409.45 314.25 413.25 319.55 413.25 324.85 413.25 328.65 409.45 332.45 405.7 332.45 400.35 332.45 395.05 328.65 391.25 324.85 387.5 319.55 387.5" fill="#ffffff" fill-opacity="0.2" fill-rule="evenodd" stroke="none"/>
    <path d="M319.55 387.5 Q324.85 387.5 328.65 391.25 332.45 395.05 332.45 400.35 332.45 405.7 328.65 409.45 324.85 413.25 319.55 413.25 314.25 413.25 310.45 409.45 306.65 405.7 306.65 400.35 306.65 395.05 310.45 391.25 314.25 387.5 319.55 387.5" fill="#ffffff" fill-opacity="0.4" fill-rule="evenodd" stroke="none"/>
    <path d="M219.55 240.05 Q219.55 236.25 222.25 233.5 224.95 230.85 228.75 230.85 232.55 230.85 235.25 233.5 237.95 236.25 237.95 240.05 237.95 243.85 235.25 246.55 232.55 249.25 228.75 249.25 224.95 249.25 222.25 246.55 219.55 243.85 219.55 240.05 M228.75 232.65 Q225.7 232.65 223.55 234.85 221.4 237.0 221.4 240.05 221.4 243.05 223.55 245.25 225.7 247.4 228.75 247.4 231.8 247.4 233.95 245.25 236.1 243.05 236.1 240.05 236.1 237.0 233.95 234.85 231.8 232.65 228.75 232.65" fill="#ffffff" fill-opacity="0.2" fill-rule="evenodd" stroke="none"/>
    <path d="M228.75 232.65 Q231.8 232.65 233.95 234.85 236.1 237.0 236.1 240.05 236.1 243.05 233.95 245.25 231.8 247.4 228.75 247.4 225.7 247.4 223.55 245.25 221.4 243.05 221.4 240.05 221.4 237.0 223.55 234.85 225.7 232.65 228.75 232.65" fill="#ffffff" fill-opacity="0.4" fill-rule="evenodd" stroke="none"/>
    <path d="M428.6 277.45 Q432.7 273.4 438.4 273.4 444.1 273.4 448.15 277.45 452.2 281.5 452.2 287.2 452.2 292.95 448.15 296.95 444.1 301.05 438.4 301.05 432.7 301.05 428.6 296.95 424.6 292.95 424.6 287.2 424.6 281.5 428.6 277.45 M430.6 279.4 Q427.35 282.65 427.35 287.2 427.35 291.8 430.6 295.0 433.8 298.25 438.4 298.25 442.95 298.25 446.2 295.0 449.4 291.8 449.4 287.2 449.4 282.65 446.2 279.4 442.95 276.2 438.4 276.2 433.8 276.2 430.6 279.4" fill="#ffffff" fill-opacity="0.2" fill-rule="evenodd" stroke="none"/>
    <path d="M430.6 279.4 Q433.8 276.2 438.4 276.2 442.95 276.2 446.2 279.4 449.4 282.65 449.4 287.2 449.4 291.8 446.2 295.0 442.95 298.25 438.4 298.25 433.8 298.25 430.6 295.0 427.35 291.8 427.35 287.2 427.35 282.65 430.6 279.4" fill="#ffffff" fill-opacity="0.4" fill-rule="evenodd" stroke="none"/>
    <path d="M535.35 317.0 Q532.65 319.7 528.85 319.7 525.05 319.7 522.35 317.0 519.65 314.3 519.65 310.5 519.65 306.7 522.35 303.95 525.05 301.3 528.85 301.3 532.65 301.3 535.35 303.95 538.05 306.7 538.05 310.5 538.05 314.3 535.35 317.0 M536.2 310.5 Q536.2 307.45 534.05 305.3 531.9 303.1 528.85 303.1 525.8 303.1 523.65 305.3 521.5 307.45 521.5 310.5 521.5 313.5 523.65 315.7 525.8 317.85 528.85 317.85 531.9 317.85 534.05 315.7 536.2 313.5 536.2 310.5" fill="#ffffff" fill-opacity="0.2" fill-rule="evenodd" stroke="none"/>
    <path d="M536.2 310.5 Q536.2 313.5 534.05 315.7 531.9 317.85 528.85 317.85 525.8 317.85 523.65 315.7 521.5 313.5 521.5 310.5 521.5 307.45 523.65 305.3 525.8 303.1 528.85 303.1 531.9 303.1 534.05 305.3 536.2 307.45 536.2 310.5" fill="#ffffff" fill-opacity="0.4" fill-rule="evenodd" stroke="none"/>
    <path d="M180.65 140.8 Q182.7 138.8 185.55 138.8 188.4 138.8 190.4 140.8 192.45 142.85 192.45 145.7 192.45 148.55 190.4 150.55 188.4 152.6 185.55 152.6 182.7 152.6 180.65 150.55 178.65 148.55 178.65 145.7 178.65 142.85 180.65 140.8 M191.05 145.7 Q191.05 143.4 189.45 141.8 187.8 140.15 185.55 140.15 183.25 140.15 181.65 141.8 180.0 143.4 180.0 145.7 180.0 147.95 181.65 149.6 183.25 151.2 185.55 151.2 187.8 151.2 189.45 149.6 191.05 147.95 191.05 145.7" fill="#ffffff" fill-opacity="0.2" fill-rule="evenodd" stroke="none"/>
    <path d="M191.05 145.7 Q191.05 147.95 189.45 149.6 187.8 151.2 185.55 151.2 183.25 151.2 181.65 149.6 180.0 147.95 180.0 145.7 180.0 143.4 181.65 141.8 183.25 140.15 185.55 140.15 187.8 140.15 189.45 141.8 191.05 143.4 191.05 145.7" fill="#ffffff" fill-opacity="0.4" fill-rule="evenodd" stroke="none"/>
    <path d="M379.0 131.4 Q383.05 135.45 383.05 141.15 383.05 146.9 379.0 150.9 374.95 155.0 369.25 155.0 363.55 155.0 359.45 150.9 355.45 146.9 355.45 141.15 355.45 135.45 359.45 131.4 363.55 127.35 369.25 127.35 374.95 127.35 379.0 131.4 M380.25 141.15 Q380.25 136.6 377.05 133.35 373.8 130.15 369.25 130.15 364.65 130.15 361.45 133.35 358.2 136.6 358.2 141.15 358.2 145.75 361.45 148.95 364.65 152.2 369.25 152.2 373.8 152.2 377.05 148.95 380.25 145.75 380.25 141.15" fill="#ffffff" fill-opacity="0.2" fill-rule="evenodd" stroke="none"/>
    <path d="M380.25 141.15 Q380.25 145.75 377.05 148.95 373.8 152.2 369.25 152.2 364.65 152.2 361.45 148.95 358.2 145.75 358.2 141.15 358.2 136.6 361.45 133.35 364.65 130.15 369.25 130.15 373.8 130.15 377.05 133.35 380.25 136.6 380.25 141.15" fill="#ffffff" fill-opacity="0.4" fill-rule="evenodd" stroke="none"/>
    <path d="M101.45 325.55 L106.35 324.0 109.05 311.65 111.7 324.0 116.6 325.55 111.75 327.1 109.05 341.8 106.3 327.1 101.45 325.55" fill="#ffffff" fill-rule="evenodd" stroke="none"/>
    <path d="M314.75 213.6 L309.1 215.4 305.95 232.6 302.75 215.4 297.1 213.6 302.85 211.8 305.95 197.35 309.05 211.8 314.75 213.6" fill="#ffffff" fill-rule="evenodd" stroke="none"/>
    <path d="M387.3 355.7 L384.05 356.7 382.25 366.55 380.45 356.75 377.2 355.7 380.5 354.7 382.25 346.4 384.05 354.7 387.3 355.7" fill="#ffffff" fill-rule="evenodd" stroke="none"/>
    <path d="M486.15 396.5 L494.3 399.1 486.25 401.6 481.7 426.15 477.15 401.65 469.1 399.1 477.3 396.5 481.7 375.85 486.15 396.5" fill="#ffffff" fill-rule="evenodd" stroke="none"/>
    <path d="M229.6 368.25 L234.05 388.9 242.2 391.5 234.15 394.0 229.6 418.55 225.05 394.05 217.0 391.5 225.2 388.9 229.6 368.25" fill="#ffffff" fill-rule="evenodd" stroke="none"/>
    <path d="M515.8 163.25 L510.15 165.05 507.0 182.25 503.8 165.05 498.15 163.25 503.9 161.45 507.0 147.0 510.1 161.45 515.8 163.25" fill="#ffffff" fill-rule="evenodd" stroke="none"/>
    <path d="M232.1 182.8 L234.35 193.15 238.4 194.4 234.4 195.7 232.1 207.95 229.85 195.7 225.8 194.4 229.9 193.15 232.1 182.8" fill="#ffffff" fill-rule="evenodd" stroke="none"/>
    <path d="M610.55 20.95 L610.5 21.0 Q610.15 16.35 606.6 13.35 603.1 10.45 598.45 10.9 594.15 11.25 591.3 14.35 L588.45 17.75 605.45 32.05 608.35 28.6 Q610.9 25.15 610.55 20.95 M616.0 20.5 Q615.4 13.6 610.1 9.15 604.85 4.75 598.0 5.4 591.45 5.95 587.1 10.75 L584.25 14.2 585.9 15.6 588.8 12.15 588.85 12.1 Q592.55 8.0 598.2 7.55 604.1 7.0 608.7 10.8 613.3 14.7 613.85 20.65 614.3 26.25 610.95 30.6 L610.9 30.7 608.0 34.15 609.65 35.55 612.55 32.1 Q616.55 27.0 615.95 20.5 L616.0 20.5 M575.95 67.55 Q576.85 65.2 578.05 62.75 573.8 65.85 569.5 67.55 564.9 69.35 560.25 69.6 559.6 69.65 559.05 69.2 558.55 68.75 558.5 68.15 L558.4 66.95 Q557.7 58.55 562.25 49.35 553.55 55.95 545.15 56.85 L544.25 56.75 543.6 56.15 Q543.3 55.8 543.3 55.3 543.15 52.8 543.4 50.3 544.05 44.55 547.2 38.25 541.45 42.8 536.15 44.8 L532.35 46.0 531.3 45.85 530.5 45.15 Q530.25 44.65 530.35 44.05 531.9 33.15 544.6 17.4 L555.4 4.5 Q562.1 -3.65 570.8 2.95 L570.85 3.0 581.7 12.1 584.65 8.6 Q589.8 2.7 597.65 2.05 605.9 1.3 612.25 6.6 618.6 11.95 619.25 20.15 L619.25 20.2 Q620.0 28.05 615.15 34.2 L612.2 37.7 622.65 46.45 Q628.85 51.75 625.1 59.05 L619.85 60.7 619.85 60.8 619.75 60.75 569.8 18.8 562.85 12.95 556.8 7.9 547.15 19.4 Q536.7 32.45 534.2 41.95 537.9 40.6 541.9 37.95 548.15 33.7 554.9 26.1 L555.0 26.0 Q555.45 25.5 556.1 25.45 556.8 25.45 557.3 25.85 557.85 26.3 557.9 26.95 558.0 27.6 557.55 28.1 L557.5 28.2 Q550.7 36.9 548.1 44.65 546.65 49.15 546.55 53.25 557.65 51.05 569.3 38.2 L569.4 38.1 Q569.9 37.6 570.5 37.55 571.2 37.5 571.75 37.95 572.25 38.4 572.3 39.05 572.35 39.7 571.95 40.2 L571.85 40.3 Q561.15 54.2 561.65 66.15 573.5 64.6 585.3 51.6 L585.4 51.5 Q585.9 51.05 586.55 51.0 587.2 50.95 587.75 51.4 588.25 51.8 588.25 52.5 588.4 53.15 587.95 53.65 L587.85 53.75 Q582.3 60.95 579.6 67.45 L575.95 67.55 M575.9 11.55 L568.95 5.7 568.7 5.55 Q563.35 1.55 559.05 5.45 L565.0 10.4 571.95 16.25 621.85 58.15 Q624.75 52.85 620.45 48.95 L575.9 11.55 M597.85 65.7 L599.75 63.7 599.8 63.6 Q600.25 63.1 600.9 63.05 601.6 63.0 602.1 63.45 L602.65 64.55 602.65 64.9 597.85 65.7" fill="#454565" fill-rule="evenodd" stroke="none"/>
    <path d="M616.0 20.5 L615.95 20.5 Q616.55 27.0 612.55 32.1 L609.65 35.55 608.0 34.15 610.9 30.7 610.95 30.6 Q614.3 26.25 613.85 20.65 613.3 14.7 608.7 10.8 604.1 7.0 598.2 7.55 592.55 8.0 588.85 12.1 L588.8 12.15 585.9 15.6 584.25 14.2 587.1 10.75 Q591.45 5.95 598.0 5.4 604.85 4.75 610.1 9.15 615.4 13.6 616.0 20.5 M579.6 67.45 Q582.3 60.95 587.85 53.75 L587.95 53.65 Q588.4 53.15 588.25 52.5 588.25 51.8 587.75 51.4 587.2 50.95 586.55 51.0 585.9 51.05 585.4 51.5 L585.3 51.6 Q573.5 64.6 561.65 66.15 561.15 54.2 571.85 40.3 L571.95 40.2 Q572.35 39.7 572.3 39.05 572.25 38.4 571.75 37.95 571.2 37.5 570.5 37.55 569.9 37.6 569.4 38.1 L569.3 38.2 Q557.65 51.05 546.55 53.25 546.65 49.15 548.1 44.65 L569.8 18.8 619.75 60.75 Q611.25 63.25 602.65 64.9 L602.65 64.55 602.1 63.45 Q601.6 63.0 600.9 63.05 600.25 63.1 599.8 63.6 L599.75 63.7 597.85 65.7 579.6 67.45 M541.9 37.95 Q537.9 40.6 534.2 41.95 536.7 32.45 547.15 19.4 L556.8 7.9 562.85 12.95 541.9 37.95 M571.95 16.25 L575.9 11.55 620.45 48.95 Q624.75 52.85 621.85 58.15 L571.95 16.25 M568.95 5.7 L565.0 10.4 559.05 5.45 Q563.35 1.55 568.7 5.55 L568.95 5.7" fill="#7474b4" fill-rule="evenodd" stroke="none"/>
    <path d="M548.1 44.65 Q550.7 36.9 557.5 28.2 L557.55 28.1 Q558.0 27.6 557.9 26.95 557.85 26.3 557.3 25.85 556.8 25.45 556.1 25.45 555.45 25.5 555.0 26.0 L554.9 26.1 Q548.15 33.7 541.9 37.95 L562.85 12.95 569.8 18.8 548.1 44.65 M575.9 11.55 L571.95 16.25 565.0 10.4 568.95 5.7 575.9 11.55" fill="#9191c4" fill-rule="evenodd" stroke="none"/>
    <path d="M575.95 67.55 L579.6 67.45 Q577.1 73.4 576.95 78.75 587.15 76.75 597.85 65.7 L602.65 64.9 602.35 65.7 602.25 65.8 Q591.9 78.9 590.3 89.0 599.15 84.85 610.2 72.35 L619.85 60.8 619.85 60.7 625.1 59.05 623.6 61.55 623.55 61.6 623.4 61.8 612.7 74.55 Q599.35 89.75 588.8 93.15 L587.75 93.2 586.9 92.55 Q586.6 92.05 586.65 91.5 586.95 84.25 591.7 75.6 583.5 81.5 575.55 82.4 L574.65 82.25 574.0 81.7 Q573.7 81.3 573.7 80.85 573.25 74.5 575.95 67.55" fill="#3d3d58" fill-rule="evenodd" stroke="none"/>
    <path d="M619.75 60.75 L619.85 60.8 610.2 72.35 Q599.15 84.85 590.3 89.0 591.9 78.9 602.25 65.8 L602.35 65.7 602.65 64.9 Q611.25 63.25 619.75 60.75 M597.85 65.7 Q587.15 76.75 576.95 78.75 577.1 73.4 579.6 67.45 L597.85 65.7" fill="#5959a6" fill-rule="evenodd" stroke="none"/>
  </g>
  <defs>
    <radialGradient cx="0" cy="0" gradientTransform="matrix(0.4536, 0.0, 0.0, 0.4537, 295.2, 298.95)" gradientUnits="userSpaceOnUse" id="gradient0" r="819.2" spreadMethod="pad">
      <stop offset="0.0" stop-color="#ff0000"/>
      <stop offset="1.0" stop-color="#000000"/>
    </radialGradient>
  </defs>
</svg>
