<?xml version="1.0" encoding="UTF-8" standalone="no"?>
<svg xmlns:ffdec="https://www.free-decompiler.com/flash" xmlns:xlink="http://www.w3.org/1999/xlink" ffdec:objectType="shape" height="653.25px" width="631.35px" xmlns="http://www.w3.org/2000/svg">
  <g transform="matrix(1.0, 0.0, 0.0, 1.0, 0.0, 0.0)">
    <path d="M622.0 59.85 Q615.05 69.4 607.35 77.95 599.55 86.7 589.55 92.2 584.7 94.8 584.6 90.25 579.05 96.3 574.35 103.15 561.85 121.2 564.4 143.1 593.2 178.85 610.0 221.55 626.8 264.3 630.3 310.35 633.8 355.9 625.45 400.65 617.0 445.8 595.1 486.1 573.5 525.85 541.85 558.15 510.05 590.6 470.6 613.3 430.95 636.25 386.1 645.7 341.3 655.35 295.45 652.7 250.75 650.3 208.65 635.4 165.2 620.1 128.5 592.25 92.35 564.9 64.4 529.35 35.85 492.9 19.7 449.5 3.95 407.2 0.85 362.2 -2.35 316.15 6.7 271.05 15.75 226.05 38.15 186.0 60.2 146.7 92.4 114.55 L101.2 106.1 Q134.05 75.25 173.95 54.9 213.15 34.9 256.5 27.3 312.2 17.6 368.25 26.15 432.85 36.25 487.65 72.5 492.9 72.05 497.95 70.4 518.25 63.25 531.05 45.5 L529.7 45.75 529.2 45.3 Q528.5 37.25 533.3 29.9 542.15 16.25 553.0 4.0 558.85 -2.55 566.35 1.65 573.7 5.8 579.55 11.85 581.7 9.4 584.05 7.25 592.3 -0.3 603.2 2.95 612.2 5.55 615.45 14.35 620.3 27.6 610.05 37.45 616.0 42.5 621.35 48.15 626.55 53.6 622.0 59.85 M597.5 10.6 Q590.1 10.95 586.3 17.5 L603.3 31.8 Q608.75 27.35 608.4 20.7 606.95 11.5 597.5 10.6" fill="#ffffff" fill-rule="evenodd" stroke="none"/>
  </g>
</svg>
