<?xml version="1.0" encoding="UTF-8" standalone="no"?>
<svg xmlns:ffdec="https://www.free-decompiler.com/flash" xmlns:xlink="http://www.w3.org/1999/xlink" ffdec:objectType="shape" height="631.1px" width="631.35px" xmlns="http://www.w3.org/2000/svg">
  <g transform="matrix(1.0, 0.0, 0.0, 1.0, -0.55, -22.2)">
    <path d="M521.55 56.85 L568.9 114.1 Q563.15 127.65 564.95 143.15 571.8 151.7 578.0 160.6 553.1 166.2 533.9 185.4 506.85 212.5 506.85 250.85 506.85 289.25 533.9 316.35 561.0 343.45 599.4 343.45 616.8 343.45 631.9 337.9 631.8 369.5 626.0 400.7 617.55 445.85 595.65 486.15 574.05 525.9 542.4 558.2 510.6 590.65 471.15 613.35 431.5 636.3 386.65 645.75 341.85 655.4 296.0 652.75 251.3 650.35 209.2 635.45 165.75 620.15 129.05 592.3 92.9 564.95 64.95 529.4 36.4 492.95 20.25 449.55 4.5 407.25 1.4 362.25 -1.8 316.2 7.25 271.1 16.3 226.1 38.7 186.05 60.75 146.75 92.95 114.6 L101.75 106.15 Q134.6 75.3 174.5 54.95 213.7 34.95 257.05 27.35 312.75 17.65 368.8 26.2 433.4 36.3 488.2 72.55 493.45 72.1 498.5 70.45 511.55 65.85 521.55 56.85" fill="#ff0000" fill-rule="evenodd" stroke="none"/>
  </g>
</svg>
