<?xml version="1.0" encoding="UTF-8" standalone="no"?>
<svg xmlns:ffdec="https://www.free-decompiler.com/flash" xmlns:xlink="http://www.w3.org/1999/xlink" ffdec:objectType="shape" height="653.5px" width="900.8px" xmlns="http://www.w3.org/2000/svg">
  <g transform="matrix(1.0, 0.0, 0.0, 1.0, 0.0, 0.0)">
    <path d="M608.35 20.95 L608.3 21.0 Q607.95 16.35 604.4 13.35 600.9 10.45 596.25 10.9 591.95 11.25 589.1 14.35 L586.25 17.75 603.25 32.05 606.15 28.6 Q608.7 25.15 608.35 20.95 M835.05 60.45 Q834.3 58.0 832.1 56.8 829.85 55.6 827.45 56.35 825.15 57.05 823.95 59.1 L822.8 61.25 833.6 66.95 834.8 64.75 Q835.7 62.65 835.05 60.45 M839.65 59.0 L839.7 59.0 Q840.85 62.9 839.3 66.5 L839.05 67.0 837.85 69.25 844.5 72.75 Q848.45 74.85 847.3 79.25 L846.75 80.75 846.7 80.8 846.65 80.9 842.35 89.0 Q836.9 98.7 831.65 101.7 L831.1 101.85 830.8 101.8 829.55 104.3 Q823.35 118.7 828.7 131.4 877.8 167.55 894.2 228.75 913.5 300.8 876.2 365.4 838.95 430.0 766.9 449.3 694.95 468.6 630.35 431.3 624.9 428.15 619.85 424.8 598.75 501.0 538.65 561.05 446.2 653.5 315.5 653.5 184.85 653.5 92.35 561.05 0.0 468.65 0.0 337.95 0.0 207.2 92.35 114.8 184.85 22.4 315.5 22.4 411.95 22.4 487.6 72.75 508.7 70.4 525.35 52.35 L531.0 45.75 530.15 46.0 529.1 45.85 Q528.6 45.6 528.3 45.15 528.05 44.65 528.15 44.05 529.7 33.15 542.4 17.4 L553.2 4.5 Q559.9 -3.65 568.6 2.95 L568.65 3.0 579.5 12.1 582.45 8.6 Q587.6 2.7 595.45 2.05 603.7 1.3 610.05 6.6 616.4 11.95 617.05 20.15 L617.05 20.2 Q617.8 28.05 612.95 34.2 L610.0 37.7 620.45 46.45 Q626.65 51.75 622.9 59.05 L621.4 61.55 621.35 61.6 621.2 61.8 610.5 74.55 Q597.15 89.75 586.6 93.15 L585.55 93.2 Q585.05 93.0 584.7 92.55 584.4 92.05 584.45 91.5 L584.55 90.5 578.15 97.9 Q561.0 119.4 564.35 143.35 572.2 153.2 579.15 163.4 614.8 117.3 673.7 101.5 726.85 87.25 776.0 103.85 787.25 99.45 793.8 87.0 L795.8 82.85 795.25 82.9 794.8 82.55 Q794.6 82.35 794.55 82.0 794.15 75.95 799.15 66.05 L803.5 57.85 Q806.2 52.7 811.6 55.25 L811.65 55.3 818.55 58.95 819.75 56.7 Q821.85 53.0 826.0 51.7 830.3 50.4 834.35 52.55 838.35 54.65 839.65 59.0" fill="#ff0000" fill-rule="evenodd" stroke="none"/>
  </g>
</svg>
