<?xml version="1.0" encoding="UTF-8" standalone="no"?>
<svg xmlns:ffdec="https://www.free-decompiler.com/flash" xmlns:xlink="http://www.w3.org/1999/xlink" ffdec:objectType="shape" height="542.0px" width="1557.4px" xmlns="http://www.w3.org/2000/svg">
  <g transform="matrix(1.0, 0.0, 0.0, 1.0, 0.0, 0.0)">
    <path d="M1557.4 542.0 L0.0 542.0 0.0 0.0 1557.4 0.0 1557.4 542.0 M928.25 188.25 Q926.65 189.9 926.65 192.2 L926.65 219.1 Q926.65 220.2 927.05 221.2 L927.5 222.1 928.1 222.9 928.9 223.65 929.7 224.1 Q930.35 224.45 931.05 224.6 L931.25 224.65 932.1 224.7 958.5 224.7 Q960.7 224.65 962.3 223.05 963.95 221.4 963.95 219.1 L963.95 192.2 963.9 191.35 963.85 191.15 963.7 190.55 963.5 190.0 963.05 189.2 962.45 188.4 961.7 187.7 960.8 187.2 Q959.75 186.65 958.5 186.7 L932.1 186.7 Q929.85 186.65 928.25 188.25 M960.8 143.4 Q959.75 142.85 958.5 142.9 L932.1 142.9 Q929.85 142.85 928.25 144.45 926.65 146.1 926.65 148.4 L926.65 175.3 Q926.65 176.4 927.05 177.4 L927.5 178.3 928.1 179.1 928.9 179.85 929.7 180.3 Q930.35 180.65 931.05 180.8 L931.25 180.85 932.1 180.9 958.5 180.9 Q960.7 180.85 962.3 179.25 963.95 177.6 963.95 175.3 L963.95 148.4 963.9 147.55 963.85 147.35 963.7 146.75 963.5 146.2 963.05 145.4 962.45 144.6 961.7 143.9 960.8 143.4 M963.95 105.2 L963.9 104.35 963.85 104.15 963.7 103.55 963.5 103.0 963.05 102.2 962.45 101.4 961.7 100.7 960.8 100.2 Q959.75 99.65 958.5 99.7 L932.1 99.7 Q929.85 99.65 928.25 101.25 926.65 102.9 926.65 105.2 L926.65 132.1 Q926.65 133.2 927.05 134.2 L927.5 135.1 928.1 135.9 928.9 136.65 929.7 137.1 Q930.35 137.45 931.05 137.6 L931.25 137.65 932.1 137.7 958.5 137.7 Q960.7 137.65 962.3 136.05 963.95 134.4 963.95 132.1 L963.95 105.2" fill="#ff0000" fill-rule="evenodd" stroke="none"/>
  </g>
</svg>
