<?xml version="1.0" encoding="UTF-8" standalone="no"?>
<svg xmlns:ffdec="https://www.free-decompiler.com/flash" xmlns:xlink="http://www.w3.org/1999/xlink" ffdec:objectType="shape" height="270.0px" width="315.65px" xmlns="http://www.w3.org/2000/svg">
  <g transform="matrix(1.0, 0.0, 0.0, 1.0, -594.45, -7.05)">
    <path d="M849.6 147.4 Q858.6 89.55 842.3 38.25 841.55 35.9 842.4 33.6 843.45 31.25 845.65 30.05 L885.05 7.9 Q887.05 6.75 889.4 7.15 891.75 7.4 893.5 9.1 895.1 10.75 895.4 13.25 L896.2 19.35 Q903.0 80.3 897.1 127.7 889.2 191.65 858.15 230.55 856.9 232.15 855.05 232.8 853.15 233.5 851.25 233.2 849.35 232.7 847.8 231.45 L840.85 224.55 833.35 216.15 Q827.75 209.55 822.9 202.65 L824.75 223.6 Q824.95 225.9 823.7 227.9 822.5 229.9 820.35 230.85 L774.0 249.35 772.45 249.75 769.2 249.5 Q766.75 248.6 765.5 246.4 764.1 244.15 764.6 241.6 764.65 240.6 764.85 239.5 L765.05 238.1 764.2 238.25 763.7 238.25 Q761.55 238.1 759.8 236.95 758.0 235.7 757.3 233.6 755.7 229.45 753.45 225.9 746.3 214.1 732.15 207.2 L734.35 214.0 Q735.05 215.85 734.55 217.8 734.05 219.75 732.55 221.2 731.2 222.55 729.3 223.05 L701.9 229.45 701.65 229.55 Q698.8 230.15 696.35 228.65 693.85 227.2 693.15 224.45 690.55 213.7 688.65 203.25 L687.0 193.6 684.85 193.95 Q682.05 194.4 679.65 192.8 L678.9 192.1 Q677.2 190.55 676.9 188.3 L671.85 158.05 Q671.5 156.1 672.2 154.2 672.95 152.35 674.65 151.15 676.35 150.0 678.3 149.85 L682.75 149.45 682.6 144.15 682.6 138.6 Q682.6 134.0 682.75 129.5 681.2 130.75 679.35 131.15 L656.4 135.3 Q658.5 155.95 665.45 177.25 L669.15 187.5 670.8 191.9 Q678.3 210.6 689.55 229.55 690.9 231.9 690.2 234.7 689.55 237.4 687.1 239.0 L646.75 264.35 Q645.5 265.05 644.15 265.2 L642.7 265.3 Q640.55 265.2 638.9 263.9 637.1 262.65 636.4 260.65 630.9 245.4 626.55 230.65 614.85 191.7 610.95 156.6 L610.95 156.5 609.7 143.9 605.2 144.85 603.8 145.0 600.1 144.75 Q598.2 144.05 597.05 142.45 595.75 140.85 595.45 139.05 593.85 124.7 594.75 111.2 L595.2 106.4 Q595.35 104.15 596.9 102.5 598.4 100.75 600.65 100.2 L609.15 98.6 Q610.1 71.95 614.35 46.9 614.5 45.95 614.95 45.05 615.15 44.25 615.75 43.7 616.5 42.6 617.7 42.0 L618.7 41.5 Q662.3 24.45 712.5 22.5 714.35 22.45 716.1 23.3 717.8 24.2 718.8 25.85 719.8 27.45 719.8 29.5 L719.8 34.35 719.8 36.6 730.0 46.25 Q736.55 52.65 742.2 58.95 L749.45 67.3 Q754.85 73.85 759.15 80.2 763.35 86.3 766.5 92.25 L766.2 87.1 765.7 80.2 765.7 79.65 Q765.6 78.0 766.2 76.8 L763.45 73.75 763.25 73.75 Q754.45 62.9 755.35 47.65 L755.35 47.5 Q756.25 32.5 766.05 22.0 776.55 10.75 790.45 10.85 804.45 10.85 813.65 22.45 L813.75 22.5 Q815.8 25.0 817.45 27.7 822.3 36.8 821.7 48.3 821.25 56.35 818.35 63.3 L818.45 63.65 Q819.7 65.45 819.7 67.7 819.45 71.6 819.45 75.6 L825.1 73.75 829.1 73.65 829.5 73.75 Q831.65 74.5 833.05 76.45 L833.95 78.5 834.25 80.75 834.05 85.8 Q833.65 97.5 834.75 108.65 836.0 123.7 839.9 137.85 841.2 142.9 842.8 147.8 844.9 153.8 847.35 159.8 L849.35 148.9 Q849.4 148.1 849.6 147.4 M889.0 128.2 Q895.1 82.35 888.95 23.3 L888.1 16.4 887.75 12.85 848.35 35.05 Q853.9 52.85 856.7 71.45 858.55 84.5 859.0 97.9 859.75 123.65 855.2 150.75 L853.45 160.4 Q851.5 169.75 849.0 179.35 840.35 164.0 835.0 147.6 L832.85 140.35 Q828.55 124.95 827.05 108.65 825.75 94.8 826.5 80.2 L826.55 79.2 811.45 84.15 811.55 80.2 Q811.65 73.2 811.9 66.35 L805.2 68.2 805.2 68.1 Q813.3 59.25 814.0 46.8 814.45 39.05 811.85 32.65 L811.35 31.55 Q809.85 28.4 807.65 25.65 L805.2 22.9 Q803.55 21.3 801.75 20.25 796.4 16.75 789.7 16.75 778.8 16.75 770.5 25.65 762.35 34.4 761.65 46.8 761.05 56.75 765.6 64.5 L766.9 66.6 768.05 68.1 Q772.9 73.85 779.35 75.75 L772.05 78.0 772.15 80.2 772.4 83.85 773.15 97.65 774.4 124.95 774.85 136.7 775.3 168.5 775.3 172.35 774.95 187.5 774.95 188.0 773.35 187.05 Q770.05 184.75 765.7 182.9 754.6 178.05 736.95 174.9 L744.0 169.85 Q770.65 148.9 768.1 121.5 766.4 102.4 750.65 80.2 746.85 74.85 742.2 69.3 729.95 54.6 711.95 38.65 L711.95 28.35 Q663.15 30.25 620.6 46.9 615.9 74.2 615.4 103.6 608.45 104.35 601.45 106.05 L601.0 110.85 Q600.25 123.3 601.9 136.95 L615.6 134.3 Q616.05 145.0 617.3 156.1 620.85 186.2 630.05 219.15 L630.15 219.4 633.25 230.15 Q637.35 243.45 642.25 257.15 L682.75 231.9 Q665.2 202.15 656.5 173.35 649.55 150.5 648.3 128.4 L677.4 123.05 Q677.1 111.75 678.1 100.5 L678.6 94.8 678.9 92.45 664.6 95.2 646.75 98.6 Q646.5 89.25 646.55 74.65 666.15 65.95 696.9 64.5 694.65 75.15 693.1 85.6 L691.25 98.35 Q690.15 108.0 689.15 126.7 688.8 129.7 688.95 139.05 L688.95 143.0 Q688.95 148.95 689.3 154.85 L678.1 155.7 681.45 176.1 683.1 185.9 692.1 184.5 Q692.85 190.3 694.0 196.2 694.7 200.75 695.75 205.55 697.35 213.5 699.25 221.6 L726.95 215.15 Q723.45 205.05 721.05 194.6 753.6 204.2 763.1 230.0 L773.05 223.45 Q772.05 233.45 770.7 241.6 L817.1 223.05 Q814.65 197.1 813.3 171.1 826.55 201.0 851.95 225.1 881.0 188.1 889.0 128.2 M685.7 90.15 L686.1 90.85 686.15 90.4 686.75 86.65 Q687.65 80.1 688.95 73.35 668.75 75.1 654.4 80.55 654.2 86.4 654.4 91.35 L678.2 86.7 Q680.5 86.25 682.5 87.3 684.65 88.2 685.7 90.15 M723.2 145.35 Q729.15 142.75 732.55 139.2 L734.35 136.95 Q736.25 134.1 736.8 130.75 L736.95 130.25 Q737.15 126.1 735.7 121.3 733.35 112.75 726.35 102.0 723.3 125.7 723.2 145.35 M731.5 147.5 Q725.2 151.35 715.65 153.7 714.5 123.7 721.35 82.85 741.5 108.0 743.1 124.7 L743.1 125.35 Q744.1 138.15 733.75 145.9 L731.5 147.5 M768.9 172.25 L768.85 154.8 Q763.45 164.0 754.05 172.4 L759.85 174.2 Q764.65 175.65 768.85 177.45 L768.9 172.25" fill="#560095" fill-rule="evenodd" stroke="none"/>
    <path d="M888.1 16.4 L888.95 23.3 Q895.1 82.35 889.0 128.2 880.25 129.85 873.65 136.55 865.45 144.65 864.75 155.95 860.2 152.7 855.2 150.75 859.75 123.65 859.0 97.9 859.7 69.3 855.55 37.6 L888.1 16.4 M694.0 196.2 Q692.85 190.3 692.1 184.5 L683.1 185.9 681.45 176.1 684.65 176.4 Q692.4 176.25 698.0 170.75 703.55 165.2 703.55 157.45 703.55 149.55 698.0 144.05 694.0 140.1 688.95 139.05 688.8 129.7 689.15 126.7 694.0 91.05 703.55 64.5 L696.9 64.5 Q666.15 65.95 646.55 74.65 646.5 89.25 646.75 98.6 L678.6 94.8 678.1 100.5 Q677.1 111.75 677.4 123.05 L648.3 128.4 Q649.55 150.5 656.5 173.35 L656.4 173.35 Q651.1 173.35 647.45 177.2 643.75 180.9 643.75 186.15 643.75 191.4 647.45 195.2 648.95 196.65 650.85 197.55 644.85 200.75 639.75 205.9 635.25 210.4 630.05 219.15 621.45 174.2 621.3 133.2 L615.6 134.3 601.9 136.95 Q602.35 122.9 604.0 108.8 611.85 106.95 620.95 106.35 621.65 71.45 626.35 51.75 652.65 39.4 711.95 28.35 L711.95 38.65 Q729.95 54.6 742.2 69.3 746.85 74.85 750.65 80.2 766.4 102.4 768.1 121.5 763.7 119.8 758.7 119.8 749.8 119.8 743.1 124.7 741.5 108.0 721.35 82.85 714.5 123.7 715.65 153.7 725.2 151.35 731.5 147.5 731.55 158.45 739.5 166.2 741.5 168.3 744.0 169.85 L736.95 174.9 Q754.6 178.05 765.7 182.9 770.05 184.75 773.35 187.05 L774.95 188.0 774.95 187.5 775.3 172.35 775.3 168.5 777.85 166.2 Q785.8 158.25 785.8 147.0 785.8 135.85 777.85 127.8 L775.15 125.45 Q776.1 103.25 778.85 80.2 L779.35 75.75 Q772.9 73.85 768.05 68.1 L766.9 66.6 Q764.6 60.25 765.0 52.8 765.75 40.45 773.85 31.65 782.15 22.8 793.1 22.8 799.8 22.8 805.15 26.25 806.9 27.3 808.55 28.85 L811.05 31.65 811.35 31.55 811.85 32.65 Q814.45 39.05 814.0 46.8 813.3 59.25 805.2 68.1 L804.85 68.3 805.2 68.2 811.9 66.35 Q811.65 73.2 811.55 80.2 L811.45 84.15 826.55 79.2 826.5 80.2 Q825.75 94.8 827.05 108.65 822.9 109.7 819.7 112.95 814.9 117.65 814.9 124.35 814.9 130.95 819.7 135.65 824.4 140.4 830.95 140.4 L832.85 140.35 835.0 147.6 Q829.3 147.8 824.1 149.35 823.5 145.25 820.45 142.25 816.7 138.55 811.45 138.55 806.2 138.55 802.55 142.25 798.75 146.0 798.75 151.25 798.75 156.6 802.55 160.3 L803.8 161.4 803.55 161.6 Q790.6 174.5 789.5 192.2 777.45 192.6 768.3 199.8 L768.25 199.7 Q754.1 185.6 734.25 185.6 714.35 185.6 700.25 199.7 L694.0 196.2 M871.55 104.15 Q867.65 104.15 864.95 106.9 862.2 109.55 862.2 113.45 862.2 117.45 864.95 120.2 867.65 123.0 871.55 123.0 875.5 123.0 878.25 120.2 881.0 117.45 881.0 113.45 881.0 109.55 878.25 106.9 875.5 104.15 871.55 104.15" fill="#9c15ff" fill-rule="evenodd" stroke="none"/>
    <path d="M689.15 126.7 Q690.15 108.0 691.25 98.35 L693.1 85.6 Q694.65 75.15 696.9 64.5 L703.55 64.5 Q694.0 91.05 689.15 126.7 M630.05 219.15 Q620.85 186.2 617.3 156.1 616.05 145.0 615.6 134.3 L621.3 133.2 Q621.45 174.2 630.05 219.15 M601.9 136.95 Q600.25 123.3 601.0 110.85 L601.45 106.05 Q608.45 104.35 615.4 103.6 615.9 74.2 620.6 46.9 663.15 30.25 711.95 28.35 652.65 39.4 626.35 51.75 621.65 71.45 620.95 106.35 611.85 106.95 604.0 108.8 602.35 122.9 601.9 136.95 M774.85 136.7 L774.4 124.95 773.15 97.65 772.4 83.85 772.15 80.2 772.05 78.0 779.35 75.75 778.85 80.2 Q776.1 103.25 775.15 125.45 L774.85 136.7 M766.9 66.6 L765.6 64.5 Q761.05 56.75 761.65 46.8 762.35 34.4 770.5 25.65 778.8 16.75 789.7 16.75 796.4 16.75 801.75 20.25 803.55 21.3 805.2 22.9 L807.65 25.65 Q809.85 28.4 811.35 31.55 L811.05 31.65 808.55 28.85 Q806.9 27.3 805.15 26.25 799.8 22.8 793.1 22.8 782.15 22.8 773.85 31.65 765.75 40.45 765.0 52.8 764.6 60.25 766.9 66.6 M859.0 97.9 Q858.55 84.5 856.7 71.45 853.9 52.85 848.35 35.05 L887.75 12.85 888.1 16.4 855.55 37.6 Q859.7 69.3 859.0 97.9" fill="#c980ff" fill-rule="evenodd" stroke="none"/>
    <path d="M896.2 19.35 Q897.8 18.55 899.65 18.9 902.0 19.15 903.8 20.85 905.35 22.5 905.75 25.0 912.85 84.05 908.35 130.65 905.25 162.3 896.95 188.1 884.55 221.95 868.4 242.25 867.15 243.85 865.25 244.5 L861.55 244.8 Q859.55 244.45 858.15 243.15 L855.35 240.35 847.15 231.9 840.85 224.55 847.8 231.45 Q849.35 232.7 851.25 233.2 853.15 233.5 855.05 232.8 856.9 232.15 858.15 230.55 889.2 191.65 897.1 127.7 903.0 80.3 896.2 19.35 M833.35 216.15 L835.1 235.25 Q835.2 237.6 834.05 239.6 832.75 241.6 830.7 242.55 L784.3 261.0 779.55 261.1 Q777.1 260.25 775.85 258.1 774.4 255.85 774.85 253.3 L775.45 249.75 774.0 249.85 772.45 249.75 774.0 249.35 820.35 230.85 Q822.5 229.9 823.7 227.9 824.95 225.9 824.75 223.6 L822.9 202.65 Q827.75 209.55 833.35 216.15 M753.45 225.9 Q748.65 221.85 742.4 218.9 L744.7 225.75 Q745.25 227.6 744.95 229.55 744.3 231.45 742.95 232.9 741.5 234.3 739.7 234.8 L711.85 241.25 Q709.05 241.9 706.65 240.35 704.2 238.95 703.55 236.05 702.6 232.75 701.95 229.5 L701.9 229.45 729.3 223.05 Q731.2 222.55 732.55 221.2 734.05 219.75 734.55 217.8 735.05 215.85 734.35 214.0 L732.15 207.2 Q746.3 214.1 753.45 225.9 M682.6 144.15 L666.75 146.9 667.05 150.05 Q668.25 160.05 670.5 170.1 672.95 180.9 676.7 191.9 685.1 216.15 699.9 241.25 701.25 243.65 700.55 246.4 699.9 249.2 697.5 250.7 L657.0 275.95 656.2 276.45 Q654.75 277.05 653.1 277.05 651.2 276.95 649.65 275.95 L649.2 275.65 Q647.45 274.4 646.75 272.35 L644.15 265.2 Q645.5 265.05 646.75 264.35 L687.1 239.0 Q689.55 237.4 690.2 234.7 690.9 231.9 689.55 229.55 678.3 210.6 670.8 191.9 L669.15 187.5 665.45 177.25 Q658.5 155.95 656.4 135.3 L679.35 131.15 Q681.2 130.75 682.75 129.5 682.6 134.0 682.6 138.6 L682.6 144.15 M610.5 156.5 L610.35 156.5 Q608.45 155.7 607.3 154.2 606.0 152.6 605.8 150.7 L605.2 144.85 609.7 143.9 610.95 156.5 610.5 156.5 M719.8 34.35 L722.8 34.15 Q724.7 34.05 726.35 35.05 728.0 35.9 729.15 37.6 730.0 39.2 730.0 41.2 L730.0 46.25 719.8 36.6 719.8 34.35 M749.45 67.3 Q755.65 73.85 760.8 80.2 L766.2 87.1 766.5 92.25 Q763.35 86.3 759.15 80.2 754.85 73.85 749.45 67.3 M817.45 27.7 Q820.95 30.25 824.0 34.05 L824.1 34.15 Q832.85 44.85 832.05 60.0 831.6 67.3 829.1 73.65 L825.1 73.75 819.45 75.6 Q819.45 71.6 819.7 67.7 819.7 65.45 818.45 63.65 L818.35 63.3 Q821.25 56.35 821.7 48.3 822.3 36.8 817.45 27.7 M834.05 85.8 L835.3 85.45 Q837.5 84.65 839.75 85.45 842.05 86.25 843.45 88.2 844.7 90.1 844.55 92.45 843.9 104.3 844.7 115.65 845.1 122.85 846.2 130.0 847.4 138.85 849.6 147.4 849.4 148.1 849.35 148.9 L847.35 159.8 Q844.9 153.8 842.8 147.8 841.2 142.9 839.9 137.85 836.0 123.7 834.75 108.65 833.65 97.5 834.05 85.8 M686.15 90.4 L685.7 90.15 Q684.65 88.2 682.5 87.3 680.5 86.25 678.2 86.7 L654.4 91.35 Q654.2 86.4 654.4 80.55 668.75 75.1 688.95 73.35 687.65 80.1 686.75 86.65 L686.15 90.4 M723.2 145.35 Q723.3 125.7 726.35 102.0 733.35 112.75 735.7 121.3 737.15 126.1 736.95 130.25 L736.8 130.75 Q736.25 134.1 734.35 136.95 L732.55 139.2 Q729.15 142.75 723.2 145.35 M768.9 172.25 L768.85 177.45 Q764.65 175.65 759.85 174.2 L754.05 172.4 Q763.45 164.0 768.85 154.8 L768.9 172.25" fill="#250040" fill-rule="evenodd" stroke="none"/>
    <path d="M805.2 68.1 L805.2 68.2 804.85 68.3 805.2 68.1" fill="#490080" fill-rule="evenodd" stroke="none"/>
    <path d="M889.0 128.2 Q881.0 188.1 851.95 225.1 826.55 201.0 813.3 171.1 814.65 197.1 817.1 223.05 L770.7 241.6 Q772.05 233.45 773.05 223.45 L763.1 230.0 Q753.6 204.2 721.05 194.6 723.45 205.05 726.95 215.15 L699.25 221.6 Q697.35 213.5 695.75 205.55 694.7 200.75 694.0 196.2 L700.25 199.7 Q714.35 185.6 734.25 185.6 754.1 185.6 768.25 199.7 L768.3 199.8 Q777.45 192.6 789.5 192.2 790.6 174.5 803.55 161.6 L803.8 161.4 802.55 160.3 Q798.75 156.6 798.75 151.25 798.75 146.0 802.55 142.25 806.2 138.55 811.45 138.55 816.7 138.55 820.45 142.25 823.5 145.25 824.1 149.35 829.3 147.8 835.0 147.6 840.35 164.0 849.0 179.35 851.5 169.75 853.45 160.4 L855.2 150.75 Q860.2 152.7 864.75 155.95 865.45 144.65 873.65 136.55 880.25 129.85 889.0 128.2 M681.45 176.1 L678.1 155.7 689.3 154.85 Q688.95 148.95 688.95 143.0 L688.95 139.05 Q694.0 140.1 698.0 144.05 703.55 149.55 703.55 157.45 703.55 165.2 698.0 170.75 692.4 176.25 684.65 176.4 L681.45 176.1 M656.5 173.35 Q665.2 202.15 682.75 231.9 L642.25 257.15 Q637.35 243.45 633.25 230.15 L630.15 219.4 630.05 219.15 Q635.25 210.4 639.75 205.9 644.85 200.75 650.85 197.55 648.95 196.65 647.45 195.2 643.75 191.4 643.75 186.15 643.75 180.9 647.45 177.2 651.1 173.35 656.4 173.35 L656.5 173.35 M768.1 121.5 Q770.65 148.9 744.0 169.85 741.5 168.3 739.5 166.2 731.55 158.45 731.5 147.5 L733.75 145.9 Q744.1 138.15 743.1 125.35 L743.1 124.7 Q749.8 119.8 758.7 119.8 763.7 119.8 768.1 121.5 M775.3 168.5 L774.85 136.7 775.15 125.45 777.85 127.8 Q785.8 135.85 785.8 147.0 785.8 158.25 777.85 166.2 L775.3 168.5 M827.05 108.65 Q828.55 124.95 832.85 140.35 L830.95 140.4 Q824.4 140.4 819.7 135.65 814.9 130.95 814.9 124.35 814.9 117.65 819.7 112.95 822.9 109.7 827.05 108.65 M871.55 104.15 Q875.5 104.15 878.25 106.9 881.0 109.55 881.0 113.45 881.0 117.45 878.25 120.2 875.5 123.0 871.55 123.0 867.65 123.0 864.95 120.2 862.2 117.45 862.2 113.45 862.2 109.55 864.95 106.9 867.65 104.15 871.55 104.15" fill="#8700ea" fill-rule="evenodd" stroke="none"/>
    <path d="M685.7 90.15 L686.15 90.4 686.1 90.85 685.7 90.15" fill="#8000d5" fill-rule="evenodd" stroke="none"/>
    <path d="M646.75 98.6 L664.6 95.2 678.9 92.45 678.6 94.8 646.75 98.6" fill="#dbaaff" fill-rule="evenodd" stroke="none"/>
    <path d="M610.95 156.6 L610.5 156.5 610.95 156.5 610.95 156.6" fill="#666666" fill-rule="evenodd" stroke="none"/>
  </g>
</svg>
