<?xml version="1.0" encoding="UTF-8" standalone="no"?>
<svg xmlns:ffdec="https://www.free-decompiler.com/flash" xmlns:xlink="http://www.w3.org/1999/xlink" ffdec:objectType="shape" height="38.0px" width="167.9px" xmlns="http://www.w3.org/2000/svg">
  <g transform="matrix(1.0, 0.0, 0.0, 1.0, 0.0, 0.0)">
    <path d="M2.25 36.95 L1.45 36.2 3.4 34.5 3.7 34.85 2.25 36.95 M166.4 1.7 L167.0 2.5 164.75 3.75 164.45 3.35 166.4 1.7" fill="#cbcbde" fill-rule="evenodd" stroke="none"/>
    <path d="M0.85 35.4 L0.4 34.5 2.85 33.65 3.1 34.15 0.85 35.4 M164.75 0.5 L165.65 1.0 164.0 3.0 163.55 2.75 164.75 0.5" fill="#f2f2f7" fill-rule="evenodd" stroke="none"/>
    <path d="M3.05 37.4 L2.25 36.95 3.7 34.85 4.15 35.1 3.05 37.4 M167.0 2.5 L167.45 3.3 165.0 4.15 164.85 3.85 164.75 3.75 167.0 2.5" fill="#b7b7d2" fill-rule="evenodd" stroke="none"/>
    <path d="M1.45 36.2 L0.85 35.4 3.1 34.15 3.4 34.5 1.45 36.2 M165.65 1.0 L166.4 1.7 164.45 3.35 164.0 3.0 165.65 1.0" fill="#dedeeb" fill-rule="evenodd" stroke="none"/>
    <path d="M167.45 3.3 L167.65 3.85 167.8 4.45 167.85 4.65 167.9 5.5 167.9 32.4 Q167.9 34.7 166.25 36.35 164.65 37.95 162.45 38.0 L5.45 38.0 4.6 37.95 4.4 37.9 Q3.7 37.75 3.05 37.4 L4.15 35.1 5.45 35.35 162.45 35.35 Q163.6 35.35 164.5 34.5 165.35 33.6 165.3 32.4 L165.3 31.45 165.3 7.7 165.3 7.15 165.3 7.1 165.25 4.9 165.0 4.15 167.45 3.3" fill="#a4a4c6" fill-rule="evenodd" stroke="none"/>
    <path d="M0.4 34.5 Q0.0 33.5 0.0 32.4 L0.0 5.5 Q0.0 3.2 1.6 1.55 3.2 -0.05 5.45 0.0 L162.45 0.0 Q163.7 -0.05 164.75 0.5 L163.55 2.75 162.45 2.65 5.45 2.65 Q4.3 2.6 3.4 3.4 L3.4 3.45 3.1 3.85 Q2.75 4.35 2.65 4.9 L2.6 7.0 2.6 7.05 2.6 7.25 2.6 31.85 2.6 32.4 Q2.55 33.1 2.85 33.65 L0.4 34.5" fill="#ffffff" fill-rule="evenodd" stroke="none"/>
    <path d="M165.3 7.1 L165.3 7.15 165.3 7.7 165.3 31.45 Q163.45 33.2 160.1 33.3 L7.65 33.3 Q4.05 33.1 2.6 31.85 L2.6 7.25 2.6 7.05 2.6 7.0 Q4.05 6.0 9.45 5.85 L159.3 5.7 Q162.75 5.55 165.3 7.1" fill="#006600" fill-rule="evenodd" stroke="none"/>
    <path d="M165.3 31.45 L165.3 32.4 Q165.35 33.6 164.5 34.5 163.6 35.35 162.45 35.35 L5.45 35.35 4.15 35.1 3.7 34.85 3.4 34.5 3.1 34.15 2.85 33.65 Q2.55 33.1 2.6 32.4 L2.6 31.85 Q4.05 33.1 7.65 33.3 L160.1 33.3 Q163.45 33.2 165.3 31.45" fill="#005100" fill-rule="evenodd" stroke="none"/>
    <path d="M165.0 4.15 L165.25 4.9 165.3 7.1 Q162.75 5.55 159.3 5.7 L9.45 5.85 Q4.05 6.0 2.6 7.0 L2.65 4.9 Q2.75 4.35 3.1 3.85 L3.4 3.45 3.4 3.4 Q4.3 2.6 5.45 2.65 L162.45 2.65 163.55 2.75 164.0 3.0 164.45 3.35 164.75 3.75 164.85 3.85 165.0 4.15" fill="#008a00" fill-rule="evenodd" stroke="none"/>
  </g>
</svg>
