<?xml version="1.0" encoding="UTF-8" standalone="no"?>
<svg xmlns:ffdec="https://www.free-decompiler.com/flash" xmlns:xlink="http://www.w3.org/1999/xlink" ffdec:objectType="shape" height="38.0px" width="167.9px" xmlns="http://www.w3.org/2000/svg">
  <g transform="matrix(1.0, 0.0, 0.0, 1.0, 0.0, 0.0)">
    <path d="M167.65 3.85 L167.8 4.45 167.85 4.65 167.9 5.5 167.9 32.4 Q167.9 34.7 166.25 36.35 164.65 37.95 162.45 38.0 L5.45 38.0 4.6 37.95 4.4 37.9 Q3.7 37.75 3.05 37.4 L2.25 36.95 1.45 36.2 0.85 35.4 0.4 34.5 Q0.0 33.5 0.0 32.4 L0.0 5.5 Q0.0 3.2 1.6 1.55 3.2 -0.05 5.45 0.0 L162.45 0.0 Q163.7 -0.05 164.75 0.5 L165.65 1.0 166.4 1.7 167.0 2.5 167.45 3.3 167.65 3.85" fill="#ff0000" fill-rule="evenodd" stroke="none"/>
  </g>
</svg>
