<?xml version="1.0" encoding="UTF-8" standalone="no"?>
<svg xmlns:ffdec="https://www.free-decompiler.com/flash" xmlns:xlink="http://www.w3.org/1999/xlink" ffdec:objectType="shape" height="38.0px" width="37.3px" xmlns="http://www.w3.org/2000/svg">
  <g transform="matrix(1.0, 0.0, 0.0, 1.0, 0.0, 0.0)">
    <path d="M35.8 1.7 L36.4 2.5 34.15 3.75 33.85 3.35 35.8 1.7 M2.25 36.95 L1.45 36.2 3.4 34.5 3.7 34.85 2.25 36.95" fill="#cbcbde" fill-rule="evenodd" stroke="none"/>
    <path d="M0.85 35.4 L0.4 34.5 2.85 33.65 3.1 34.15 0.85 35.4 M34.15 0.5 L35.05 1.0 33.4 3.0 32.95 2.75 34.15 0.5" fill="#f2f2f7" fill-rule="evenodd" stroke="none"/>
    <path d="M36.4 2.5 L36.85 3.3 34.4 4.15 34.25 3.85 34.15 3.75 36.4 2.5 M3.05 37.4 L2.25 36.95 3.7 34.85 4.15 35.1 3.05 37.4" fill="#b7b7d2" fill-rule="evenodd" stroke="none"/>
    <path d="M1.45 36.2 L0.85 35.4 3.1 34.15 3.4 34.5 1.45 36.2 M35.05 1.0 L35.8 1.7 33.85 3.35 33.4 3.0 35.05 1.0" fill="#dedeeb" fill-rule="evenodd" stroke="none"/>
    <path d="M36.85 3.3 L37.05 3.85 37.2 4.45 37.25 4.65 37.3 5.5 37.3 32.4 Q37.3 34.7 35.65 36.35 34.05 37.95 31.85 38.0 L5.45 38.0 4.6 37.95 4.4 37.9 Q3.7 37.75 3.05 37.4 L4.15 35.1 5.45 35.35 31.85 35.35 Q33.0 35.35 33.9 34.5 34.75 33.6 34.7 32.4 L34.7 31.45 34.7 7.7 34.65 4.9 34.4 4.15 36.85 3.3" fill="#a4a4c6" fill-rule="evenodd" stroke="none"/>
    <path d="M0.4 34.5 Q0.0 33.5 0.0 32.4 L0.0 5.5 Q0.0 3.2 1.6 1.55 3.2 -0.05 5.45 0.0 L31.85 0.0 Q33.1 -0.05 34.15 0.5 L32.95 2.75 31.85 2.65 5.45 2.65 Q4.3 2.6 3.4 3.4 L3.4 3.45 3.1 3.85 Q2.75 4.35 2.65 4.9 L2.6 7.25 2.6 31.85 2.6 32.4 Q2.55 33.1 2.85 33.65 L0.4 34.5" fill="#ffffff" fill-rule="evenodd" stroke="none"/>
    <path d="M2.6 7.25 Q19.35 3.35 34.7 7.7 L34.7 31.45 Q32.85 33.2 29.5 33.3 L7.65 33.3 Q4.05 33.1 2.6 31.85 L2.6 7.25 M29.4 8.05 Q29.0 7.7 28.6 7.5 L26.85 7.1 Q25.3 7.1 24.2 8.2 L18.95 13.45 13.75 8.2 Q13.0 7.4 11.85 7.15 10.3 6.85 9.05 7.75 7.75 8.6 7.45 10.15 7.05 12.1 8.45 13.5 L13.65 18.75 8.45 23.95 Q7.65 24.8 7.4 25.9 7.15 27.05 7.65 28.15 L8.3 29.15 Q9.05 30.05 10.35 30.3 L12.75 30.0 13.8 29.3 18.95 24.05 24.2 29.3 Q25.3 30.4 26.85 30.4 28.4 30.4 29.5 29.3 30.6 28.15 30.6 26.6 30.6 25.05 29.5 23.95 L24.3 18.75 29.55 13.5 30.3 12.35 Q30.75 11.25 30.55 10.15 30.25 8.9 29.4 8.05" fill="#990000" fill-rule="evenodd" stroke="none"/>
    <path d="M34.7 31.45 L34.7 32.4 Q34.75 33.6 33.9 34.5 33.0 35.35 31.85 35.35 L5.45 35.35 4.15 35.1 3.7 34.85 3.4 34.5 3.1 34.15 2.85 33.65 Q2.55 33.1 2.6 32.4 L2.6 31.85 Q4.05 33.1 7.65 33.3 L29.5 33.3 Q32.85 33.2 34.7 31.45 M28.45 9.0 Q27.75 8.4 26.8 8.4 25.75 8.4 25.0 9.15 L18.9 15.25 12.8 9.15 Q12.05 8.4 11.0 8.4 10.0 8.4 9.25 9.15 8.5 9.85 8.5 10.9 8.5 11.95 9.25 12.65 L15.35 18.8 9.25 24.9 Q8.5 25.65 8.5 26.65 8.5 27.6 9.15 28.3 L8.3 29.15 7.65 28.15 Q7.15 27.05 7.4 25.9 7.65 24.8 8.45 23.95 L13.65 18.75 8.45 13.5 Q7.05 12.1 7.45 10.15 7.75 8.6 9.05 7.75 10.3 6.85 11.85 7.15 13.0 7.4 13.75 8.2 L18.95 13.45 24.2 8.2 Q25.3 7.1 26.85 7.1 L28.6 7.5 Q29.0 7.7 29.4 8.05 L28.45 9.0" fill="#6a0000" fill-rule="evenodd" stroke="none"/>
    <path d="M9.15 28.3 Q8.5 27.6 8.5 26.65 8.5 25.65 9.25 24.9 L15.35 18.8 9.25 12.65 Q8.5 11.95 8.5 10.9 8.5 9.85 9.25 9.15 10.0 8.4 11.0 8.4 12.05 8.4 12.8 9.15 L18.9 15.25 25.0 9.15 Q25.75 8.4 26.8 8.4 27.75 8.4 28.45 9.0 L28.55 9.15 Q29.3 9.85 29.3 10.9 29.3 11.95 28.55 12.65 L22.45 18.8 28.55 24.9 Q29.3 25.65 29.3 26.65 29.3 27.7 28.55 28.45 27.8 29.15 26.8 29.15 25.75 29.15 25.0 28.45 L18.9 22.3 12.8 28.45 Q12.05 29.15 11.0 29.15 10.0 29.15 9.25 28.45 L9.15 28.3" fill="#350000" fill-rule="evenodd" stroke="none"/>
    <path d="M33.85 3.35 L34.15 3.75 34.25 3.85 34.4 4.15 34.65 4.9 34.7 7.7 Q19.35 3.35 2.6 7.25 L2.65 4.9 Q2.75 4.35 3.1 3.85 L3.4 3.45 3.4 3.4 Q4.3 2.6 5.45 2.65 L31.85 2.65 32.95 2.75 33.4 3.0 33.85 3.35 M9.15 28.3 L9.25 28.45 Q10.0 29.15 11.0 29.15 12.05 29.15 12.8 28.45 L18.9 22.3 25.0 28.45 Q25.75 29.15 26.8 29.15 27.8 29.15 28.55 28.45 29.3 27.7 29.3 26.65 29.3 25.65 28.55 24.9 L22.45 18.8 28.55 12.65 Q29.3 11.95 29.3 10.9 29.3 9.85 28.55 9.15 L28.45 9.0 29.4 8.05 Q30.25 8.9 30.55 10.15 30.75 11.25 30.3 12.35 L29.55 13.5 24.3 18.75 29.5 23.95 Q30.6 25.05 30.6 26.6 30.6 28.15 29.5 29.3 28.4 30.4 26.85 30.4 25.3 30.4 24.2 29.3 L18.95 24.05 13.8 29.3 12.75 30.0 10.35 30.3 Q9.05 30.05 8.3 29.15 L9.15 28.3" fill="#d50000" fill-rule="evenodd" stroke="none"/>
  </g>
</svg>
