<?xml version="1.0" encoding="UTF-8" standalone="no"?>
<svg xmlns:ffdec="https://www.free-decompiler.com/flash" xmlns:xlink="http://www.w3.org/1999/xlink" ffdec:objectType="shape" height="38.0px" width="37.3px" xmlns="http://www.w3.org/2000/svg">
  <g transform="matrix(1.0, 0.0, 0.0, 1.0, 0.0, 0.0)">
    <path d="M36.4 2.5 L36.85 3.3 37.05 3.85 37.2 4.45 37.25 4.65 37.3 5.5 37.3 32.4 Q37.3 34.7 35.65 36.35 34.05 37.95 31.85 38.0 L5.45 38.0 4.6 37.95 4.4 37.9 Q3.7 37.75 3.05 37.4 L2.25 36.95 1.45 36.2 0.85 35.4 0.4 34.5 Q0.0 33.5 0.0 32.4 L0.0 5.5 Q0.0 3.2 1.6 1.55 3.2 -0.05 5.45 0.0 L31.85 0.0 Q33.1 -0.05 34.15 0.5 L35.05 1.0 35.8 1.7 36.4 2.5" fill="#ff0000" fill-rule="evenodd" stroke="none"/>
  </g>
</svg>
