<?xml version="1.0" encoding="UTF-8"?>
<svg id="Capa_1" xmlns="http://www.w3.org/2000/svg" version="1.1" xmlns:ffdec="https://www.free-decompiler.com/flash" viewBox="0 0 323.85 241.5">
  <!-- Generator: Adobe Illustrator 29.5.1, SVG Export Plug-In . SVG Version: 2.1.0 Build 141)  -->
  <defs>
    <style>
      .st0 {
        fill: #0e4725;
        fill-rule: evenodd;
      }
    </style>
  </defs>
  <path class="st0" d="M311.3,25.1c-3.47,0-6.43-1.23-8.9-3.7-2.43-2.43-3.65-5.38-3.65-8.85s1.22-6.4,3.65-8.9c2.47-2.43,5.43-3.65,8.9-3.65s6.4,1.22,8.8,3.65c2.5,2.5,3.75,5.47,3.75,8.9s-1.25,6.42-3.75,8.85c-2.4,2.47-5.33,3.7-8.8,3.7M291.2,7.15c.87,6.8,1.52,13.68,1.95,20.65.53,8.77.85,17.5.95,26.2.07,11.8-.35,23.6-1.25,35.4-.87,10.33-2.12,20.67-3.75,31-1,6.27-2.23,12.5-3.7,18.7-1.77,7.5-3.88,14.82-6.35,21.95-2.33,6.8-5.02,13.48-8.05,20.05-5.87,12.57-13.3,24.12-22.3,34.65l-.6.65-.55.5c-2.03,1.17-3.93,1.02-5.7-.45l-3.75-3.5c-6.9-7.1-13.1-14.82-18.6-23.15-1.63-2.43-3.15-4.88-4.55-7.35.53,9.33.92,18.67,1.15,28l-.2,1.05c-.57,1.4-1.62,2.37-3.15,2.9l-45.55,16.05c-1.77.73-3.45.43-5.05-.9-1-.87-1.52-1.98-1.55-3.35-.03-1.5.1-3,.4-4.5l.8-3.8c-1.73,1.7-3.68,1.93-5.85.7-.83-.43-1.42-1.1-1.75-2-1.4-3.43-2.98-6.72-4.75-9.85-2.2-3.83-4.98-7.28-8.35-10.35-4.53-3.97-9.52-7.17-14.95-9.6l2.85,11.45c.17.67.1,1.38-.2,2.15-.43,1.13-1.18,2-2.25,2.6-.5.37-1.02.58-1.55.65l-27,5.4c-2.6.43-4.38-.57-5.35-3-.6-1.47-1.07-2.97-1.4-4.5-1.23-5.77-2.27-11.57-3.1-17.4l-1.4-10.55-4.95.55c-1-.23-1.9-.7-2.7-1.4-.9-.83-1.43-1.88-1.6-3.15l-3.75-29.55c-.1-2.07.68-3.68,2.35-4.85.53-.4,1.18-.68,1.95-.85l6.4-.25c.07-8.53.45-17.05,1.15-25.55.77-9.2,1.87-18.42,3.3-27.65.67-4.13,1.38-8.25,2.15-12.35h.05l2.35-11.3-15.4,1.4c-7.47.97-14.78,2.63-21.95,5l-.45,13.45,21.8-3.45,3.75-.45c1.97-.2,3.58.47,4.85,2,.6.7.85,1.57.75,2.6-1.1,9.93-1.9,19.98-2.4,30.15-.13,2.77-1.58,4.45-4.35,5.05l-23.95,3.45c.3,5.2.82,10.33,1.55,15.4,1.43,9.53,3.5,18.88,6.2,28.05l2.65,8.4c4.5,12.93,9.92,25.47,16.25,37.6l2.8,5.65c.47,1.17.52,2.32.15,3.45-.4,1.27-1.2,2.18-2.4,2.75l-40,23.05c-1.63.97-3.27.95-4.9-.05-1.37-.83-2.32-2.08-2.85-3.75l-1.55-4.9c-1.63-5.03-3.15-10.03-4.55-15l-2.6-9.9c-4.43-16.97-7.78-34.17-10.05-51.6-1.17-8.9-1.97-17.87-2.4-26.9l-.2-6.15-10.1.55c-.63-.07-1.25-.3-1.85-.7-.43-.33-.75-.8-.95-1.4-.7-2.33-1.1-4.78-1.2-7.35-.2-4.53-.13-9.13.2-13.8.27-3.9.63-7.78,1.1-11.65l.2-.85c.2-.8.58-1.5,1.15-2.1.53-.63,1.2-1.03,2-1.2,3.47-.83,6.88-1.45,10.25-1.85,1.2-17.17,3.5-34.17,6.9-51,.2-1.13.73-2.08,1.6-2.85.3-.3.65-.5,1.05-.6,7.33-2.8,14.78-5.13,22.35-7,15.83-3.93,31.92-6.52,48.25-7.75l21.5-.85c1.7.3,2.97,1.18,3.8,2.65.37.7.55,1.4.55,2.1l-.15,8.25c10.47,9.93,20.1,20.6,28.9,32,7.43,9.6,13.42,20.03,17.95,31.3l-.45-20.75c-.03-1.13.27-2.13.9-3-3.73-3.6-6.42-7.8-8.05-12.6-2.27-6.77-2.62-13.65-1.05-20.65,2.03-9.07,6.75-16.32,14.15-21.75,6.43-4.77,13.62-6.65,21.55-5.65,2,.23,3.93.73,5.8,1.5,6.23,2.6,11.02,6.87,14.35,12.8,3.67,6.43,5.15,13.35,4.45,20.75-.5,5.2-1.97,10.1-4.4,14.7l.7,1.15c.27.4.4.85.4,1.35.17,3.8.08,7.65-.25,11.55l7.95-2.15c2.47-.6,4.38.1,5.75,2.1l.05.05c.6,1.3.83,2.7.7,4.2-.67,8.13-.85,16.27-.55,24.4.33,8.23,1.28,16.4,2.85,24.5,1.43,7.83,3.47,15.53,6.1,23.1,1.1,3.13,2.28,6.22,3.55,9.25,2.03-7.6,3.67-15.32,4.9-23.15,1.27-7.53,2.2-15.12,2.8-22.75.93-11.2,1.02-22.4.25-33.6-.9-12.7-2.8-25.25-5.7-37.65l-1.6-6.4c-.63-2.6.2-4.55,2.5-5.85l38.6-19.95c1.53-.83,3.1-.9,4.7-.2,1.47.7,2.32,1.83,2.55,3.4M164.3,139.95c-4.53,7-10.13,12.97-16.8,17.9,6.7,1.77,13.15,4.17,19.35,7.2.53-10.6.87-21.18,1-31.75-1,2.27-2.18,4.48-3.55,6.65M126,83.4l-2.55,16.05-.4,2.95c-1.33,9.9-2.18,19.82-2.55,29.75,4.33-1.23,8.22-3.32,11.65-6.25,1.03-.87,1.92-1.85,2.65-2.95,2.07-3.07,3.02-6.5,2.85-10.3-.17-4.17-1.05-8.17-2.65-12-2.5-6.07-5.5-11.82-9-17.25"/>
</svg>