<?xml version="1.0" encoding="UTF-8" standalone="no"?>
<svg xmlns:ffdec="https://www.free-decompiler.com/flash" xmlns:xlink="http://www.w3.org/1999/xlink" ffdec:objectType="shape" height="183.0px" width="779.95px" xmlns="http://www.w3.org/2000/svg">
  <g transform="matrix(1.0, 0.0, 0.0, 1.0, -359.5, -234.5)">
    <path d="M1127.95 236.0 Q1137.95 236.0 1137.95 246.0 L1137.95 406.0 Q1137.95 416.0 1127.95 416.0 L371.0 416.0 Q361.0 416.0 361.0 406.0 L361.0 246.0 Q361.0 236.0 371.0 236.0 L1127.95 236.0 M1127.0 371.75 L370.0 371.75 1127.0 371.75 M1127.0 339.5 L370.0 339.5 1127.0 339.5 M1127.0 307.25 L370.0 307.25 1127.0 307.25 M1127.0 275.0 L370.0 275.0 1127.0 275.0 M1127.0 404.0 L370.0 404.0 1127.0 404.0" fill="#cccccc" fill-rule="evenodd" stroke="none"/>
    <path d="M1127.95 236.0 L371.0 236.0 Q361.0 236.0 361.0 246.0 L361.0 406.0 Q361.0 416.0 371.0 416.0 L1127.95 416.0 Q1137.95 416.0 1137.95 406.0 L1137.95 246.0 Q1137.95 236.0 1127.95 236.0" fill="none" stroke="#333333" stroke-linecap="round" stroke-linejoin="round" stroke-width="3.0"/>
    <path d="M370.0 404.0 L1127.0 404.0 M370.0 275.0 L1127.0 275.0 M370.0 307.25 L1127.0 307.25 M370.0 339.5 L1127.0 339.5 M370.0 371.75 L1127.0 371.75" ffdec:has-small-stroke="true" ffdec:original-stroke-width="0.05" fill="none" stroke="#999999" stroke-linecap="round" stroke-linejoin="round" stroke-width="1.0"/>
  </g>
</svg>
