<?xml version="1.0" encoding="UTF-8" standalone="no"?>
<svg xmlns:ffdec="https://www.free-decompiler.com/flash" xmlns:xlink="http://www.w3.org/1999/xlink" ffdec:objectType="shape" height="512.3px" width="1209.45px" xmlns="http://www.w3.org/2000/svg">
  <g transform="matrix(1.0, 0.0, 0.0, 1.0, 125.9, -4.4)">
    <path d="M1083.55 8.1 L1083.55 37.35 1080.45 40.25 1051.0 40.25 1048.55 37.9 1048.55 8.15 1051.4 5.25 1080.5 5.25 1083.55 8.1 M996.3 7.25 L996.3 36.5 993.2 39.4 963.75 39.4 961.3 37.05 961.3 7.3 964.15 4.4 993.25 4.4 996.3 7.25 M996.3 93.9 L996.3 123.15 993.2 126.05 963.75 126.05 961.3 123.7 961.3 93.95 964.15 91.05 993.25 91.05 996.3 93.9 M1004.6 80.45 L1004.6 50.7 1007.45 47.8 1036.55 47.8 1039.6 50.65 1039.6 79.9 1036.5 82.8 1007.05 82.8 1004.6 80.45 M993.15 82.9 L963.7 82.9 961.25 80.55 961.25 50.8 964.1 47.9 993.2 47.9 996.25 50.75 996.25 80.0 993.15 82.9 M1051.3 134.45 L1080.4 134.45 1083.45 137.3 1083.45 166.55 1080.35 169.45 1050.9 169.45 1048.45 167.1 1048.45 137.35 1051.3 134.45 M996.3 137.3 L996.3 166.55 993.2 169.45 963.75 169.45 961.3 167.1 961.3 137.35 964.15 134.45 993.25 134.45 996.3 137.3 M996.3 180.95 L996.3 210.2 993.2 213.1 963.75 213.1 961.3 210.75 961.3 181.0 964.15 178.1 993.25 178.1 996.3 180.95 M1039.6 224.35 L1039.6 253.6 1036.5 256.55 1007.05 256.55 1004.6 254.15 1004.6 224.4 1007.45 221.5 1036.55 221.5 1039.6 224.35 M996.3 224.35 L996.3 253.6 993.2 256.55 963.75 256.55 961.3 254.15 961.3 224.4 964.15 221.5 993.25 221.5 996.3 224.35 M996.3 267.65 L996.3 296.95 993.2 299.85 963.75 299.85 961.3 297.5 961.3 267.7 964.15 264.8 993.25 264.8 996.3 267.65 M1039.6 311.1 L1039.6 340.35 1036.5 343.25 1007.05 343.25 1004.6 340.9 1004.6 311.15 1007.45 308.25 1036.55 308.25 1039.6 311.1 M996.3 311.1 L996.3 340.35 993.2 343.25 963.75 343.25 961.3 340.9 961.3 311.15 964.15 308.25 993.25 308.25 996.3 311.1 M996.3 354.6 L996.3 383.85 993.2 386.8 963.75 386.8 961.3 384.4 961.3 354.65 964.15 351.75 993.25 351.75 996.3 354.6 M1036.65 395.05 L1039.7 397.9 1039.7 427.15 1036.6 430.05 1007.15 430.05 1004.7 427.7 1004.7 397.95 1007.55 395.05 1036.65 395.05 M952.0 7.25 L952.0 36.5 948.9 39.4 919.45 39.4 917.0 37.05 917.0 7.3 919.85 4.4 948.95 4.4 952.0 7.25 M908.7 7.25 L908.7 36.5 905.6 39.4 876.15 39.4 873.7 37.05 873.7 7.3 876.55 4.4 905.65 4.4 908.7 7.25 M908.7 93.9 L908.7 123.15 905.6 126.05 876.15 126.05 873.7 123.7 873.7 93.95 876.55 91.05 905.65 91.05 908.7 93.9 M905.6 82.8 L876.15 82.8 873.7 80.45 873.7 50.7 876.55 47.8 905.65 47.8 908.7 50.65 908.7 79.9 905.6 82.8 M919.85 91.05 L948.95 91.05 952.0 93.9 952.0 123.15 948.9 126.05 919.45 126.05 917.0 123.7 917.0 93.95 919.85 91.05 M917.0 80.45 L917.0 50.7 919.85 47.8 948.95 47.8 952.0 50.65 952.0 79.9 948.9 82.8 919.45 82.8 917.0 80.45 M865.1 7.25 L865.1 36.5 862.0 39.4 832.55 39.4 830.1 37.05 830.1 7.3 832.95 4.4 862.05 4.4 865.1 7.25 M821.8 7.25 L821.8 36.5 818.7 39.4 789.25 39.4 786.8 37.05 786.8 7.3 789.65 4.4 818.75 4.4 821.8 7.25 M821.8 93.9 L821.8 123.15 818.7 126.05 789.25 126.05 786.8 123.7 786.8 93.95 789.65 91.05 818.75 91.05 821.8 93.9 M818.7 82.8 L789.25 82.8 786.8 80.45 786.8 50.7 789.65 47.8 818.75 47.8 821.8 50.65 821.8 79.9 818.7 82.8 M832.95 91.05 L862.05 91.05 865.1 93.9 865.1 123.15 862.0 126.05 832.55 126.05 830.1 123.7 830.1 93.95 832.95 91.05 M830.1 80.45 L830.1 50.7 832.95 47.8 862.05 47.8 865.1 50.65 865.1 79.9 862.0 82.8 832.55 82.8 830.1 80.45 M865.1 137.3 L865.1 166.55 862.0 169.45 832.55 169.45 830.1 167.1 830.1 137.35 832.95 134.45 862.05 134.45 865.1 137.3 M876.55 134.45 L905.65 134.45 908.7 137.3 908.7 166.55 905.6 169.45 876.15 169.45 873.7 167.1 873.7 137.35 876.55 134.45 M821.8 137.3 L821.8 166.55 818.7 169.45 789.25 169.45 786.8 167.1 786.8 137.35 789.65 134.45 818.75 134.45 821.8 137.3 M821.8 180.95 L821.8 210.2 818.7 213.1 789.25 213.1 786.8 210.75 786.8 181.0 789.65 178.1 818.75 178.1 821.8 180.95 M832.95 178.1 L862.05 178.1 865.1 180.95 865.1 210.2 862.0 213.1 832.55 213.1 830.1 210.75 830.1 181.0 832.95 178.1 M876.55 178.1 L905.65 178.1 908.7 180.95 908.7 210.2 905.6 213.1 876.15 213.1 873.7 210.75 873.7 181.0 876.55 178.1 M952.0 137.3 L952.0 166.55 948.9 169.45 919.45 169.45 917.0 167.1 917.0 137.35 919.85 134.45 948.95 134.45 952.0 137.3 M919.85 178.1 L948.95 178.1 952.0 180.95 952.0 210.2 948.9 213.1 919.45 213.1 917.0 210.75 917.0 181.0 919.85 178.1 M778.05 7.25 L778.05 36.5 774.95 39.4 745.55 39.4 743.1 37.05 743.1 7.3 745.95 4.4 775.0 4.4 778.05 7.25 M734.8 7.25 L734.8 36.5 731.7 39.4 702.25 39.4 699.8 37.05 699.8 7.3 702.65 4.4 731.75 4.4 734.8 7.25 M745.95 91.05 L775.0 91.05 778.05 93.9 778.05 123.15 774.95 126.05 745.55 126.05 743.1 123.7 743.1 93.95 745.95 91.05 M743.1 80.45 L743.1 50.7 745.95 47.8 775.0 47.8 778.05 50.65 778.05 79.9 774.95 82.8 745.55 82.8 743.1 80.45 M734.8 93.9 L734.8 123.15 731.7 126.05 702.25 126.05 699.8 123.7 699.8 93.95 702.65 91.05 731.75 91.05 734.8 93.9 M731.7 82.8 L702.25 82.8 699.8 80.45 699.8 50.7 702.65 47.8 731.75 47.8 734.8 50.65 734.8 79.9 731.7 82.8 M691.0 36.5 L687.9 39.4 658.45 39.4 656.0 37.05 656.0 7.3 658.85 4.4 687.95 4.4 691.0 7.25 691.0 36.5 M687.95 47.8 L691.0 50.65 691.0 79.9 687.9 82.8 658.45 82.8 656.0 80.45 656.0 50.7 658.85 47.8 687.95 47.8 M658.85 91.05 L687.95 91.05 691.0 93.9 691.0 123.15 687.9 126.05 658.45 126.05 656.0 123.7 656.0 93.95 658.85 91.05 M702.65 134.45 L731.75 134.45 734.8 137.3 734.8 166.55 731.7 169.45 702.25 169.45 699.8 167.1 699.8 137.35 702.65 134.45 M658.85 134.45 L687.95 134.45 691.0 137.3 691.0 166.55 687.9 169.45 658.45 169.45 656.0 167.1 656.0 137.35 658.85 134.45 M658.85 178.1 L687.95 178.1 691.0 180.95 691.0 210.2 687.9 213.1 658.45 213.1 656.0 210.75 656.0 181.0 658.85 178.1 M702.65 178.1 L731.75 178.1 734.8 180.95 734.8 210.2 731.7 213.1 702.25 213.1 699.8 210.75 699.8 181.0 702.65 178.1 M778.05 137.3 L778.05 166.55 774.95 169.45 745.55 169.45 743.1 167.1 743.1 137.35 745.95 134.45 775.0 134.45 778.05 137.3 M745.95 178.1 L775.0 178.1 778.05 180.95 778.05 210.2 774.95 213.1 745.55 213.1 743.1 210.75 743.1 181.0 745.95 178.1 M789.65 221.5 L818.75 221.5 821.8 224.35 821.8 253.6 818.7 256.55 789.25 256.55 786.8 254.15 786.8 224.4 789.65 221.5 M778.05 224.35 L778.05 253.6 774.95 256.55 745.55 256.55 743.1 254.15 743.1 224.4 745.95 221.5 775.0 221.5 778.05 224.35 M734.8 224.35 L734.8 253.6 731.7 256.55 702.25 256.55 699.8 254.15 699.8 224.4 702.65 221.5 731.75 221.5 734.8 224.35 M734.8 267.65 L734.8 296.95 731.7 299.85 702.25 299.85 699.8 297.5 699.8 267.7 702.65 264.8 731.75 264.8 734.8 267.65 M745.95 264.8 L775.0 264.8 778.05 267.65 778.05 296.95 774.95 299.85 745.55 299.85 743.1 297.5 743.1 267.7 745.95 264.8 M789.65 264.8 L818.75 264.8 821.8 267.65 821.8 296.95 818.7 299.85 789.25 299.85 786.8 297.5 786.8 267.7 789.65 264.8 M687.95 221.5 L691.0 224.35 691.0 253.6 687.9 256.55 658.45 256.55 656.0 254.15 656.0 224.4 658.85 221.5 687.95 221.5 M658.85 264.8 L687.95 264.8 691.0 267.65 691.0 296.95 687.9 299.85 658.45 299.85 656.0 297.5 656.0 267.7 658.85 264.8 M702.65 308.25 L731.75 308.25 734.8 311.1 734.8 340.35 731.7 343.25 702.25 343.25 699.8 340.9 699.8 311.15 702.65 308.25 M691.0 340.35 L687.9 343.25 658.45 343.25 656.0 340.9 656.0 311.15 658.85 308.25 687.95 308.25 691.0 311.1 691.0 340.35 M658.85 351.75 L687.95 351.75 691.0 354.6 691.0 383.85 687.9 386.8 658.45 386.8 656.0 384.4 656.0 354.65 658.85 351.75 M687.95 395.05 L691.0 397.9 691.0 427.15 687.9 430.05 658.45 430.05 656.0 427.7 656.0 397.95 658.85 395.05 687.95 395.05 M702.65 351.75 L731.75 351.75 734.8 354.6 734.8 383.85 731.7 386.8 702.25 386.8 699.8 384.4 699.8 354.65 702.65 351.75 M789.65 308.25 L818.75 308.25 821.8 311.1 821.8 340.35 818.7 343.25 789.25 343.25 786.8 340.9 786.8 311.15 789.65 308.25 M778.05 311.1 L778.05 340.35 774.95 343.25 745.55 343.25 743.1 340.9 743.1 311.15 745.95 308.25 775.0 308.25 778.05 311.1 M745.95 351.75 L775.0 351.75 778.05 354.6 778.05 383.85 774.95 386.8 745.55 386.8 743.1 384.4 743.1 354.65 745.95 351.75 M789.65 351.75 L818.75 351.75 821.8 354.6 821.8 383.85 818.7 386.8 789.25 386.8 786.8 384.4 786.8 354.65 789.65 351.75 M775.0 395.05 L778.05 397.9 778.05 427.15 774.95 430.05 745.55 430.05 743.1 427.7 743.1 397.95 745.95 395.05 775.0 395.05 M731.75 395.05 L734.8 397.9 734.8 427.15 731.7 430.05 702.25 430.05 699.8 427.7 699.8 397.95 702.65 395.05 731.75 395.05 M952.0 224.35 L952.0 253.6 948.9 256.55 919.45 256.55 917.0 254.15 917.0 224.4 919.85 221.5 948.95 221.5 952.0 224.35 M908.7 224.35 L908.7 253.6 905.6 256.55 876.15 256.55 873.7 254.15 873.7 224.4 876.55 221.5 905.65 221.5 908.7 224.35 M919.85 264.8 L948.95 264.8 952.0 267.65 952.0 296.95 948.9 299.85 919.45 299.85 917.0 297.5 917.0 267.7 919.85 264.8 M908.7 267.65 L908.7 296.95 905.6 299.85 876.15 299.85 873.7 297.5 873.7 267.7 876.55 264.8 905.65 264.8 908.7 267.65 M865.1 224.35 L865.1 253.6 862.0 256.55 832.55 256.55 830.1 254.15 830.1 224.4 832.95 221.5 862.05 221.5 865.1 224.35 M832.95 264.8 L862.05 264.8 865.1 267.65 865.1 296.95 862.0 299.85 832.55 299.85 830.1 297.5 830.1 267.7 832.95 264.8 M876.55 308.25 L905.65 308.25 908.7 311.1 908.7 340.35 905.6 343.25 876.15 343.25 873.7 340.9 873.7 311.15 876.55 308.25 M865.1 311.1 L865.1 340.35 862.0 343.25 832.55 343.25 830.1 340.9 830.1 311.15 832.95 308.25 862.05 308.25 865.1 311.1 M832.95 351.75 L862.05 351.75 865.1 354.6 865.1 383.85 862.0 386.8 832.55 386.8 830.1 384.4 830.1 354.65 832.95 351.75 M876.55 351.75 L905.65 351.75 908.7 354.6 908.7 383.85 905.6 386.8 876.15 386.8 873.7 384.4 873.7 354.65 876.55 351.75 M862.05 395.05 L865.1 397.9 865.1 427.15 862.0 430.05 832.55 430.05 830.1 427.7 830.1 397.95 832.95 395.05 862.05 395.05 M952.0 311.1 L952.0 340.35 948.9 343.25 919.45 343.25 917.0 340.9 917.0 311.15 919.85 308.25 948.95 308.25 952.0 311.1 M919.85 351.75 L948.95 351.75 952.0 354.6 952.0 383.85 948.9 386.8 919.45 386.8 917.0 384.4 917.0 354.65 919.85 351.75 M948.95 395.05 L952.0 397.9 952.0 427.15 948.9 430.05 919.45 430.05 917.0 427.7 917.0 397.95 919.85 395.05 948.95 395.05 M905.65 395.05 L908.7 397.9 908.7 427.15 905.6 430.05 876.15 430.05 873.7 427.7 873.7 397.95 876.55 395.05 905.65 395.05 M818.75 395.05 L821.8 397.9 821.8 427.15 818.7 430.05 789.25 430.05 786.8 427.7 786.8 397.95 789.65 395.05 818.75 395.05 M964.15 438.35 L993.25 438.35 996.3 441.2 996.3 470.45 993.2 473.35 963.75 473.35 961.3 471.0 961.3 441.25 964.15 438.35 M961.3 427.7 L961.3 397.95 964.15 395.05 993.25 395.05 996.3 397.9 996.3 427.15 993.2 430.05 963.75 430.05 961.3 427.7 M952.0 441.2 L952.0 470.45 948.9 473.35 919.45 473.35 917.0 471.0 917.0 441.25 919.85 438.35 948.95 438.35 952.0 441.2 M908.7 441.2 L908.7 470.45 905.6 473.35 876.15 473.35 873.7 471.0 873.7 441.25 876.55 438.35 905.65 438.35 908.7 441.2 M908.7 484.55 L908.7 513.8 905.6 516.7 876.15 516.7 873.7 514.35 873.7 484.6 876.55 481.7 905.65 481.7 908.7 484.55 M919.85 481.7 L948.95 481.7 952.0 484.55 952.0 513.8 948.9 516.7 919.45 516.7 917.0 514.35 917.0 484.6 919.85 481.7 M964.15 481.7 L993.25 481.7 996.3 484.55 996.3 513.8 993.2 516.7 963.75 516.7 961.3 514.35 961.3 484.6 964.15 481.7 M865.1 441.2 L865.1 470.45 862.0 473.35 832.55 473.35 830.1 471.0 830.1 441.25 832.95 438.35 862.05 438.35 865.1 441.2 M821.8 441.2 L821.8 470.45 818.7 473.35 789.25 473.35 786.8 471.0 786.8 441.25 789.65 438.35 818.75 438.35 821.8 441.2 M821.8 484.55 L821.8 513.8 818.7 516.7 789.25 516.7 786.8 514.35 786.8 484.6 789.65 481.7 818.75 481.7 821.8 484.55 M832.95 481.7 L862.05 481.7 865.1 484.55 865.1 513.8 862.0 516.7 832.55 516.7 830.1 514.35 830.1 484.6 832.95 481.7 M778.05 441.2 L778.05 470.45 774.95 473.35 745.55 473.35 743.1 471.0 743.1 441.25 745.95 438.35 775.0 438.35 778.05 441.2 M734.8 441.2 L734.8 470.45 731.7 473.35 702.25 473.35 699.8 471.0 699.8 441.25 702.65 438.35 731.75 438.35 734.8 441.2 M745.95 481.7 L775.0 481.7 778.05 484.55 778.05 513.8 774.95 516.7 745.55 516.7 743.1 514.35 743.1 484.6 745.95 481.7 M734.8 484.55 L734.8 513.8 731.7 516.7 702.25 516.7 699.8 514.35 699.8 484.6 702.65 481.7 731.75 481.7 734.8 484.55 M658.85 438.35 L687.95 438.35 691.0 441.2 691.0 470.45 687.9 473.35 658.45 473.35 656.0 471.0 656.0 441.25 658.85 438.35 M658.85 481.7 L687.95 481.7 691.0 484.55 691.0 513.8 687.9 516.7 658.45 516.7 656.0 514.35 656.0 484.6 658.85 481.7 M1083.0 441.2 L1083.0 470.45 1079.9 473.35 1050.45 473.35 1048.0 471.0 1048.0 441.25 1050.85 438.35 1079.95 438.35 1083.0 441.2 M1007.55 481.7 L1036.65 481.7 1039.7 484.55 1039.7 513.8 1036.6 516.7 1007.15 516.7 1004.7 514.35 1004.7 484.6 1007.55 481.7 M647.7 7.25 L647.7 36.5 644.6 39.4 615.15 39.4 612.7 37.05 612.7 7.3 615.55 4.4 644.65 4.4 647.7 7.25 M644.65 47.8 L647.7 50.65 647.7 79.9 644.6 82.8 615.15 82.8 612.7 80.45 612.7 50.7 615.55 47.8 644.65 47.8 M604.1 7.25 L604.1 36.5 601.0 39.4 571.55 39.4 569.1 37.05 569.1 7.3 571.95 4.4 601.05 4.4 604.1 7.25 M601.05 47.8 L604.1 50.65 604.1 79.9 601.0 82.8 571.55 82.8 569.1 80.45 569.1 50.7 571.95 47.8 601.05 47.8 M571.95 91.05 L601.05 91.05 604.1 93.9 604.1 123.15 601.0 126.05 571.55 126.05 569.1 123.7 569.1 93.95 571.95 91.05 M615.55 91.05 L644.65 91.05 647.7 93.9 647.7 123.15 644.6 126.05 615.15 126.05 612.7 123.7 612.7 93.95 615.55 91.05 M560.8 7.25 L560.8 36.5 557.7 39.4 528.3 39.4 525.85 37.05 525.85 7.3 528.7 4.4 557.75 4.4 560.8 7.25 M557.75 47.8 L560.8 50.65 560.8 79.9 557.7 82.8 528.3 82.8 525.85 80.45 525.85 50.7 528.7 47.8 557.75 47.8 M517.1 7.25 L517.1 36.5 514.0 39.4 484.6 39.4 482.15 37.05 482.15 7.3 485.0 4.4 514.05 4.4 517.1 7.25 M517.1 93.9 L517.1 123.15 514.0 126.05 484.6 126.05 482.15 123.7 482.15 93.95 485.0 91.05 514.05 91.05 517.1 93.9 M514.0 82.8 L484.6 82.8 482.15 80.45 482.15 50.7 485.0 47.8 514.05 47.8 517.1 50.65 517.1 79.9 514.0 82.8 M560.8 93.9 L560.8 123.15 557.7 126.05 528.3 126.05 525.85 123.7 525.85 93.95 528.7 91.05 557.75 91.05 560.8 93.9 M560.8 137.3 L560.8 166.55 557.7 169.45 528.3 169.45 525.85 167.1 525.85 137.35 528.7 134.45 557.75 134.45 560.8 137.3 M517.1 137.3 L517.1 166.55 514.0 169.45 484.6 169.45 482.15 167.1 482.15 137.35 485.0 134.45 514.05 134.45 517.1 137.3 M517.1 180.95 L517.1 210.2 514.0 213.1 484.6 213.1 482.15 210.75 482.15 181.0 485.0 178.1 514.05 178.1 517.1 180.95 M560.8 180.95 L560.8 210.2 557.7 213.1 528.3 213.1 525.85 210.75 525.85 181.0 528.7 178.1 557.75 178.1 560.8 180.95 M615.55 134.45 L644.65 134.45 647.7 137.3 647.7 166.55 644.6 169.45 615.15 169.45 612.7 167.1 612.7 137.35 615.55 134.45 M571.95 134.45 L601.05 134.45 604.1 137.3 604.1 166.55 601.0 169.45 571.55 169.45 569.1 167.1 569.1 137.35 571.95 134.45 M571.95 178.1 L601.05 178.1 604.1 180.95 604.1 210.2 601.0 213.1 571.55 213.1 569.1 210.75 569.1 181.0 571.95 178.1 M615.55 178.1 L644.65 178.1 647.7 180.95 647.7 210.2 644.6 213.1 615.15 213.1 612.7 210.75 612.7 181.0 615.55 178.1 M473.85 7.25 L473.85 36.5 470.75 39.4 441.3 39.4 438.85 37.05 438.85 7.3 441.7 4.4 470.8 4.4 473.85 7.25 M430.25 7.25 L430.25 36.5 427.15 39.4 397.7 39.4 395.25 37.05 395.25 7.3 398.1 4.4 427.2 4.4 430.25 7.25 M430.25 93.9 L430.25 123.15 427.15 126.05 397.7 126.05 395.25 123.7 395.25 93.95 398.1 91.05 427.2 91.05 430.25 93.9 M427.15 82.8 L397.7 82.8 395.25 80.45 395.25 50.7 398.1 47.8 427.2 47.8 430.25 50.65 430.25 79.9 427.15 82.8 M441.7 91.05 L470.8 91.05 473.85 93.9 473.85 123.15 470.75 126.05 441.3 126.05 438.85 123.7 438.85 93.95 441.7 91.05 M438.85 80.45 L438.85 50.7 441.7 47.8 470.8 47.8 473.85 50.65 473.85 79.9 470.75 82.8 441.3 82.8 438.85 80.45 M386.95 7.25 L386.95 36.5 383.85 39.4 354.4 39.4 351.95 37.05 351.95 7.3 354.8 4.4 383.9 4.4 386.95 7.25 M343.15 7.25 L343.15 36.5 340.05 39.4 310.6 39.4 308.15 37.05 308.15 7.3 311.0 4.4 340.1 4.4 343.15 7.25 M343.15 93.9 L343.15 123.15 340.05 126.05 310.6 126.05 308.15 123.7 308.15 93.95 311.0 91.05 340.1 91.05 343.15 93.9 M340.05 82.8 L310.6 82.8 308.15 80.45 308.15 50.7 311.0 47.8 340.1 47.8 343.15 50.65 343.15 79.9 340.05 82.8 M354.8 91.05 L383.9 91.05 386.95 93.9 386.95 123.15 383.85 126.05 354.4 126.05 351.95 123.7 351.95 93.95 354.8 91.05 M351.95 80.45 L351.95 50.7 354.8 47.8 383.9 47.8 386.95 50.65 386.95 79.9 383.85 82.8 354.4 82.8 351.95 80.45 M398.1 134.45 L427.2 134.45 430.25 137.3 430.25 166.55 427.15 169.45 397.7 169.45 395.25 167.1 395.25 137.35 398.1 134.45 M386.95 137.3 L386.95 166.55 383.85 169.45 354.4 169.45 351.95 167.1 351.95 137.35 354.8 134.45 383.9 134.45 386.95 137.3 M343.15 137.3 L343.15 166.55 340.05 169.45 310.6 169.45 308.15 167.1 308.15 137.35 311.0 134.45 340.1 134.45 343.15 137.3 M343.15 180.95 L343.15 210.2 340.05 213.1 310.6 213.1 308.15 210.75 308.15 181.0 311.0 178.1 340.1 178.1 343.15 180.95 M354.8 178.1 L383.9 178.1 386.95 180.95 386.95 210.2 383.85 213.1 354.4 213.1 351.95 210.75 351.95 181.0 354.8 178.1 M398.1 178.1 L427.2 178.1 430.25 180.95 430.25 210.2 427.15 213.1 397.7 213.1 395.25 210.75 395.25 181.0 398.1 178.1 M473.85 137.3 L473.85 166.55 470.75 169.45 441.3 169.45 438.85 167.1 438.85 137.35 441.7 134.45 470.8 134.45 473.85 137.3 M441.7 178.1 L470.8 178.1 473.85 180.95 473.85 210.2 470.75 213.1 441.3 213.1 438.85 210.75 438.85 181.0 441.7 178.1 M473.85 224.35 L473.85 253.6 470.75 256.55 441.3 256.55 438.85 254.15 438.85 224.4 441.7 221.5 470.8 221.5 473.85 224.35 M485.0 221.5 L514.05 221.5 517.1 224.35 517.1 253.6 514.0 256.55 484.6 256.55 482.15 254.15 482.15 224.4 485.0 221.5 M430.25 224.35 L430.25 253.6 427.15 256.55 397.7 256.55 395.25 254.15 395.25 224.4 398.1 221.5 427.2 221.5 430.25 224.35 M430.25 267.65 L430.25 296.95 427.15 299.85 397.7 299.85 395.25 297.5 395.25 267.7 398.1 264.8 427.2 264.8 430.25 267.65 M441.7 264.8 L470.8 264.8 473.85 267.65 473.85 296.95 470.75 299.85 441.3 299.85 438.85 297.5 438.85 267.7 441.7 264.8 M485.0 264.8 L514.05 264.8 517.1 267.65 517.1 296.95 514.0 299.85 484.6 299.85 482.15 297.5 482.15 267.7 485.0 264.8 M386.95 224.35 L386.95 253.6 383.85 256.55 354.4 256.55 351.95 254.15 351.95 224.4 354.8 221.5 383.9 221.5 386.95 224.35 M343.15 224.35 L343.15 253.6 340.05 256.55 310.6 256.55 308.15 254.15 308.15 224.4 311.0 221.5 340.1 221.5 343.15 224.35 M354.8 264.8 L383.9 264.8 386.95 267.65 386.95 296.95 383.85 299.85 354.4 299.85 351.95 297.5 351.95 267.7 354.8 264.8 M343.15 267.65 L343.15 296.9 340.05 299.8 310.6 299.8 308.15 297.45 308.15 267.7 311.0 264.8 340.1 264.8 343.15 267.65 M398.1 308.25 L427.2 308.25 430.25 311.1 430.25 340.35 427.15 343.25 397.7 343.25 395.25 340.9 395.25 311.15 398.1 308.25 M386.95 311.1 L386.95 340.35 383.85 343.25 354.4 343.25 351.95 340.9 351.95 311.15 354.8 308.25 383.9 308.25 386.95 311.1 M343.15 311.05 L343.15 340.3 340.05 343.2 310.6 343.2 308.15 340.85 308.15 311.1 311.0 308.2 340.1 308.2 343.15 311.05 M354.8 351.75 L383.9 351.75 386.95 354.6 386.95 383.85 383.85 386.8 354.4 386.8 351.95 384.4 351.95 354.65 354.8 351.75 M343.15 354.55 L343.15 383.8 340.05 386.75 310.6 386.75 308.15 384.35 308.15 354.6 311.0 351.7 340.1 351.7 343.15 354.55 M398.1 351.75 L427.2 351.75 430.25 354.6 430.25 383.85 427.15 386.8 397.7 386.8 395.25 384.4 395.25 354.65 398.1 351.75 M383.9 395.05 L386.95 397.9 386.95 427.15 383.85 430.05 354.4 430.05 351.95 427.7 351.95 397.95 354.8 395.05 383.9 395.05 M473.85 311.1 L473.85 340.35 470.75 343.25 441.3 343.25 438.85 340.9 438.85 311.15 441.7 308.25 470.8 308.25 473.85 311.1 M485.0 308.25 L514.05 308.25 517.1 311.1 517.1 340.35 514.0 343.25 484.6 343.25 482.15 340.9 482.15 311.15 485.0 308.25 M441.7 351.75 L470.8 351.75 473.85 354.6 473.85 383.85 470.75 386.8 441.3 386.8 438.85 384.4 438.85 354.65 441.7 351.75 M485.0 351.75 L514.05 351.75 517.1 354.6 517.1 383.85 514.0 386.8 484.6 386.8 482.15 384.4 482.15 354.65 485.0 351.75 M470.8 395.05 L473.85 397.9 473.85 427.15 470.75 430.05 441.3 430.05 438.85 427.7 438.85 397.95 441.7 395.05 470.8 395.05 M427.2 395.05 L430.25 397.9 430.25 427.15 427.15 430.05 397.7 430.05 395.25 427.7 395.25 397.95 398.1 395.05 427.2 395.05 M647.7 224.35 L647.7 253.6 644.6 256.55 615.15 256.55 612.7 254.15 612.7 224.4 615.55 221.5 644.65 221.5 647.7 224.35 M601.05 221.5 L604.1 224.35 604.1 253.6 601.0 256.55 571.55 256.55 569.1 254.15 569.1 224.4 571.95 221.5 601.05 221.5 M604.1 267.65 L604.1 296.95 601.0 299.85 571.55 299.85 569.1 297.5 569.1 267.7 571.95 264.8 601.05 264.8 604.1 267.65 M647.7 267.65 L647.7 296.95 644.6 299.85 615.15 299.85 612.7 297.5 612.7 267.7 615.55 264.8 644.65 264.8 647.7 267.65 M560.8 224.35 L560.8 253.6 557.7 256.55 528.3 256.55 525.85 254.15 525.85 224.4 528.7 221.5 557.75 221.5 560.8 224.35 M560.8 267.65 L560.8 296.95 557.7 299.85 528.3 299.85 525.85 297.5 525.85 267.7 528.7 264.8 557.75 264.8 560.8 267.65 M560.8 311.1 L560.8 340.35 557.7 343.25 528.3 343.25 525.85 340.9 525.85 311.15 528.7 308.25 557.75 308.25 560.8 311.1 M525.85 354.65 L528.7 351.75 557.75 351.75 560.8 354.6 560.8 383.85 557.7 386.8 528.3 386.8 525.85 384.4 525.85 354.65 M557.75 395.05 L560.8 397.9 560.8 427.15 557.7 430.05 528.3 430.05 525.85 427.7 525.85 397.95 528.7 395.05 557.75 395.05 M647.7 311.1 L647.7 340.35 644.6 343.25 615.15 343.25 612.7 340.9 612.7 311.15 615.55 308.25 644.65 308.25 647.7 311.1 M604.1 311.1 L604.1 340.35 601.0 343.25 571.55 343.25 569.1 340.9 569.1 311.15 571.95 308.25 601.05 308.25 604.1 311.1 M604.1 354.6 L604.1 383.85 601.0 386.8 571.55 386.8 569.1 384.4 569.1 354.65 571.95 351.75 601.05 351.75 604.1 354.6 M601.05 395.05 L604.1 397.9 604.1 427.15 601.0 430.05 571.55 430.05 569.1 427.7 569.1 397.95 571.95 395.05 601.05 395.05 M647.7 354.6 L647.7 383.85 644.6 386.8 615.15 386.8 612.7 384.4 612.7 354.65 615.55 351.75 644.65 351.75 647.7 354.6 M644.65 395.05 L647.7 397.9 647.7 427.15 644.6 430.05 615.15 430.05 612.7 427.7 612.7 397.95 615.55 395.05 644.65 395.05 M514.05 395.05 L517.1 397.9 517.1 427.15 514.0 430.05 484.6 430.05 482.15 427.7 482.15 397.95 485.0 395.05 514.05 395.05 M299.85 7.25 L299.85 36.5 296.75 39.4 267.3 39.4 264.85 37.05 264.85 7.3 267.7 4.4 296.8 4.4 299.85 7.25 M256.25 7.25 L256.25 36.5 253.15 39.4 223.7 39.4 221.25 37.05 221.25 7.3 224.1 4.4 253.2 4.4 256.25 7.25 M256.25 93.9 L256.25 123.15 253.15 126.05 223.7 126.05 221.25 123.7 221.25 93.95 224.1 91.05 253.2 91.05 256.25 93.9 M253.15 82.8 L223.7 82.8 221.25 80.45 221.25 50.7 224.1 47.8 253.2 47.8 256.25 50.65 256.25 79.9 253.15 82.8 M267.7 91.05 L296.8 91.05 299.85 93.9 299.85 123.15 296.75 126.05 267.3 126.05 264.85 123.7 264.85 93.95 267.7 91.05 M264.85 80.45 L264.85 50.7 267.7 47.8 296.8 47.8 299.85 50.65 299.85 79.9 296.75 82.8 267.3 82.8 264.85 80.45 M212.95 7.25 L212.95 36.5 209.85 39.4 180.4 39.4 177.95 37.05 177.95 7.3 180.8 4.4 209.9 4.4 212.95 7.25 M169.2 7.25 L169.2 36.5 166.1 39.4 136.65 39.4 134.2 37.05 134.2 7.3 137.05 4.4 166.15 4.4 169.2 7.25 M180.8 91.05 L209.9 91.05 212.95 93.9 212.95 123.15 209.85 126.05 180.4 126.05 177.95 123.7 177.95 93.95 180.8 91.05 M177.95 80.45 L177.95 50.7 180.8 47.8 209.9 47.8 212.95 50.65 212.95 79.9 209.85 82.8 180.4 82.8 177.95 80.45 M169.2 93.9 L169.2 123.15 166.1 126.05 136.65 126.05 134.2 123.7 134.2 93.95 137.05 91.05 166.15 91.05 169.2 93.9 M166.1 82.8 L136.65 82.8 134.2 80.45 134.2 50.7 137.05 47.8 166.15 47.8 169.2 50.65 169.2 79.9 166.1 82.8 M212.95 137.3 L212.95 166.55 209.85 169.45 180.4 169.45 177.95 167.1 177.95 137.35 180.8 134.45 209.9 134.45 212.95 137.3 M224.1 134.45 L253.2 134.45 256.25 137.3 256.25 166.55 253.15 169.45 223.7 169.45 221.25 167.1 221.25 137.35 224.1 134.45 M169.2 137.3 L169.2 166.55 166.1 169.45 136.65 169.45 134.2 167.1 134.2 137.35 137.05 134.45 166.15 134.45 169.2 137.3 M180.8 178.1 L209.9 178.1 212.95 180.95 212.95 210.2 209.85 213.1 180.4 213.1 177.95 210.75 177.95 181.0 180.8 178.1 M169.2 180.95 L169.2 210.2 166.1 213.1 136.65 213.1 134.2 210.75 134.2 181.0 137.05 178.1 166.15 178.1 169.2 180.95 M224.1 178.1 L253.2 178.1 256.25 180.95 256.25 210.2 253.15 213.1 223.7 213.1 221.25 210.75 221.25 181.0 224.1 178.1 M299.85 137.3 L299.85 166.55 296.75 169.45 267.3 169.45 264.85 167.1 264.85 137.35 267.7 134.45 296.8 134.45 299.85 137.3 M267.7 178.1 L296.8 178.1 299.85 180.95 299.85 210.2 296.75 213.1 267.3 213.1 264.85 210.75 264.85 181.0 267.7 178.1 M125.9 7.25 L125.9 36.5 122.8 39.4 93.35 39.4 90.9 37.05 90.9 7.3 93.75 4.4 122.85 4.4 125.9 7.25 M82.3 36.5 L79.2 39.4 49.75 39.4 47.3 37.05 47.3 7.3 50.15 4.4 79.25 4.4 82.3 7.25 82.3 36.5 M93.75 91.05 L122.85 91.05 125.9 93.9 125.9 123.15 122.8 126.05 93.35 126.05 90.9 123.7 90.9 93.95 93.75 91.05 M90.9 80.45 L90.9 50.7 93.75 47.8 122.85 47.8 125.9 50.65 125.9 79.9 122.8 82.8 93.35 82.8 90.9 80.45 M82.3 79.9 L79.2 82.8 49.75 82.8 47.3 80.45 47.3 50.7 50.15 47.8 79.25 47.8 82.3 50.65 82.3 79.9 M39.0 7.25 L39.0 36.5 35.9 39.4 6.45 39.4 4.0 37.05 4.0 7.3 6.85 4.4 35.95 4.4 39.0 7.25 M35.95 47.8 L39.0 50.65 39.0 79.9 35.9 82.8 6.45 82.8 4.0 80.45 4.0 50.7 6.85 47.8 35.95 47.8 M6.85 91.05 L35.95 91.05 39.0 93.9 39.0 123.15 35.9 126.05 6.45 126.05 4.0 123.7 4.0 93.95 6.85 91.05 M50.15 91.05 L79.25 91.05 82.3 93.9 82.3 123.15 79.2 126.05 49.75 126.05 47.3 123.7 47.3 93.95 50.15 91.05 M50.15 134.45 L79.25 134.45 82.3 137.3 82.3 166.55 79.2 169.45 49.75 169.45 47.3 167.1 47.3 137.35 50.15 134.45 M6.85 134.45 L35.95 134.45 39.0 137.3 39.0 166.55 35.9 169.45 6.45 169.45 4.0 167.1 4.0 137.35 6.85 134.45 M6.85 178.1 L35.95 178.1 39.0 180.95 39.0 210.2 35.9 213.1 6.45 213.1 4.0 210.75 4.0 181.0 6.85 178.1 M50.15 178.1 L79.25 178.1 82.3 180.95 82.3 210.2 79.2 213.1 49.75 213.1 47.3 210.75 47.3 181.0 50.15 178.1 M125.9 137.3 L125.9 166.55 122.8 169.45 93.35 169.45 90.9 167.1 90.9 137.35 93.75 134.45 122.85 134.45 125.9 137.3 M93.75 178.1 L122.85 178.1 125.9 180.95 125.9 210.2 122.8 213.1 93.35 213.1 90.9 210.75 90.9 181.0 93.75 178.1 M125.9 224.35 L125.9 253.6 122.8 256.55 93.35 256.55 90.9 254.15 90.9 224.4 93.75 221.5 122.85 221.5 125.9 224.35 M137.05 221.5 L166.15 221.5 169.2 224.35 169.2 253.6 166.1 256.55 136.65 256.55 134.2 254.15 134.2 224.4 137.05 221.5 M93.75 264.8 L122.85 264.8 125.9 267.65 125.9 296.9 122.8 299.8 93.35 299.8 90.9 297.45 90.9 267.7 93.75 264.8 M82.3 296.9 L79.2 299.8 49.75 299.8 47.3 297.45 47.3 267.7 50.15 264.8 79.25 264.8 82.3 267.65 82.3 296.9 M137.05 264.8 L166.15 264.8 169.2 267.65 169.2 296.9 166.1 299.8 136.65 299.8 134.2 297.45 134.2 267.7 137.05 264.8 M82.3 253.6 L79.2 256.55 49.75 256.55 47.3 254.15 47.3 224.4 50.15 221.5 79.25 221.5 82.3 224.35 82.3 253.6 M35.95 221.5 L39.0 224.35 39.0 253.6 35.9 256.55 6.45 256.55 4.0 254.15 4.0 224.4 6.85 221.5 35.95 221.5 M39.0 267.65 L39.0 296.9 35.9 299.8 6.45 299.8 4.0 297.45 4.0 267.7 6.85 264.8 35.95 264.8 39.0 267.65 M50.15 308.2 L79.25 308.2 82.3 311.05 82.3 340.3 79.2 343.2 49.75 343.2 47.3 340.85 47.3 311.1 50.15 308.2 M39.0 311.05 L39.0 340.3 35.9 343.2 6.45 343.2 4.0 340.85 4.0 311.1 6.85 308.2 35.95 308.2 39.0 311.05 M39.0 354.55 L39.0 383.8 35.9 386.75 6.45 386.75 4.0 384.35 4.0 354.6 6.85 351.7 35.95 351.7 39.0 354.55 M35.95 395.0 L39.0 397.85 39.0 427.1 35.9 430.0 6.45 430.0 4.0 427.65 4.0 397.9 6.85 395.0 35.95 395.0 M50.15 351.7 L79.25 351.7 82.3 354.55 82.3 383.8 79.2 386.75 49.75 386.75 47.3 384.35 47.3 354.6 50.15 351.7 M79.25 395.0 L82.3 397.85 82.3 427.1 79.2 430.0 49.75 430.0 47.3 427.65 47.3 397.9 50.15 395.0 79.25 395.0 M137.05 308.2 L166.15 308.2 169.2 311.05 169.2 340.3 166.1 343.2 136.65 343.2 134.2 340.85 134.2 311.1 137.05 308.2 M125.9 311.05 L125.9 340.3 122.8 343.2 93.35 343.2 90.9 340.85 90.9 311.1 93.75 308.2 122.85 308.2 125.9 311.05 M93.75 351.7 L122.85 351.7 125.9 354.55 125.9 383.8 122.8 386.75 93.35 386.75 90.9 384.35 90.9 354.6 93.75 351.7 M137.05 351.7 L166.15 351.7 169.2 354.55 169.2 383.8 166.1 386.75 136.65 386.75 134.2 384.35 134.2 354.6 137.05 351.7 M122.85 395.0 L125.9 397.85 125.9 427.1 122.8 430.0 93.35 430.0 90.9 427.65 90.9 397.9 93.75 395.0 122.85 395.0 M299.85 224.35 L299.85 253.6 296.75 256.55 267.3 256.55 264.85 254.15 264.85 224.4 267.7 221.5 296.8 221.5 299.85 224.35 M256.25 224.35 L256.25 253.6 253.15 256.55 223.7 256.55 221.25 254.15 221.25 224.4 224.1 221.5 253.2 221.5 256.25 224.35 M267.7 264.8 L296.8 264.8 299.85 267.65 299.85 296.9 296.75 299.8 267.3 299.8 264.85 297.45 264.85 267.7 267.7 264.8 M256.25 267.65 L256.25 296.9 253.15 299.8 223.7 299.8 221.25 297.45 221.25 267.7 224.1 264.8 253.2 264.8 256.25 267.65 M212.95 224.35 L212.95 253.6 209.85 256.55 180.4 256.55 177.95 254.15 177.95 224.4 180.8 221.5 209.9 221.5 212.95 224.35 M180.8 264.8 L209.9 264.8 212.95 267.65 212.95 296.9 209.85 299.8 180.4 299.8 177.95 297.45 177.95 267.7 180.8 264.8 M212.95 311.05 L212.95 340.3 209.85 343.2 180.4 343.2 177.95 340.85 177.95 311.1 180.8 308.2 209.9 308.2 212.95 311.05 M224.1 308.2 L253.2 308.2 256.25 311.05 256.25 340.3 253.15 343.2 223.7 343.2 221.25 340.85 221.25 311.1 224.1 308.2 M180.8 351.7 L209.9 351.7 212.95 354.55 212.95 383.8 209.85 386.75 180.4 386.75 177.95 384.35 177.95 354.6 180.8 351.7 M224.1 351.7 L253.2 351.7 256.25 354.55 256.25 383.8 253.15 386.75 223.7 386.75 221.25 384.35 221.25 354.6 224.1 351.7 M209.9 395.0 L212.95 397.85 212.95 427.1 209.85 430.0 180.4 430.0 177.95 427.65 177.95 397.9 180.8 395.0 209.9 395.0 M299.85 311.05 L299.85 340.3 296.75 343.2 267.3 343.2 264.85 340.85 264.85 311.1 267.7 308.2 296.8 308.2 299.85 311.05 M267.7 351.7 L296.8 351.7 299.85 354.55 299.85 383.8 296.75 386.75 267.3 386.75 264.85 384.35 264.85 354.6 267.7 351.7 M296.8 395.0 L299.85 397.85 299.85 427.1 296.75 430.0 267.3 430.0 264.85 427.65 264.85 397.9 267.7 395.0 296.8 395.0 M253.2 395.0 L256.25 397.85 256.25 427.1 253.15 430.0 223.7 430.0 221.25 427.65 221.25 397.9 224.1 395.0 253.2 395.0 M166.15 395.0 L169.2 397.85 169.2 427.1 166.1 430.0 136.65 430.0 134.2 427.65 134.2 397.9 137.05 395.0 166.15 395.0 M299.85 441.15 L299.85 470.4 296.75 473.3 267.3 473.3 264.85 470.95 264.85 441.2 267.7 438.3 296.8 438.3 299.85 441.15 M311.0 438.3 L340.1 438.3 343.15 441.15 343.15 470.4 340.05 473.3 310.6 473.3 308.15 470.95 308.15 441.2 311.0 438.3 M308.15 427.65 L308.15 397.9 311.0 395.0 340.1 395.0 343.15 397.85 343.15 427.1 340.05 430.0 310.6 430.0 308.15 427.65 M256.25 441.15 L256.25 470.4 253.15 473.3 223.7 473.3 221.25 470.95 221.25 441.2 224.1 438.3 253.2 438.3 256.25 441.15 M256.25 484.5 L256.25 513.75 253.15 516.65 223.7 516.65 221.25 514.3 221.25 484.55 224.1 481.65 253.2 481.65 256.25 484.5 M267.7 481.65 L296.8 481.65 299.85 484.5 299.85 513.75 296.75 516.65 267.3 516.65 264.85 514.3 264.85 484.55 267.7 481.65 M311.0 481.65 L340.1 481.65 343.15 484.5 343.15 513.75 340.05 516.65 310.6 516.65 308.15 514.3 308.15 484.55 311.0 481.65 M212.95 441.15 L212.95 470.4 209.85 473.3 180.4 473.3 177.95 470.95 177.95 441.2 180.8 438.3 209.9 438.3 212.95 441.15 M169.2 441.15 L169.2 470.4 166.1 473.3 136.65 473.3 134.2 470.95 134.2 441.2 137.05 438.3 166.15 438.3 169.2 441.15 M180.8 481.65 L209.9 481.65 212.95 484.5 212.95 513.75 209.85 516.65 180.4 516.65 177.95 514.3 177.95 484.55 180.8 481.65 M169.2 484.5 L169.2 513.75 166.1 516.65 136.65 516.65 134.2 514.3 134.2 484.55 137.05 481.65 166.15 481.65 169.2 484.5 M125.9 441.15 L125.9 470.4 122.8 473.3 93.35 473.3 90.9 470.95 90.9 441.2 93.75 438.3 122.85 438.3 125.9 441.15 M93.75 481.65 L122.85 481.65 125.9 484.5 125.9 513.75 122.8 516.65 93.35 516.65 90.9 514.3 90.9 484.55 93.75 481.65 M82.3 470.4 L79.2 473.3 49.75 473.3 47.3 470.95 47.3 441.2 50.15 438.3 79.25 438.3 82.3 441.15 82.3 470.4 M6.85 438.3 L35.95 438.3 39.0 441.15 39.0 470.4 35.9 473.3 6.45 473.3 4.0 470.95 4.0 441.2 6.85 438.3 M6.85 481.65 L35.95 481.65 39.0 484.5 39.0 513.75 35.9 516.65 6.45 516.65 4.0 514.3 4.0 484.55 6.85 481.65 M50.15 481.65 L79.25 481.65 82.3 484.5 82.3 513.75 79.2 516.65 49.75 516.65 47.3 514.3 47.3 484.55 50.15 481.65 M615.55 438.35 L644.65 438.35 647.7 441.2 647.7 470.45 644.6 473.35 615.15 473.35 612.7 471.0 612.7 441.25 615.55 438.35 M571.95 438.35 L601.05 438.35 604.1 441.2 604.1 470.45 601.0 473.35 571.55 473.35 569.1 471.0 569.1 441.25 571.95 438.35 M571.95 481.7 L601.05 481.7 604.1 484.55 604.1 513.8 601.0 516.7 571.55 516.7 569.1 514.35 569.1 484.6 571.95 481.7 M615.55 481.7 L644.65 481.7 647.7 484.55 647.7 513.8 644.6 516.7 615.15 516.7 612.7 514.35 612.7 484.6 615.55 481.7 M560.8 441.2 L560.8 470.45 557.7 473.35 528.3 473.35 525.85 471.0 525.85 441.25 528.7 438.35 557.75 438.35 560.8 441.2 M517.1 441.2 L517.1 470.45 514.0 473.35 484.6 473.35 482.15 471.0 482.15 441.25 485.0 438.35 514.05 438.35 517.1 441.2 M517.1 484.55 L517.1 513.8 514.0 516.7 484.6 516.7 482.15 514.35 482.15 484.6 485.0 481.7 514.05 481.7 517.1 484.55 M560.8 484.55 L560.8 513.8 557.7 516.7 528.3 516.7 525.85 514.35 525.85 484.6 528.7 481.7 557.75 481.7 560.8 484.55 M473.85 441.2 L473.85 470.45 470.75 473.35 441.3 473.35 438.85 471.0 438.85 441.25 441.7 438.35 470.8 438.35 473.85 441.2 M430.25 441.2 L430.25 470.45 427.15 473.35 397.7 473.35 395.25 471.0 395.25 441.25 398.1 438.35 427.2 438.35 430.25 441.2 M430.25 484.55 L430.25 513.8 427.15 516.7 397.7 516.7 395.25 514.35 395.25 484.6 398.1 481.7 427.2 481.7 430.25 484.55 M441.7 481.7 L470.8 481.7 473.85 484.55 473.85 513.8 470.75 516.7 441.3 516.7 438.85 514.35 438.85 484.6 441.7 481.7 M386.95 441.2 L386.95 470.45 383.85 473.35 354.4 473.35 351.95 471.0 351.95 441.25 354.8 438.35 383.9 438.35 386.95 441.2 M354.8 481.7 L383.9 481.7 386.95 484.55 386.95 513.8 383.85 516.7 354.4 516.7 351.95 514.35 351.95 484.6 354.8 481.7 M-4.2 7.25 L-4.2 36.5 -7.3 39.4 -36.75 39.4 -39.2 37.05 -39.2 7.3 -36.35 4.4 -7.25 4.4 -4.2 7.25 M-7.25 47.8 L-4.2 50.65 -4.2 79.9 -7.3 82.8 -36.75 82.8 -39.2 80.45 -39.2 50.7 -36.35 47.8 -7.25 47.8 M-47.1 7.25 L-47.1 36.5 -50.2 39.4 -79.65 39.4 -82.1 37.05 -82.1 7.3 -79.25 4.4 -50.15 4.4 -47.1 7.25 M-36.35 91.05 L-7.25 91.05 -4.2 93.9 -4.2 123.15 -7.3 126.05 -36.75 126.05 -39.2 123.7 -39.2 93.95 -36.35 91.05 M-123.05 91.05 L-93.95 91.05 -90.9 93.9 -90.9 123.15 -94.0 126.05 -123.45 126.05 -125.9 123.7 -125.9 93.95 -123.05 91.05 M-82.55 137.35 L-79.7 134.45 -50.6 134.45 -47.55 137.3 -47.55 166.55 -50.65 169.45 -80.1 169.45 -82.55 167.1 -82.55 137.35 M-36.35 134.45 L-7.25 134.45 -4.2 137.3 -4.2 166.55 -7.3 169.45 -36.75 169.45 -39.2 167.1 -39.2 137.35 -36.35 134.45 M-36.35 178.1 L-7.25 178.1 -4.2 180.95 -4.2 210.2 -7.3 213.1 -36.75 213.1 -39.2 210.75 -39.2 181.0 -36.35 178.1 M-36.35 221.5 L-7.25 221.5 -4.2 224.35 -4.2 253.6 -7.3 256.55 -36.75 256.55 -39.2 254.15 -39.2 224.4 -36.35 221.5 M-50.15 221.5 L-47.1 224.35 -47.1 253.6 -50.2 256.55 -79.65 256.55 -82.1 254.15 -82.1 224.4 -79.25 221.5 -50.15 221.5 M-4.2 267.65 L-4.2 296.9 -7.3 299.8 -36.75 299.8 -39.2 297.45 -39.2 267.7 -36.35 264.8 -7.25 264.8 -4.2 267.65 M-82.1 354.6 L-79.25 351.7 -50.15 351.7 -47.1 354.55 -47.1 383.8 -50.2 386.75 -79.65 386.75 -82.1 384.35 -82.1 354.6 M-93.85 395.05 L-90.8 397.9 -90.8 427.15 -93.9 430.05 -123.35 430.05 -125.8 427.7 -125.8 397.95 -122.95 395.05 -93.85 395.05 M-4.2 311.05 L-4.2 340.3 -7.3 343.2 -36.75 343.2 -39.2 340.85 -39.2 311.1 -36.35 308.2 -7.25 308.2 -4.2 311.05 M-4.6 355.25 L-4.6 384.5 -7.7 387.4 -37.15 387.4 -39.6 385.05 -39.6 355.3 -36.75 352.4 -7.65 352.4 -4.6 355.25 M-7.25 395.0 L-4.2 397.85 -4.2 427.1 -7.3 430.0 -36.75 430.0 -39.2 427.65 -39.2 397.9 -36.35 395.0 -7.25 395.0 M-36.35 438.3 L-7.25 438.3 -4.2 441.15 -4.2 470.4 -7.3 473.3 -36.75 473.3 -39.2 470.95 -39.2 441.2 -36.35 438.3 M-48.15 441.1 L-48.15 470.35 -51.25 473.25 -80.7 473.25 -83.15 470.9 -83.15 441.15 -80.3 438.25 -51.2 438.25 -48.15 441.1 M-47.1 484.5 L-47.1 513.75 -50.2 516.65 -79.65 516.65 -82.1 514.3 -82.1 484.55 -79.25 481.65 -50.15 481.65 -47.1 484.5 M-36.35 481.65 L-7.25 481.65 -4.2 484.5 -4.2 513.75 -7.3 516.65 -36.75 516.65 -39.2 514.3 -39.2 484.55 -36.35 481.65" fill="#ffffff" fill-rule="evenodd" stroke="none"/>
  </g>
</svg>
