<?xml version="1.0" encoding="UTF-8" standalone="no"?>
<svg xmlns:ffdec="https://www.free-decompiler.com/flash" xmlns:xlink="http://www.w3.org/1999/xlink" ffdec:objectType="shape" height="515.05px" width="777.9px" xmlns="http://www.w3.org/2000/svg">
  <g transform="matrix(1.0, 0.0, 0.0, 1.0, -130.2, -0.1)">
    <path d="M908.1 81.3 L869.9 81.3 869.9 43.25 908.1 43.25 908.1 81.3 M782.4 216.45 L820.4 216.45 820.4 254.5 782.4 254.5 782.4 216.45 M782.8 347.05 L820.8 347.05 820.8 385.1 782.8 385.1 782.8 347.05 M869.85 346.85 L907.85 346.85 907.85 384.9 869.85 384.9 869.85 346.85 M820.8 470.7 L782.8 470.7 782.8 432.65 820.8 432.65 820.8 470.7 M869.85 515.05 L869.85 477.0 907.85 477.0 907.85 515.05 869.85 515.05 M429.3 38.15 L391.3 38.15 391.3 0.1 429.3 0.1 429.3 38.15 M343.2 38.15 L305.2 38.15 305.2 0.1 343.2 0.1 343.2 38.15 M385.75 86.75 L385.75 124.8 347.75 124.8 347.75 86.75 385.75 86.75 M391.55 346.7 L429.55 346.7 429.55 384.75 391.55 384.75 391.55 346.7 M472.7 390.3 L472.7 428.35 434.7 428.35 434.7 390.3 472.7 390.3 M299.2 38.15 L261.2 38.15 261.2 0.1 299.2 0.1 299.2 38.15 M211.8 172.9 L211.8 210.95 173.8 210.95 173.8 172.9 211.8 172.9 M168.2 168.05 L130.2 168.05 130.2 130.0 168.2 130.0 168.2 168.05 M299.15 173.9 L299.15 211.95 261.15 211.95 261.15 173.9 299.15 173.9 M168.2 124.75 L130.2 124.75 130.2 86.7 168.2 86.7 168.2 124.75 M299.15 477.05 L299.15 515.1 261.15 515.1 261.15 477.05 299.15 477.05 M472.7 476.15 L472.7 514.2 434.7 514.2 434.7 476.15 472.7 476.15 M429.95 470.7 L391.95 470.7 391.95 432.65 429.95 432.65 429.95 470.7 M385.4 477.15 L385.4 515.15 347.4 515.15 347.4 477.15 385.4 477.15" fill="#00ff00" fill-rule="evenodd" stroke="none"/>
  </g>
</svg>
