<?xml version="1.0" encoding="UTF-8" standalone="no"?>
<svg xmlns:ffdec="https://www.free-decompiler.com/flash" xmlns:xlink="http://www.w3.org/1999/xlink" ffdec:objectType="shape" height="47.0px" width="47.0px" xmlns="http://www.w3.org/2000/svg">
  <g transform="matrix(1.0, 0.0, 0.0, 1.0, 23.5, 23.5)">
    <path d="M-23.5 0.5 L-21.9 1.9 Q-15.05 7.55 -7.8 5.7 -0.6 3.8 2.65 -4.5 5.9 -12.8 3.4 -22.65 L3.25 -23.3 Q6.45 -22.85 9.4 -21.6 13.35 -9.0 22.1 -7.75 L22.3 -7.7 Q23.05 -5.45 23.35 -3.05 L18.55 -3.5 Q12.65 -3.0 8.8 1.5 4.95 6.05 5.4 12.0 5.8 17.6 9.95 21.4 7.75 22.4 5.3 22.95 L3.75 21.0 Q-2.05 12.65 -11.1 13.25 -16.1 13.6 -21.1 10.45 -23.4 5.95 -23.5 0.5" fill="#ff0000" fill-rule="evenodd" stroke="none"/>
    <path d="M3.25 -23.3 L3.4 -22.65 Q5.9 -12.8 2.65 -4.5 -0.6 3.8 -7.8 5.7 -15.05 7.55 -21.9 1.9 L-23.5 0.5 -23.5 0.0 Q-23.5 -3.05 -22.8 -5.85 -21.05 -3.85 -18.85 -2.4 -13.05 1.5 -7.65 -0.5 -2.2 -2.5 -0.25 -9.2 1.6 -15.85 -1.1 -23.35 L-1.15 -23.45 0.0 -23.5 3.25 -23.3 M-21.1 10.45 Q-16.1 13.6 -11.1 13.25 -2.05 12.65 3.75 21.0 L5.3 22.95 0.0 23.5 Q-9.75 23.5 -16.6 16.6 -19.45 13.8 -21.1 10.45 M9.95 21.4 Q5.8 17.6 5.4 12.0 4.95 6.05 8.8 1.5 12.65 -3.0 18.55 -3.5 L23.35 -3.05 23.5 0.0 23.25 3.75 20.5 3.6 Q16.95 3.75 14.6 6.5 12.3 9.2 12.6 12.8 12.8 15.95 14.95 18.15 12.6 20.15 9.95 21.4 M22.3 -7.7 L22.1 -7.75 Q13.35 -9.0 9.4 -21.6 13.35 -19.9 16.6 -16.6 20.6 -12.65 22.3 -7.7" fill="#ff9900" fill-rule="evenodd" stroke="none"/>
    <path d="M-1.15 -23.45 L-1.1 -23.35 Q1.6 -15.85 -0.25 -9.2 -2.2 -2.5 -7.65 -0.5 -13.05 1.5 -18.85 -2.4 -21.05 -3.85 -22.8 -5.85 -22.15 -8.55 -20.85 -10.95 -18.6 -8.15 -15.5 -6.65 -11.0 -4.55 -7.3 -6.5 -3.65 -8.5 -2.95 -13.45 -2.35 -18.2 -4.75 -23.0 L-1.15 -23.45 M14.95 18.15 Q12.8 15.95 12.6 12.8 12.3 9.2 14.6 6.5 16.95 3.75 20.5 3.6 L23.25 3.75 Q22.9 5.95 22.2 7.9 L21.45 7.9 Q19.55 8.1 18.35 9.5 17.1 11.0 17.25 12.8 17.3 14.1 18.05 15.15 L16.6 16.6 14.95 18.15" fill="#ffff00" fill-rule="evenodd" stroke="none"/>
    <path d="M18.05 15.15 Q17.3 14.1 17.25 12.8 17.1 11.0 18.35 9.5 19.55 8.1 21.45 7.9 L22.2 7.9 Q20.85 11.85 18.05 15.15 M-4.75 -23.0 Q-2.35 -18.2 -2.95 -13.45 -3.65 -8.5 -7.3 -6.5 -11.0 -4.55 -15.5 -6.65 -18.6 -8.15 -20.85 -10.95 L-18.6 -14.3 -18.55 -14.3 Q-15.95 -11.55 -12.6 -10.9 -9.35 -10.3 -7.35 -12.2 -5.3 -14.1 -5.75 -17.4 -6.1 -19.95 -7.75 -22.25 L-4.75 -23.0" fill="#00ff00" fill-rule="evenodd" stroke="none"/>
    <path d="M-18.6 -14.3 L-16.6 -16.6 Q-12.65 -20.55 -7.75 -22.25 -6.1 -19.95 -5.75 -17.4 -5.3 -14.1 -7.35 -12.2 -9.35 -10.3 -12.6 -10.9 -15.95 -11.55 -18.55 -14.3 L-18.6 -14.3" fill="#0066ff" fill-rule="evenodd" stroke="none"/>
  </g>
</svg>
