<?xml version="1.0" encoding="UTF-8" standalone="no"?>
<svg xmlns:ffdec="https://www.free-decompiler.com/flash" xmlns:xlink="http://www.w3.org/1999/xlink" ffdec:objectType="shape" height="35.0px" width="38.8px" xmlns="http://www.w3.org/2000/svg">
  <g transform="matrix(1.0, 0.0, 0.0, 1.0, -3.85, -4.75)">
    <path d="M28.85 15.7 L27.5 14.5 25.15 16.8 Q24.75 17.2 24.15 17.2 23.6 17.2 23.15 16.75 L18.95 12.5 15.2 13.75 20.7 19.25 Q21.15 19.6 21.15 20.25 21.15 20.8 20.75 21.25 L13.55 28.55 Q11.9 30.55 11.5 32.75 L16.95 32.75 Q17.15 28.3 19.25 25.75 L19.3 25.65 22.15 22.75 22.8 22.3 23.6 22.3 24.25 22.75 25.85 24.35 Q28.95 27.55 28.85 32.75 L35.55 32.75 Q35.25 28.95 33.1 26.55 L33.1 26.65 26.55 20.2 Q26.15 19.75 26.15 19.2 26.15 18.55 26.5 18.2 L28.85 15.7 M27.45 11.05 Q28.05 11.05 28.45 11.45 L31.95 14.55 Q32.35 14.95 32.35 15.55 32.4 16.15 31.95 16.6 L29.6 19.15 35.2 24.65 Q38.5 28.2 38.5 34.2 L38.05 35.2 Q37.65 35.6 37.05 35.6 L27.3 35.6 26.55 35.45 26.05 34.8 25.9 34.05 Q26.35 29.2 23.75 26.35 L23.2 25.75 21.45 27.6 Q19.7 29.95 19.85 34.15 L19.7 34.9 19.15 35.45 18.4 35.6 9.95 35.6 Q9.35 35.6 8.9 35.2 8.5 34.75 8.5 34.2 8.5 30.15 11.4 26.6 L11.5 26.5 17.7 20.25 11.5 14.15 Q11.15 13.8 11.1 13.3 11.05 12.75 11.3 12.35 L12.1 11.75 18.9 9.5 19.65 9.45 20.35 9.85 24.15 13.75 26.45 11.5 Q26.9 11.05 27.45 11.05" fill="#ffffff" fill-rule="evenodd" stroke="none"/>
    <path d="M4.35 37.25 L42.15 37.25 M4.35 39.25 L42.15 39.25 M4.35 21.25 L42.15 21.25 M4.35 23.25 L42.15 23.25 M4.35 27.25 L42.15 27.25 M4.35 25.25 L42.15 25.25 M4.35 33.25 L42.15 33.25 M4.35 35.25 L42.15 35.25 M4.35 31.25 L42.15 31.25 M4.35 29.25 L42.15 29.25 M4.35 13.25 L42.15 13.25 M4.35 15.25 L42.15 15.25 M4.35 19.25 L42.15 19.25 M4.35 17.25 L42.15 17.25 M4.35 9.25 L42.15 9.25 M4.35 11.25 L42.15 11.25 M4.35 7.25 L42.15 7.25 M4.35 5.25 L42.15 5.25" fill="none" stroke="#000000" stroke-linecap="round" stroke-linejoin="round" stroke-opacity="0.3019608" stroke-width="1.0"/>
  </g>
</svg>
