<?xml version="1.0" encoding="UTF-8" standalone="no"?>
<svg xmlns:ffdec="https://www.free-decompiler.com/flash" xmlns:xlink="http://www.w3.org/1999/xlink" ffdec:objectType="shape" height="1416.45px" width="1857.65px" xmlns="http://www.w3.org/2000/svg">
  <g transform="matrix(1.0, 0.0, 0.0, 1.0, -2.3, -10.8)">
    <path d="M1639.85 1238.5 Q1637.3 1244.55 1633.65 1250.1 1621.75 1268.35 1604.4 1281.35 1621.85 1286.0 1638.15 1293.95 1639.55 1266.2 1639.85 1238.5 M1566.85 1151.55 L1562.4 1179.55 1561.7 1184.6 Q1558.25 1210.5 1557.3 1236.6 1568.65 1233.25 1577.6 1225.7 1580.3 1223.35 1582.2 1220.55 1587.65 1212.4 1587.2 1202.55 1586.75 1191.65 1582.6 1181.55 1576.15 1165.8 1566.85 1151.55 M1770.75 1058.1 Q1769.05 1051.25 1775.1 1047.75 L1842.4 1013.0 Q1846.3 1010.8 1850.5 1012.7 1854.35 1014.5 1854.9 1018.55 1857.25 1036.45 1858.35 1054.55 1859.75 1077.5 1859.95 1100.35 1860.2 1131.15 1857.75 1161.9 1855.6 1189.1 1851.3 1215.95 1848.65 1232.5 1844.8 1248.65 1840.2 1268.15 1833.75 1286.95 1827.65 1304.8 1819.7 1321.9 1804.4 1354.75 1780.85 1382.3 L1779.8 1383.45 1778.8 1384.25 Q1773.5 1387.35 1768.9 1383.5 1765.5 1380.65 1762.4 1377.45 1744.3 1358.85 1729.9 1337.0 1725.7 1330.7 1722.0 1324.2 1723.4 1348.7 1723.9 1373.1 L1723.55 1374.85 Q1722.15 1378.65 1718.1 1379.95 L1638.85 1408.0 Q1634.1 1409.85 1630.0 1406.4 1627.4 1404.15 1627.25 1400.55 1627.1 1396.6 1627.95 1392.65 L1629.35 1386.05 Q1624.85 1390.45 1619.15 1387.3 1616.95 1386.0 1616.0 1383.75 1612.35 1374.9 1607.7 1366.65 1602.0 1356.5 1593.2 1348.6 1581.4 1338.15 1567.1 1331.8 L1572.15 1351.8 Q1572.55 1353.55 1571.75 1355.5 1570.6 1358.5 1567.85 1360.15 1566.6 1360.95 1565.2 1361.15 L1518.1 1370.6 Q1511.25 1371.7 1508.7 1365.35 1507.2 1361.55 1506.35 1357.55 1503.15 1342.45 1500.95 1327.2 L1498.5 1308.8 1489.9 1309.7 Q1487.2 1309.25 1485.05 1307.3 1482.7 1305.15 1482.3 1301.85 L1475.7 1250.3 Q1475.45 1244.95 1479.8 1241.85 1481.25 1240.75 1483.2 1240.3 L1494.45 1239.9 Q1494.55 1217.6 1496.45 1195.35 1498.45 1171.3 1502.3 1147.3 1504.05 1136.4 1506.05 1125.6 L1506.1 1125.6 1510.25 1105.9 Q1496.65 1106.45 1483.2 1108.3 1463.8 1111.0 1445.0 1117.05 L1444.35 1140.55 1482.25 1134.55 1488.75 1133.7 Q1493.9 1133.25 1497.2 1137.2 1498.8 1139.1 1498.5 1141.65 1495.65 1167.8 1494.3 1194.3 1493.95 1201.6 1486.8 1203.1 L1445.1 1209.2 Q1445.85 1222.75 1447.8 1236.1 1451.45 1260.9 1458.55 1284.95 1460.7 1292.3 1463.2 1299.5 1474.85 1333.35 1491.55 1365.05 L1496.3 1374.95 Q1497.65 1378.0 1496.7 1380.95 1495.65 1384.3 1492.5 1385.8 L1422.7 1426.05 Q1418.4 1428.5 1414.15 1425.9 1410.5 1423.75 1409.2 1419.35 L1406.55 1410.85 Q1402.2 1397.75 1398.6 1384.55 L1394.05 1367.4 Q1382.5 1323.0 1376.55 1277.4 1373.55 1254.15 1372.35 1230.55 L1371.9 1219.85 Q1363.15 1221.9 1354.3 1220.75 1352.65 1220.65 1351.2 1219.6 1349.9 1218.7 1349.45 1217.15 1347.7 1211.0 1347.4 1204.4 1346.9 1192.3 1347.7 1180.15 1348.4 1169.95 1349.55 1159.9 L1349.9 1158.45 Q1350.55 1156.4 1352.0 1154.75 1353.45 1153.15 1355.5 1152.75 1364.5 1150.5 1373.35 1149.5 1376.45 1104.5 1385.35 1060.45 1385.95 1057.5 1388.2 1055.55 1389.05 1054.85 1390.1 1054.5 1409.25 1047.25 1428.95 1042.35 1470.4 1031.95 1513.1 1028.85 L1550.55 1027.45 Q1555.05 1028.15 1557.2 1032.0 1558.15 1033.75 1558.15 1035.6 L1557.95 1049.9 Q1585.3 1075.85 1608.3 1105.75 1627.7 1130.9 1639.55 1160.35 L1638.9 1124.2 Q1638.85 1121.3 1640.35 1118.9 1630.6 1109.55 1626.35 1097.0 1620.35 1079.2 1624.5 1060.95 1629.85 1037.25 1649.3 1022.95 1666.05 1010.6 1686.8 1013.1 1691.95 1013.75 1696.9 1015.7 1713.2 1022.55 1721.95 1038.1 1731.45 1054.9 1729.65 1074.3 1728.35 1087.85 1721.9 1099.9 L1723.25 1101.95 Q1723.9 1103.05 1723.95 1104.35 1724.4 1114.25 1723.5 1124.4 L1737.25 1120.7 Q1743.7 1119.15 1747.35 1124.4 L1747.4 1124.4 Q1748.95 1127.8 1748.65 1131.7 1746.9 1152.95 1747.7 1174.35 1748.55 1195.8 1752.6 1216.95 1756.5 1237.45 1763.4 1257.3 1766.2 1265.45 1769.45 1273.45 1774.85 1253.5 1778.15 1233.05 1781.35 1213.3 1782.95 1193.35 1785.35 1164.1 1783.35 1134.8 1781.05 1101.65 1773.4 1069.15 L1770.75 1058.1" fill="#136032" fill-rule="evenodd" stroke="none"/>
    <path d="M290.95 11.3 Q293.15 12.35 293.5 14.7 294.8 24.9 295.45 35.35 296.25 48.5 296.4 61.55 296.5 79.25 295.15 96.95 293.85 112.45 291.4 127.95 289.9 137.35 287.7 146.65 285.05 157.9 281.35 168.6 277.85 178.8 273.3 188.65 264.5 207.5 251.0 223.3 L250.4 223.95 249.85 224.45 Q246.8 226.2 244.15 224.0 L240.4 220.5 Q230.05 209.85 221.8 197.35 L217.25 190.0 Q218.05 204.0 218.4 218.0 L218.2 219.05 Q217.35 221.15 215.05 221.95 L169.5 238.0 Q166.85 239.1 164.45 237.1 162.95 235.8 162.9 233.75 162.85 231.5 163.3 229.25 L164.1 225.45 Q161.5 228.0 158.25 226.15 157.0 225.5 156.5 224.15 154.4 219.0 151.75 214.3 148.45 208.55 143.4 203.95 136.6 198.0 128.45 194.35 L131.3 205.8 Q131.55 206.8 131.1 207.95 130.45 209.65 128.85 210.55 L127.3 211.2 100.3 216.6 Q96.4 217.25 94.95 213.6 94.05 211.4 93.55 209.1 91.7 200.45 90.45 191.7 L89.05 181.15 84.1 181.7 Q82.6 181.35 81.4 180.3 80.05 179.05 79.8 177.15 L76.05 147.6 Q75.9 144.5 78.4 142.75 79.2 142.15 80.35 141.9 L86.75 141.65 Q86.85 128.85 87.9 116.1 89.05 102.3 91.2 88.45 L93.35 76.1 93.4 76.1 95.75 64.8 80.35 66.2 Q69.15 67.65 58.4 71.2 L57.95 84.65 79.75 81.2 83.5 80.75 Q86.45 80.45 88.35 82.75 89.25 83.8 89.1 85.35 87.45 100.25 86.7 115.5 86.5 119.65 82.35 120.55 L58.4 124.0 Q58.85 131.8 59.95 139.4 62.1 153.7 66.15 167.45 L68.8 175.85 Q75.55 195.25 85.05 213.45 86.6 216.2 87.85 219.1 88.55 220.85 88.0 222.55 87.4 224.45 85.6 225.3 65.6 236.85 45.6 248.35 43.15 249.8 40.7 248.3 38.65 247.05 37.85 244.55 L36.3 239.65 Q33.85 232.1 31.75 224.65 L29.15 214.75 Q22.5 189.3 19.1 163.15 17.35 149.8 16.7 136.25 L16.5 130.1 6.4 130.65 Q5.45 130.55 4.55 129.95 3.9 129.45 3.6 128.55 2.55 125.05 2.4 121.2 2.1 114.4 2.6 107.4 3.0 101.55 3.7 95.75 L3.9 94.9 Q4.2 93.7 5.05 92.8 5.85 91.85 7.05 91.6 12.25 90.35 17.3 89.75 19.1 64.0 24.2 38.75 24.5 37.05 25.8 35.9 26.25 35.45 26.85 35.3 37.85 31.1 49.2 28.3 72.95 22.4 97.45 20.55 L118.95 19.7 Q121.5 20.15 122.75 22.35 123.3 23.4 123.3 24.45 L123.15 32.7 Q138.85 47.6 152.05 64.7 163.2 79.1 170.0 96.0 L169.55 75.25 Q169.5 73.55 170.45 72.25 164.85 66.85 162.4 59.65 159.0 49.5 161.35 39.0 164.4 25.4 175.5 17.25 185.15 10.1 197.05 11.6 200.05 11.95 202.85 13.1 212.2 17.0 217.2 25.9 222.7 35.55 221.65 46.65 220.9 54.45 217.25 61.35 L217.95 62.5 Q218.35 63.1 218.35 63.85 218.6 69.55 218.1 75.4 L226.05 73.25 Q229.75 72.35 231.8 75.35 L231.85 75.4 Q232.75 77.35 232.55 79.6 231.55 91.8 232.0 104.0 232.5 116.35 234.85 128.5 237.0 140.25 240.95 151.6 242.6 156.3 244.5 160.85 247.55 149.45 249.4 137.7 251.3 126.4 252.2 114.95 253.6 98.15 252.45 81.35 251.1 62.3 246.75 43.7 L245.15 37.3 Q244.2 33.4 247.65 31.45 L286.25 11.5 Q288.55 10.25 290.95 11.3 M166.6 147.5 Q159.8 158.0 149.8 165.4 159.85 168.05 169.15 172.6 169.95 156.7 170.15 140.85 168.65 144.25 166.6 147.5 M125.35 109.95 Q123.35 124.8 122.8 139.7 129.3 137.85 134.45 133.45 136.0 132.15 137.1 130.5 140.2 125.9 139.95 120.2 139.7 113.95 137.3 108.2 133.55 99.1 128.3 90.95 L125.75 107.0 125.35 109.95" fill="#187c00" fill-rule="evenodd" stroke="none"/>
  </g>
</svg>
