<?xml version="1.0" encoding="UTF-8" standalone="no"?>
<svg xmlns:ffdec="https://www.free-decompiler.com/flash" xmlns:xlink="http://www.w3.org/1999/xlink" ffdec:objectType="shape" height="47.0px" width="47.0px" xmlns="http://www.w3.org/2000/svg">
  <g transform="matrix(1.0, 0.0, 0.0, 1.0, 23.5, 23.5)">
    <path d="M11.3 -20.65 Q14.15 -19.1 16.6 -16.6 19.0 -14.2 20.6 -11.45 18.9 -10.3 16.95 -10.5 14.2 -10.8 12.55 -13.7 10.85 -16.6 11.25 -20.4 L11.3 -20.65" fill="#800000" fill-rule="evenodd" stroke="none"/>
    <path d="M20.6 -11.45 L21.9 -8.75 20.75 -8.0 Q16.55 -5.25 12.6 -6.75 8.75 -8.3 7.4 -13.1 6.25 -17.45 7.8 -22.25 L11.3 -20.65 11.25 -20.4 Q10.85 -16.6 12.55 -13.7 14.2 -10.8 16.95 -10.5 18.9 -10.3 20.6 -11.45 M14.05 18.9 L10.95 20.95 Q12.35 19.5 14.05 18.9 M-21.75 9.05 Q-23.5 4.9 -23.5 0.0 -23.5 -5.55 -21.25 -10.15 -21.95 -4.15 -21.95 2.3 L-21.75 9.05" fill="#950000" fill-rule="evenodd" stroke="none"/>
    <path d="M21.9 -8.75 L22.95 -5.3 Q21.25 -4.05 19.3 -3.15 12.95 -0.25 7.9 -3.1 2.8 -5.95 2.0 -12.85 1.4 -18.05 3.5 -23.25 5.75 -22.95 7.8 -22.25 6.25 -17.45 7.4 -13.1 8.75 -8.3 12.6 -6.75 16.55 -5.25 20.75 -8.0 L21.9 -8.75 M-14.3 18.65 L-16.6 16.6 Q-20.05 13.2 -21.75 9.05 L-21.95 2.3 Q-21.95 -4.15 -21.25 -10.15 -19.6 -13.6 -16.6 -16.6 L-13.8 -19.0 Q-15.5 -12.3 -16.0 -4.75 -16.95 7.9 -14.3 18.65" fill="#aa0000" fill-rule="evenodd" stroke="none"/>
    <path d="M23.5 -0.75 L23.5 0.0 Q23.5 6.15 20.75 11.2 L17.05 10.7 Q11.1 10.7 6.85 14.9 3.3 18.5 2.8 23.4 L0.0 23.5 -1.7 23.45 -1.05 19.55 Q1.5 9.75 -4.85 3.2 -9.4 -1.4 -9.55 -9.85 -9.7 -16.2 -7.45 -22.3 -4.45 -23.35 -1.05 -23.45 -3.35 -18.05 -3.25 -12.4 -3.05 -3.45 3.05 0.8 9.15 5.05 17.65 2.15 20.75 1.05 23.5 -0.75" fill="#d50000" fill-rule="evenodd" stroke="none"/>
    <path d="M22.95 -5.3 Q23.45 -3.1 23.5 -0.75 20.75 1.05 17.65 2.15 9.15 5.05 3.05 0.8 -3.05 -3.45 -3.25 -12.4 -3.35 -18.05 -1.05 -23.45 L0.0 -23.5 3.5 -23.25 Q1.4 -18.05 2.0 -12.85 2.8 -5.95 7.9 -3.1 12.95 -0.25 19.3 -3.15 21.25 -4.05 22.95 -5.3 M20.75 11.2 Q19.15 14.05 16.6 16.6 L14.05 18.9 Q12.35 19.5 10.95 20.95 7.2 22.9 2.8 23.4 3.3 18.5 6.85 14.9 11.1 10.7 17.05 10.7 L20.75 11.2 M-1.7 23.45 Q-8.85 23.0 -14.3 18.65 -16.95 7.9 -16.0 -4.75 -15.5 -12.3 -13.8 -19.0 -10.9 -21.2 -7.45 -22.3 -9.7 -16.2 -9.55 -9.85 -9.4 -1.4 -4.85 3.2 1.5 9.75 -1.05 19.55 L-1.7 23.45" fill="#bf0000" fill-rule="evenodd" stroke="none"/>
  </g>
</svg>
