<?xml version="1.0" encoding="UTF-8" standalone="no"?>
<svg xmlns:ffdec="https://www.free-decompiler.com/flash" xmlns:xlink="http://www.w3.org/1999/xlink" ffdec:objectType="shape" height="35.0px" width="38.8px" xmlns="http://www.w3.org/2000/svg">
  <g transform="matrix(1.0, 0.0, 0.0, 1.0, -3.85, -4.75)">
    <path d="M24.6 10.8 L21.6 10.8 21.6 19.55 21.15 20.6 Q20.7 21.05 20.1 21.05 L11.4 21.05 11.4 24.05 20.1 24.05 Q20.7 24.05 21.15 24.5 21.6 24.95 21.6 25.55 L21.6 34.3 24.6 34.3 24.6 25.55 Q24.6 24.95 25.05 24.5 25.5 24.05 26.1 24.05 L34.9 24.05 34.9 21.05 26.1 21.05 Q25.5 21.05 25.05 20.6 24.6 20.15 24.6 19.55 L24.6 10.8 M27.15 8.25 Q27.6 8.7 27.6 9.3 L27.6 18.05 36.4 18.05 Q37.0 18.05 37.45 18.5 37.9 18.95 37.9 19.55 L37.9 25.55 37.45 26.6 Q37.0 27.05 36.4 27.05 L27.6 27.05 27.6 35.8 Q27.6 36.4 27.15 36.85 L26.1 37.3 20.1 37.3 Q19.5 37.3 19.05 36.85 18.6 36.4 18.6 35.8 L18.6 27.05 9.9 27.05 Q9.3 27.05 8.85 26.6 8.4 26.15 8.4 25.55 L8.4 19.55 Q8.4 18.95 8.85 18.5 9.3 18.05 9.9 18.05 L18.6 18.05 18.6 9.3 Q18.6 8.7 19.05 8.25 19.5 7.8 20.1 7.8 L26.1 7.8 Q26.7 7.8 27.15 8.25" fill="#ffffff" fill-rule="evenodd" stroke="none"/>
    <path d="M4.35 37.25 L42.15 37.25 M4.35 39.25 L42.15 39.25 M4.35 21.25 L42.15 21.25 M4.35 23.25 L42.15 23.25 M4.35 27.25 L42.15 27.25 M4.35 25.25 L42.15 25.25 M4.35 33.25 L42.15 33.25 M4.35 35.25 L42.15 35.25 M4.35 31.25 L42.15 31.25 M4.35 29.25 L42.15 29.25 M4.35 13.25 L42.15 13.25 M4.35 15.25 L42.15 15.25 M4.35 19.25 L42.15 19.25 M4.35 17.25 L42.15 17.25 M4.35 9.25 L42.15 9.25 M4.35 11.25 L42.15 11.25 M4.35 7.25 L42.15 7.25 M4.35 5.25 L42.15 5.25" fill="none" stroke="#000000" stroke-linecap="round" stroke-linejoin="round" stroke-opacity="0.3019608" stroke-width="1.0"/>
  </g>
</svg>
