<?xml version="1.0" encoding="UTF-8" standalone="no"?>
<svg xmlns:ffdec="https://www.free-decompiler.com/flash" xmlns:xlink="http://www.w3.org/1999/xlink" ffdec:objectType="shape" height="35.0px" width="35.0px" xmlns="http://www.w3.org/2000/svg">
  <g transform="matrix(1.0, 0.0, 0.0, 1.0, 0.0, 0.0)">
    <path d="M0.0 26.95 L0.0 6.55 Q0.0 3.85 1.9 1.95 3.8 0.0 6.5 0.0 L28.45 0.0 Q31.15 0.0 33.05 1.95 35.0 3.85 35.0 6.55 L35.0 26.95 25.8 26.95 25.8 18.8 31.1 18.8 31.1 13.9 25.8 13.9 25.8 12.25 Q25.8 10.45 26.45 9.85 27.0 9.15 28.3 9.15 L28.8 9.15 31.1 9.15 31.1 4.45 28.8 4.4 26.85 4.4 Q24.2 4.4 22.55 5.35 20.85 6.3 20.25 7.75 19.65 9.15 19.65 12.1 L19.65 13.9 15.35 13.9 15.35 18.8 19.65 18.8 19.65 26.95 0.0 26.95" fill="#355088" fill-rule="evenodd" stroke="none"/>
    <path d="M19.65 26.95 L19.65 18.8 15.35 18.8 15.35 13.9 19.65 13.9 19.65 12.1 Q19.65 9.15 20.25 7.75 20.85 6.3 22.55 5.35 24.2 4.4 26.85 4.4 L28.8 4.4 31.1 4.45 31.1 9.15 28.8 9.15 28.3 9.15 Q27.0 9.15 26.45 9.85 25.8 10.45 25.8 12.25 L25.8 13.9 31.1 13.9 31.1 18.8 25.8 18.8 25.8 26.95 25.8 31.85 19.65 31.85 19.65 26.95" fill="#ffffff" fill-rule="evenodd" stroke="none"/>
    <path d="M0.0 26.95 L19.65 26.95 19.65 31.85 25.8 31.85 25.8 26.95 35.0 26.95 35.0 28.5 Q35.0 31.2 33.05 33.1 31.15 35.0 28.45 35.0 L6.5 35.0 Q3.8 35.0 1.9 33.1 0.0 31.2 0.0 28.5 L0.0 26.95" fill="#546da3" fill-rule="evenodd" stroke="none"/>
  </g>
</svg>
