<?xml version="1.0" encoding="UTF-8" standalone="no"?>
<svg xmlns:ffdec="https://www.free-decompiler.com/flash" xmlns:xlink="http://www.w3.org/1999/xlink" ffdec:objectType="shape" height="34.0px" width="33.0px" xmlns="http://www.w3.org/2000/svg">
  <g transform="matrix(1.0, 0.0, 0.0, 1.0, 0.0, 0.0)">
    <path d="M14.85 14.05 Q15.2 14.35 15.2 14.75 L14.85 16.6 12.4 25.15 Q12.05 26.15 12.05 26.8 12.05 27.8 12.75 28.45 13.45 29.1 14.6 29.1 17.65 29.1 20.35 24.4 L19.75 24.05 17.85 26.45 17.2 26.7 16.85 26.55 16.7 26.15 17.0 24.75 20.7 12.1 19.65 12.1 13.55 13.05 13.3 13.8 13.95 13.75 Q14.55 13.75 14.85 14.05 M22.2 6.5 Q22.2 5.45 21.45 4.7 20.7 3.9 19.6 3.9 18.5 3.9 17.75 4.7 16.95 5.45 16.95 6.5 16.95 7.6 17.75 8.35 18.5 9.15 19.6 9.15 20.65 9.15 21.4 8.35 22.2 7.6 22.2 6.5 M0.0 34.0 L0.0 0.0 33.0 0.0 33.0 34.0 0.0 34.0" fill="#0099ff" fill-rule="evenodd" stroke="none"/>
    <path d="M22.2 6.5 Q22.2 7.6 21.4 8.35 20.65 9.15 19.6 9.15 18.5 9.15 17.75 8.35 16.95 7.6 16.95 6.5 16.95 5.45 17.75 4.7 18.5 3.9 19.6 3.9 20.7 3.9 21.45 4.7 22.2 5.45 22.2 6.5 M14.85 14.05 Q14.55 13.75 13.95 13.75 L13.3 13.8 13.55 13.05 19.65 12.1 20.7 12.1 17.0 24.75 16.7 26.15 16.85 26.55 17.2 26.7 17.85 26.45 19.75 24.05 20.35 24.4 Q17.65 29.1 14.6 29.1 13.45 29.1 12.75 28.45 12.05 27.8 12.05 26.8 12.05 26.15 12.4 25.15 L14.85 16.6 15.2 14.75 Q15.2 14.35 14.85 14.05" fill="#ffffff" fill-rule="evenodd" stroke="none"/>
  </g>
</svg>
