<?xml version="1.0" encoding="UTF-8" standalone="no"?>
<svg xmlns:ffdec="https://www.free-decompiler.com/flash" xmlns:xlink="http://www.w3.org/1999/xlink" ffdec:objectType="shape" height="47.0px" width="47.0px" xmlns="http://www.w3.org/2000/svg">
  <g transform="matrix(1.0, 0.0, 0.0, 1.0, 23.5, 23.5)">
    <path d="M-23.45 -1.45 Q-23.35 -3.9 -22.75 -6.1 L-22.75 -5.7 Q-22.55 -3.4 -23.45 -1.45" fill="#0037aa" fill-rule="evenodd" stroke="none"/>
    <path d="M-4.75 23.05 Q-4.6 20.9 -3.05 19.45 -1.05 17.6 2.2 18.2 5.5 18.9 8.1 21.65 L8.4 22.0 Q4.55 23.5 0.0 23.5 L-4.75 23.05" fill="#0066ff" fill-rule="evenodd" stroke="none"/>
    <path d="M-7.55 22.35 L-7.45 20.7 Q-6.7 15.7 -3.05 13.75 0.7 11.85 5.15 14.0 9.25 16.0 11.8 20.35 L8.4 22.0 8.1 21.65 Q5.5 18.9 2.2 18.2 -1.05 17.6 -3.05 19.45 -4.6 20.9 -4.75 23.05 L-7.55 22.35" fill="#005eea" fill-rule="evenodd" stroke="none"/>
    <path d="M11.8 20.35 Q9.25 16.0 5.15 14.0 0.7 11.85 -3.05 13.75 -6.7 15.7 -7.45 20.7 L-7.55 22.35 Q-9.3 21.75 -10.9 20.9 -10.8 18.55 -10.1 16.35 -8.15 9.7 -2.7 7.8 2.8 5.8 8.55 9.8 12.85 12.75 15.4 17.7 L11.8 20.35" fill="#0055d5" fill-rule="evenodd" stroke="none"/>
    <path d="M-19.3 -13.45 Q-15.9 -9.85 -15.55 -4.8 -15.15 1.1 -19.1 5.6 -20.45 7.15 -22.05 8.25 -23.5 4.45 -23.5 0.0 L-23.45 -1.45 Q-22.55 -3.4 -22.75 -5.7 L-22.75 -6.1 Q-21.75 -10.1 -19.3 -13.45 M-14.75 18.35 Q-14.3 14.9 -13.0 11.65 -9.65 3.4 -2.45 1.55 4.75 -0.2 11.6 5.5 15.95 9.15 18.55 14.45 L16.6 16.6 15.4 17.7 Q12.85 12.75 8.55 9.8 2.8 5.8 -2.7 7.8 -8.15 9.7 -10.1 16.35 -10.8 18.55 -10.9 20.9 L-14.75 18.35" fill="#004dbf" fill-rule="evenodd" stroke="none"/>
    <path d="M-16.3 -16.9 L-13.85 -13.85 Q-8.1 -5.45 0.95 -5.95 7.4 -6.35 13.85 -0.9 18.7 3.15 21.85 8.8 20.65 11.85 18.55 14.45 15.95 9.15 11.6 5.5 4.75 -0.2 -2.45 1.55 -9.65 3.4 -13.0 11.65 -14.3 14.9 -14.75 18.35 L-16.6 16.6 Q-20.4 12.85 -22.05 8.25 -20.45 7.15 -19.1 5.6 -15.15 1.1 -15.55 -4.8 -15.9 -9.85 -19.3 -13.45 L-16.6 -16.6 -16.3 -16.9" fill="#0044aa" fill-rule="evenodd" stroke="none"/>
    <path d="M21.85 8.8 Q18.7 3.15 13.85 -0.9 7.4 -6.35 0.95 -5.95 -8.1 -5.45 -13.85 -13.85 L-16.3 -16.9 Q-11.15 -21.95 -4.3 -23.1 5.4 -18.0 14.3 -9.1 19.55 -3.8 23.45 1.75 23.15 5.5 21.85 8.8" fill="#003c95" fill-rule="evenodd" stroke="none"/>
    <path d="M23.45 1.75 Q19.55 -3.8 14.3 -9.1 5.4 -18.0 -4.3 -23.1 L0.0 -23.5 Q4.35 -23.5 8.1 -22.15 12.8 -20.45 16.6 -16.6 19.7 -13.55 21.35 -9.85 23.5 -5.4 23.5 0.0 L23.45 1.75" fill="#003380" fill-rule="evenodd" stroke="none"/>
  </g>
</svg>
