<?xml version="1.0" encoding="UTF-8" standalone="no"?>
<svg xmlns:ffdec="https://www.free-decompiler.com/flash" xmlns:xlink="http://www.w3.org/1999/xlink" ffdec:objectType="shape" height="248.1px" width="330.95px" xmlns="http://www.w3.org/2000/svg">
  <g transform="matrix(1.0, 0.0, 0.0, 1.0, 0.0, 0.0)">
    <path d="M294.35 9.7 L294.25 7.25 Q294.2 5.1 293.15 3.3 L297.95 9.45 Q300.15 12.35 299.95 16.0 L294.35 9.7 M243.9 140.05 L242.65 145.7 240.7 140.6 Q235.2 121.8 237.7 99.4 238.1 108.75 239.35 118.0 240.8 129.2 243.9 140.05 M232.2 79.35 L232.7 71.4 238.25 79.75 Q237.95 83.65 237.8 87.6 L232.2 79.35 M232.9 69.45 L232.95 69.25 Q233.0 67.1 231.85 65.2 L231.9 65.2 236.7 71.15 Q239.0 73.95 238.35 77.6 L232.9 69.45 M224.65 62.15 L223.55 62.4 219.05 56.3 Q219.3 54.1 218.05 52.15 L217.9 51.9 218.9 49.75 224.5 56.85 223.5 59.0 223.65 59.25 Q224.5 60.65 224.65 62.15 M222.05 62.85 L218.6 63.8 218.9 58.45 222.05 62.85 M220.6 44.75 L221.5 40.3 227.1 47.7 226.0 52.4 220.6 44.75 M221.1 25.25 Q220.1 21.25 218.25 17.6 L217.05 15.5 220.5 19.4 220.55 19.4 222.8 23.15 Q228.6 33.1 227.5 44.7 226.3 33.65 221.1 25.25 M129.5 28.4 L123.85 22.8 123.95 19.7 129.55 25.7 Q129.15 22.8 125.35 18.1 L124.1 16.55 Q124.25 14.4 123.2 12.45 L122.9 12.0 128.35 19.2 Q128.95 19.8 129.2 20.7 129.9 23.15 129.55 25.7 L129.5 28.4 M5.15 123.3 L6.85 123.65 12.25 130.7 9.85 130.15 5.15 123.3 M9.15 123.45 L14.15 122.65 14.55 130.6 9.15 123.45 M36.45 237.8 Q38.35 240.6 41.75 240.9 L41.8 240.9 42.6 246.35 Q39.5 244.05 36.45 237.8 M42.6 240.9 L44.2 240.7 47.55 246.55 Q66.35 236.5 63.95 229.45 L85.5 217.1 87.15 215.75 92.65 223.0 91.1 224.2 71.15 235.7 Q87.5 225.6 87.95 218.8 L86.5 216.5 Q85.6 224.85 59.75 242.25 L51.2 247.1 Q48.05 248.9 44.55 247.45 L42.6 240.9 M87.75 215.0 L88.7 213.0 94.5 217.05 94.6 217.8 Q94.65 219.6 93.95 221.25 L87.75 215.0 M89.0 211.8 L89.0 210.75 90.55 211.45 Q83.1 196.55 77.5 182.2 66.75 152.45 63.75 131.15 61.95 125.2 60.0 123.5 L59.65 120.6 63.05 124.9 62.9 122.75 59.55 118.6 59.35 116.05 62.9 115.55 64.85 119.2 81.05 116.3 Q79.3 114.6 73.8 114.0 L82.55 112.5 Q83.8 112.25 84.8 111.55 L84.3 120.35 64.95 123.15 Q65.75 135.2 68.15 147.25 70.6 159.5 74.6 171.4 78.35 182.75 83.25 193.6 88.15 204.7 93.95 215.4 L89.0 211.8 M82.15 173.6 L84.9 173.75 86.65 173.45 87.55 180.7 86.55 180.3 82.15 173.6 M93.1 206.35 L94.45 207.55 Q95.6 208.3 96.75 208.55 L102.65 215.75 101.4 215.35 Q100.1 214.9 99.1 213.85 95.75 210.1 93.1 206.35 M99.65 208.6 L102.2 208.1 Q105.2 212.55 109.3 214.9 123.6 211.55 128.85 207.55 132.15 203.85 129.9 201.5 L131.05 200.1 137.0 206.45 Q135.6 209.65 132.15 210.35 L109.3 214.9 105.2 215.7 99.65 208.6 M131.9 198.2 L132.05 195.4 136.65 199.2 137.65 203.2 131.9 198.2 M131.5 193.5 L129.95 187.95 Q139.0 192.55 145.45 200.2 147.25 202.3 148.75 204.75 144.3 200.15 138.25 196.55 L135.5 195.0 136.0 196.8 131.5 193.5 M154.4 216.45 Q156.55 218.9 159.85 218.8 L160.5 218.8 Q159.75 221.45 159.8 224.2 L154.4 216.45 M161.75 228.25 Q163.55 230.1 166.15 230.3 L166.85 230.25 171.6 237.4 Q169.55 237.25 168.05 235.65 164.55 232.2 161.75 228.25 M169.0 229.85 L171.9 228.85 Q175.1 233.85 186.65 232.75 L173.7 237.2 169.0 229.85 M196.8 220.05 L209.2 215.65 214.45 223.0 201.8 227.45 196.8 220.05 M216.25 212.85 L217.65 211.2 223.3 218.3 223.3 218.35 Q222.65 219.5 221.5 220.2 L216.25 212.85 M218.8 204.2 L217.85 186.9 223.5 195.1 224.5 214.05 224.3 216.15 Q223.3 210.15 218.8 204.2 M229.75 203.25 Q235.3 209.85 241.5 215.85 243.7 217.95 246.8 217.25 L252.05 224.4 Q249.25 224.8 247.1 222.9 241.5 217.85 236.6 211.85 L229.75 203.25 M248.75 216.55 L250.85 214.95 256.45 221.95 Q255.5 223.2 254.1 223.8 L248.75 216.55 M252.15 213.2 L253.3 211.9 Q257.55 217.1 264.0 212.3 L258.0 220.0 252.15 213.2 M274.85 176.15 L275.65 174.35 278.9 181.3 277.25 170.4 279.5 164.75 281.35 181.15 Q277.6 189.8 273.25 197.6 278.55 184.2 274.85 176.15 M281.1 160.4 L284.0 151.4 284.95 172.35 283.4 176.25 281.1 160.4 M292.5 112.2 L293.45 105.6 298.65 115.3 297.55 122.85 292.5 112.2 M293.8 102.6 L295.05 89.85 Q296.0 77.55 296.25 64.45 296.45 91.15 300.45 98.7 L299.05 112.2 293.8 102.6 M295.0 17.65 L294.65 13.5 300.25 19.8 301.05 32.5 301.9 54.9 301.8 75.8 Q300.6 25.65 295.0 17.65 M167.0 143.25 L166.65 153.75 162.0 158.5 158.8 157.3 Q161.5 149.4 167.0 143.25 M64.7 72.4 L58.9 73.35 58.95 72.05 64.7 72.4 59.05 69.15 59.15 63.15 61.75 62.3 64.0 66.1 Q70.55 67.1 91.4 63.3 L91.05 65.1 Q79.9 66.05 69.1 69.1 L64.8 70.3 64.7 72.4 M78.4 58.8 L92.65 57.35 91.75 61.95 Q92.5 57.35 78.4 58.8 M128.3 125.55 Q127.1 109.2 129.15 93.0 L127.5 90.1 128.15 86.4 133.2 96.25 Q131.45 106.9 130.4 117.6 L129.75 124.65 128.3 125.55" fill="#6b1414" fill-rule="evenodd" stroke="none"/>
    <path d="M293.15 3.3 Q294.2 5.1 294.25 7.25 L294.35 9.7 294.65 13.5 295.0 17.65 Q295.8 28.85 296.15 40.15 296.55 52.3 296.25 64.45 296.0 77.55 295.05 89.85 L293.8 102.6 293.45 105.6 292.5 112.2 Q289.45 133.15 284.0 151.4 L281.1 160.4 279.5 164.75 277.25 170.4 275.65 174.35 274.85 176.15 Q265.95 196.2 253.3 211.9 L252.15 213.2 250.85 214.95 248.75 216.55 246.8 217.25 Q243.7 217.95 241.5 215.85 235.3 209.85 229.75 203.25 L223.5 195.1 217.85 186.9 218.8 204.2 218.95 206.95 Q219.1 209.3 217.65 211.2 L216.25 212.85 209.2 215.65 196.8 220.05 171.9 228.85 169.0 229.85 166.85 230.25 166.15 230.3 Q163.55 230.1 161.75 228.25 L161.2 227.65 Q160.0 226.2 159.8 224.2 159.75 221.45 160.5 218.8 L159.85 218.8 Q156.55 218.9 154.4 216.45 153.15 214.7 152.45 212.6 151.1 208.6 148.75 204.75 147.25 202.3 145.45 200.2 139.0 192.55 129.95 187.95 L131.5 193.5 132.05 195.4 131.9 198.2 131.05 200.1 129.9 201.5 Q128.4 202.85 126.55 203.2 L102.2 208.1 99.65 208.6 99.1 208.65 96.75 208.55 Q95.6 208.3 94.45 207.55 L93.1 206.35 Q91.1 203.8 90.8 200.4 L89.95 194.75 87.55 180.7 86.65 173.45 84.9 173.75 82.15 173.6 81.0 173.0 78.75 171.45 Q77.7 170.05 77.35 168.65 L77.15 167.75 73.4 138.35 Q73.05 134.8 75.7 132.4 L76.1 132.05 Q78.4 130.5 81.15 130.5 L84.1 130.45 84.3 120.35 84.8 111.55 Q83.8 112.25 82.55 112.5 L73.8 114.0 62.9 115.55 59.35 116.05 59.55 118.6 59.65 120.6 60.0 123.5 Q61.55 136.0 64.55 148.2 67.45 160.25 71.75 172.0 75.85 183.1 81.1 193.6 85.35 202.05 89.0 210.75 L89.0 211.8 88.7 213.0 87.75 215.0 87.15 215.75 85.5 217.1 63.95 229.45 45.65 240.05 44.2 240.7 42.6 240.9 41.8 240.9 41.75 240.9 Q38.35 240.6 36.45 237.8 32.45 226.7 29.45 215.3 26.2 203.55 23.45 191.5 20.8 179.7 18.75 167.65 16.65 155.65 15.55 143.45 L14.55 130.6 14.15 122.65 9.15 123.45 6.85 123.65 5.15 123.3 5.05 123.25 Q3.25 122.7 2.0 121.2 0.1 117.85 0.0 113.95 -0.15 102.2 0.75 90.4 L1.15 86.85 Q1.7 83.85 4.35 82.2 9.2 79.25 15.0 78.95 16.05 66.15 17.55 53.35 19.15 39.95 22.95 27.25 L23.6 26.05 Q24.7 24.8 26.35 24.2 45.8 17.6 65.8 13.75 77.25 11.65 88.9 10.5 L118.1 9.3 Q119.65 9.35 120.85 10.05 122.1 10.8 122.9 12.0 L123.2 12.45 Q124.25 14.4 124.1 16.55 L123.95 19.7 123.85 22.8 129.5 28.4 138.85 38.4 Q146.05 46.3 152.35 54.75 L157.0 61.15 Q162.6 69.15 166.85 78.0 L166.75 74.8 Q166.3 69.1 167.05 63.25 159.7 55.4 158.0 44.75 156.1 32.2 161.55 20.75 166.85 9.7 177.75 4.05 185.95 -0.15 195.2 0.85 207.35 2.3 214.65 12.05 L214.6 12.05 217.05 15.5 218.25 17.6 Q220.1 21.25 221.1 25.25 L221.6 28.2 Q222.5 34.3 221.5 40.3 L220.6 44.75 218.9 49.75 217.9 51.9 218.05 52.15 Q219.3 54.1 219.05 56.3 L218.9 58.45 218.6 63.8 222.05 62.85 223.55 62.4 224.65 62.15 225.6 62.05 Q229.6 61.85 231.85 65.15 L231.85 65.2 Q233.0 67.1 232.95 69.25 L232.9 69.45 232.7 71.4 232.2 79.35 Q231.45 98.75 234.7 116.85 235.95 124.35 237.95 131.65 L240.7 140.6 242.65 145.7 243.9 140.05 Q245.5 132.7 246.7 125.5 249.25 109.1 249.7 93.1 249.9 83.2 249.3 73.5 247.95 50.65 241.8 28.8 241.2 26.45 242.15 24.2 L242.25 23.95 Q243.25 21.85 245.3 20.8 L283.8 0.95 Q285.95 -0.25 288.5 0.1 291.5 0.75 293.15 3.3 M286.4 1.8 L284.75 2.4 246.25 22.2 Q243.2 23.95 243.6 27.35 L244.3 31.05 Q249.85 51.95 251.1 73.4 252.05 89.35 250.75 105.35 249.4 123.5 245.5 141.2 L243.0 151.35 Q237.2 137.55 234.2 122.85 230.1 103.95 230.45 84.75 L230.95 68.3 Q231.0 67.5 230.7 66.9 229.9 64.9 227.85 64.1 L224.65 63.9 216.75 66.1 Q217.25 60.3 216.95 54.6 217.0 53.85 216.6 53.2 L215.85 52.1 Q221.0 42.1 220.1 30.75 219.35 21.1 213.55 13.35 208.65 6.65 200.9 3.8 196.9 2.25 192.45 2.25 181.4 2.05 172.8 9.1 164.2 16.05 161.0 26.65 157.7 37.5 160.5 48.4 161.2 50.95 162.3 53.35 164.95 58.8 169.2 62.95 168.3 64.35 168.3 66.0 L168.7 86.55 Q162.45 70.75 152.15 57.1 143.05 45.05 132.7 34.1 L122.1 23.45 122.2 15.3 Q122.2 14.3 121.85 13.45 120.9 11.45 118.5 10.8 L117.15 10.65 Q96.5 10.75 76.2 13.65 56.5 16.5 37.45 22.15 31.65 23.85 26.1 26.15 25.5 26.3 25.05 26.75 23.7 27.8 23.35 29.5 18.95 51.5 17.15 73.95 L16.6 80.45 Q11.1 81.0 5.7 82.75 L4.45 83.45 Q3.45 84.35 3.15 85.55 2.7 87.15 2.5 88.95 1.6 97.95 1.65 107.0 1.7 112.5 2.35 117.85 2.4 118.5 2.75 119.2 3.75 121.15 5.75 121.8 L8.0 122.0 15.75 120.65 Q16.25 135.85 18.05 150.95 20.25 168.8 24.0 186.4 26.65 198.75 29.9 211.0 33.4 223.9 37.75 236.45 38.1 237.45 39.0 238.1 41.85 240.1 44.8 238.5 L84.75 215.55 Q87.5 213.9 87.1 210.55 L86.55 208.65 82.15 199.95 Q75.65 187.2 70.5 173.6 66.35 162.65 63.4 151.45 58.7 133.25 57.55 114.6 L81.45 111.1 Q84.6 110.55 85.6 107.4 L85.8 106.1 Q86.1 94.65 87.35 83.3 L88.1 76.75 Q88.2 75.75 87.95 74.75 87.65 73.65 87.0 72.95 85.7 71.55 83.5 71.4 L79.7 71.65 75.35 72.45 57.15 75.35 57.55 61.9 Q75.7 56.05 94.75 55.5 90.85 72.5 88.65 89.7 86.7 104.9 86.0 120.1 85.7 126.1 85.8 132.1 L79.35 132.4 Q77.9 132.5 76.8 133.6 74.85 135.4 75.1 138.05 L78.85 167.6 Q79.65 171.45 83.45 172.05 L84.6 171.95 88.1 171.55 Q90.0 187.4 93.4 203.0 93.85 205.05 95.45 206.05 97.2 207.25 99.3 206.85 L126.25 201.45 Q129.8 200.55 130.25 196.85 L130.2 195.6 128.7 189.85 127.3 184.75 Q138.75 189.8 146.85 199.2 151.4 204.7 153.75 211.15 L155.25 214.4 Q156.85 217.25 160.05 217.1 161.9 217.05 162.85 215.7 L161.6 223.05 Q161.4 224.15 161.75 225.1 162.55 227.35 164.8 228.25 166.6 229.0 168.35 228.3 L213.6 212.2 Q216.25 211.3 216.9 208.6 L217.1 207.05 215.9 180.4 Q226.8 198.7 241.65 213.95 243.35 215.7 245.75 215.65 248.15 215.5 249.7 213.65 264.85 195.5 274.15 173.6 279.95 160.15 283.85 145.8 287.85 131.25 290.15 116.45 291.75 106.05 292.8 95.6 293.9 84.8 294.3 73.95 294.7 64.6 294.7 55.25 L294.25 36.35 293.25 18.35 292.55 7.15 Q292.4 4.9 290.9 3.35 289.1 1.45 286.4 1.8 M163.95 140.1 Q166.85 135.9 168.9 131.3 168.8 142.95 168.35 154.6 L167.95 163.05 Q158.7 158.55 148.6 155.85 157.5 149.2 163.95 140.1 M167.0 143.25 L167.1 138.45 165.15 141.3 Q159.65 149.1 152.3 155.2 L158.8 157.3 162.0 158.5 166.35 160.45 166.65 153.75 167.0 143.25 M64.7 72.4 L80.5 69.85 Q83.65 69.25 86.35 70.55 88.45 71.55 89.4 73.6 L91.05 65.1 91.4 63.3 91.75 61.95 92.65 57.35 78.4 58.8 Q69.35 60.0 61.75 62.3 L59.15 63.15 59.05 69.15 58.95 72.05 58.9 73.35 64.7 72.4 M128.3 125.55 L129.75 124.65 Q136.25 120.65 136.8 113.15 L136.8 109.95 Q136.5 102.7 133.2 96.25 L128.15 86.4 127.5 90.1 126.0 100.8 Q124.25 114.2 123.55 127.75 L128.3 125.55 M127.2 81.7 Q132.5 89.6 136.0 98.55 139.75 106.95 138.15 115.85 137.7 118.85 135.9 121.2 133.3 124.7 129.65 126.85 125.85 129.0 121.75 130.25 122.55 109.8 125.85 89.8 L127.2 81.7" fill="#b05236" fill-rule="evenodd" stroke="none"/>
    <path d="M286.4 1.8 Q289.1 1.45 290.9 3.35 292.4 4.9 292.55 7.15 L293.25 18.35 294.25 36.35 294.7 55.25 Q294.7 64.6 294.3 73.95 293.9 84.8 292.8 95.6 291.75 106.05 290.15 116.45 287.85 131.25 283.85 145.8 279.95 160.15 274.15 173.6 264.85 195.5 249.7 213.65 248.15 215.5 245.75 215.65 243.35 215.7 241.65 213.95 226.8 198.7 215.9 180.4 L217.1 207.05 216.9 208.6 Q216.25 211.3 213.6 212.2 L168.35 228.3 Q166.6 229.0 164.8 228.25 162.55 227.35 161.75 225.1 161.4 224.15 161.6 223.05 L162.85 215.7 Q161.9 217.05 160.05 217.1 156.85 217.25 155.25 214.4 L153.75 211.15 Q151.4 204.7 146.85 199.2 138.75 189.8 127.3 184.75 L128.7 189.85 130.2 195.6 130.25 196.85 Q129.8 200.55 126.25 201.45 L99.3 206.85 Q97.2 207.25 95.45 206.05 93.85 205.05 93.4 203.0 90.0 187.4 88.1 171.55 L84.6 171.95 83.45 172.05 Q79.65 171.45 78.85 167.6 L75.1 138.05 Q74.85 135.4 76.8 133.6 77.9 132.5 79.35 132.4 L85.8 132.1 Q85.7 126.1 86.0 120.1 86.7 104.9 88.65 89.7 90.85 72.5 94.75 55.5 75.7 56.05 57.55 61.9 L57.15 75.35 75.35 72.45 79.7 71.65 83.5 71.4 Q85.7 71.55 87.0 72.95 87.65 73.65 87.95 74.75 88.2 75.75 88.1 76.75 L87.35 83.3 Q86.1 94.65 85.8 106.1 L85.6 107.4 Q84.6 110.55 81.45 111.1 L57.55 114.6 Q58.7 133.25 63.4 151.45 66.35 162.65 70.5 173.6 75.65 187.2 82.15 199.95 L86.55 208.65 87.1 210.55 Q87.5 213.9 84.75 215.55 L44.8 238.5 Q41.85 240.1 39.0 238.1 38.1 237.45 37.75 236.45 33.4 223.9 29.9 211.0 26.65 198.75 24.0 186.4 20.25 168.8 18.05 150.95 16.25 135.85 15.75 120.65 L8.0 122.0 5.75 121.8 Q3.75 121.15 2.75 119.2 2.4 118.5 2.35 117.85 1.7 112.5 1.65 107.0 1.6 97.95 2.5 88.95 2.7 87.15 3.15 85.55 3.45 84.35 4.45 83.45 L5.7 82.75 Q11.1 81.0 16.6 80.45 L17.15 73.95 Q18.95 51.5 23.35 29.5 23.7 27.8 25.05 26.75 25.5 26.3 26.1 26.15 31.65 23.85 37.45 22.15 56.5 16.5 76.2 13.65 96.5 10.75 117.15 10.65 L118.5 10.8 Q120.9 11.45 121.85 13.45 122.2 14.3 122.2 15.3 L122.1 23.45 132.7 34.1 Q143.05 45.05 152.15 57.1 162.45 70.75 168.7 86.55 L168.3 66.0 Q168.3 64.35 169.2 62.95 164.95 58.8 162.3 53.35 161.2 50.95 160.5 48.4 157.7 37.5 161.0 26.65 164.2 16.05 172.8 9.1 181.4 2.05 192.45 2.25 196.9 2.25 200.9 3.8 208.65 6.65 213.55 13.35 219.35 21.1 220.1 30.75 221.0 42.1 215.85 52.1 L216.6 53.2 Q217.0 53.85 216.95 54.6 217.25 60.3 216.75 66.1 L224.65 63.9 227.85 64.1 Q229.9 64.9 230.7 66.9 231.0 67.5 230.95 68.3 L230.45 84.75 Q230.1 103.95 234.2 122.85 237.2 137.55 243.0 151.35 L245.5 141.2 Q249.4 123.5 250.75 105.35 252.05 89.35 251.1 73.4 249.85 51.95 244.3 31.05 L243.6 27.35 Q243.2 23.95 246.25 22.2 L284.75 2.4 286.4 1.8 M290.4 6.65 L289.85 5.3 Q288.25 3.2 285.65 3.8 L246.85 23.8 245.7 25.3 Q245.05 26.2 245.3 27.1 L246.4 32.0 Q249.3 44.95 251.2 58.15 253.8 75.9 253.2 93.7 252.55 114.8 248.55 135.45 246.5 146.1 243.35 156.5 240.1 149.35 237.65 141.8 231.95 124.85 229.95 107.2 228.0 90.0 228.85 72.95 L228.75 67.85 Q228.7 66.95 228.0 66.3 227.5 65.85 226.8 65.85 220.85 66.75 214.9 68.4 215.4 62.45 215.05 56.35 L214.75 53.95 Q214.5 52.95 213.5 52.6 214.8 50.7 215.75 48.5 220.85 36.45 217.0 23.95 214.15 13.9 205.5 8.3 199.95 4.75 193.4 4.15 183.95 3.65 176.1 9.1 165.25 16.6 162.0 29.55 159.95 38.1 161.9 46.55 164.15 56.3 171.65 62.8 L171.05 63.55 Q170.5 64.35 170.35 65.3 170.0 67.35 170.05 69.45 170.65 84.45 170.6 99.45 168.6 89.7 164.45 80.75 159.75 70.6 153.3 61.65 146.45 52.05 138.7 43.25 130.1 33.3 120.45 24.3 L120.65 19.95 Q120.9 16.7 119.9 13.9 L119.45 13.45 112.15 12.65 88.55 13.9 Q73.95 15.35 59.6 18.35 49.5 20.35 39.55 23.45 L32.6 25.5 Q28.95 26.55 25.9 28.7 L25.55 29.25 Q22.2 43.85 20.5 58.65 19.15 70.25 18.25 82.0 L12.35 83.2 Q9.4 83.7 6.55 84.6 5.9 84.75 5.4 85.25 4.5 86.2 4.35 87.65 3.9 90.8 3.7 94.0 3.15 105.05 3.9 116.0 4.05 118.1 5.5 119.55 L8.7 119.6 17.4 118.65 17.55 124.15 Q18.1 134.85 19.25 145.55 21.25 164.4 25.1 182.95 29.35 203.05 35.25 222.85 L37.1 229.5 Q38.0 232.65 39.75 235.4 41.25 237.8 43.9 237.0 L83.8 214.05 84.75 213.05 Q85.95 211.75 85.25 210.1 L83.55 206.5 Q75.6 191.25 69.45 175.35 61.35 154.7 57.8 132.9 56.25 123.05 55.75 113.1 L81.15 109.35 82.8 108.5 Q83.6 108.1 83.7 107.1 84.8 91.9 86.6 76.95 86.8 74.95 85.0 73.9 L83.9 73.7 Q69.65 75.1 55.35 77.35 L55.85 60.65 Q65.9 57.4 76.4 55.75 86.6 54.0 96.8 53.7 94.45 64.85 92.6 76.0 89.4 93.9 88.2 112.1 87.5 122.9 87.5 133.7 L85.45 133.95 81.3 134.4 78.5 135.05 Q76.65 135.8 76.7 137.85 L80.5 167.35 81.1 168.5 Q81.65 169.5 82.6 169.75 L84.85 170.1 89.55 169.55 Q90.9 179.85 92.65 190.2 L93.35 195.75 Q93.55 199.25 94.85 202.55 96.0 205.35 98.9 205.2 L125.8 199.75 127.7 198.2 127.95 197.55 127.75 195.2 Q126.7 188.35 124.8 181.7 134.55 185.6 142.45 192.35 147.3 196.4 150.65 201.6 154.35 207.5 157.2 213.9 L157.65 214.5 Q157.95 214.95 158.45 215.1 162.2 215.1 165.05 212.65 164.15 217.95 163.5 223.35 163.25 224.8 164.4 225.95 165.8 227.25 167.75 226.6 L213.2 210.55 214.85 209.2 215.2 207.6 Q215.5 205.8 215.45 203.85 L213.9 173.3 Q218.8 182.5 224.75 191.05 232.7 202.6 243.0 212.25 244.1 213.3 245.8 213.75 246.7 213.95 247.3 213.3 253.85 206.3 259.15 198.35 266.9 186.35 272.55 173.3 277.35 162.2 280.75 150.65 284.45 138.15 286.85 125.45 289.55 110.8 291.05 96.15 292.6 80.6 292.85 64.85 293.1 51.2 292.7 37.4 292.35 22.0 290.4 6.65 M163.95 140.1 Q157.5 149.2 148.6 155.85 158.7 158.55 167.95 163.05 L168.35 154.6 Q168.8 142.95 168.9 131.3 166.85 135.9 163.95 140.1 M162.35 139.35 Q168.65 130.65 170.7 120.15 170.85 131.85 170.45 143.6 170.2 154.75 169.45 165.85 157.65 159.7 144.75 156.55 155.1 149.5 162.35 139.35 M126.3 77.15 Q133.15 86.85 137.6 97.9 141.05 105.8 140.2 114.35 139.65 120.2 135.4 124.25 130.4 129.1 123.95 131.3 L119.95 132.5 Q120.55 111.15 124.0 90.05 L126.3 77.15 M127.2 81.7 L125.85 89.8 Q122.55 109.8 121.75 130.25 125.85 129.0 129.65 126.85 133.3 124.7 135.9 121.2 137.7 118.85 138.15 115.85 139.75 106.95 136.0 98.55 132.5 89.6 127.2 81.7" fill="#f5973f" fill-rule="evenodd" stroke="none"/>
    <path d="M288.2 5.25 L286.55 5.3 247.75 25.3 Q246.95 25.8 247.05 26.7 247.1 27.9 247.45 29.2 252.55 48.25 254.15 67.8 255.4 82.6 254.8 97.25 254.1 111.9 251.8 126.25 248.9 144.05 243.85 161.4 234.6 142.35 230.45 121.6 226.8 103.6 227.1 85.3 L227.5 68.35 Q227.5 67.9 227.1 67.5 L226.25 67.3 213.1 70.65 213.65 55.3 Q213.7 54.85 213.35 54.45 213.0 54.05 212.4 54.0 L210.3 54.45 Q215.95 46.8 216.85 37.15 218.0 25.1 210.9 15.35 206.0 8.45 197.8 6.4 192.85 5.1 187.7 5.9 180.6 7.05 175.05 11.75 166.05 19.2 163.5 30.5 160.9 41.95 165.9 52.45 167.7 56.5 170.9 59.75 173.05 62.0 175.65 63.4 L172.65 64.6 Q172.2 64.85 172.05 65.35 171.8 66.5 171.85 67.75 L172.45 100.8 Q172.7 121.35 172.25 141.85 171.95 155.3 171.1 168.7 161.4 162.95 150.55 159.7 L140.85 157.25 Q148.35 152.45 154.55 146.15 159.3 141.4 162.7 135.75 169.95 124.05 170.0 110.35 169.95 100.55 166.8 91.1 163.7 81.85 158.6 73.3 150.3 59.15 139.5 46.75 129.65 35.3 118.7 24.85 L118.7 15.3 Q118.7 14.9 118.35 14.6 118.1 14.3 117.65 14.3 L114.3 14.05 Q93.95 14.35 73.95 17.45 53.3 20.65 33.15 27.05 L27.85 28.85 Q27.0 31.1 26.4 33.45 25.5 36.65 24.95 39.95 21.2 61.55 19.85 83.5 13.55 84.1 7.4 85.75 L6.85 86.35 Q6.35 87.8 6.15 89.35 5.1 98.15 5.2 107.0 5.25 111.95 5.6 116.85 5.75 118.15 7.05 118.05 L19.1 116.65 Q19.45 137.95 22.55 158.85 25.0 175.15 28.65 191.0 31.95 205.5 36.15 219.75 L39.85 231.85 41.0 234.95 Q41.2 235.45 41.7 235.65 L43.15 235.55 83.05 212.55 Q83.45 212.4 83.55 211.85 83.7 211.0 83.4 210.3 L81.4 205.85 Q74.3 192.4 68.7 178.3 63.05 164.05 59.4 149.4 54.8 130.75 54.1 111.55 L81.0 107.65 82.45 106.0 Q82.75 91.05 84.75 76.25 84.85 75.85 84.55 75.55 84.1 74.75 83.05 74.7 L80.25 75.1 53.7 79.3 54.25 59.4 Q69.8 53.8 86.15 52.6 L99.25 51.9 Q93.8 74.15 91.35 96.9 89.75 111.0 89.4 124.95 89.2 130.2 89.35 135.4 L79.75 135.8 Q78.95 135.95 78.75 136.7 L78.55 137.6 82.3 167.05 Q82.6 168.65 84.3 168.55 L91.2 167.65 Q92.95 183.4 96.2 198.7 L97.4 203.15 98.65 203.45 125.6 198.05 Q126.95 197.6 126.8 196.35 L126.3 193.8 Q124.2 186.4 122.6 178.95 131.6 182.15 139.5 187.65 149.55 194.7 155.25 205.6 157.0 208.9 158.15 212.4 158.6 213.85 159.9 213.3 L167.4 209.35 165.2 223.6 Q165.15 224.0 165.45 224.4 166.2 225.35 167.25 225.0 L212.7 208.85 213.8 207.15 Q212.6 186.4 212.05 165.6 223.1 188.8 240.5 207.5 L244.45 211.5 246.45 211.6 248.9 209.05 Q265.85 187.9 275.1 162.3 279.15 150.95 282.05 139.15 286.8 119.9 288.9 100.35 290.6 85.75 291.0 70.95 L291.2 51.55 290.95 38.4 290.25 23.15 Q289.85 14.95 289.05 6.7 288.95 5.75 288.2 5.25 M290.4 6.65 Q292.35 22.0 292.7 37.4 293.1 51.2 292.85 64.85 292.6 80.6 291.05 96.15 289.55 110.8 286.85 125.45 284.45 138.15 280.75 150.65 277.35 162.2 272.55 173.3 266.9 186.35 259.15 198.35 253.85 206.3 247.3 213.3 246.7 213.95 245.8 213.75 244.1 213.3 243.0 212.25 232.7 202.6 224.75 191.05 218.8 182.5 213.9 173.3 L215.45 203.85 Q215.5 205.8 215.2 207.6 L214.85 209.2 213.2 210.55 167.75 226.6 Q165.8 227.25 164.4 225.95 163.25 224.8 163.5 223.35 164.15 217.95 165.05 212.65 162.2 215.1 158.45 215.1 157.95 214.95 157.65 214.5 L157.2 213.9 Q154.35 207.5 150.65 201.6 147.3 196.4 142.45 192.35 134.55 185.6 124.8 181.7 126.7 188.35 127.75 195.2 L127.95 197.55 127.7 198.2 125.8 199.75 98.9 205.2 Q96.0 205.35 94.85 202.55 93.55 199.25 93.35 195.75 L92.65 190.2 Q90.9 179.85 89.55 169.55 L84.85 170.1 82.6 169.75 Q81.65 169.5 81.1 168.5 L80.5 167.35 76.7 137.85 Q76.65 135.8 78.5 135.05 L81.3 134.4 85.45 133.95 87.5 133.7 Q87.5 122.9 88.2 112.1 89.4 93.9 92.6 76.0 94.45 64.85 96.8 53.7 86.6 54.0 76.4 55.75 65.9 57.4 55.85 60.65 L55.35 77.35 Q69.65 75.1 83.9 73.7 L85.0 73.9 Q86.8 74.95 86.6 76.95 84.8 91.9 83.7 107.1 83.6 108.1 82.8 108.5 L81.15 109.35 55.75 113.1 Q56.25 123.05 57.8 132.9 61.35 154.7 69.45 175.35 75.6 191.25 83.55 206.5 L85.25 210.1 Q85.95 211.75 84.75 213.05 L83.8 214.05 43.9 237.0 Q41.25 237.8 39.75 235.4 38.0 232.65 37.1 229.5 L35.25 222.85 Q29.35 203.05 25.1 182.95 21.25 164.4 19.25 145.55 18.1 134.85 17.55 124.15 L17.4 118.65 8.7 119.6 5.5 119.55 Q4.05 118.1 3.9 116.0 3.15 105.05 3.7 94.0 3.9 90.8 4.35 87.65 4.5 86.2 5.4 85.25 5.9 84.75 6.55 84.6 9.4 83.7 12.35 83.2 L18.25 82.0 Q19.15 70.25 20.5 58.65 22.2 43.85 25.55 29.25 L25.9 28.7 Q28.95 26.55 32.6 25.5 L39.55 23.45 Q49.5 20.35 59.6 18.35 73.95 15.35 88.55 13.9 L112.15 12.65 119.45 13.45 119.9 13.9 Q120.9 16.7 120.65 19.95 L120.45 24.3 Q130.1 33.3 138.7 43.25 146.45 52.05 153.3 61.65 159.75 70.6 164.45 80.75 168.6 89.7 170.6 99.45 170.65 84.45 170.05 69.45 170.0 67.35 170.35 65.3 170.5 64.35 171.05 63.55 L171.65 62.8 Q164.15 56.3 161.9 46.55 159.95 38.1 162.0 29.55 165.25 16.6 176.1 9.1 183.95 3.65 193.4 4.15 199.95 4.75 205.5 8.3 214.15 13.9 217.0 23.95 220.85 36.45 215.75 48.5 214.8 50.7 213.5 52.6 214.5 52.95 214.75 53.95 L215.05 56.35 Q215.4 62.45 214.9 68.4 220.85 66.75 226.8 65.85 227.5 65.85 228.0 66.3 228.7 66.95 228.75 67.85 L228.85 72.95 Q228.0 90.0 229.95 107.2 231.95 124.85 237.65 141.8 240.1 149.35 243.35 156.5 246.5 146.1 248.55 135.45 252.55 114.8 253.2 93.7 253.8 75.9 251.2 58.15 249.3 44.95 246.4 32.0 L245.3 27.1 Q245.05 26.2 245.7 25.3 L246.85 23.8 285.65 3.8 Q288.25 3.2 289.85 5.3 L290.4 6.65 M162.35 139.35 Q155.1 149.5 144.75 156.55 157.65 159.7 169.45 165.85 170.2 154.75 170.45 143.6 170.85 131.85 170.7 120.15 168.65 130.65 162.35 139.35 M126.3 77.15 L124.0 90.05 Q120.55 111.15 119.95 132.5 L123.95 131.3 Q130.4 129.1 135.4 124.25 139.65 120.2 140.2 114.35 141.05 105.8 137.6 97.9 133.15 86.85 126.3 77.15 M125.4 72.75 L131.1 81.45 Q138.1 92.0 141.25 103.95 142.85 110.0 141.8 116.0 140.75 121.65 136.6 125.65 132.4 129.75 126.9 131.95 122.8 133.75 118.25 134.7 118.5 122.65 119.7 110.7 121.65 91.6 125.4 72.75" fill="#fcbf17" fill-rule="evenodd" stroke="none"/>
    <path d="M288.2 5.25 Q288.95 5.75 289.05 6.7 289.85 14.95 290.25 23.15 L290.95 38.4 291.2 51.55 291.0 70.95 Q290.6 85.75 288.9 100.35 286.8 119.9 282.05 139.15 279.15 150.95 275.1 162.3 265.85 187.9 248.9 209.05 L246.45 211.6 244.45 211.5 240.5 207.5 Q223.1 188.8 212.05 165.6 212.6 186.4 213.8 207.15 L212.7 208.85 167.25 225.0 Q166.2 225.35 165.45 224.4 165.15 224.0 165.2 223.6 L167.4 209.35 159.9 213.3 Q158.6 213.85 158.15 212.4 157.0 208.9 155.25 205.6 149.55 194.7 139.5 187.65 131.6 182.15 122.6 178.95 124.2 186.4 126.3 193.8 L126.8 196.35 Q126.95 197.6 125.6 198.05 L98.65 203.45 97.4 203.15 96.2 198.7 Q92.95 183.4 91.2 167.65 L84.3 168.55 Q82.6 168.65 82.3 167.05 L78.55 137.6 78.75 136.7 Q78.95 135.95 79.75 135.8 L89.35 135.4 Q89.2 130.2 89.4 124.95 89.75 111.0 91.35 96.9 93.8 74.15 99.25 51.9 L86.15 52.6 Q69.8 53.8 54.25 59.4 L53.7 79.3 80.25 75.1 83.05 74.7 Q84.1 74.75 84.55 75.55 84.85 75.85 84.75 76.25 82.75 91.05 82.45 106.0 L81.0 107.65 54.1 111.55 Q54.8 130.75 59.4 149.4 63.05 164.05 68.7 178.3 74.3 192.4 81.4 205.85 L83.4 210.3 Q83.7 211.0 83.55 211.85 83.45 212.4 83.05 212.55 L43.15 235.55 41.7 235.65 Q41.2 235.45 41.0 234.95 L39.85 231.85 36.15 219.75 Q31.95 205.5 28.65 191.0 25.0 175.15 22.55 158.85 19.45 137.95 19.1 116.65 L7.05 118.05 Q5.75 118.15 5.6 116.85 5.25 111.95 5.2 107.0 5.1 98.15 6.15 89.35 6.35 87.8 6.85 86.35 L7.4 85.75 Q13.55 84.1 19.85 83.5 21.2 61.55 24.95 39.95 25.5 36.65 26.4 33.45 27.0 31.1 27.85 28.85 L33.15 27.05 Q53.3 20.65 73.95 17.45 93.95 14.35 114.3 14.05 L117.65 14.3 Q118.1 14.3 118.35 14.6 118.7 14.9 118.7 15.3 L118.7 24.85 Q129.65 35.3 139.5 46.75 150.3 59.15 158.6 73.3 163.7 81.85 166.8 91.1 169.95 100.55 170.0 110.35 169.95 124.05 162.7 135.75 159.3 141.4 154.55 146.15 148.35 152.45 140.85 157.25 L150.55 159.7 Q161.4 162.95 171.1 168.7 171.95 155.3 172.25 141.85 172.7 121.35 172.45 100.8 L171.85 67.75 Q171.8 66.5 172.05 65.35 172.2 64.85 172.65 64.6 L175.65 63.4 Q173.05 62.0 170.9 59.75 167.7 56.5 165.9 52.45 160.9 41.95 163.5 30.5 166.05 19.2 175.05 11.75 180.6 7.05 187.7 5.9 192.85 5.1 197.8 6.4 206.0 8.45 210.9 15.35 218.0 25.1 216.85 37.15 215.95 46.8 210.3 54.45 L212.4 54.0 Q213.0 54.05 213.35 54.45 213.7 54.85 213.65 55.3 L213.1 70.65 226.25 67.3 227.1 67.5 Q227.5 67.9 227.5 68.35 L227.1 85.3 Q226.8 103.6 230.45 121.6 234.6 142.35 243.85 161.4 248.9 144.05 251.8 126.25 254.1 111.9 254.8 97.25 255.4 82.6 254.15 67.8 252.55 48.25 247.45 29.2 247.1 27.9 247.05 26.7 246.95 25.8 247.75 25.3 L286.55 5.3 288.2 5.25 M287.85 12.15 L287.4 6.8 248.6 26.85 Q252.9 41.8 254.8 57.15 256.55 70.95 256.75 84.8 256.85 96.65 255.85 108.6 254.1 127.85 249.75 146.6 247.4 156.5 244.35 165.95 233.4 144.65 228.75 121.15 224.95 101.7 225.5 82.0 225.65 75.35 226.15 68.7 L211.45 73.0 212.4 55.75 205.35 57.5 Q211.25 52.2 213.6 44.65 216.85 34.35 213.55 24.1 210.4 14.3 201.4 9.65 195.7 6.7 189.2 7.5 180.35 8.65 174.05 15.0 165.55 23.75 164.65 35.8 164.05 43.2 166.8 50.1 169.5 57.15 175.7 61.4 178.05 63.05 180.7 63.95 L173.55 65.75 174.2 98.65 174.3 127.7 Q174.2 140.45 173.7 153.1 L172.7 171.85 Q164.15 165.9 154.05 162.8 145.4 160.05 136.55 158.05 148.4 151.3 157.2 140.7 165.4 130.9 167.6 118.4 169.7 106.15 166.15 94.2 164.3 88.05 161.45 82.2 153.55 65.85 141.9 52.0 133.2 41.7 123.7 32.15 L117.0 25.6 117.35 15.7 Q101.1 15.95 84.9 17.75 70.25 19.45 55.85 22.8 41.95 26.05 28.5 30.5 25.3 47.05 23.45 63.8 22.25 74.45 21.6 85.05 L8.2 87.0 Q6.45 100.95 7.25 114.85 L7.35 116.65 20.85 114.65 Q21.15 130.15 22.85 145.6 24.65 162.2 27.9 178.65 30.3 190.55 33.3 202.45 37.45 218.4 42.4 234.05 L82.3 211.05 Q70.8 189.95 62.95 167.25 57.0 149.85 54.25 131.7 52.65 120.9 52.4 110.15 L80.85 106.0 Q81.15 91.1 83.35 76.5 L52.05 81.35 52.6 58.2 Q66.35 53.2 80.9 51.45 L101.5 50.15 Q97.0 68.65 94.35 87.35 92.3 101.3 91.6 115.45 91.0 126.3 91.1 137.1 L80.35 137.4 84.1 166.85 92.8 165.65 Q94.65 182.65 97.95 199.55 L98.4 201.75 125.35 196.35 Q122.55 186.5 120.45 176.35 137.5 181.7 149.7 194.55 154.65 199.9 157.7 206.55 L159.7 211.95 169.6 206.15 Q168.7 214.8 166.75 223.4 L212.15 207.25 Q211.35 192.35 210.85 177.4 L210.2 157.0 Q218.0 176.05 230.4 192.6 237.4 202.0 245.65 210.4 257.65 196.4 265.8 179.85 271.65 167.75 275.85 154.95 279.3 144.6 281.7 133.9 285.8 116.0 287.6 97.6 288.95 84.35 289.35 70.9 289.85 55.55 289.4 40.1 289.05 26.1 287.85 12.15 M140.95 96.6 Q146.4 110.6 142.6 120.05 139.3 128.1 129.2 132.9 123.95 135.3 116.65 136.9 116.6 127.95 117.35 118.25 118.1 108.1 119.65 97.05 121.5 83.6 124.55 68.65 129.15 74.85 132.65 80.55 138.15 89.2 140.95 96.6 M125.4 72.75 Q121.65 91.6 119.7 110.7 118.5 122.65 118.25 134.7 122.8 133.75 126.9 131.95 132.4 129.75 136.6 125.65 140.75 121.65 141.8 116.0 142.85 110.0 141.25 103.95 138.1 92.0 131.1 81.45 L125.4 72.75" fill="#fef26c" fill-rule="evenodd" stroke="none"/>
    <path d="M287.85 12.15 Q289.05 26.1 289.4 40.1 289.85 55.55 289.35 70.9 288.95 84.35 287.6 97.6 285.8 116.0 281.7 133.9 279.3 144.6 275.85 154.95 271.65 167.75 265.8 179.85 257.65 196.4 245.65 210.4 237.4 202.0 230.4 192.6 218.0 176.05 210.2 157.0 L210.85 177.4 Q211.35 192.35 212.15 207.25 L166.75 223.4 Q168.7 214.8 169.6 206.15 L159.7 211.95 157.7 206.55 Q154.65 199.9 149.7 194.55 137.5 181.7 120.45 176.35 122.55 186.5 125.35 196.35 L98.4 201.75 97.95 199.55 Q94.65 182.65 92.8 165.65 L84.1 166.85 80.35 137.4 91.1 137.1 Q91.0 126.3 91.6 115.45 92.3 101.3 94.35 87.35 97.0 68.65 101.5 50.15 L80.9 51.45 Q66.35 53.2 52.6 58.2 L52.05 81.35 83.35 76.5 Q81.15 91.1 80.85 106.0 L52.4 110.15 Q52.65 120.9 54.25 131.7 57.0 149.85 62.95 167.25 70.8 189.95 82.3 211.05 L42.4 234.05 Q37.45 218.4 33.3 202.45 30.3 190.55 27.9 178.65 24.65 162.2 22.85 145.6 21.15 130.15 20.85 114.65 L7.35 116.65 7.25 114.85 Q6.45 100.95 8.2 87.0 L21.6 85.05 Q22.25 74.45 23.45 63.8 25.3 47.05 28.5 30.5 41.95 26.05 55.85 22.8 70.25 19.45 84.9 17.75 101.1 15.95 117.35 15.7 L117.0 25.6 123.7 32.15 Q133.2 41.7 141.9 52.0 153.55 65.85 161.45 82.2 164.3 88.05 166.15 94.2 169.7 106.15 167.6 118.4 165.4 130.9 157.2 140.7 148.4 151.3 136.55 158.05 145.4 160.05 154.05 162.8 164.15 165.9 172.7 171.85 L173.7 153.1 Q174.2 140.45 174.3 127.7 L174.2 98.65 173.55 65.75 180.7 63.95 Q178.05 63.05 175.7 61.4 169.5 57.15 166.8 50.1 164.05 43.2 164.65 35.8 165.55 23.75 174.05 15.0 180.35 8.65 189.2 7.5 195.7 6.7 201.4 9.65 210.4 14.3 213.55 24.1 216.85 34.35 213.6 44.65 211.25 52.2 205.35 57.5 L212.4 55.75 211.45 73.0 226.15 68.7 Q225.65 75.35 225.5 82.0 224.95 101.7 228.75 121.15 233.4 144.65 244.35 165.95 247.4 156.5 249.75 146.6 254.1 127.85 255.85 108.6 256.85 96.65 256.75 84.8 256.55 70.95 254.8 57.15 252.9 41.8 248.6 26.85 L287.4 6.8 287.85 12.15 M287.8 66.45 Q288.05 51.6 287.55 36.7 L286.35 14.1 Q286.25 12.95 285.8 12.15 284.8 10.3 282.65 11.35 L253.25 26.55 Q250.65 28.35 251.5 31.45 L253.95 41.7 Q256.05 52.15 257.15 62.55 258.2 72.8 258.4 83.3 258.6 93.5 257.95 103.85 257.2 114.5 255.65 124.9 253.9 135.9 251.5 146.7 249.1 156.85 245.9 166.7 245.4 168.15 243.85 167.7 L243.4 167.4 Q241.05 163.75 239.15 159.6 234.55 149.4 231.2 138.6 228.2 128.7 226.35 118.45 222.55 97.5 223.95 75.0 224.25 71.2 221.85 71.95 L211.85 74.8 Q210.35 75.15 210.3 73.55 L209.95 59.0 204.55 59.2 Q202.95 57.8 204.55 56.15 208.9 51.9 211.15 46.2 213.65 39.9 213.55 33.1 213.55 25.6 209.5 19.2 206.15 14.05 200.65 11.5 195.5 9.0 189.6 9.65 180.95 10.75 175.05 16.95 166.25 26.25 166.25 39.15 166.4 48.25 171.95 55.35 173.85 57.75 176.45 59.6 L182.15 63.7 Q182.55 65.0 181.4 65.4 178.4 66.4 176.3 68.85 L176.05 69.55 Q175.5 74.2 175.6 78.65 176.15 102.6 176.2 126.5 176.15 138.55 175.75 150.6 175.35 161.95 174.0 173.2 173.05 174.2 172.0 173.55 156.6 163.9 138.85 160.15 137.1 159.8 135.55 159.05 135.15 158.75 135.0 158.2 137.7 155.45 141.0 153.4 L146.05 149.85 Q153.85 143.6 159.25 135.2 167.3 122.55 166.35 107.6 165.25 91.25 156.95 77.05 150.55 66.1 142.75 56.15 133.7 44.65 123.25 34.4 120.0 31.25 117.4 27.85 116.55 26.65 116.3 25.3 L115.35 19.95 114.8 18.5 Q100.0 17.6 85.3 19.75 L69.4 22.0 Q53.55 24.65 38.3 29.9 35.0 31.05 31.8 32.6 31.1 32.95 30.7 33.8 29.25 36.4 28.85 39.45 L28.1 44.9 Q26.15 57.9 24.55 70.8 L22.65 86.4 Q17.85 87.7 12.6 88.4 11.95 88.4 11.5 88.8 10.9 89.35 10.55 90.05 9.95 91.5 9.7 93.05 8.9 96.95 8.7 100.95 8.45 106.05 9.15 111.2 9.35 113.0 10.15 114.6 L21.15 113.55 22.1 114.0 24.4 144.3 Q25.2 154.85 27.05 165.35 30.3 183.5 34.8 201.45 37.45 211.9 40.45 222.15 41.7 226.25 43.5 229.95 L43.95 230.3 Q46.45 229.9 48.75 228.75 L51.25 227.1 77.55 211.95 Q79.95 210.8 78.95 208.55 75.15 201.4 71.9 194.4 L68.0 185.75 Q63.7 175.6 60.35 165.1 L58.6 159.55 Q56.8 153.2 55.35 146.8 54.7 144.2 54.2 141.6 51.2 126.1 50.9 110.4 50.85 109.0 52.15 108.6 L76.3 105.1 Q77.4 105.0 78.15 104.25 L78.55 103.5 80.95 80.8 Q81.05 79.3 79.5 79.05 L75.3 79.5 52.3 83.2 Q51.5 83.25 51.1 82.75 L50.75 81.95 Q50.3 71.5 50.9 61.0 51.0 59.45 51.65 58.25 52.95 56.05 55.4 55.45 65.5 52.25 75.9 50.6 87.85 48.8 99.9 48.8 101.8 48.8 103.1 49.75 L98.65 72.0 Q96.85 81.1 95.65 90.1 93.05 109.1 92.9 128.2 92.95 133.15 92.45 137.95 92.35 138.55 91.65 138.8 L87.8 139.2 83.9 139.6 Q82.3 139.95 82.65 141.75 L85.35 162.8 Q85.5 164.65 87.2 164.85 L92.5 164.1 Q93.1 164.35 93.25 164.7 94.8 169.4 95.55 174.4 97.05 186.0 99.25 197.55 L99.85 198.6 Q101.55 200.1 103.75 199.15 L120.7 195.75 Q123.1 195.45 122.5 193.0 L120.5 184.95 118.8 176.85 Q118.6 175.75 119.65 175.3 119.95 175.05 120.3 175.1 124.15 175.9 127.9 177.45 137.5 181.55 145.5 188.35 154.2 195.6 159.1 205.9 L159.85 207.25 Q160.95 209.15 163.0 208.05 166.2 206.35 169.35 204.8 170.1 204.4 170.7 205.1 L171.0 205.85 170.85 209.85 169.55 218.2 Q169.3 219.6 170.65 220.05 L171.8 220.0 Q172.9 219.45 174.15 219.2 L174.3 219.15 174.35 219.1 207.95 207.15 Q209.95 206.8 209.95 204.8 L209.5 187.4 208.55 163.5 208.5 159.8 Q208.15 157.6 209.25 156.15 209.75 155.35 210.7 155.65 L211.7 156.5 Q216.4 167.75 222.6 178.1 227.6 186.45 233.55 194.2 237.95 199.85 243.0 205.3 245.3 207.8 247.6 205.45 277.0 167.85 284.9 105.2 287.2 86.85 287.8 66.45 M115.0 130.95 Q115.65 111.65 118.6 92.7 120.55 80.6 123.05 68.5 123.35 67.1 124.8 67.1 L125.35 67.5 Q128.95 71.7 131.95 76.3 L137.85 85.75 Q143.65 95.85 145.6 107.35 146.9 117.05 142.55 123.95 136.25 134.6 117.0 138.75 L116.0 138.65 115.2 137.95 Q114.9 137.6 114.9 137.05 L115.0 130.95 M140.95 96.6 Q138.15 89.2 132.65 80.55 129.15 74.85 124.55 68.65 121.5 83.6 119.65 97.05 118.1 108.1 117.35 118.25 116.6 127.95 116.65 136.9 123.95 135.3 129.2 132.9 139.3 128.1 142.6 120.05 146.4 110.6 140.95 96.6" fill="#000000" fill-opacity="0.49803922" fill-rule="evenodd" stroke="none"/>
    <path d="M294.35 9.7 L299.95 16.0 300.25 19.8 294.65 13.5 294.35 9.7 M240.7 140.6 L237.95 131.65 Q235.95 124.35 234.7 116.85 231.45 98.75 232.2 79.35 L237.8 87.6 237.7 99.4 Q235.2 121.8 240.7 140.6 M232.7 71.4 L232.9 69.45 238.35 77.6 238.25 79.75 232.7 71.4 M231.85 65.2 L231.85 65.15 231.9 65.2 231.85 65.2 M223.55 62.4 L222.05 62.85 218.9 58.45 219.05 56.3 223.55 62.4 M218.9 49.75 L220.6 44.75 226.0 52.4 224.5 56.85 218.9 49.75 M221.5 40.3 Q222.5 34.3 221.6 28.2 L221.1 25.25 Q226.3 33.65 227.5 44.7 L227.1 47.7 221.5 40.3 M166.75 74.8 L166.85 78.0 Q162.6 69.15 157.0 61.15 L152.35 54.75 159.05 63.3 Q163.4 69.15 166.75 74.8 M123.95 19.7 L124.1 16.55 125.35 18.1 Q129.15 22.8 129.55 25.7 L123.95 19.7 M2.0 121.2 Q3.25 122.7 5.05 123.25 L5.15 123.3 9.85 130.15 Q8.25 129.35 7.25 128.0 L2.0 121.2 M6.85 123.65 L9.15 123.45 14.55 130.6 12.25 130.7 6.85 123.65 M41.8 240.9 L42.6 240.9 44.55 247.45 42.6 246.35 41.8 240.9 M44.2 240.7 L45.65 240.05 63.95 229.45 Q66.35 236.5 47.55 246.55 L44.2 240.7 M87.15 215.75 L87.75 215.0 93.95 221.25 92.65 223.0 87.15 215.75 M88.7 213.0 L89.0 211.8 93.95 215.4 94.5 217.05 88.7 213.0 M89.0 210.75 Q85.35 202.05 81.1 193.6 75.85 183.1 71.75 172.0 67.45 160.25 64.55 148.2 61.55 136.0 60.0 123.5 61.95 125.2 63.75 131.15 66.75 152.45 77.5 182.2 83.1 196.55 90.55 211.45 L89.0 210.75 M59.65 120.6 L59.55 118.6 62.9 122.75 63.05 124.9 59.65 120.6 M62.9 115.55 L73.8 114.0 Q79.3 114.6 81.05 116.3 L64.85 119.2 62.9 115.55 M78.75 171.45 L81.0 173.0 82.15 173.6 86.55 180.3 Q85.3 179.6 84.4 178.5 L78.75 171.45 M96.75 208.55 L99.1 208.65 99.65 208.6 105.2 215.7 102.65 215.75 96.75 208.55 M102.2 208.1 L126.55 203.2 Q128.4 202.85 129.9 201.5 132.15 203.85 128.85 207.55 123.6 211.55 109.3 214.9 105.2 212.55 102.2 208.1 M131.05 200.1 L131.9 198.2 137.65 203.2 137.6 204.05 Q137.5 205.35 137.0 206.45 L131.05 200.1 M132.05 195.4 L131.5 193.5 136.0 196.8 136.65 199.2 132.05 195.4 M166.85 230.25 L169.0 229.85 173.7 237.2 171.6 237.4 166.85 230.25 M171.9 228.85 L196.8 220.05 201.8 227.45 186.65 232.75 Q175.1 233.85 171.9 228.85 M209.2 215.65 L216.25 212.85 221.5 220.2 214.45 223.0 209.2 215.65 M217.65 211.2 Q219.1 209.3 218.95 206.95 L218.8 204.2 Q223.3 210.15 224.3 216.15 L223.3 218.3 217.65 211.2 M246.8 217.25 L248.75 216.55 254.1 223.8 252.05 224.4 246.8 217.25 M250.85 214.95 L252.15 213.2 258.0 220.0 256.45 221.95 250.85 214.95 M253.3 211.9 Q265.95 196.2 274.85 176.15 278.55 184.2 273.25 197.6 268.9 205.3 264.0 212.3 257.55 217.1 253.3 211.9 M275.65 174.35 L277.25 170.4 278.9 181.3 275.65 174.35 M279.5 164.75 L281.1 160.4 283.4 176.25 281.35 181.15 279.5 164.75 M284.0 151.4 Q289.45 133.15 292.5 112.2 L297.55 122.85 Q293.3 149.95 284.95 172.35 L284.0 151.4 M293.45 105.6 L293.8 102.6 299.05 112.2 298.65 115.3 293.45 105.6 M296.25 64.45 Q296.55 52.3 296.15 40.15 295.8 28.85 295.0 17.65 300.6 25.65 301.8 75.8 301.4 87.6 300.45 98.7 296.45 91.15 296.25 64.45 M158.8 157.3 L152.3 155.2 Q159.65 149.1 165.15 141.3 L167.1 138.45 167.0 143.25 Q161.5 149.4 158.8 157.3 M58.95 72.05 L59.05 69.15 64.7 72.4 58.95 72.05 M61.75 62.3 Q69.35 60.0 78.4 58.8 92.5 57.35 91.75 61.95 L91.4 63.3 Q70.55 67.1 64.0 66.1 L61.75 62.3 M127.5 90.1 L129.15 93.0 Q127.1 109.2 128.3 125.55 L123.55 127.75 Q124.25 114.2 126.0 100.8 L127.5 90.1 M71.15 235.7 L59.75 242.25 Q85.6 224.85 86.5 216.5 L87.95 218.8 Q87.5 225.6 71.15 235.7" fill="#8b1b1a" fill-rule="evenodd" stroke="none"/>
    <path d="M199.75 59.1 Q199.65 59.95 199.9 60.9 L200.55 62.8 200.65 63.15 Q206.55 70.45 205.95 74.45 L205.8 76.15 Q205.8 78.1 207.1 79.5 208.85 81.25 211.35 81.25 L214.2 81.0 Q219.65 79.95 219.6 90.8 219.6 100.95 220.8 111.15 221.9 120.45 223.9 129.5 225.35 135.9 227.3 142.25 232.0 157.25 239.15 171.15 L239.55 171.65 Q242.8 176.05 246.0 174.25 249.1 172.45 251.6 165.5 254.1 158.55 258.45 138.3 262.7 118.05 262.9 90.55 263.1 66.85 258.4 43.65 255.75 32.6 263.95 28.2 L273.2 23.4 Q282.7 19.25 283.15 31.15 285.25 69.05 280.8 106.85 279.15 121.3 275.9 135.5 271.2 156.0 262.55 175.2 L262.3 175.75 262.25 175.75 Q259.0 181.65 255.45 186.0 246.2 197.45 240.9 191.45 232.9 182.35 231.65 186.35 225.15 177.2 221.8 170.1 L215.9 158.05 Q214.5 155.5 212.0 153.55 209.5 151.75 207.6 154.1 205.7 156.5 205.3 167.1 205.0 174.95 205.35 188.25 204.6 196.55 199.35 202.95 195.2 208.0 188.65 209.85 L177.1 212.35 Q175.9 210.65 175.65 208.45 175.3 205.7 173.25 203.8 175.0 196.0 163.2 203.15 161.0 202.25 159.15 199.05 L157.6 196.85 Q150.3 187.0 139.6 180.8 131.45 175.95 122.5 173.25 117.9 171.85 116.75 174.35 115.6 176.85 115.55 179.75 115.5 182.65 116.25 187.45 L116.6 189.95 Q114.8 194.35 106.95 195.8 102.8 195.05 102.0 189.75 100.1 179.4 99.4 173.6 98.7 167.8 97.85 164.7 97.0 161.55 93.7 161.55 89.35 161.2 88.7 156.3 L88.25 152.65 Q87.6 145.8 92.0 145.45 94.45 145.15 96.0 143.3 96.75 142.35 96.85 141.2 97.5 134.75 97.45 128.25 97.55 118.3 98.35 108.45 99.2 97.8 100.85 87.35 102.4 77.15 104.55 67.05 105.5 62.75 106.9 58.55 108.25 54.45 107.05 50.55 106.75 49.5 106.1 48.7 114.9 44.15 101.8 43.05 79.25 41.9 62.2 51.15 57.45 52.35 52.85 53.9 50.3 54.7 48.5 56.5 47.25 57.8 47.2 59.6 46.4 70.55 46.25 81.45 46.45 86.2 48.3 87.5 50.1 88.85 53.85 88.6 L66.85 87.4 Q76.1 86.4 75.65 93.55 L75.6 96.8 75.55 96.95 Q73.7 100.25 70.45 101.15 65.35 102.55 56.9 101.95 51.45 101.7 49.6 102.85 45.05 105.55 47.2 119.5 48.3 140.95 54.3 161.7 60.35 181.9 69.25 200.85 71.8 205.4 71.4 208.9 L71.4 208.95 Q66.85 211.55 58.05 215.1 51.0 217.95 47.0 222.35 43.6 220.35 42.05 214.15 39.2 203.9 36.85 193.55 32.95 177.0 30.5 160.15 27.65 140.75 27.1 121.05 27.05 118.6 26.45 114.6 25.85 110.7 23.15 110.8 L16.85 111.15 Q13.2 111.45 13.4 105.0 L13.6 100.9 Q14.0 94.4 19.35 93.85 L22.35 93.45 Q24.9 93.15 26.5 91.25 27.15 90.5 27.25 89.35 28.7 69.5 31.75 49.8 34.15 37.7 48.6 33.1 L57.2 31.0 Q75.5 26.85 94.25 25.15 112.0 23.55 111.15 28.65 110.8 31.05 111.9 32.65 113.05 34.25 119.0 39.1 124.95 44.0 132.4 52.35 142.75 64.1 151.05 77.2 160.35 91.85 162.25 108.95 L162.5 114.85 Q162.45 117.25 162.0 119.45 160.35 128.9 154.7 136.75 151.5 141.15 147.4 144.85 141.95 149.85 135.8 153.95 L132.95 156.05 Q129.65 159.05 131.5 163.1 132.3 164.9 133.85 165.5 137.9 167.15 142.2 168.0 L150.5 170.25 Q160.5 173.2 169.2 179.15 172.35 181.3 175.7 179.45 177.8 178.35 178.4 176.25 179.15 173.55 179.3 170.8 180.55 145.2 180.5 119.6 L180.1 81.6 Q179.9 74.15 184.3 70.35 188.65 66.65 185.1 62.2 184.15 61.05 182.85 60.65 181.15 60.1 179.75 59.2 174.45 55.65 172.15 49.75 170.2 44.65 170.6 39.1 171.3 29.1 178.25 21.85 181.55 18.45 185.85 16.8 188.25 15.9 190.7 15.7 L194.45 15.9 Q197.15 16.2 199.4 17.65 209.8 24.5 209.4 37.25 209.3 40.5 208.5 43.6 204.85 48.45 199.8 50.05 190.3 52.95 197.0 57.45 L199.75 59.1 M144.2 131.55 L145.45 129.75 Q152.05 120.25 149.9 108.4 147.7 96.75 142.0 86.4 136.4 76.55 129.35 67.65 126.1 63.55 121.3 66.1 120.2 67.05 119.65 68.3 118.0 72.65 117.2 77.3 115.35 87.95 113.8 98.6 112.4 109.35 111.55 120.15 110.8 129.75 111.0 139.35 111.0 141.1 111.75 142.35 111.85 143.95 113.15 144.6 L116.0 145.05 Q128.4 144.45 138.65 137.05 141.8 134.75 144.2 131.55" fill="#23b15c" fill-opacity="0.49803922" fill-rule="evenodd" stroke="none"/>
    <path d="M214.6 12.05 L214.65 12.05 214.75 12.15 214.6 12.05" fill="#006600" fill-rule="evenodd" stroke="none"/>
    <path d="M287.8 66.45 Q287.2 86.85 284.9 105.2 277.0 167.85 247.6 205.45 245.3 207.8 243.0 205.3 237.95 199.85 233.55 194.2 L231.75 190.85 Q230.8 188.5 231.65 186.35 232.9 182.35 240.9 191.45 246.2 197.45 255.45 186.0 259.0 181.65 262.25 175.75 L262.3 175.75 262.55 175.2 Q279.65 143.55 287.8 66.45 M208.55 163.5 L209.5 187.4 209.95 204.8 Q209.95 206.8 207.95 207.15 L174.35 219.1 174.3 219.15 174.15 219.2 Q170.4 219.9 170.65 216.65 170.8 214.1 177.1 212.35 L188.65 209.85 Q195.2 208.0 199.35 202.95 204.6 196.55 205.35 188.25 207.6 175.85 208.35 163.5 L208.55 163.5 M170.85 209.85 L171.0 205.85 170.7 205.1 Q170.1 204.4 169.35 204.8 166.2 206.35 163.0 208.05 160.95 209.15 159.85 207.25 L159.1 205.9 163.2 203.15 Q175.0 196.0 173.25 203.8 172.7 206.05 170.85 209.85 M120.5 184.95 L122.5 193.0 Q123.1 195.45 120.7 195.75 L103.75 199.15 Q97.2 197.35 106.05 195.95 L106.95 195.8 Q114.8 194.35 116.6 189.95 L116.7 189.7 Q118.45 184.7 120.5 184.95 M103.1 49.75 Q101.8 48.8 99.9 48.8 87.85 48.8 75.9 50.6 65.5 52.25 55.4 55.45 58.7 53.1 62.2 51.15 79.25 41.9 101.8 43.05 114.9 44.15 106.1 48.7 L103.3 50.1 103.1 49.75 M80.95 80.8 L78.55 103.5 78.15 104.25 Q77.4 105.0 76.3 105.1 L52.15 108.6 Q50.85 109.0 50.9 110.4 51.2 126.1 54.2 141.6 54.7 144.2 55.35 146.8 56.8 153.2 58.6 159.55 49.45 133.7 47.2 119.5 45.05 105.55 49.6 102.85 51.45 101.7 56.9 101.95 65.35 102.55 70.45 101.15 73.7 100.25 75.55 96.95 L75.6 96.8 Q76.65 94.95 77.15 92.25 78.65 84.85 80.95 80.8 M68.0 185.75 L71.9 194.4 Q75.15 201.4 78.95 208.55 79.95 210.8 77.55 211.95 L51.25 227.1 Q40.8 230.7 45.0 224.7 L47.0 222.35 Q51.0 217.95 58.05 215.1 66.85 211.55 71.4 208.95 L71.4 208.9 Q75.45 207.2 72.3 201.35 69.1 195.5 68.0 185.75 M213.55 33.1 Q213.65 39.9 211.15 46.2 208.9 51.9 204.55 56.15 202.95 57.8 204.55 59.2 203.85 61.3 199.75 59.1 L197.0 57.45 Q190.3 52.95 199.8 50.05 204.85 48.45 208.5 43.6 211.6 39.55 213.55 33.1 M211.85 74.8 L221.85 71.95 Q224.25 71.2 223.95 75.0 222.55 97.5 226.35 118.45 L226.3 118.5 Q220.85 98.85 219.9 77.65 218.95 73.95 211.85 74.8 M211.75 40.55 L210.9 42.05 Q206.9 49.15 199.15 51.35 197.05 52.05 195.4 53.75 L196.4 55.25 Q199.05 58.0 202.7 59.0 202.3 56.95 203.75 55.4 210.1 49.3 211.75 40.55 M222.65 73.0 L218.35 74.2 Q219.4 74.65 220.1 75.65 220.5 76.0 220.5 76.55 L222.6 94.85 222.65 73.0 M207.9 179.4 Q207.1 186.9 205.2 194.25 203.6 200.7 198.85 205.25 193.15 210.75 185.15 211.9 L177.9 213.45 Q176.35 213.8 174.95 214.4 172.7 215.1 171.8 217.15 L172.1 217.95 174.3 217.85 207.6 206.1 207.9 205.95 208.7 205.6 Q209.2 205.15 209.2 204.5 L207.9 179.4 M233.0 190.7 Q234.9 194.6 237.8 197.85 L242.7 203.15 244.3 204.85 Q245.6 206.0 246.7 204.6 257.1 191.55 264.2 176.3 276.55 149.85 281.5 121.05 L283.65 106.0 Q281.2 122.05 277.25 137.8 274.35 149.6 270.25 161.0 267.2 169.2 263.1 176.6 258.65 185.05 251.75 191.65 249.05 194.1 245.5 194.65 242.3 194.8 240.15 192.2 237.5 188.95 234.0 186.75 L232.9 186.3 Q231.9 188.45 233.0 190.7 M103.75 48.55 Q106.45 47.65 108.5 45.55 L107.25 45.2 Q105.2 44.5 103.1 44.4 L97.5 44.2 Q79.45 43.8 63.2 51.95 82.1 47.55 101.5 47.6 102.9 47.6 103.75 48.55 M144.2 131.55 Q141.8 134.75 138.65 137.05 128.4 144.45 116.0 145.05 L113.15 144.6 Q111.85 143.95 111.75 142.35 110.85 132.8 115.0 130.95 L114.9 137.05 Q114.9 137.6 115.2 137.95 L116.0 138.65 117.0 138.75 Q136.25 134.6 142.55 123.95 146.9 117.05 145.6 107.35 151.05 121.05 144.2 131.55 M78.75 90.35 Q78.25 93.85 76.75 97.1 74.6 101.65 69.5 102.6 L55.6 103.15 Q52.85 102.85 50.3 103.8 47.65 106.35 47.7 110.05 47.9 121.4 51.2 132.35 L51.75 134.5 Q49.7 122.25 49.7 109.85 L50.0 109.0 Q50.7 107.65 52.0 107.55 L76.15 103.95 Q77.7 103.7 77.9 102.1 L78.15 98.8 78.75 90.35 M138.2 130.75 Q134.55 133.8 130.2 135.75 123.95 138.5 117.2 139.9 115.65 140.15 114.6 139.05 113.8 138.2 113.75 137.05 L113.8 133.75 Q112.15 138.15 113.05 142.8 113.15 143.45 113.85 143.65 116.35 144.05 118.8 143.7 130.2 142.25 139.35 135.0 143.1 132.0 145.1 127.45 147.4 122.05 146.7 116.15 145.2 125.0 138.2 130.75 M103.0 197.75 L103.75 197.95 120.45 194.6 121.45 194.3 Q120.9 190.35 119.6 186.5 L116.55 192.0 Q115.4 194.0 113.25 194.9 109.65 196.65 105.7 197.35 L103.0 197.75 M74.7 203.05 L71.1 195.4 Q72.5 199.35 74.3 203.2 75.15 204.95 74.65 206.95 L74.0 208.45 72.95 209.4 Q64.35 213.85 55.35 217.75 48.45 220.8 44.95 227.25 48.0 227.5 50.8 226.1 L77.0 210.9 Q77.65 210.9 77.9 210.3 L77.9 209.85 74.7 203.05 M162.4 207.0 L168.15 203.8 171.05 203.9 171.85 204.5 Q172.55 202.9 172.2 201.2 171.4 200.6 170.2 201.0 165.0 203.0 160.5 206.25 161.1 207.7 162.4 207.0" fill="#60df93" fill-opacity="0.4" fill-rule="evenodd" stroke="none"/>
    <path d="M211.75 40.55 Q210.1 49.3 203.75 55.4 202.3 56.95 202.7 59.0 199.05 58.0 196.4 55.25 L195.4 53.75 Q197.05 52.05 199.15 51.35 206.9 49.15 210.9 42.05 L211.75 40.55 M222.65 73.0 L222.6 94.85 220.5 76.55 Q220.5 76.0 220.1 75.65 219.4 74.65 218.35 74.2 L222.65 73.0 M207.9 179.4 L209.2 204.5 Q209.2 205.15 208.7 205.6 L207.9 205.95 207.6 206.1 174.3 217.85 172.1 217.95 171.8 217.15 Q172.7 215.1 174.95 214.4 176.35 213.8 177.9 213.45 L185.15 211.9 Q193.15 210.75 198.85 205.25 203.6 200.7 205.2 194.25 207.1 186.9 207.9 179.4 M233.0 190.7 Q231.9 188.45 232.9 186.3 L234.0 186.75 Q237.5 188.95 240.15 192.2 242.3 194.8 245.5 194.65 249.05 194.1 251.75 191.65 258.65 185.05 263.1 176.6 267.2 169.2 270.25 161.0 274.35 149.6 277.25 137.8 281.2 122.05 283.65 106.0 L281.5 121.05 Q276.55 149.85 264.2 176.3 257.1 191.55 246.7 204.6 245.6 206.0 244.3 204.85 L242.7 203.15 237.8 197.85 Q234.9 194.6 233.0 190.7 M103.75 48.55 Q102.9 47.6 101.5 47.6 82.1 47.55 63.2 51.95 79.45 43.8 97.5 44.2 L103.1 44.4 Q105.2 44.5 107.25 45.2 L108.5 45.55 Q106.45 47.65 103.75 48.55 M78.75 90.35 L78.15 98.8 77.9 102.1 Q77.7 103.7 76.15 103.95 L52.0 107.55 Q50.7 107.65 50.0 109.0 L49.7 109.85 Q49.7 122.25 51.75 134.5 L51.2 132.35 Q47.9 121.4 47.7 110.05 47.65 106.35 50.3 103.8 52.85 102.85 55.6 103.15 L69.5 102.6 Q74.6 101.65 76.75 97.1 78.25 93.85 78.75 90.35 M138.2 130.75 Q145.2 125.0 146.7 116.15 147.4 122.05 145.1 127.45 143.1 132.0 139.35 135.0 130.2 142.25 118.8 143.7 116.35 144.05 113.85 143.65 113.15 143.45 113.05 142.8 112.15 138.15 113.8 133.75 L113.75 137.05 Q113.8 138.2 114.6 139.05 115.65 140.15 117.2 139.9 123.95 138.5 130.2 135.75 134.55 133.8 138.2 130.75 M103.0 197.75 L105.7 197.35 Q109.65 196.65 113.25 194.9 115.4 194.0 116.55 192.0 L119.6 186.5 Q120.9 190.35 121.45 194.3 L120.45 194.6 103.75 197.95 103.0 197.75 M74.3 203.2 L74.7 203.05 77.9 209.85 77.9 210.3 Q77.65 210.9 77.0 210.9 L50.8 226.1 Q48.0 227.5 44.95 227.25 48.45 220.8 55.35 217.75 64.35 213.85 72.95 209.4 L74.0 208.45 74.65 206.95 Q75.15 204.95 74.3 203.2 M162.4 207.0 Q161.1 207.7 160.5 206.25 165.0 203.0 170.2 201.0 171.4 200.6 172.2 201.2 172.55 202.9 171.85 204.5 L171.05 203.9 168.15 203.8 162.4 207.0" fill="#60df93" fill-opacity="0.6" fill-rule="evenodd" stroke="none"/>
    <path d="M208.5 159.8 L208.55 163.5 208.35 163.5 208.5 159.8" fill="#1c8e55" fill-rule="evenodd" stroke="none"/>
    <path d="M74.7 203.05 L74.3 203.2 Q72.5 199.35 71.1 195.4 L74.7 203.05" fill="#60df93" fill-opacity="0.49803922" fill-rule="evenodd" stroke="none"/>
    <path d="M287.85 32.8 Q288.45 48.2 288.25 62.6 287.9 85.15 285.4 105.15 L283.95 115.2 Q270.35 119.15 256.35 122.5 258.45 107.75 258.8 93.4 259.05 83.15 258.45 73.05 257.15 51.75 252.0 31.4 251.15 27.95 253.7 26.5 L283.1 11.3 Q286.35 9.85 286.7 13.5 L286.7 14.05 287.85 32.8 M213.0 42.25 L212.95 42.25 Q210.9 50.2 204.95 56.1 L204.8 56.25 204.2 57.0 Q203.95 57.65 204.2 58.25 204.45 58.85 205.0 59.15 L206.25 59.3 208.6 58.7 Q211.1 57.9 210.75 61.05 L210.7 62.4 210.7 62.45 210.15 73.0 Q210.1 73.55 210.45 74.05 L211.25 74.7 212.35 74.75 222.25 71.9 Q224.7 71.15 224.4 74.9 223.05 97.45 226.8 118.4 227.65 123.45 228.9 128.45 203.2 133.35 176.3 136.4 L176.45 110.15 176.2 91.4 175.8 70.85 Q175.6 66.75 178.65 66.5 L181.55 65.75 182.45 65.15 182.85 64.15 182.55 63.1 181.7 62.45 Q179.55 61.7 177.65 60.5 L177.6 60.5 Q174.3 58.45 171.8 55.0 L171.75 55.0 Q166.1 47.55 166.6 37.5 L166.6 37.45 166.75 35.5 Q167.75 24.2 175.45 16.5 L175.5 16.5 Q179.75 12.2 184.7 10.45 L184.75 10.45 Q188.65 9.0 192.95 9.15 202.65 9.45 208.65 17.6 L208.7 17.6 Q210.65 20.2 211.9 23.15 214.55 29.3 213.85 36.95 L213.0 42.25 M165.95 120.55 L165.95 120.6 Q163.75 129.95 157.4 138.25 121.25 141.3 82.95 141.0 82.85 138.85 85.45 139.05 L91.55 138.85 Q92.25 138.85 92.75 138.3 93.25 137.8 93.2 137.15 L93.2 130.8 Q93.2 120.95 93.95 111.1 95.3 89.95 99.7 68.2 101.45 59.5 103.65 50.75 L103.55 49.75 Q103.35 49.2 102.95 48.95 102.5 48.6 101.95 48.6 99.85 48.55 97.8 48.65 L97.75 48.65 97.4 48.65 95.3 48.7 95.25 48.7 Q69.6 49.75 52.4 56.7 51.9 56.9 51.6 57.3 51.3 57.7 51.3 58.25 L50.7 79.25 50.7 81.45 Q50.7 81.95 51.05 82.35 L51.8 83.0 52.75 83.1 78.8 78.95 Q81.9 78.45 81.3 81.65 L81.15 82.65 80.45 89.3 80.4 89.25 Q79.8 95.4 79.6 101.6 79.35 104.7 76.75 104.95 L52.55 108.5 Q51.9 108.55 51.45 109.1 51.05 109.6 51.05 110.25 L51.4 117.9 51.4 117.95 Q51.85 124.1 52.7 130.35 53.4 135.3 54.4 140.3 L24.2 138.7 Q23.5 130.7 23.2 122.9 L23.0 114.75 22.75 113.85 22.0 113.25 21.0 113.1 11.15 114.6 Q9.4 114.8 9.2 112.75 8.8 104.95 9.25 97.5 L9.85 90.7 Q10.05 88.4 11.9 88.2 L22.15 86.85 Q22.8 86.8 23.25 86.35 L23.75 85.25 Q25.15 59.0 29.95 34.35 L29.95 34.2 Q30.4 32.1 32.3 31.25 70.6 18.35 113.8 17.65 116.1 17.5 115.85 20.45 L115.65 25.65 115.85 26.4 116.25 27.0 117.45 28.15 117.5 28.2 123.0 33.55 123.05 33.55 Q129.95 40.55 135.8 47.3 142.1 54.45 147.15 61.3 154.05 70.7 158.55 79.5 163.95 89.95 165.95 99.6 168.25 110.7 165.95 120.55 M134.6 79.75 Q131.0 74.0 126.35 67.75 125.95 67.2 125.25 67.1 124.55 66.95 124.0 67.35 123.4 67.75 123.25 68.4 120.2 83.45 118.35 96.9 116.8 108.05 116.05 118.2 115.3 128.1 115.3 137.0 115.3 137.5 115.65 137.95 L116.4 138.6 117.4 138.7 Q136.7 134.55 143.0 123.9 149.6 113.3 143.0 96.1 L143.0 96.05 Q140.1 88.55 134.6 79.75" fill="url(#gradient0)" fill-rule="evenodd" stroke="none"/>
    <path d="M286.35 14.05 L287.5 32.8 287.65 36.1 Q287.9 43.5 279.95 46.45 270.25 48.85 260.05 46.8 254.9 45.2 253.55 39.45 L251.65 31.35 Q250.8 27.9 253.35 26.45 L282.75 11.3 Q286.0 9.8 286.35 13.45 L286.35 14.05 M212.9 41.15 Q209.95 48.85 203.95 52.0 189.9 58.6 175.3 54.25 169.0 51.2 166.95 45.5 166.05 41.7 166.25 37.45 L166.4 35.45 Q167.4 24.15 175.1 16.5 L175.15 16.5 Q179.4 12.15 184.35 10.45 L184.4 10.45 Q188.3 8.95 192.6 9.1 202.3 9.4 208.3 17.55 L208.35 17.55 Q210.3 20.2 211.55 23.1 214.2 29.25 213.5 36.95 L212.9 41.15 M135.45 47.25 L137.75 49.9 Q142.0 54.7 135.2 57.65 122.2 61.9 107.3 60.7 101.1 60.25 102.3 54.65 L103.3 50.7 103.2 49.65 102.6 48.85 101.6 48.55 Q99.5 48.5 97.45 48.6 L97.4 48.6 97.05 48.6 94.95 48.7 94.9 48.7 Q69.25 49.75 52.05 56.65 L51.25 57.25 Q50.95 57.7 50.95 58.2 L50.8 62.35 Q50.3 67.5 46.1 69.8 38.55 73.05 30.05 72.55 24.35 71.4 24.8 66.65 26.5 50.15 29.6 34.3 L29.6 34.15 Q30.05 32.05 31.95 31.2 70.25 18.35 113.45 17.55 115.75 17.4 115.5 20.4 L115.3 25.6 115.5 26.3 115.9 26.9 117.1 28.05 117.15 28.1 122.65 33.45 122.7 33.45 Q129.6 40.5 135.45 47.25" fill="url(#gradient1)" fill-rule="evenodd" stroke="none"/>
    <path d="M325.2 29.15 Q322.05 31.15 318.4 31.15 L314.65 26.65 Q317.8 26.65 320.4 25.35 322.35 28.1 325.2 29.15 M315.35 30.8 Q311.3 29.85 308.65 26.65 L306.4 23.75 Q308.7 25.65 311.45 26.3 L315.35 30.8 M325.9 7.55 L328.7 11.25 Q331.5 15.2 330.85 20.1 L330.15 23.0 326.5 18.85 Q327.45 16.55 327.45 13.8 327.45 10.35 325.9 7.55" fill="#6b1414" fill-rule="evenodd" stroke="none"/>
    <path d="M330.15 23.0 Q328.95 26.25 326.05 28.5 L325.2 29.15 Q322.35 28.1 320.4 25.35 L323.7 22.9 Q325.55 21.05 326.5 18.85 L330.15 23.0 M318.4 31.15 L316.65 31.0 315.35 30.8 311.45 26.3 314.6 26.65 314.65 26.65 318.4 31.15" fill="#8b1b1a" fill-rule="evenodd" stroke="none"/>
    <path d="M306.4 23.75 L305.5 22.9 Q303.7 21.1 302.8 19.0 301.75 16.6 301.75 13.8 L301.75 13.35 Q301.9 8.3 305.5 4.7 309.25 0.95 314.6 0.95 L317.5 1.25 Q321.0 2.0 323.7 4.7 325.0 6.05 325.9 7.55 327.45 10.35 327.45 13.8 327.45 16.55 326.5 18.85 325.55 21.05 323.7 22.9 L320.4 25.35 Q317.8 26.65 314.65 26.65 L314.6 26.65 311.45 26.3 Q308.7 25.65 306.4 23.75 M315.9 2.45 L314.55 2.4 Q309.85 2.4 306.55 5.75 303.8 8.45 303.3 12.15 L303.2 13.8 Q303.2 18.45 306.55 21.8 309.85 25.15 314.55 25.15 319.3 25.15 322.65 21.8 325.95 18.45 325.95 13.8 325.95 9.05 322.65 5.75 319.75 2.85 315.9 2.45" fill="#b05236" fill-rule="evenodd" stroke="none"/>
    <path d="M315.9 2.45 Q319.75 2.85 322.65 5.75 325.95 9.05 325.95 13.8 325.95 18.45 322.65 21.8 319.3 25.15 314.55 25.15 309.85 25.15 306.55 21.8 303.2 18.45 303.2 13.8 L303.3 12.15 Q303.8 8.45 306.55 5.75 309.85 2.4 314.55 2.4 L315.9 2.45 M314.55 3.8 L314.2 3.8 Q310.3 3.9 307.55 6.7 305.7 8.5 305.05 10.85 304.65 12.2 304.65 13.75 304.65 17.85 307.55 20.75 310.45 23.65 314.55 23.65 318.7 23.65 321.6 20.75 324.5 17.85 324.5 13.75 324.5 9.6 321.6 6.7 318.7 3.8 314.55 3.8" fill="#f5973f" fill-rule="evenodd" stroke="none"/>
    <path d="M314.55 3.8 Q318.7 3.8 321.6 6.7 324.5 9.6 324.5 13.75 324.5 17.85 321.6 20.75 318.7 23.65 314.55 23.65 310.45 23.65 307.55 20.75 304.65 17.85 304.65 13.75 304.65 12.2 305.05 10.85 305.7 8.5 307.55 6.7 310.3 3.9 314.2 3.8 L314.55 3.8 M320.55 7.65 Q318.1 5.15 314.55 5.15 313.15 5.15 311.85 5.6 310.0 6.15 308.5 7.65 L307.4 9.0 Q306.0 11.1 306.0 13.7 306.0 17.25 308.5 19.75 311.0 22.25 314.55 22.25 318.1 22.25 320.55 19.75 323.1 17.25 323.1 13.7 323.1 10.15 320.55 7.65" fill="#fcbf17" fill-rule="evenodd" stroke="none"/>
    <path d="M317.2 9.45 Q316.35 8.65 315.0 8.65 L310.75 8.65 310.75 18.15 313.1 18.15 313.1 14.25 313.8 14.25 Q314.25 14.25 314.7 14.65 L315.65 16.35 316.45 18.15 319.05 18.15 317.8 15.45 Q317.15 14.0 316.45 13.7 318.1 12.95 318.1 11.35 318.1 10.25 317.2 9.45 M314.3 10.4 Q315.65 10.4 315.65 11.5 L315.35 12.25 314.35 12.55 313.1 12.55 313.1 10.4 314.3 10.4 M319.6 8.65 Q321.65 10.75 321.65 13.7 321.65 16.6 319.6 18.7 317.5 20.75 314.55 20.75 311.6 20.75 309.55 18.7 307.45 16.6 307.45 13.7 307.45 10.75 309.55 8.65 311.6 6.55 314.55 6.55 317.5 6.55 319.6 8.65" fill="#064226" fill-rule="evenodd" stroke="none"/>
    <path d="M314.3 10.4 L313.1 10.4 313.1 12.55 314.35 12.55 315.35 12.25 315.65 11.5 Q315.65 10.4 314.3 10.4 M317.2 9.45 Q318.1 10.25 318.1 11.35 318.1 12.95 316.45 13.7 317.15 14.0 317.8 15.45 L319.05 18.15 316.45 18.15 315.65 16.35 314.7 14.65 Q314.25 14.25 313.8 14.25 L313.1 14.25 313.1 18.15 310.75 18.15 310.75 8.65 315.0 8.65 Q316.35 8.65 317.2 9.45" fill="#2f875c" fill-rule="evenodd" stroke="none"/>
    <path d="M320.55 7.65 Q323.1 10.15 323.1 13.7 323.1 17.25 320.55 19.75 318.1 22.25 314.55 22.25 311.0 22.25 308.5 19.75 306.0 17.25 306.0 13.7 306.0 11.1 307.4 9.0 L308.5 7.65 Q310.0 6.15 311.85 5.6 313.15 5.15 314.55 5.15 318.1 5.15 320.55 7.65 M319.6 8.65 Q317.5 6.55 314.55 6.55 311.6 6.55 309.55 8.65 307.45 10.75 307.45 13.7 307.45 16.6 309.55 18.7 311.6 20.75 314.55 20.75 317.5 20.75 319.6 18.7 321.65 16.6 321.65 13.7 321.65 10.75 319.6 8.65" fill="#fef26c" fill-rule="evenodd" stroke="none"/>
  </g>
  <defs>
    <linearGradient gradientTransform="matrix(-0.0094, -0.1523, 0.1941, -0.0178, 143.5, -3.35)" gradientUnits="userSpaceOnUse" id="gradient0" spreadMethod="pad" x1="-819.2" x2="819.2">
      <stop offset="0.0" stop-color="#e1e1e1" stop-opacity="0.101960786"/>
      <stop offset="0.3176470588235294" stop-color="#e1e1e1" stop-opacity="0.0"/>
      <stop offset="0.6784313725490196" stop-color="#e1e1e1" stop-opacity="0.0"/>
      <stop offset="1.0" stop-color="#ffffff" stop-opacity="0.101960786"/>
    </linearGradient>
    <linearGradient gradientTransform="matrix(-0.0135, -0.1174, 0.1994, -0.0229, 153.95, -30.9)" gradientUnits="userSpaceOnUse" id="gradient1" spreadMethod="pad" x1="-819.2" x2="819.2">
      <stop offset="0.0" stop-color="#e1e1e1" stop-opacity="0.2"/>
      <stop offset="0.3176470588235294" stop-color="#e1e1e1" stop-opacity="0.0"/>
      <stop offset="0.6784313725490196" stop-color="#e1e1e1" stop-opacity="0.0"/>
      <stop offset="1.0" stop-color="#ffffff" stop-opacity="0.101960786"/>
    </linearGradient>
  </defs>
</svg>
