<?xml version="1.0" encoding="UTF-8" standalone="no"?>
<svg xmlns:ffdec="https://www.free-decompiler.com/flash" xmlns:xlink="http://www.w3.org/1999/xlink" ffdec:objectType="shape" height="35.0px" width="38.8px" xmlns="http://www.w3.org/2000/svg">
  <g transform="matrix(1.0, 0.0, 0.0, 1.0, -3.85, -4.75)">
    <path d="M18.75 15.25 L17.95 15.05 17.4 14.4 16.55 12.65 15.7 14.4 15.3 14.9 14.7 15.2 13.3 15.55 14.7 16.55 15.2 17.2 15.3 18.05 14.95 19.65 16.05 18.9 Q16.35 18.65 16.8 18.65 L17.55 18.85 18.95 19.55 18.55 18.0 18.55 17.25 Q18.65 16.85 18.9 16.6 L20.15 15.25 18.75 15.25 M34.15 22.55 Q34.15 19.25 32.55 16.65 L32.55 17.65 Q32.55 23.55 28.35 27.7 L28.3 27.75 Q24.15 31.95 18.2 31.95 L16.4 31.85 Q19.2 33.85 22.8 33.85 27.5 33.85 30.8 30.5 34.15 27.2 34.15 22.55 M24.65 14.8 L21.65 18.05 22.65 22.1 22.5 23.2 Q22.2 23.75 21.65 23.9 L20.5 23.8 16.95 21.9 13.5 24.25 12.35 24.5 11.4 23.85 Q11.05 23.3 11.2 22.7 L12.15 18.4 8.9 16.1 Q8.4 15.7 8.3 15.15 8.15 14.55 8.5 14.05 8.8 13.55 9.4 13.4 L13.35 12.5 15.15 8.65 Q15.4 8.1 15.95 7.85 16.5 7.65 17.05 7.85 17.6 8.05 17.85 8.6 L19.7 12.25 23.55 12.25 Q24.15 12.25 24.6 12.7 25.05 13.1 25.05 13.75 25.05 14.35 24.65 14.8 M29.4 10.1 L30.35 10.35 32.95 12.45 32.9 12.4 Q37.15 16.55 37.15 22.55 37.15 28.45 32.95 32.6 L32.9 32.65 Q28.75 36.85 22.8 36.85 16.9 36.85 12.7 32.65 L12.7 32.6 Q11.1 31.1 10.2 29.25 9.95 28.75 10.05 28.3 10.1 27.8 10.5 27.45 10.85 27.1 11.4 27.05 11.9 27.0 12.3 27.3 14.9 28.95 18.2 28.95 22.9 28.95 26.2 25.6 29.55 22.3 29.55 17.65 29.55 14.7 28.25 12.35 28.0 11.9 28.1 11.4 28.15 10.9 28.5 10.55 28.85 10.15 29.4 10.1" fill="#ffffff" fill-rule="evenodd" stroke="none"/>
    <path d="M4.35 37.25 L42.15 37.25 M4.35 39.25 L42.15 39.25 M4.35 21.25 L42.15 21.25 M4.35 23.25 L42.15 23.25 M4.35 27.25 L42.15 27.25 M4.35 25.25 L42.15 25.25 M4.35 33.25 L42.15 33.25 M4.35 35.25 L42.15 35.25 M4.35 31.25 L42.15 31.25 M4.35 29.25 L42.15 29.25 M4.35 13.25 L42.15 13.25 M4.35 15.25 L42.15 15.25 M4.35 19.25 L42.15 19.25 M4.35 17.25 L42.15 17.25 M4.35 9.25 L42.15 9.25 M4.35 11.25 L42.15 11.25 M4.35 7.25 L42.15 7.25 M4.35 5.25 L42.15 5.25" fill="none" stroke="#000000" stroke-linecap="round" stroke-linejoin="round" stroke-opacity="0.3019608" stroke-width="1.0"/>
  </g>
</svg>
