<?xml version="1.0" encoding="UTF-8" standalone="no"?>
<svg xmlns:ffdec="https://www.free-decompiler.com/flash" xmlns:xlink="http://www.w3.org/1999/xlink" ffdec:objectType="shape" height="34.0px" width="33.0px" xmlns="http://www.w3.org/2000/svg">
  <g transform="matrix(1.0, 0.0, 0.0, 1.0, 0.0, 0.0)">
    <path d="M0.0 34.0 L0.0 0.0 33.0 0.0 33.0 34.0 0.0 34.0" fill="#cc6600" fill-rule="evenodd" stroke="none"/>
    <path d="M26.25 15.35 Q26.2 12.8 23.65 11.0 20.8 8.9 16.75 8.9 12.7 8.9 9.9 11.0 7.3 12.8 7.25 15.35 7.3 17.85 9.7 19.65 L10.2 20.3 10.25 21.15 9.3 24.25 13.15 21.75 14.2 21.55 16.75 21.75 Q20.8 21.75 23.65 19.75 26.2 17.95 26.25 15.35 M29.1 15.35 Q29.1 19.3 25.3 22.05 21.75 24.6 16.75 24.6 L14.25 24.45 7.6 28.7 6.8 28.9 Q6.35 28.9 6.0 28.6 L5.5 27.9 Q5.35 27.45 5.5 27.05 L7.25 21.3 Q4.4 18.8 4.45 15.35 4.4 11.45 8.25 8.7 11.75 6.1 16.75 6.1 21.75 6.1 25.3 8.7 29.1 11.45 29.1 15.35 M21.45 17.3 Q20.65 17.3 20.05 16.7 19.5 16.1 19.5 15.35 19.5 14.5 20.05 13.95 20.65 13.4 21.45 13.4 22.25 13.4 22.85 13.95 23.4 14.5 23.4 15.35 23.4 16.1 22.85 16.7 22.25 17.3 21.45 17.3 M16.8 17.3 Q16.0 17.3 15.4 16.7 14.85 16.1 14.85 15.35 14.85 14.5 15.4 13.95 16.0 13.4 16.8 13.4 17.6 13.4 18.2 13.95 18.75 14.5 18.75 15.35 18.75 16.1 18.2 16.7 17.6 17.3 16.8 17.3 M12.15 17.3 Q11.35 17.3 10.75 16.7 10.2 16.1 10.2 15.35 10.2 14.5 10.75 13.95 11.35 13.4 12.15 13.4 12.9 13.4 13.5 13.95 14.1 14.5 14.1 15.35 14.1 16.1 13.5 16.7 12.9 17.3 12.15 17.3" fill="#ffffff" fill-rule="evenodd" stroke="none"/>
  </g>
</svg>
