<?xml version="1.0" encoding="UTF-8" standalone="no"?>
<svg xmlns:ffdec="https://www.free-decompiler.com/flash" xmlns:xlink="http://www.w3.org/1999/xlink" ffdec:objectType="shape" height="200.0px" width="200.0px" xmlns="http://www.w3.org/2000/svg">
  <g transform="matrix(1.0, 0.0, 0.0, 1.0, 105.45, 106.75)">
    <path d="M-5.45 -11.75 Q-3.4 -11.75 -1.95 -10.3 -0.45 -8.85 -0.45 -6.75 -0.45 -4.7 -1.95 -3.25 -3.4 -1.75 -5.45 -1.75 -7.55 -1.75 -9.0 -3.25 -10.45 -4.7 -10.45 -6.75 -10.45 -8.85 -9.0 -10.3 -7.55 -11.75 -5.45 -11.75" fill="#ffffff" fill-opacity="0.8" fill-rule="evenodd" stroke="none"/>
    <path d="M24.55 -6.75 Q24.55 5.65 15.75 14.5 7.0 23.25 -5.4 23.25 -17.9 23.25 -26.65 14.5 -35.45 5.65 -35.45 -6.75 -35.45 -19.15 -26.65 -28.0 -17.9 -36.75 -5.4 -36.75 7.0 -36.75 15.75 -28.0 24.55 -19.15 24.55 -6.75 M19.55 -6.75 Q19.55 -17.15 12.2 -24.5 4.9 -31.75 -5.45 -31.75 -15.85 -31.75 -23.15 -24.5 -30.45 -17.15 -30.45 -6.75 -30.45 3.55 -23.15 10.9 -15.85 18.25 -5.45 18.25 4.9 18.25 12.2 10.9 19.55 3.55 19.55 -6.75" fill="#ffffff" fill-opacity="0.6" fill-rule="evenodd" stroke="none"/>
    <path d="M49.55 -6.75 Q49.55 16.0 33.5 32.15 17.4 48.25 -5.45 48.25 -28.2 48.25 -44.35 32.15 -60.45 16.0 -60.45 -6.75 -60.45 -29.5 -44.35 -45.65 -28.2 -61.75 -5.45 -61.75 17.4 -61.75 33.5 -45.65 49.55 -29.5 49.55 -6.75 M44.55 -6.75 Q44.55 -27.45 29.95 -42.1 15.3 -56.75 -5.45 -56.75 -26.15 -56.75 -40.8 -42.1 -55.45 -27.45 -55.45 -6.75 -55.45 13.95 -40.8 28.6 -26.15 43.25 -5.45 43.25 15.3 43.25 29.95 28.6 44.55 13.95 44.55 -6.75" fill="#ffffff" fill-opacity="0.4" fill-rule="evenodd" stroke="none"/>
    <path d="M74.55 -6.75 Q74.55 26.3 51.15 49.75 27.7 73.25 -5.45 73.25 -38.6 73.25 -62.05 49.75 -85.45 26.3 -85.45 -6.75 -85.45 -39.9 -62.05 -63.35 -38.6 -86.75 -5.45 -86.75 27.7 -86.75 51.15 -63.35 74.55 -39.9 74.55 -6.75 M69.55 -6.75 Q69.55 -37.8 47.65 -59.8 25.65 -81.75 -5.45 -81.75 -36.5 -81.75 -58.5 -59.8 -80.45 -37.8 -80.45 -6.75 -80.45 24.25 -58.5 46.25 -36.5 68.25 -5.45 68.25 25.65 68.25 47.65 46.25 69.55 24.25 69.55 -6.75" fill="#ffffff" fill-opacity="0.2" fill-rule="evenodd" stroke="none"/>
    <path d="M79.55 -6.75 Q79.55 -42.0 54.65 -66.9 29.75 -91.75 -5.45 -91.75 -40.7 -91.75 -65.6 -66.9 -90.45 -42.0 -90.45 -6.75 -90.45 28.35 -65.6 53.25 -40.7 78.25 -5.45 78.25 29.75 78.25 54.65 53.25 79.55 28.35 79.55 -6.75 M84.55 -6.75 Q84.55 30.4 58.2 56.75 31.8 83.25 -5.45 83.25 -42.8 83.25 -69.15 56.75 -95.45 30.4 -95.45 -6.75 -95.45 -44.1 -69.15 -70.45 -42.8 -96.75 -5.45 -96.75 31.8 -96.75 58.2 -70.45 84.55 -44.1 84.55 -6.75" fill="#ffffff" fill-opacity="0.12156863" fill-rule="evenodd" stroke="none"/>
    <path d="M69.55 -6.75 Q69.55 24.25 47.65 46.25 25.65 68.25 -5.45 68.25 -36.5 68.25 -58.5 46.25 -80.45 24.25 -80.45 -6.75 -80.45 -37.8 -58.5 -59.8 -36.5 -81.75 -5.45 -81.75 25.65 -81.75 47.65 -59.8 69.55 -37.8 69.55 -6.75 M64.55 -6.75 Q64.55 -35.75 44.1 -56.25 23.6 -76.75 -5.45 -76.75 -34.45 -76.75 -54.95 -56.25 -75.45 -35.75 -75.45 -6.75 -75.45 22.25 -54.95 42.75 -34.45 63.25 -5.45 63.25 23.6 63.25 44.1 42.75 64.55 22.25 64.55 -6.75" fill="#ffffff" fill-opacity="0.23921569" fill-rule="evenodd" stroke="none"/>
    <path d="M54.55 -6.75 Q54.55 18.1 37.05 35.65 19.45 53.25 -5.45 53.25 -30.3 53.25 -47.85 35.65 -65.45 18.1 -65.45 -6.75 -65.45 -31.6 -47.85 -49.15 -30.3 -66.75 -5.45 -66.75 19.45 -66.75 37.05 -49.15 54.55 -31.6 54.55 -6.75 M49.55 -6.75 Q49.55 -29.5 33.5 -45.65 17.4 -61.75 -5.45 -61.75 -28.2 -61.75 -44.35 -45.65 -60.45 -29.5 -60.45 -6.75 -60.45 16.0 -44.35 32.15 -28.2 48.25 -5.45 48.25 17.4 48.25 33.5 32.15 49.55 16.0 49.55 -6.75" fill="#ffffff" fill-opacity="0.36078432" fill-rule="evenodd" stroke="none"/>
    <path d="M34.55 -6.75 Q34.55 -23.35 22.8 -35.1 11.1 -46.75 -5.45 -46.75 -22.05 -46.75 -33.75 -35.1 -45.45 -23.35 -45.45 -6.75 -45.45 9.75 -33.75 21.5 -22.05 33.25 -5.45 33.25 11.1 33.25 22.8 21.5 34.55 9.75 34.55 -6.75 M39.6 -6.75 Q39.6 11.85 26.4 25.05 13.25 38.25 -5.4 38.25 -24.05 38.25 -37.25 25.05 -50.4 11.85 -50.4 -6.75 -50.4 -25.4 -37.25 -38.6 -24.05 -51.75 -5.4 -51.75 13.25 -51.75 26.4 -38.6 39.6 -25.4 39.6 -6.75" fill="#ffffff" fill-opacity="0.47843137" fill-rule="evenodd" stroke="none"/>
    <path d="M89.55 -6.75 Q89.55 -46.2 61.7 -74.0 33.85 -101.75 -5.45 -101.75 -44.9 -101.75 -72.7 -74.0 -100.45 -46.2 -100.45 -6.75 -100.45 32.45 -72.7 60.25 -44.9 88.25 -5.45 88.25 33.85 88.25 61.7 60.25 89.55 32.45 89.55 -6.75 M94.55 -6.75 Q94.55 34.5 65.2 63.75 35.9 93.25 -5.45 93.25 -47.0 93.25 -76.25 63.75 -105.45 34.5 -105.45 -6.75 -105.45 -48.3 -76.25 -77.55 -47.0 -106.75 -5.45 -106.75 35.9 -106.75 65.2 -77.55 94.55 -48.3 94.55 -6.75" fill="#ffffff" fill-opacity="0.039215688" fill-rule="evenodd" stroke="none"/>
    <path d="M89.55 -6.75 Q89.55 32.45 61.7 60.25 33.85 88.25 -5.45 88.25 -44.9 88.25 -72.7 60.25 -100.45 32.45 -100.45 -6.75 -100.45 -46.2 -72.7 -74.0 -44.9 -101.75 -5.45 -101.75 33.85 -101.75 61.7 -74.0 89.55 -46.2 89.55 -6.75 M84.55 -6.75 Q84.55 -44.1 58.2 -70.45 31.8 -96.75 -5.45 -96.75 -42.8 -96.75 -69.15 -70.45 -95.45 -44.1 -95.45 -6.75 -95.45 30.4 -69.15 56.75 -42.8 83.25 -5.45 83.25 31.8 83.25 58.2 56.75 84.55 30.4 84.55 -6.75" fill="#ffffff" fill-opacity="0.078431375" fill-rule="evenodd" stroke="none"/>
    <path d="M79.55 -6.75 Q79.55 28.35 54.65 53.25 29.75 78.25 -5.45 78.25 -40.7 78.25 -65.6 53.25 -90.45 28.35 -90.45 -6.75 -90.45 -42.0 -65.6 -66.9 -40.7 -91.75 -5.45 -91.75 29.75 -91.75 54.65 -66.9 79.55 -42.0 79.55 -6.75 M74.55 -6.75 Q74.55 -39.9 51.15 -63.35 27.7 -86.75 -5.45 -86.75 -38.6 -86.75 -62.05 -63.35 -85.45 -39.9 -85.45 -6.75 -85.45 26.3 -62.05 49.75 -38.6 73.25 -5.45 73.25 27.7 73.25 51.15 49.75 74.55 26.3 74.55 -6.75" fill="#ffffff" fill-opacity="0.16078432" fill-rule="evenodd" stroke="none"/>
    <path d="M64.55 -6.75 Q64.55 22.25 44.1 42.75 23.6 63.25 -5.45 63.25 -34.45 63.25 -54.95 42.75 -75.45 22.25 -75.45 -6.75 -75.45 -35.75 -54.95 -56.25 -34.45 -76.75 -5.45 -76.75 23.6 -76.75 44.1 -56.25 64.55 -35.75 64.55 -6.75 M59.55 -6.75 Q59.55 -33.65 40.55 -52.7 21.55 -71.75 -5.45 -71.75 -32.35 -71.75 -51.4 -52.7 -70.45 -33.65 -70.45 -6.75 -70.45 20.15 -51.4 39.2 -32.35 58.25 -5.45 58.25 21.55 58.25 40.55 39.2 59.55 20.15 59.55 -6.75" fill="#ffffff" fill-opacity="0.2784314" fill-rule="evenodd" stroke="none"/>
    <path d="M59.55 -6.75 Q59.55 20.15 40.55 39.2 21.55 58.25 -5.45 58.25 -32.35 58.25 -51.4 39.2 -70.45 20.15 -70.45 -6.75 -70.45 -33.65 -51.4 -52.7 -32.35 -71.75 -5.45 -71.75 21.55 -71.75 40.55 -52.7 59.55 -33.65 59.55 -6.75 M54.55 -6.75 Q54.55 -31.6 37.05 -49.15 19.45 -66.75 -5.45 -66.75 -30.3 -66.75 -47.85 -49.15 -65.45 -31.6 -65.45 -6.75 -65.45 18.1 -47.85 35.65 -30.3 53.25 -5.45 53.25 19.45 53.25 37.05 35.65 54.55 18.1 54.55 -6.75" fill="#ffffff" fill-opacity="0.32156864" fill-rule="evenodd" stroke="none"/>
    <path d="M39.6 -6.75 Q39.6 -25.4 26.4 -38.6 13.25 -51.75 -5.4 -51.75 -24.05 -51.75 -37.25 -38.6 -50.4 -25.4 -50.4 -6.75 -50.4 11.85 -37.25 25.05 -24.05 38.25 -5.4 38.25 13.25 38.25 26.4 25.05 39.6 11.85 39.6 -6.75 M44.55 -6.75 Q44.55 13.95 29.95 28.6 15.3 43.25 -5.45 43.25 -26.15 43.25 -40.8 28.6 -55.45 13.95 -55.45 -6.75 -55.45 -27.45 -40.8 -42.1 -26.15 -56.75 -5.45 -56.75 15.3 -56.75 29.95 -42.1 44.55 -27.45 44.55 -6.75" fill="#ffffff" fill-opacity="0.4392157" fill-rule="evenodd" stroke="none"/>
    <path d="M29.55 -6.75 Q29.55 -21.25 19.25 -31.55 9.05 -41.75 -5.45 -41.75 -20.0 -41.75 -30.2 -31.55 -40.45 -21.25 -40.45 -6.75 -40.45 7.7 -30.2 18.0 -20.0 28.25 -5.45 28.25 9.05 28.25 19.25 18.0 29.55 7.7 29.55 -6.75 M34.55 -6.75 Q34.55 9.75 22.8 21.5 11.1 33.25 -5.45 33.25 -22.05 33.25 -33.75 21.5 -45.45 9.75 -45.45 -6.75 -45.45 -23.35 -33.75 -35.1 -22.05 -46.75 -5.45 -46.75 11.1 -46.75 22.8 -35.1 34.55 -23.35 34.55 -6.75" fill="#ffffff" fill-opacity="0.52156866" fill-rule="evenodd" stroke="none"/>
    <path d="M29.55 -6.75 Q29.55 7.7 19.25 18.0 9.05 28.25 -5.45 28.25 -20.0 28.25 -30.2 18.0 -40.45 7.7 -40.45 -6.75 -40.45 -21.25 -30.2 -31.55 -20.0 -41.75 -5.45 -41.75 9.05 -41.75 19.25 -31.55 29.55 -21.25 29.55 -6.75 M24.55 -6.75 Q24.55 -19.15 15.75 -28.0 7.0 -36.75 -5.4 -36.75 -17.9 -36.75 -26.65 -28.0 -35.45 -19.15 -35.45 -6.75 -35.45 5.65 -26.65 14.5 -17.9 23.25 -5.4 23.25 7.0 23.25 15.75 14.5 24.55 5.65 24.55 -6.75" fill="#ffffff" fill-opacity="0.56078434" fill-rule="evenodd" stroke="none"/>
    <path d="M19.55 -6.75 Q19.55 3.55 12.2 10.9 4.9 18.25 -5.45 18.25 -15.85 18.25 -23.15 10.9 -30.45 3.55 -30.45 -6.75 -30.45 -17.15 -23.15 -24.5 -15.85 -31.75 -5.45 -31.75 4.9 -31.75 12.2 -24.5 19.55 -17.15 19.55 -6.75 M14.55 -6.75 Q14.55 -15.05 8.65 -20.95 2.85 -26.75 -5.45 -26.75 -13.75 -26.75 -19.6 -20.95 -25.45 -15.05 -25.45 -6.75 -25.45 1.5 -19.6 7.4 -13.75 13.25 -5.45 13.25 2.85 13.25 8.65 7.4 14.55 1.5 14.55 -6.75" fill="#ffffff" fill-opacity="0.6392157" fill-rule="evenodd" stroke="none"/>
    <path d="M14.55 -6.75 Q14.55 1.5 8.65 7.4 2.85 13.25 -5.45 13.25 -13.75 13.25 -19.6 7.4 -25.45 1.5 -25.45 -6.75 -25.45 -15.05 -19.6 -20.95 -13.75 -26.75 -5.45 -26.75 2.85 -26.75 8.65 -20.95 14.55 -15.05 14.55 -6.75 M9.55 -6.75 Q9.55 -12.95 5.15 -17.35 0.8 -21.75 -5.45 -21.75 -11.65 -21.75 -16.05 -17.35 -20.45 -12.95 -20.45 -6.75 -20.45 -0.55 -16.05 3.85 -11.65 8.25 -5.45 8.25 0.8 8.25 5.15 3.85 9.55 -0.55 9.55 -6.75" fill="#ffffff" fill-opacity="0.6784314" fill-rule="evenodd" stroke="none"/>
    <path d="M9.55 -6.75 Q9.55 -0.55 5.15 3.85 0.8 8.25 -5.45 8.25 -11.65 8.25 -16.05 3.85 -20.45 -0.55 -20.45 -6.75 -20.45 -12.95 -16.05 -17.35 -11.65 -21.75 -5.45 -21.75 0.8 -21.75 5.15 -17.35 9.55 -12.95 9.55 -6.75 M4.55 -6.75 Q4.55 -10.85 1.65 -13.8 -1.3 -16.75 -5.4 -16.75 -9.55 -16.75 -12.5 -13.8 -15.45 -10.85 -15.45 -6.75 -15.45 -2.6 -12.5 0.35 -9.55 3.25 -5.4 3.25 -1.3 3.25 1.65 0.35 4.55 -2.6 4.55 -6.75" fill="#ffffff" fill-opacity="0.72156864" fill-rule="evenodd" stroke="none"/>
    <path d="M4.55 -6.75 Q4.55 -2.6 1.65 0.35 -1.3 3.25 -5.4 3.25 -9.55 3.25 -12.5 0.35 -15.45 -2.6 -15.45 -6.75 -15.45 -10.85 -12.5 -13.8 -9.55 -16.75 -5.4 -16.75 -1.3 -16.75 1.65 -13.8 4.55 -10.85 4.55 -6.75 M-5.45 -11.75 Q-7.55 -11.75 -9.0 -10.3 -10.45 -8.85 -10.45 -6.75 -10.45 -4.7 -9.0 -3.25 -7.55 -1.75 -5.45 -1.75 -3.4 -1.75 -1.95 -3.25 -0.45 -4.7 -0.45 -6.75 -0.45 -8.85 -1.95 -10.3 -3.4 -11.75 -5.45 -11.75" fill="#ffffff" fill-opacity="0.7607843" fill-rule="evenodd" stroke="none"/>
  </g>
</svg>
