<?xml version="1.0" encoding="UTF-8" standalone="no"?>
<svg xmlns:ffdec="https://www.free-decompiler.com/flash" xmlns:xlink="http://www.w3.org/1999/xlink" ffdec:objectType="shape" height="154.25px" width="454.65px" xmlns="http://www.w3.org/2000/svg">
  <g transform="matrix(1.0, 0.0, 0.0, 1.0, 1.25, 0.45)">
    <path d="M426.8 108.65 Q429.15 105.85 429.05 102.55 429.05 99.05 427.1 97.2 426.05 95.85 423.45 94.65 423.3 92.2 423.3 84.45 L423.3 67.9 Q423.4 61.85 424.0 53.6 L424.0 53.55 424.5 45.9 Q424.5 35.6 415.4 35.9 L406.85 36.95 Q401.1 37.85 397.5 38.95 L397.4 39.05 Q391.3 40.9 388.5 43.25 L388.4 43.25 Q384.2 46.65 384.25 51.45 L384.45 53.55 Q384.8 55.4 385.9 56.9 L386.0 57.05 385.9 56.85 Q387.0 58.8 390.15 60.55 391.1 61.15 391.3 62.5 L391.35 62.5 Q391.85 65.45 391.85 76.35 L391.85 77.25 Q391.8 87.95 391.15 93.75 391.1 94.3 391.75 94.15 L390.0 95.1 Q389.6 88.6 386.35 82.7 384.7 79.7 382.55 77.25 380.1 74.45 377.05 72.3 L377.0 72.3 Q368.95 66.8 358.45 66.8 343.75 66.8 333.45 75.7 L331.7 77.25 329.15 80.1 328.85 77.25 Q328.05 72.45 325.6 67.9 322.05 61.6 316.3 57.55 L316.25 57.55 Q312.45 54.9 308.05 53.55 303.2 52.05 297.7 52.05 291.65 52.05 286.4 53.55 278.75 55.7 272.65 60.95 264.75 67.65 262.85 77.25 262.45 79.1 262.3 81.1 261.25 78.95 259.75 77.25 L259.3 76.8 Q253.25 70.4 243.25 70.4 236.45 70.4 231.6 74.0 L232.0 60.3 Q232.1 56.45 229.8 54.6 L228.55 53.55 Q226.8 52.5 224.1 52.5 220.5 52.5 215.3 53.55 L208.2 55.25 Q202.5 56.8 199.5 58.35 198.75 55.8 197.05 53.55 195.0 50.75 191.5 48.45 L191.5 48.35 Q183.65 43.2 173.35 43.2 159.95 43.2 150.55 51.4 L148.25 53.55 Q142.7 59.25 141.05 66.65 L139.7 64.8 139.75 64.85 Q135.4 59.4 130.85 59.75 129.2 59.75 127.7 60.4 L127.5 60.4 125.75 61.0 124.6 60.95 116.0 59.75 Q104.8 59.75 98.25 67.6 95.75 70.45 94.55 74.0 93.15 67.85 87.55 68.45 L87.45 68.45 87.45 30.6 Q87.45 25.05 84.8 22.35 L84.75 22.3 Q82.15 18.95 76.5 18.95 72.85 18.95 68.55 20.4 L68.55 20.35 Q64.45 21.6 61.65 23.55 60.45 24.2 59.15 25.35 L59.1 25.5 Q44.0 39.55 33.0 53.55 25.6 62.95 20.1 72.3 L19.95 72.65 19.0 74.7 Q18.35 75.7 17.9 77.25 17.15 80.05 17.15 84.65 17.15 91.3 20.35 94.25 L20.45 94.35 Q23.25 97.55 29.95 97.55 L51.4 97.55 51.4 102.55 Q51.4 107.35 53.35 109.2 L53.45 109.25 Q55.05 111.65 60.15 111.65 L80.1 111.65 80.25 111.65 Q84.65 111.45 86.7 109.1 89.05 106.9 88.8 102.55 L88.8 97.55 Q90.75 97.05 92.1 95.95 91.5 97.8 91.5 100.35 91.45 104.1 93.7 109.05 L93.8 109.1 Q95.9 114.1 98.55 116.45 L98.65 116.55 Q101.3 119.0 105.75 119.0 L108.65 118.8 108.8 118.75 108.65 118.75 109.2 118.65 113.8 119.15 121.4 119.75 Q130.55 119.75 137.5 113.75 145.0 108.65 145.0 99.4 145.0 91.9 139.85 86.75 L139.35 86.2 141.8 84.55 141.9 84.45 142.15 84.1 Q144.85 91.05 151.25 96.3 L151.35 96.3 Q159.6 103.2 171.6 103.2 181.7 103.2 189.2 98.65 L189.3 98.65 Q193.2 96.2 195.45 92.9 L195.4 93.0 195.5 92.9 Q198.25 89.05 198.2 85.4 198.2 81.45 195.7 78.45 L194.6 77.25 Q193.5 76.25 192.2 75.7 L195.8 72.6 Q197.15 74.1 199.7 75.4 L199.85 77.25 200.1 88.95 Q200.1 101.75 199.5 107.15 199.1 110.3 198.5 111.45 196.3 112.7 195.4 114.1 L195.15 114.35 Q193.75 115.95 193.75 119.2 192.75 130.15 215.65 130.15 227.35 130.15 232.0 126.65 236.55 130.15 248.55 130.15 270.55 130.15 269.55 119.65 269.65 115.7 266.25 112.9 L266.2 112.9 265.15 112.15 264.9 111.7 265.0 111.0 264.65 95.6 Q266.8 100.4 270.95 104.1 L271.0 104.2 Q279.45 112.05 293.15 112.05 306.85 112.05 317.5 104.05 L317.55 104.05 Q320.7 101.6 322.95 98.9 323.15 111.2 331.75 118.9 L331.65 118.9 331.75 119.0 Q340.2 126.8 353.95 126.8 367.6 126.8 378.25 118.8 L378.35 118.8 Q384.65 113.9 387.65 107.95 L387.8 108.2 Q389.6 110.7 393.8 111.85 397.35 113.6 407.8 113.6 417.15 113.6 421.3 112.3 L421.35 112.25 421.3 112.25 Q424.55 111.2 426.7 108.6 L426.5 108.95 426.8 108.65 M435.1 88.35 L441.15 88.35 441.15 116.8 435.1 116.8 Q434.25 116.8 433.65 117.4 433.05 117.95 433.05 118.8 L433.05 124.9 394.5 124.9 Q393.65 124.9 393.05 125.5 392.45 126.1 392.45 126.95 L392.45 133.0 386.35 133.0 Q385.5 133.0 384.95 133.65 384.35 134.2 384.35 135.05 L384.35 141.15 331.55 141.15 331.55 135.05 Q331.55 134.2 331.0 133.65 330.4 133.0 329.55 133.0 L323.45 133.0 323.45 126.95 Q323.45 126.1 322.9 125.5 322.3 124.9 321.4 124.9 L280.85 124.9 Q280.0 124.9 279.4 125.5 278.8 126.1 278.8 126.95 L278.8 133.0 272.7 133.0 Q271.85 133.0 271.3 133.65 270.7 134.2 270.7 135.05 L270.7 141.15 185.45 141.15 185.45 118.8 Q185.45 117.95 184.85 117.4 184.25 116.8 183.4 116.8 L150.95 116.8 Q150.1 116.8 149.5 117.4 148.9 117.95 148.9 118.8 L148.9 124.9 142.8 124.9 Q141.95 124.9 141.4 125.5 140.8 126.1 140.8 126.95 L140.8 133.0 96.15 133.0 96.15 126.95 Q96.15 126.1 95.55 125.5 94.95 124.9 94.1 124.9 L47.45 124.9 47.45 110.7 Q47.45 109.85 46.85 109.25 46.25 108.65 45.4 108.65 L14.95 108.65 14.95 102.6 Q14.95 101.7 14.4 101.15 13.75 100.55 12.9 100.55 L6.85 100.55 6.85 64.0 12.9 64.0 Q13.75 64.0 14.4 63.45 14.95 62.85 14.95 62.0 L14.95 55.9 21.05 55.9 Q21.9 55.9 22.5 55.35 23.05 54.7 23.05 53.85 L23.05 39.65 29.15 39.65 Q30.0 39.65 30.6 39.1 31.2 38.5 31.2 37.65 L31.2 31.55 37.3 31.55 Q38.15 31.55 38.75 30.95 39.3 30.35 39.3 29.5 L39.3 23.4 45.4 23.4 Q46.25 23.4 46.85 22.85 47.45 22.25 47.45 21.4 L47.45 15.3 53.5 15.3 Q54.35 15.3 55.0 14.75 55.55 14.15 55.55 13.25 L55.55 7.2 92.1 7.2 92.1 13.25 Q92.1 14.15 92.7 14.75 93.25 15.3 94.1 15.3 L100.2 15.3 100.2 45.75 Q100.2 46.6 100.8 47.2 101.35 47.8 102.2 47.8 L134.7 47.8 Q135.55 47.8 136.15 47.2 136.75 46.6 136.75 45.75 L136.75 39.65 150.95 39.65 Q151.8 39.65 152.4 39.1 152.95 38.5 152.95 37.65 L152.95 31.55 189.5 31.55 189.5 37.65 Q189.5 38.5 190.1 39.1 190.7 39.65 191.55 39.65 L238.2 39.65 238.2 45.75 Q238.2 46.6 238.8 47.2 239.4 47.8 240.25 47.8 L246.35 47.8 246.35 53.85 Q246.35 54.7 246.95 55.35 247.5 55.9 248.35 55.9 L256.5 55.9 Q257.35 55.9 257.95 55.35 258.5 54.7 258.5 53.85 L258.5 47.8 272.7 47.8 Q273.55 47.8 274.15 47.2 274.75 46.6 274.75 45.75 L274.75 39.65 319.4 39.65 319.4 45.75 Q319.4 46.6 320.0 47.2 320.55 47.8 321.4 47.8 L327.5 47.8 327.5 53.85 Q327.5 54.7 328.1 55.35 328.7 55.9 329.55 55.9 L370.15 55.9 Q371.0 55.9 371.6 55.35 372.15 54.7 372.15 53.85 L372.15 31.55 378.25 31.55 Q379.1 31.55 379.7 30.95 380.3 30.35 380.3 29.5 L380.3 23.4 433.05 23.4 433.05 86.35 Q433.05 87.2 433.65 87.8 434.25 88.35 435.1 88.35" fill="#000000" fill-opacity="0.49803922" fill-rule="evenodd" stroke="none"/>
    <path d="M435.1 19.35 Q435.95 19.35 436.55 19.95 437.1 20.55 437.1 21.4 L437.1 84.3 443.2 84.3 Q444.05 84.3 444.65 84.9 445.25 85.5 445.25 86.35 L445.25 118.8 Q445.25 119.65 444.65 120.25 444.05 120.85 443.2 120.85 L437.1 120.85 437.1 126.95 Q437.1 127.8 436.55 128.4 435.95 128.95 435.1 128.95 L396.5 128.95 396.5 135.05 Q396.5 135.9 395.95 136.5 395.35 137.1 394.5 137.1 L388.4 137.1 388.4 143.15 Q388.4 144.0 387.85 144.65 387.2 145.2 386.35 145.2 L329.55 145.2 Q328.7 145.2 328.1 144.65 327.5 144.0 327.5 143.15 L327.5 137.1 321.4 137.1 Q320.55 137.1 320.0 136.5 319.4 135.9 319.4 135.05 L319.4 128.95 282.85 128.95 282.85 135.05 Q282.85 135.9 282.3 136.5 281.7 137.1 280.85 137.1 L274.75 137.1 274.75 143.15 Q274.75 144.0 274.15 144.65 273.55 145.2 272.7 145.2 L183.4 145.2 Q182.55 145.2 182.0 144.65 181.4 144.0 181.4 143.15 L181.4 120.85 152.95 120.85 152.95 126.95 Q152.95 127.8 152.4 128.4 151.8 128.95 150.95 128.95 L144.85 128.95 144.85 135.05 Q144.85 135.9 144.3 136.5 143.65 137.1 142.8 137.1 L94.1 137.1 Q93.25 137.1 92.7 136.5 92.1 135.9 92.1 135.05 L92.1 128.95 45.4 128.95 Q44.55 128.95 43.95 128.4 43.35 127.8 43.35 126.95 L43.35 112.7 12.9 112.7 Q12.05 112.7 11.5 112.15 10.9 111.55 10.9 110.7 L10.9 104.6 4.8 104.6 Q3.95 104.6 3.4 104.05 2.75 103.45 2.75 102.6 L2.75 62.0 Q2.75 61.15 3.4 60.55 3.95 59.95 4.8 59.95 L10.9 59.95 10.9 53.85 10.95 53.55 Q11.0 52.9 11.5 52.45 12.05 51.85 12.9 51.85 L19.0 51.85 19.0 37.65 Q19.0 36.8 19.6 36.2 20.2 35.6 21.05 35.6 L27.15 35.6 27.15 29.5 Q27.15 28.65 27.75 28.1 28.3 27.5 29.15 27.5 L35.25 27.5 35.25 21.4 Q35.25 20.55 35.85 19.95 36.4 19.35 37.3 19.35 L43.35 19.35 43.35 13.25 Q43.35 12.4 43.95 11.85 44.55 11.25 45.4 11.25 L51.5 11.25 51.5 5.15 Q51.5 4.3 52.1 3.75 52.65 3.15 53.5 3.15 L94.1 3.15 Q94.95 3.15 95.55 3.75 96.15 4.3 96.15 5.15 L96.15 11.25 102.2 11.25 Q103.1 11.25 103.7 11.85 104.25 12.4 104.25 13.25 L104.25 43.7 132.65 43.7 132.65 37.65 Q132.65 36.8 133.3 36.2 133.85 35.6 134.7 35.6 L148.9 35.6 148.9 29.5 Q148.9 28.65 149.5 28.1 150.1 27.5 150.95 27.5 L191.55 27.5 Q192.4 27.5 193.0 28.1 193.55 28.65 193.55 29.5 L193.55 35.6 240.25 35.6 Q241.1 35.6 241.7 36.2 242.25 36.8 242.25 37.65 L242.25 43.7 248.35 43.7 Q249.2 43.7 249.8 44.35 250.4 44.9 250.4 45.75 L250.4 51.85 254.45 51.85 254.45 45.75 Q254.45 44.9 255.05 44.35 255.6 43.7 256.5 43.7 L270.7 43.7 270.7 37.65 Q270.7 36.8 271.3 36.2 271.85 35.6 272.7 35.6 L321.4 35.6 Q322.3 35.6 322.9 36.2 323.45 36.8 323.45 37.65 L323.45 43.7 329.55 43.7 Q330.4 43.7 331.0 44.35 331.55 44.9 331.55 45.75 L331.55 51.85 368.1 51.85 368.1 29.5 Q368.1 28.65 368.7 28.1 369.3 27.5 370.15 27.5 L376.2 27.5 376.2 21.4 Q376.2 20.55 376.85 19.95 377.4 19.35 378.25 19.35 L435.1 19.35 M426.8 108.65 L426.5 108.95 426.7 108.6 426.8 108.65 M421.3 112.25 L421.35 112.25 421.3 112.3 421.3 112.25 M331.75 119.0 L331.65 118.9 331.75 118.9 331.75 119.0 M195.5 92.9 L195.4 93.0 195.45 92.9 195.5 92.9 M108.65 118.75 L108.8 118.75 108.65 118.8 108.65 118.75 M68.55 20.35 L68.55 20.4 68.55 20.35 M385.9 56.85 L386.0 57.05 385.9 56.9 385.9 56.85 M435.1 88.35 Q434.25 88.35 433.65 87.8 433.05 87.2 433.05 86.35 L433.05 23.4 380.3 23.4 380.3 29.5 Q380.3 30.35 379.7 30.95 379.1 31.55 378.25 31.55 L372.15 31.55 372.15 53.85 Q372.15 54.7 371.6 55.35 371.0 55.9 370.15 55.9 L329.55 55.9 Q328.7 55.9 328.1 55.35 327.5 54.7 327.5 53.85 L327.5 47.8 321.4 47.8 Q320.55 47.8 320.0 47.2 319.4 46.6 319.4 45.75 L319.4 39.65 274.75 39.65 274.75 45.75 Q274.75 46.6 274.15 47.2 273.55 47.8 272.7 47.8 L258.5 47.8 258.5 53.85 Q258.5 54.7 257.95 55.35 257.35 55.9 256.5 55.9 L248.35 55.9 Q247.5 55.9 246.95 55.35 246.35 54.7 246.35 53.85 L246.35 47.8 240.25 47.8 Q239.4 47.8 238.8 47.2 238.2 46.6 238.2 45.75 L238.2 39.65 191.55 39.65 Q190.7 39.65 190.1 39.1 189.5 38.5 189.5 37.65 L189.5 31.55 152.95 31.55 152.95 37.65 Q152.95 38.5 152.4 39.1 151.8 39.65 150.95 39.65 L136.75 39.65 136.75 45.75 Q136.75 46.6 136.15 47.2 135.55 47.8 134.7 47.8 L102.2 47.8 Q101.35 47.8 100.8 47.2 100.2 46.6 100.2 45.75 L100.2 15.3 94.1 15.3 Q93.25 15.3 92.7 14.75 92.1 14.15 92.1 13.25 L92.1 7.2 55.55 7.2 55.55 13.25 Q55.55 14.15 55.0 14.75 54.35 15.3 53.5 15.3 L47.45 15.3 47.45 21.4 Q47.45 22.25 46.85 22.85 46.25 23.4 45.4 23.4 L39.3 23.4 39.3 29.5 Q39.3 30.35 38.75 30.95 38.15 31.55 37.3 31.55 L31.2 31.55 31.2 37.65 Q31.2 38.5 30.6 39.1 30.0 39.65 29.15 39.65 L23.05 39.65 23.05 53.85 Q23.05 54.7 22.5 55.35 21.9 55.9 21.05 55.9 L14.95 55.9 14.95 62.0 Q14.95 62.85 14.4 63.45 13.75 64.0 12.9 64.0 L6.85 64.0 6.85 100.55 12.9 100.55 Q13.75 100.55 14.4 101.15 14.95 101.7 14.95 102.6 L14.95 108.65 45.4 108.65 Q46.25 108.65 46.85 109.25 47.45 109.85 47.45 110.7 L47.45 124.9 94.1 124.9 Q94.95 124.9 95.55 125.5 96.15 126.1 96.15 126.95 L96.15 133.0 140.8 133.0 140.8 126.95 Q140.8 126.1 141.4 125.5 141.95 124.9 142.8 124.9 L148.9 124.9 148.9 118.8 Q148.9 117.95 149.5 117.4 150.1 116.8 150.95 116.8 L183.4 116.8 Q184.25 116.8 184.85 117.4 185.45 117.95 185.45 118.8 L185.45 141.15 270.7 141.15 270.7 135.05 Q270.7 134.2 271.3 133.65 271.85 133.0 272.7 133.0 L278.8 133.0 278.8 126.95 Q278.8 126.1 279.4 125.5 280.0 124.9 280.85 124.9 L321.4 124.9 Q322.3 124.9 322.9 125.5 323.45 126.1 323.45 126.95 L323.45 133.0 329.55 133.0 Q330.4 133.0 331.0 133.65 331.55 134.2 331.55 135.05 L331.55 141.15 384.35 141.15 384.35 135.05 Q384.35 134.2 384.95 133.65 385.5 133.0 386.35 133.0 L392.45 133.0 392.45 126.95 Q392.45 126.1 393.05 125.5 393.65 124.9 394.5 124.9 L433.05 124.9 433.05 118.8 Q433.05 117.95 433.65 117.4 434.25 116.8 435.1 116.8 L441.15 116.8 441.15 88.35 435.1 88.35 M94.95 88.55 L94.95 88.85 94.85 88.8 94.95 88.55" fill="#ffffff" fill-rule="evenodd" stroke="none"/>
    <path d="M420.8 45.85 L420.25 53.15 420.25 53.55 Q419.7 61.8 419.6 67.85 L419.6 84.4 Q419.6 94.65 419.85 96.1 420.1 97.45 421.65 98.15 423.65 98.95 424.5 99.9 425.35 100.85 425.35 102.45 425.35 104.35 423.9 105.9 422.65 107.5 420.65 108.1 416.8 109.25 408.3 109.25 398.75 109.25 395.85 107.85 392.85 107.1 391.6 105.45 390.25 103.85 390.25 102.1 390.25 100.5 391.0 99.75 391.85 98.9 394.05 97.85 395.4 97.3 395.85 94.15 396.5 88.15 396.55 77.25 L396.55 76.25 Q396.55 64.6 396.0 61.5 395.3 58.35 392.85 56.85 390.75 55.7 389.9 54.45 L389.4 53.55 Q388.95 52.6 388.95 51.4 388.95 48.5 391.5 46.5 394.05 44.55 399.2 42.95 402.65 41.95 408.05 41.0 L415.9 40.05 Q420.8 40.05 420.8 45.85" fill="#6600cc" fill-rule="evenodd" stroke="none"/>
    <path d="M198.75 66.2 Q199.1 63.9 201.2 62.5 203.75 60.85 209.8 59.2 219.25 56.65 224.55 56.65 228.4 56.65 228.3 60.15 L227.6 80.35 Q227.6 82.95 228.85 82.95 229.55 82.95 230.35 81.75 232.25 78.95 234.7 77.25 238.55 74.5 243.75 74.5 249.75 74.5 253.95 77.25 L256.7 79.55 Q258.9 81.85 259.85 84.9 260.7 87.85 260.85 93.3 L261.3 110.9 Q261.3 112.9 261.8 113.75 262.2 114.65 264.05 116.1 265.85 117.55 265.85 119.6 265.85 125.8 249.05 125.8 233.95 125.8 233.95 119.9 233.95 118.8 234.35 118.2 L237.55 115.35 Q238.0 113.35 238.0 102.95 238.0 96.75 237.05 94.4 235.45 90.5 232.0 90.5 229.65 90.5 228.55 92.2 227.7 93.5 227.7 97.55 L227.7 107.1 228.2 113.5 Q228.4 114.25 230.25 116.3 231.45 117.55 231.45 119.3 231.45 125.8 216.15 125.8 198.5 125.8 198.5 119.15 198.5 117.45 199.1 116.6 199.85 115.7 201.65 114.65 203.5 113.1 204.15 107.55 204.85 102.0 204.85 88.85 L204.55 77.25 204.3 74.7 Q204.15 73.25 203.75 72.8 L202.2 71.65 Q198.65 69.8 198.65 67.2 L198.75 66.25 198.75 66.2" fill="#00cc00" fill-rule="evenodd" stroke="none"/>
    <path d="M83.7 30.5 L83.7 70.65 Q83.7 72.15 83.9 72.3 L84.8 72.6 88.0 72.6 Q90.95 72.6 91.2 77.25 L91.2 77.55 91.2 88.75 Q91.2 92.9 87.3 93.55 L85.25 93.85 Q85.1 94.15 85.1 95.5 L85.1 102.7 Q85.35 107.15 80.65 107.35 L60.7 107.35 Q58.0 107.35 57.05 106.3 56.15 105.2 56.15 102.45 L56.15 96.45 Q56.15 94.5 55.55 93.85 55.0 93.25 53.1 93.25 L30.5 93.25 Q25.85 93.25 23.9 91.2 21.9 89.2 21.9 84.55 21.9 79.6 22.9 77.25 L23.25 76.5 24.25 74.3 Q30.35 63.95 38.8 53.55 48.95 41.0 62.5 28.4 63.4 27.6 64.25 27.05 66.8 25.35 70.3 24.25 73.95 23.1 77.0 23.1 80.45 23.1 82.15 24.95 83.7 26.85 83.7 30.5 M56.95 60.75 L56.95 57.8 Q56.95 53.75 55.2 53.75 53.6 53.75 52.0 55.7 L43.1 66.65 Q39.5 71.1 39.5 72.8 39.5 73.4 40.6 73.75 L47.95 74.25 51.4 74.25 55.8 73.85 Q56.5 73.4 56.55 71.9 56.95 68.75 56.95 60.75" fill="#ff0000" fill-rule="evenodd" stroke="none"/>
    <path d="M391.35 62.5 L391.3 62.5 391.3 62.45 391.35 62.5 M181.6 77.2 L181.7 77.1 181.7 77.2 181.6 77.2 M94.95 88.55 L95.1 88.85 94.95 88.85 94.95 88.55" fill="#000000" fill-rule="evenodd" stroke="none"/>
    <path d="M96.2 -0.45 Q99.55 -0.45 101.9 1.95 L101.95 1.95 Q104.3 4.3 104.3 7.65 L104.35 7.65 Q107.65 7.65 110.0 10.05 L110.05 10.05 Q112.4 12.4 112.4 15.8 L112.4 40.15 128.65 40.15 Q128.65 36.8 131.05 34.4 133.4 32.05 136.75 32.05 L144.9 32.05 Q144.9 28.65 147.3 26.3 149.65 23.9 153.0 23.9 L193.65 23.9 Q196.95 23.9 199.3 26.3 L199.35 26.3 Q201.7 28.65 201.7 32.05 L242.35 32.05 Q245.7 32.05 248.05 34.4 250.45 36.8 250.45 40.15 252.7 40.15 254.5 41.25 256.25 40.15 258.55 40.15 L266.65 40.15 Q266.65 36.8 269.05 34.4 271.4 32.05 274.8 32.05 L323.55 32.05 Q326.85 32.05 329.2 34.4 L329.25 34.4 Q331.6 36.8 331.6 40.15 L331.65 40.15 Q335.0 40.15 337.35 42.55 L337.4 42.55 Q339.75 44.9 339.75 48.25 L364.1 48.25 364.1 32.05 Q364.1 28.65 366.5 26.3 368.85 23.9 372.2 23.9 372.2 20.55 374.6 18.2 376.95 15.8 380.3 15.8 L437.2 15.8 Q440.5 15.8 442.85 18.2 L442.9 18.2 Q445.25 20.55 445.25 23.9 L445.25 80.75 445.3 80.75 Q448.65 80.75 451.0 83.15 L451.05 83.15 Q453.4 85.5 453.4 88.85 L453.4 121.35 Q453.4 124.7 451.05 127.05 L451.0 127.1 Q448.65 129.45 445.3 129.45 L445.25 129.45 445.25 129.5 Q445.25 132.8 442.9 135.15 L442.85 135.2 Q440.5 137.55 437.2 137.55 L404.7 137.55 404.7 137.6 Q404.7 140.95 402.3 143.3 L402.3 143.35 Q399.95 145.7 396.6 145.7 L396.55 145.7 396.55 145.75 Q396.55 149.05 394.2 151.4 L394.15 151.45 Q391.8 153.8 388.5 153.8 L331.6 153.8 Q328.25 153.8 325.9 151.45 L325.9 151.4 Q323.5 149.05 323.5 145.75 L323.5 145.7 Q320.1 145.7 317.75 143.35 L317.75 143.3 Q315.35 140.95 315.35 137.6 L315.35 137.55 291.0 137.55 291.0 137.6 Q291.0 140.95 288.65 143.3 L288.6 143.35 Q286.25 145.7 282.95 145.7 L282.9 145.7 282.9 145.75 Q282.9 149.05 280.55 151.4 L280.5 151.45 Q278.15 153.8 274.8 153.8 L185.5 153.8 Q182.1 153.8 179.75 151.45 L179.75 151.4 Q177.35 149.05 177.35 145.75 L177.35 129.45 161.1 129.45 161.1 129.5 Q161.1 132.8 158.75 135.15 L158.75 135.2 Q156.35 137.55 153.05 137.55 L153.0 137.55 153.0 137.6 Q153.0 140.95 150.65 143.3 L150.6 143.35 Q148.25 145.7 144.95 145.7 L96.2 145.7 Q92.8 145.7 90.45 143.35 L90.45 143.3 Q88.05 140.95 88.05 137.6 L88.05 137.55 47.45 137.55 Q44.1 137.55 41.75 135.2 L41.75 135.15 Q39.35 132.8 39.35 129.5 L39.35 121.35 15.0 121.35 Q11.6 121.35 9.25 119.0 L9.25 118.95 Q6.85 116.6 6.85 113.25 L6.85 113.2 Q3.5 113.2 1.15 110.85 L1.15 110.8 Q-1.25 108.45 -1.25 105.15 L-1.25 64.5 Q-1.25 61.15 1.15 58.8 3.5 56.4 6.85 56.4 6.85 54.85 7.35 53.55 7.95 51.95 9.25 50.65 11.6 48.25 15.0 48.25 L15.0 40.15 Q15.0 36.8 17.4 34.4 19.75 32.05 23.1 32.05 23.1 28.65 25.5 26.3 27.85 23.9 31.25 23.9 31.25 20.55 33.6 18.2 36.0 15.8 39.35 15.8 39.35 12.4 41.75 10.05 44.1 7.65 47.45 7.65 47.45 4.3 49.85 1.95 52.2 -0.45 55.6 -0.45 L96.2 -0.45 M435.1 19.35 L378.25 19.35 Q377.4 19.35 376.85 19.95 376.2 20.55 376.2 21.4 L376.2 27.5 370.15 27.5 Q369.3 27.5 368.7 28.1 368.1 28.65 368.1 29.5 L368.1 51.85 331.55 51.85 331.55 45.75 Q331.55 44.9 331.0 44.35 330.4 43.7 329.55 43.7 L323.45 43.7 323.45 37.65 Q323.45 36.8 322.9 36.2 322.3 35.6 321.4 35.6 L272.7 35.6 Q271.85 35.6 271.3 36.2 270.7 36.8 270.7 37.65 L270.7 43.7 256.5 43.7 Q255.6 43.7 255.05 44.35 254.45 44.9 254.45 45.75 L254.45 51.85 250.4 51.85 250.4 45.75 Q250.4 44.9 249.8 44.35 249.2 43.7 248.35 43.7 L242.25 43.7 242.25 37.65 Q242.25 36.8 241.7 36.2 241.1 35.6 240.25 35.6 L193.55 35.6 193.55 29.5 Q193.55 28.65 193.0 28.1 192.4 27.5 191.55 27.5 L150.95 27.5 Q150.1 27.5 149.5 28.1 148.9 28.65 148.9 29.5 L148.9 35.6 134.7 35.6 Q133.85 35.6 133.3 36.2 132.65 36.8 132.65 37.65 L132.65 43.7 104.25 43.7 104.25 13.25 Q104.25 12.4 103.7 11.85 103.1 11.25 102.2 11.25 L96.15 11.25 96.15 5.15 Q96.15 4.3 95.55 3.75 94.95 3.15 94.1 3.15 L53.5 3.15 Q52.65 3.15 52.1 3.75 51.5 4.3 51.5 5.15 L51.5 11.25 45.4 11.25 Q44.55 11.25 43.95 11.85 43.35 12.4 43.35 13.25 L43.35 19.35 37.3 19.35 Q36.4 19.35 35.85 19.95 35.25 20.55 35.25 21.4 L35.25 27.5 29.15 27.5 Q28.3 27.5 27.75 28.1 27.15 28.65 27.15 29.5 L27.15 35.6 21.05 35.6 Q20.2 35.6 19.6 36.2 19.0 36.8 19.0 37.65 L19.0 51.85 12.9 51.85 Q12.05 51.85 11.5 52.45 11.0 52.9 10.95 53.55 L10.9 53.85 10.9 59.95 4.8 59.95 Q3.95 59.95 3.4 60.55 2.75 61.15 2.75 62.0 L2.75 102.6 Q2.75 103.45 3.4 104.05 3.95 104.6 4.8 104.6 L10.9 104.6 10.9 110.7 Q10.9 111.55 11.5 112.15 12.05 112.7 12.9 112.7 L43.35 112.7 43.35 126.95 Q43.35 127.8 43.95 128.4 44.55 128.95 45.4 128.95 L92.1 128.95 92.1 135.05 Q92.1 135.9 92.7 136.5 93.25 137.1 94.1 137.1 L142.8 137.1 Q143.65 137.1 144.3 136.5 144.85 135.9 144.85 135.05 L144.85 128.95 150.95 128.95 Q151.8 128.95 152.4 128.4 152.95 127.8 152.95 126.95 L152.95 120.85 181.4 120.85 181.4 143.15 Q181.4 144.0 182.0 144.65 182.55 145.2 183.4 145.2 L272.7 145.2 Q273.55 145.2 274.15 144.65 274.75 144.0 274.75 143.15 L274.75 137.1 280.85 137.1 Q281.7 137.1 282.3 136.5 282.85 135.9 282.85 135.05 L282.85 128.95 319.4 128.95 319.4 135.05 Q319.4 135.9 320.0 136.5 320.55 137.1 321.4 137.1 L327.5 137.1 327.5 143.15 Q327.5 144.0 328.1 144.65 328.7 145.2 329.55 145.2 L386.35 145.2 Q387.2 145.2 387.85 144.65 388.4 144.0 388.4 143.15 L388.4 137.1 394.5 137.1 Q395.35 137.1 395.95 136.5 396.5 135.9 396.5 135.05 L396.5 128.95 435.1 128.95 Q435.95 128.95 436.55 128.4 437.1 127.8 437.1 126.95 L437.1 120.85 443.2 120.85 Q444.05 120.85 444.65 120.25 445.25 119.65 445.25 118.8 L445.25 86.35 Q445.25 85.5 444.65 84.9 444.05 84.3 443.2 84.3 L437.1 84.3 437.1 21.4 Q437.1 20.55 436.55 19.95 435.95 19.35 435.1 19.35" fill="#000000" fill-opacity="0.8" fill-rule="evenodd" stroke="none"/>
    <path d="M94.95 88.85 L94.85 88.85 94.85 88.8 94.95 88.85" fill="#bf4d00" fill-rule="evenodd" stroke="none"/>
    <path d="M336.65 78.8 L338.6 77.25 Q347.2 70.95 358.95 70.95 368.15 70.95 375.15 75.7 L377.15 77.25 Q380.75 80.3 383.15 84.65 386.3 90.35 386.3 96.7 386.3 107.65 376.2 115.35 366.7 122.5 354.45 122.5 342.5 122.5 335.05 115.7 327.7 109.05 327.7 98.3 327.7 86.4 336.65 78.8 M358.7 86.9 Q357.35 84.25 355.05 84.1 353.45 84.1 352.45 85.4 351.4 86.6 351.4 88.95 351.4 91.75 352.45 96.7 353.55 101.6 354.7 104.75 356.2 108.65 358.95 108.65 362.2 108.65 362.2 104.2 362.2 100.35 361.2 95.2 360.1 90.1 358.7 86.9" fill="#0000ff" fill-rule="evenodd" stroke="none"/>
    <path d="M198.75 66.25 L198.65 66.25 198.65 66.2 198.75 66.2 198.75 66.25" fill="#009500" fill-rule="evenodd" stroke="none"/>
    <path d="M116.45 63.9 Q118.9 63.9 124.15 65.0 L126.25 65.15 129.45 64.3 131.35 63.9 Q134.15 63.9 136.9 67.4 138.6 69.45 139.85 72.4 141.0 75.2 141.05 77.25 L141.05 77.35 Q141.05 79.7 139.35 81.35 137.75 82.95 135.3 82.95 133.3 82.95 131.75 82.0 130.3 81.0 128.1 78.4 L126.65 77.25 Q124.1 75.4 122.8 75.4 121.95 75.4 121.2 76.1 120.75 76.65 120.65 77.25 L120.55 77.8 Q120.55 79.55 124.45 81.35 132.85 85.1 137.35 89.65 141.25 93.55 141.25 99.35 141.25 106.45 135.4 110.3 129.6 115.45 121.85 115.45 L114.7 114.85 109.75 114.35 108.65 114.45 106.3 114.65 Q103.55 114.65 102.0 113.25 99.85 111.3 98.1 107.25 96.2 103.25 96.2 100.25 96.2 94.75 100.75 94.75 102.45 94.75 103.8 95.85 105.05 96.75 108.8 100.75 110.65 102.85 111.75 103.45 112.95 104.2 114.1 104.2 115.4 104.2 116.05 103.65 116.65 103.0 116.65 102.0 116.65 100.5 112.95 98.65 105.5 95.1 101.85 90.8 98.15 86.5 98.15 80.75 98.15 78.95 98.5 77.25 99.3 73.35 102.0 70.2 107.4 63.9 116.45 63.9" fill="#ff9900" fill-rule="evenodd" stroke="none"/>
    <path d="M325.5 81.9 Q325.5 92.9 315.45 100.6 305.9 107.75 293.7 107.75 281.7 107.75 274.3 100.9 266.95 94.25 266.95 83.55 266.95 80.25 267.65 77.25 269.45 69.55 275.9 64.05 285.1 56.2 298.15 56.2 307.4 56.2 314.35 60.95 319.35 64.4 322.4 69.85 324.35 73.45 325.1 77.25 325.5 79.55 325.5 81.9 M290.65 74.15 L290.9 77.25 Q291.1 79.25 291.65 81.9 292.75 86.85 293.95 89.95 295.5 93.95 298.15 93.95 301.45 93.95 301.45 89.4 301.45 85.55 300.45 80.4 L299.7 77.25 297.9 72.15 Q296.6 69.45 294.3 69.35 292.7 69.35 291.65 70.65 290.65 71.8 290.65 74.15" fill="#00bfbf" fill-rule="evenodd" stroke="none"/>
    <path d="M92.1 95.95 Q90.75 97.05 88.8 97.55 L88.8 102.55 Q89.05 106.9 86.7 109.1 84.65 111.45 80.25 111.65 L80.1 111.65 60.15 111.65 Q55.05 111.65 53.45 109.25 L53.35 109.2 Q51.4 107.35 51.4 102.55 L51.4 97.55 29.95 97.55 Q23.25 97.55 20.45 94.35 L20.35 94.25 Q17.15 91.3 17.15 84.65 17.15 80.05 17.9 77.25 18.35 75.7 19.0 74.7 L19.95 72.65 20.1 72.3 Q25.6 62.95 33.0 53.55 44.0 39.55 59.1 25.5 L59.15 25.35 Q60.45 24.2 61.65 23.55 64.45 21.6 68.55 20.35 L68.55 20.4 Q72.85 18.95 76.5 18.95 82.15 18.95 84.75 22.3 L84.8 22.35 Q87.45 25.05 87.45 30.6 L87.45 68.45 87.55 68.45 Q93.15 67.85 94.55 74.0 L94.95 88.55 94.85 88.8 94.85 88.85 Q94.95 92.4 92.1 95.95 M83.7 30.5 Q83.7 26.85 82.15 24.95 80.45 23.1 77.0 23.1 73.95 23.1 70.3 24.25 66.8 25.35 64.25 27.05 63.4 27.6 62.5 28.4 48.95 41.0 38.8 53.55 30.35 63.95 24.25 74.3 L23.25 76.5 22.9 77.25 Q21.9 79.6 21.9 84.55 21.9 89.2 23.9 91.2 25.85 93.25 30.5 93.25 L53.1 93.25 Q55.0 93.25 55.55 93.85 56.15 94.5 56.15 96.45 L56.15 102.45 Q56.15 105.2 57.05 106.3 58.0 107.35 60.7 107.35 L80.65 107.35 Q85.35 107.15 85.1 102.7 L85.1 95.5 Q85.1 94.15 85.25 93.85 L87.3 93.55 Q91.2 92.9 91.2 88.75 L91.2 77.55 91.2 77.25 Q90.95 72.6 88.0 72.6 L84.8 72.6 83.9 72.3 Q83.7 72.15 83.7 70.65 L83.7 30.5 M56.95 60.75 Q56.95 68.75 56.55 71.9 56.5 73.4 55.8 73.85 L51.4 74.25 47.95 74.25 40.6 73.75 Q39.5 73.4 39.5 72.8 39.5 71.1 43.1 66.65 L52.0 55.7 Q53.6 53.75 55.2 53.75 56.95 53.75 56.95 57.8 L56.95 60.75" fill="#ffaaaa" fill-rule="evenodd" stroke="none"/>
    <path d="M142.15 84.1 L141.9 84.45 141.8 84.55 139.35 86.2 139.85 86.75 Q145.0 91.9 145.0 99.4 145.0 108.65 137.5 113.75 130.55 119.75 121.4 119.75 L113.8 119.15 109.2 118.65 108.65 118.75 108.65 118.8 105.75 119.0 Q101.3 119.0 98.65 116.55 L98.55 116.45 Q95.9 114.1 93.8 109.1 L93.7 109.05 Q91.45 104.1 91.5 100.35 91.5 97.8 92.1 95.95 94.95 92.4 94.85 88.85 L94.95 88.85 95.1 88.85 94.95 88.55 94.55 74.0 Q95.75 70.45 98.25 67.6 104.8 59.75 116.0 59.75 L124.6 60.95 125.75 61.0 127.5 60.4 127.7 60.4 Q129.2 59.75 130.85 59.75 135.4 59.4 139.75 64.85 L139.7 64.8 141.05 66.65 Q143.85 72.9 144.1 77.25 144.4 81.65 142.15 84.1 M116.45 63.9 Q107.4 63.9 102.0 70.2 99.3 73.35 98.5 77.25 98.15 78.95 98.15 80.75 98.15 86.5 101.85 90.8 105.5 95.1 112.95 98.65 116.65 100.5 116.65 102.0 116.65 103.0 116.05 103.65 115.4 104.2 114.1 104.2 112.95 104.2 111.75 103.45 110.65 102.85 108.8 100.75 105.05 96.75 103.8 95.85 102.45 94.75 100.75 94.75 96.2 94.75 96.2 100.25 96.2 103.25 98.1 107.25 99.85 111.3 102.0 113.25 103.55 114.65 106.3 114.65 L108.65 114.45 109.75 114.35 114.7 114.85 121.85 115.45 Q129.6 115.45 135.4 110.3 141.25 106.45 141.25 99.35 141.25 93.55 137.35 89.65 132.85 85.1 124.45 81.35 120.55 79.55 120.55 77.8 L120.65 77.25 Q120.75 76.65 121.2 76.1 121.95 75.4 122.8 75.4 124.1 75.4 126.65 77.25 L128.1 78.4 Q130.3 81.0 131.75 82.0 133.3 82.95 135.3 82.95 137.75 82.95 139.35 81.35 141.05 79.7 141.05 77.35 L141.05 77.25 Q141.0 75.2 139.85 72.4 138.6 69.45 136.9 67.4 134.15 63.9 131.35 63.9 L129.45 64.3 126.25 65.15 124.15 65.0 Q118.9 63.9 116.45 63.9" fill="#ffddaa" fill-rule="evenodd" stroke="none"/>
    <path d="M195.8 72.6 L192.2 75.7 Q193.5 76.25 194.6 77.25 L195.7 78.45 Q198.2 81.45 198.2 85.4 198.25 89.05 195.5 92.9 L195.45 92.9 Q193.2 96.2 189.3 98.65 L189.2 98.65 Q181.7 103.2 171.6 103.2 159.6 103.2 151.35 96.3 L151.25 96.3 Q144.85 91.05 142.15 84.1 144.4 81.65 144.1 77.25 143.85 72.9 141.05 66.65 142.7 59.25 148.25 53.55 L150.55 51.4 Q159.95 43.2 173.35 43.2 183.65 43.2 191.5 48.35 L191.5 48.45 Q195.0 50.75 197.05 53.55 198.75 55.8 199.5 58.35 199.55 62.65 198.65 66.2 L198.65 66.25 Q197.7 69.8 195.8 72.6 M191.95 53.55 L189.65 51.8 Q182.8 47.35 173.85 47.35 162.85 47.35 154.95 53.55 L153.8 54.5 Q145.0 62.0 145.0 73.3 145.0 75.35 145.3 77.25 146.6 86.6 154.45 92.9 161.7 98.9 172.1 98.9 180.95 98.9 187.55 94.95 190.7 93.0 192.5 90.35 194.45 87.75 194.45 85.3 194.45 82.85 192.95 81.0 191.4 79.15 189.3 79.15 188.2 79.15 187.0 79.65 L183.25 81.2 179.45 81.6 Q174.7 81.6 171.6 78.2 L170.8 77.25 Q167.7 73.45 167.7 68.5 167.7 65.45 169.3 63.55 170.85 61.5 172.95 61.5 176.0 61.5 177.0 64.85 178.35 68.85 179.05 69.85 181.3 73.25 185.85 73.25 190.15 73.25 193.5 69.15 196.4 67.5 196.4 62.95 196.4 57.5 191.95 53.55 M181.6 77.2 L181.7 77.2 181.7 77.1 181.6 77.2" fill="#ffffaa" fill-rule="evenodd" stroke="none"/>
    <path d="M264.65 95.6 L265.0 111.0 264.9 111.7 265.15 112.15 266.2 112.9 266.25 112.9 Q269.65 115.7 269.55 119.65 270.55 130.15 248.55 130.15 236.55 130.15 232.0 126.65 227.35 130.15 215.65 130.15 192.75 130.15 193.75 119.2 193.75 115.95 195.15 114.35 L195.4 114.1 Q196.3 112.7 198.5 111.45 199.1 110.3 199.5 107.15 200.1 101.75 200.1 88.95 L199.85 77.25 199.7 75.4 Q197.15 74.1 195.8 72.6 197.7 69.8 198.65 66.25 L198.75 66.25 198.65 67.2 Q198.65 69.8 202.2 71.65 L203.75 72.8 Q204.15 73.25 204.3 74.7 L204.55 77.25 204.85 88.85 Q204.85 102.0 204.15 107.55 203.5 113.1 201.65 114.65 199.85 115.7 199.1 116.6 198.5 117.45 198.5 119.15 198.5 125.8 216.15 125.8 231.45 125.8 231.45 119.3 231.45 117.55 230.25 116.3 228.4 114.25 228.2 113.5 L227.7 107.1 227.7 97.55 Q227.7 93.5 228.55 92.2 229.65 90.5 232.0 90.5 235.45 90.5 237.05 94.4 238.0 96.75 238.0 102.95 238.0 113.35 237.55 115.35 L234.35 118.2 Q233.95 118.8 233.95 119.9 233.95 125.8 249.05 125.8 265.85 125.8 265.85 119.6 265.85 117.55 264.05 116.1 262.2 114.65 261.8 113.75 261.3 112.9 261.3 110.9 L260.85 93.3 Q260.7 87.85 259.85 84.9 258.9 81.85 256.7 79.55 L253.95 77.25 Q249.75 74.5 243.75 74.5 238.55 74.5 234.7 77.25 232.25 78.95 230.35 81.75 229.55 82.95 228.85 82.95 227.6 82.95 227.6 80.35 L228.3 60.15 Q228.4 56.65 224.55 56.65 219.25 56.65 209.8 59.2 203.75 60.85 201.2 62.5 199.1 63.9 198.75 66.2 L198.65 66.2 Q199.55 62.65 199.5 58.35 202.5 56.8 208.2 55.25 L215.3 53.55 Q220.5 52.5 224.1 52.5 226.8 52.5 228.55 53.55 L229.8 54.6 Q232.1 56.45 232.0 60.3 L231.6 74.0 Q236.45 70.4 243.25 70.4 253.25 70.4 259.3 76.8 L259.75 77.25 Q261.25 78.95 262.3 81.1 262.5 88.85 264.65 95.6" fill="#b7ffb7" fill-rule="evenodd" stroke="none"/>
    <path d="M322.95 98.9 Q320.7 101.6 317.55 104.05 L317.5 104.05 Q306.85 112.05 293.15 112.05 279.45 112.05 271.0 104.2 L270.95 104.1 Q266.8 100.4 264.65 95.6 262.5 88.85 262.3 81.1 262.45 79.1 262.85 77.25 264.75 67.65 272.65 60.95 278.75 55.7 286.4 53.55 291.65 52.05 297.7 52.05 303.2 52.05 308.05 53.55 312.45 54.9 316.25 57.55 L316.3 57.55 Q322.05 61.6 325.6 67.9 328.05 72.45 328.85 77.25 L329.15 80.1 Q323.9 89.5 322.95 98.9 M325.5 81.9 Q325.5 79.55 325.1 77.25 324.35 73.45 322.4 69.85 319.35 64.4 314.35 60.95 307.4 56.2 298.15 56.2 285.1 56.2 275.9 64.05 269.45 69.55 267.65 77.25 266.95 80.25 266.95 83.55 266.95 94.25 274.3 100.9 281.7 107.75 293.7 107.75 305.9 107.75 315.45 100.6 325.5 92.9 325.5 81.9 M290.65 74.15 Q290.65 71.8 291.65 70.65 292.7 69.35 294.3 69.35 296.6 69.45 297.9 72.15 L299.7 77.25 300.45 80.4 Q301.45 85.55 301.45 89.4 301.45 93.95 298.15 93.95 295.5 93.95 293.95 89.95 292.75 86.85 291.65 81.9 291.1 79.25 290.9 77.25 L290.65 74.15" fill="#aaffff" fill-rule="evenodd" stroke="none"/>
    <path d="M387.65 107.95 Q384.65 113.9 378.35 118.8 L378.25 118.8 Q367.6 126.8 353.95 126.8 340.2 126.8 331.75 119.0 L331.75 118.9 Q323.15 111.2 322.95 98.9 323.9 89.5 329.15 80.1 L331.7 77.25 333.45 75.7 Q343.75 66.8 358.45 66.8 368.95 66.8 377.0 72.3 L377.05 72.3 Q380.1 74.45 382.55 77.25 384.7 79.7 386.35 82.7 389.6 88.6 390.0 95.1 385.95 101.55 387.65 107.95 M358.7 86.9 Q360.1 90.1 361.2 95.2 362.2 100.35 362.2 104.2 362.2 108.65 358.95 108.65 356.2 108.65 354.7 104.75 353.55 101.6 352.45 96.7 351.4 91.75 351.4 88.95 351.4 86.6 352.45 85.4 353.45 84.1 355.05 84.1 357.35 84.25 358.7 86.9 M336.65 78.8 Q327.7 86.4 327.7 98.3 327.7 109.05 335.05 115.7 342.5 122.5 354.45 122.5 366.7 122.5 376.2 115.35 386.3 107.65 386.3 96.7 386.3 90.35 383.15 84.65 380.75 80.3 377.15 77.25 L375.15 75.7 Q368.15 70.95 358.95 70.95 347.2 70.95 338.6 77.25 L336.65 78.8" fill="#aaaaff" fill-rule="evenodd" stroke="none"/>
    <path d="M385.9 56.9 Q384.8 55.4 384.45 53.55 L384.25 51.45 Q384.2 46.65 388.4 43.25 L388.5 43.25 Q391.3 40.9 397.4 39.05 L397.5 38.95 Q401.1 37.85 406.85 36.95 L415.4 35.9 Q424.5 35.6 424.5 45.9 L424.0 53.55 424.0 53.6 Q423.4 61.85 423.3 67.9 L423.3 84.45 Q423.3 92.2 423.45 94.65 426.05 95.85 427.1 97.2 429.05 99.05 429.05 102.55 429.15 105.85 426.8 108.65 L426.7 108.6 Q424.55 111.2 421.3 112.25 L421.3 112.3 Q417.15 113.6 407.8 113.6 397.35 113.6 393.8 111.85 389.6 110.7 387.8 108.2 L387.65 107.95 Q385.95 101.55 390.0 95.1 L391.75 94.15 Q391.1 94.3 391.15 93.75 391.8 87.95 391.85 77.25 L391.85 76.35 Q391.85 65.45 391.35 62.5 L391.3 62.45 391.3 62.5 Q391.1 61.15 390.15 60.55 387.0 58.8 385.9 56.85 L385.9 56.9 M420.8 45.85 Q420.8 40.05 415.9 40.05 L408.05 41.0 Q402.65 41.95 399.2 42.95 394.05 44.55 391.5 46.5 388.95 48.5 388.95 51.4 388.95 52.6 389.4 53.55 L389.9 54.45 Q390.75 55.7 392.85 56.85 395.3 58.35 396.0 61.5 396.55 64.6 396.55 76.25 L396.55 77.25 Q396.5 88.15 395.85 94.15 395.4 97.3 394.05 97.85 391.85 98.9 391.0 99.75 390.25 100.5 390.25 102.1 390.25 103.85 391.6 105.45 392.85 107.1 395.85 107.85 398.75 109.25 408.3 109.25 416.8 109.25 420.65 108.1 422.65 107.5 423.9 105.9 425.35 104.35 425.35 102.45 425.35 100.85 424.5 99.9 423.65 98.95 421.65 98.15 420.1 97.45 419.85 96.1 419.6 94.65 419.6 84.4 L419.6 67.85 Q419.7 61.8 420.25 53.55 L420.25 53.15 420.8 45.85" fill="#d5aaff" fill-rule="evenodd" stroke="none"/>
    <path d="M191.95 53.55 Q196.4 57.5 196.4 62.95 196.4 67.5 193.5 69.15 190.15 73.25 185.85 73.25 181.3 73.25 179.05 69.85 178.35 68.85 177.0 64.85 176.0 61.5 172.95 61.5 170.85 61.5 169.3 63.55 167.7 65.45 167.7 68.5 167.7 73.45 170.8 77.25 L171.6 78.2 Q174.7 81.6 179.45 81.6 L183.25 81.2 187.0 79.65 Q188.2 79.15 189.3 79.15 191.4 79.15 192.95 81.0 194.45 82.85 194.45 85.3 194.45 87.75 192.5 90.35 190.7 93.0 187.55 94.95 180.95 98.9 172.1 98.9 161.7 98.9 154.45 92.9 146.6 86.6 145.3 77.25 145.0 75.35 145.0 73.3 145.0 62.0 153.8 54.5 L154.95 53.55 Q162.85 47.35 173.85 47.35 182.8 47.35 189.65 51.8 L191.95 53.55" fill="#d5d500" fill-rule="evenodd" stroke="none"/>
  </g>
</svg>
