<?xml version="1.0" encoding="UTF-8" standalone="no"?>
<svg xmlns:ffdec="https://www.free-decompiler.com/flash" xmlns:xlink="http://www.w3.org/1999/xlink" ffdec:objectType="shape" height="32.45px" width="32.0px" xmlns="http://www.w3.org/2000/svg">
  <g transform="matrix(1.0, 0.0, 0.0, 1.0, 0.0, 23.15)">
    <path d="M0.1 1.35 L0.1 1.05 32.0 1.05 32.0 1.35 0.1 1.35" fill="#000000" fill-opacity="0.101960786" fill-rule="evenodd" stroke="none"/>
    <path d="M32.0 1.35 L32.0 1.95 0.1 1.95 0.1 1.35 32.0 1.35" fill="#000000" fill-opacity="0.2" fill-rule="evenodd" stroke="none"/>
    <path d="M32.0 1.95 L32.0 2.7 0.1 2.7 0.1 1.95 32.0 1.95" fill="#000000" fill-opacity="0.34901962" fill-rule="evenodd" stroke="none"/>
    <path d="M32.0 2.7 L32.0 3.7 0.1 3.7 0.1 2.7 32.0 2.7" fill="#000000" fill-opacity="0.4509804" fill-rule="evenodd" stroke="none"/>
    <path d="M32.0 3.7 L32.0 6.35 Q32.05 7.55 31.2 8.45 30.3 9.3 29.15 9.3 L2.95 9.3 Q1.8 9.3 0.9 8.45 0.05 7.55 0.1 6.35 L0.1 3.7 32.0 3.7" fill="#000000" fill-opacity="0.49803922" fill-rule="evenodd" stroke="none"/>
    <path d="M31.9 -13.9 L31.9 -13.6 0.0 -13.6 0.0 -13.9 31.9 -13.9" fill="#000000" fill-opacity="0.101960786" fill-rule="evenodd" stroke="none"/>
    <path d="M0.0 -13.9 L0.0 -14.5 31.9 -14.5 31.9 -13.9 0.0 -13.9" fill="#000000" fill-opacity="0.2" fill-rule="evenodd" stroke="none"/>
    <path d="M0.0 -14.5 L0.0 -15.25 31.9 -15.25 31.9 -14.5 0.0 -14.5" fill="#000000" fill-opacity="0.34901962" fill-rule="evenodd" stroke="none"/>
    <path d="M0.0 -15.25 L0.0 -16.25 31.9 -16.25 31.9 -15.25 0.0 -15.25" fill="#000000" fill-opacity="0.4509804" fill-rule="evenodd" stroke="none"/>
    <path d="M0.0 -16.25 L0.0 -20.2 Q-0.05 -21.4 0.8 -22.3 1.7 -23.15 2.85 -23.15 L29.05 -23.15 Q30.2 -23.15 31.1 -22.3 31.95 -21.4 31.9 -20.2 L31.9 -16.25 0.0 -16.25" fill="#000000" fill-opacity="0.49803922" fill-rule="evenodd" stroke="none"/>
  </g>
</svg>
