<?xml version="1.0" encoding="UTF-8" standalone="no"?>
<svg xmlns:ffdec="https://www.free-decompiler.com/flash" xmlns:xlink="http://www.w3.org/1999/xlink" ffdec:objectType="shape" height="38.1px" width="38.5px" xmlns="http://www.w3.org/2000/svg">
  <g transform="matrix(1.0, 0.0, 0.0, 1.0, 3.15, 25.85)">
    <path d="M35.35 -17.1 L-3.0 -17.1 -3.0 -21.75 Q-3.05 -23.4 -2.0 -24.7 -0.95 -25.85 0.45 -25.85 L31.95 -25.85 Q33.3 -25.85 34.45 -24.7 35.45 -23.4 35.35 -21.75 L35.35 -17.1 M-3.15 3.5 L35.2 3.5 35.2 8.15 Q35.25 9.8 34.2 11.1 33.15 12.25 31.75 12.25 L0.25 12.25 Q-1.1 12.25 -2.25 11.1 -3.25 9.8 -3.15 8.15 L-3.15 3.5" fill="#ff0000" fill-rule="evenodd" stroke="none"/>
  </g>
</svg>
