<?xml version="1.0" encoding="UTF-8" standalone="no"?>
<svg xmlns:ffdec="https://www.free-decompiler.com/flash" xmlns:xlink="http://www.w3.org/1999/xlink" ffdec:objectType="shape" height="41.95px" width="41.2px" xmlns="http://www.w3.org/2000/svg">
  <g transform="matrix(1.0, 0.0, 0.0, 1.0, 0.0, 0.0)">
    <path d="M2.25 36.95 L1.45 36.2 3.4 34.5 3.7 34.85 2.25 36.95 M35.8 1.7 L36.4 2.5 34.15 3.75 33.85 3.35 35.8 1.7" fill="#cbcbde" fill-rule="evenodd" stroke="none"/>
    <path d="M0.85 35.4 L0.4 34.5 2.85 33.65 3.1 34.15 0.85 35.4 M34.15 0.5 L35.05 1.0 33.4 3.0 32.95 2.75 34.15 0.5" fill="#f2f2f7" fill-rule="evenodd" stroke="none"/>
    <path d="M3.05 37.4 L2.25 36.95 3.7 34.85 4.15 35.1 3.05 37.4 M36.4 2.5 L36.85 3.3 34.4 4.15 34.25 3.85 34.15 3.75 36.4 2.5" fill="#b7b7d2" fill-rule="evenodd" stroke="none"/>
    <path d="M1.45 36.2 L0.85 35.4 3.1 34.15 3.4 34.5 1.45 36.2 M35.05 1.0 L35.8 1.7 33.85 3.35 33.4 3.0 35.05 1.0" fill="#dedeeb" fill-rule="evenodd" stroke="none"/>
    <path d="M37.25 4.65 L37.3 5.5 37.3 32.4 Q37.3 34.7 35.65 36.35 34.05 37.95 31.85 38.0 L5.45 38.0 4.6 37.95 4.4 37.9 Q3.7 37.75 3.05 37.4 L4.15 35.1 5.45 35.35 31.85 35.35 Q33.0 35.35 33.9 34.5 34.75 33.6 34.7 32.4 L34.7 31.45 34.7 7.7 34.65 4.9 34.4 4.15 36.85 3.3 37.05 3.85 37.2 4.45 37.25 4.65" fill="#a4a4c6" fill-rule="evenodd" stroke="none"/>
    <path d="M0.4 34.5 Q0.0 33.5 0.0 32.4 L0.0 5.5 Q0.0 3.2 1.6 1.55 3.2 -0.05 5.45 0.0 L31.85 0.0 Q33.1 -0.05 34.15 0.5 L32.95 2.75 31.85 2.65 5.45 2.65 Q4.3 2.6 3.4 3.4 L3.4 3.45 3.1 3.85 Q2.75 4.35 2.65 4.9 L2.6 7.25 2.6 31.85 2.6 32.4 Q2.55 33.1 2.85 33.65 L0.4 34.5" fill="#ffffff" fill-rule="evenodd" stroke="none"/>
    <path d="M2.85 33.65 Q2.55 33.1 2.6 32.4 L2.6 31.85 Q4.05 33.1 7.65 33.3 L29.5 33.3 Q32.85 33.2 34.7 31.45 L34.7 32.4 Q34.75 33.6 33.9 34.5 33.0 35.35 31.85 35.35 L5.45 35.35 4.15 35.1 3.7 34.85 3.4 34.5 3.1 34.15 2.85 33.65" fill="#000000" fill-opacity="0.101960786" fill-rule="evenodd" stroke="none"/>
    <path d="M32.95 2.75 L33.4 3.0 33.85 3.35 34.15 3.75 34.25 3.85 34.4 4.15 34.65 4.9 34.7 7.7 Q19.35 3.35 2.6 7.25 L2.65 4.9 Q2.75 4.35 3.1 3.85 L3.4 3.45 3.4 3.4 Q4.3 2.6 5.45 2.65 L31.85 2.65 32.95 2.75" fill="#ffffff" fill-opacity="0.2509804" fill-rule="evenodd" stroke="none"/>
    <path d="M37.25 4.65 Q41.2 6.3 41.2 11.95 L41.2 33.95 Q41.2 41.95 33.2 41.95 L11.9 41.95 Q6.25 41.95 4.6 37.95 L5.45 38.0 31.85 38.0 Q34.05 37.95 35.65 36.35 37.3 34.7 37.3 32.4 L37.3 5.5 37.25 4.65" fill="#000000" fill-opacity="0.2" fill-rule="evenodd" stroke="none"/>
  </g>
</svg>
