<?xml version="1.0" encoding="UTF-8" standalone="no"?>
<svg xmlns:ffdec="https://www.free-decompiler.com/flash" xmlns:xlink="http://www.w3.org/1999/xlink" ffdec:objectType="shape" height="41.25px" width="40.3px" xmlns="http://www.w3.org/2000/svg">
  <g transform="matrix(1.0, 0.0, 0.0, 1.0, 1.55, 1.5)">
    <path d="M31.85 -1.5 Q34.6 -1.45 36.65 0.6 38.75 2.7 38.75 5.6 L38.75 32.65 Q38.75 35.55 36.65 37.65 34.6 39.7 31.85 39.75 L5.4 39.75 4.4 39.7 4.1 39.65 4.05 39.65 2.4 39.05 2.3 39.0 1.35 38.45 1.2 38.3 0.35 37.5 -0.4 36.55 -1.05 35.2 -1.05 35.3 Q-1.55 34.05 -1.55 32.65 L-1.55 5.6 Q-1.55 4.2 -1.05 2.95 L-1.05 3.05 -0.4 1.7 0.35 0.75 1.2 -0.05 1.35 -0.2 2.3 -0.75 2.4 -0.8 4.05 -1.4 4.1 -1.4 4.4 -1.45 5.4 -1.5 31.85 -1.5 M31.8 4.15 L5.4 4.15 4.7 4.25 4.8 4.25 4.6 4.3 4.55 4.4 4.5 4.45 4.35 4.65 4.15 5.0 4.15 5.05 4.05 5.5 4.05 5.6 4.05 32.65 4.05 32.75 4.15 33.2 4.15 33.25 4.35 33.6 4.5 33.8 4.55 33.85 4.6 33.95 4.8 34.0 4.7 34.0 5.4 34.1 31.8 34.1 32.75 33.75 32.85 33.65 33.15 32.75 33.15 32.65 33.15 5.6 33.15 5.5 32.85 4.6 32.75 4.5 Q32.3 4.15 31.8 4.15" fill="#ff9900" fill-rule="evenodd" stroke="none"/>
  </g>
</svg>
