<?xml version="1.0" encoding="UTF-8" standalone="no"?>
<svg xmlns:ffdec="https://www.free-decompiler.com/flash" xmlns:xlink="http://www.w3.org/1999/xlink" ffdec:objectType="shape" height="265.5px" width="558.9px" xmlns="http://www.w3.org/2000/svg">
  <g transform="matrix(1.0, 0.0, 0.0, 1.0, -176.55, -57.3)">
    <path d="M735.4 146.45 L735.45 146.75 735.4 146.75 735.25 146.75 735.4 146.4 735.4 146.45 M658.95 322.3 L658.8 322.8 658.65 322.4 658.95 322.3 M394.65 143.55 L394.4 143.55 394.6 143.15 394.65 143.15 394.8 143.5 394.65 143.55 M602.55 273.35 L602.45 273.55 602.3 273.2 602.55 273.35 M568.8 273.65 L568.75 273.65 568.75 273.55 568.8 273.65 M176.6 57.4 L176.55 57.4 176.55 57.3 176.6 57.4" fill="#f0f0ff" fill-rule="evenodd" stroke="none"/>
  </g>
</svg>
