<?xml version="1.0" encoding="UTF-8" standalone="no"?>
<svg xmlns:ffdec="https://www.free-decompiler.com/flash" xmlns:xlink="http://www.w3.org/1999/xlink" ffdec:objectType="shape" height="493.8px" width="779.1px" xmlns="http://www.w3.org/2000/svg">
  <g transform="matrix(1.0, 0.0, 0.0, 1.0, 260.45, 129.45)">
    <path d="M0.8 -115.9 L0.75 -116.05 Q0.0 -118.55 0.0 -119.85 L0.0 -121.5 Q0.0 -122.25 0.8 -123.3 3.15 -126.5 5.55 -126.5 L7.1 -126.15 10.2 -125.85 15.7 -126.75 20.1 -127.7 Q21.05 -127.7 21.55 -127.05 22.05 -126.4 23.05 -126.4 L24.25 -126.8 26.4 -127.55 Q28.15 -128.7 29.3 -128.7 30.55 -128.7 32.55 -127.55 L34.85 -126.45 Q35.05 -126.45 35.35 -126.7 L36.2 -126.95 Q37.05 -126.95 37.25 -126.35 37.45 -125.65 38.5 -125.4 L39.8 -124.6 39.95 -123.55 Q39.95 -122.3 39.1 -121.5 38.3 -120.7 38.3 -119.95 38.3 -118.95 38.75 -117.75 L39.2 -116.2 39.15 -115.65 Q39.05 -115.2 38.6 -115.1 L37.8 -117.35 37.6 -118.1 37.15 -119.0 Q36.9 -119.4 36.0 -119.7 L34.75 -119.95 33.85 -121.25 Q33.25 -122.05 32.35 -122.3 L30.75 -122.8 29.5 -122.9 28.15 -122.75 26.05 -122.2 23.9 -121.45 22.3 -121.2 19.0 -122.2 14.9 -123.05 Q13.3 -123.05 11.6 -122.05 9.9 -121.05 8.4 -121.05 7.65 -121.05 6.75 -121.4 L4.5 -121.8 Q2.65 -121.8 2.25 -118.85 L1.6 -117.1 0.8 -115.9 M478.8 -75.95 L478.85 -78.5 478.95 -79.15 480.1 -82.45 480.5 -83.25 481.2 -84.0 Q482.65 -85.1 484.45 -85.25 L487.1 -84.1 490.3 -84.0 493.15 -84.75 495.2 -84.8 498.85 -84.1 500.95 -83.75 502.95 -83.8 Q504.0 -84.2 505.0 -85.4 506.0 -86.65 510.35 -85.45 511.7 -85.65 513.25 -84.5 L514.1 -85.05 Q517.25 -86.15 517.35 -82.6 517.6 -80.5 516.85 -79.2 518.25 -71.15 516.55 -71.15 515.4 -73.7 514.7 -76.45 L514.55 -78.35 Q514.55 -79.5 514.25 -79.8 513.0 -81.2 511.0 -81.2 L506.65 -80.9 500.2 -80.6 493.85 -80.95 Q491.75 -80.95 490.1 -79.55 L488.05 -78.2 487.0 -78.9 Q486.2 -79.65 484.65 -79.65 483.65 -79.65 482.95 -79.15 L481.35 -77.9 479.95 -76.75 478.8 -75.95 M428.95 101.3 Q427.8 98.75 427.1 96.0 L426.95 94.1 Q426.95 92.95 426.65 92.65 425.4 91.25 423.4 91.25 L419.05 91.55 412.6 91.85 406.25 91.5 Q404.15 91.5 402.5 92.9 400.8 94.25 400.45 94.25 L399.4 93.55 Q398.6 92.8 397.05 92.8 396.05 92.8 395.35 93.3 L393.75 94.55 392.35 95.7 391.2 96.5 391.25 93.95 391.35 93.3 392.5 90.0 392.9 89.2 393.6 88.45 Q395.05 87.35 396.85 87.2 398.4 87.8 399.5 88.35 L402.7 88.45 405.55 87.7 407.6 87.65 411.25 88.35 413.35 88.7 415.35 88.65 417.4 87.05 Q418.4 85.8 422.75 87.0 424.1 86.8 425.65 87.95 L426.5 87.4 Q429.65 86.3 429.75 89.85 430.0 91.95 429.25 93.25 430.65 101.3 428.95 101.3 M480.2 234.4 L480.05 234.4 Q479.25 234.4 478.75 232.05 478.4 230.45 478.4 229.55 478.4 228.5 478.8 227.8 479.15 227.1 479.15 225.7 L478.95 223.9 478.75 222.45 478.85 221.5 Q479.15 221.0 480.3 220.6 L482.0 219.7 Q483.25 219.05 484.65 219.05 L486.2 219.3 487.3 219.5 490.95 218.45 494.6 217.3 Q495.5 217.2 497.35 217.95 499.45 218.8 502.75 218.8 L505.1 218.35 Q506.25 217.9 506.6 217.9 L509.6 217.6 511.45 217.25 Q512.85 217.25 513.35 217.9 L513.7 218.75 Q514.15 219.5 515.15 220.25 L517.7 223.2 518.4 226.55 518.65 229.15 Q518.65 231.05 517.95 231.75 517.2 232.45 516.95 233.45 516.75 234.05 516.2 234.05 L516.15 233.75 516.15 233.7 516.15 228.0 Q515.8 223.2 514.0 223.2 L510.8 223.45 510.7 223.45 508.6 223.35 503.95 222.5 499.45 221.85 497.05 222.35 493.75 222.7 Q491.65 222.5 490.1 222.75 L488.45 223.2 487.35 223.35 486.05 223.2 484.75 223.0 Q482.45 223.0 482.3 224.55 L481.8 228.15 Q480.55 230.7 480.6 231.35 480.75 233.0 480.2 234.4 M393.45 234.4 L393.3 234.4 Q392.5 234.4 392.25 232.45 391.95 230.5 392.1 229.6 L392.35 227.9 392.4 225.7 392.2 223.9 Q392.0 223.2 392.3 222.55 L392.75 221.55 393.55 220.8 395.25 219.7 Q396.5 219.05 397.9 219.05 L399.75 218.9 Q400.4 218.75 400.95 218.9 L404.4 218.2 407.85 217.3 410.3 217.7 414.15 218.2 418.0 218.1 419.85 217.9 422.85 217.6 Q423.8 217.25 423.85 217.85 423.9 218.4 425.35 218.35 426.75 218.3 426.95 218.75 427.4 219.5 428.4 220.25 L430.95 223.2 431.65 226.55 431.9 229.15 Q431.9 231.05 431.2 231.75 430.45 232.45 430.2 233.45 430.0 234.05 429.45 234.05 L429.4 233.75 429.4 233.7 429.4 228.0 Q429.05 223.2 427.25 223.2 L424.05 223.45 423.95 223.45 421.85 223.35 417.2 222.5 412.7 221.85 410.3 222.35 Q408.9 222.85 407.05 222.3 L403.7 222.1 Q402.2 222.45 401.9 222.9 401.55 223.35 400.6 223.35 L399.3 223.2 398.0 223.0 Q395.7 223.0 395.55 224.55 L395.05 228.15 Q393.8 230.7 393.85 231.35 394.0 233.0 393.45 234.4 M393.05 316.95 L392.6 316.65 392.55 316.3 392.85 312.6 392.45 311.5 Q392.0 310.8 392.0 310.25 392.0 309.55 392.15 309.3 392.4 308.75 393.25 308.6 394.65 308.3 394.75 307.9 394.65 307.4 395.0 307.05 L396.15 306.35 397.7 305.35 Q398.45 304.7 401.1 304.9 L403.7 305.75 405.3 305.7 406.15 305.0 Q406.35 304.4 412.85 304.3 413.55 303.55 415.05 303.55 416.3 303.55 417.25 304.5 418.25 305.4 422.9 305.4 L423.75 305.4 425.75 305.8 Q427.35 306.2 428.55 306.9 429.75 307.55 429.8 309.05 L430.85 311.6 Q431.3 312.65 431.3 313.75 431.1 316.2 430.5 317.2 430.35 316.3 429.6 314.95 428.8 313.35 427.8 312.3 L426.25 309.95 Q425.1 308.45 423.3 308.45 421.9 308.45 420.2 309.45 418.45 310.45 417.75 310.25 L415.05 309.0 Q413.1 307.9 412.15 307.9 L408.7 308.2 405.85 308.6 403.9 309.65 399.85 310.05 398.35 309.85 Q397.1 309.85 396.75 311.1 396.35 312.55 394.35 313.0 393.5 313.2 393.25 314.65 L393.05 316.95 M479.65 361.3 L479.2 361.0 479.15 360.65 479.45 356.95 479.05 355.85 Q478.6 355.15 478.6 354.6 478.6 353.9 478.75 353.65 479.0 353.1 479.85 352.95 481.25 352.65 481.35 352.25 481.25 351.75 481.6 351.4 481.9 351.05 482.75 350.7 L484.3 349.7 Q485.05 349.05 487.7 349.25 L490.3 350.1 491.9 350.05 Q492.55 349.95 492.75 349.35 492.95 348.75 499.45 348.65 500.15 347.9 501.65 347.9 502.9 347.9 503.85 348.85 504.85 349.75 509.5 349.75 L510.35 349.75 512.35 350.15 Q513.95 350.55 515.15 351.25 516.35 351.9 516.4 353.4 L517.45 355.95 Q517.9 357.0 517.9 358.1 517.7 360.55 517.1 361.55 516.95 360.65 516.2 359.3 515.4 357.7 514.4 356.65 L512.85 354.3 Q511.7 352.8 509.9 352.8 508.5 352.8 506.8 353.8 505.05 354.8 504.35 354.6 L501.65 353.35 Q499.7 352.25 498.75 352.25 L495.3 352.55 492.45 352.95 Q491.25 353.8 490.5 354.0 L486.45 354.4 484.95 354.2 Q483.7 354.2 483.35 355.45 482.95 356.9 480.95 357.35 480.1 357.55 479.85 359.0 L479.65 361.3 M44.95 275.8 L44.75 275.8 Q44.15 275.8 43.85 275.45 L43.6 274.9 44.0 274.15 44.35 273.0 43.75 267.65 Q43.75 266.15 44.5 265.95 L46.55 265.25 47.05 264.0 Q47.65 262.9 49.3 262.9 50.2 262.9 51.35 263.35 L52.5 263.8 Q55.25 263.8 56.25 262.85 57.2 261.85 58.5 261.85 61.6 263.7 62.35 263.15 63.1 262.55 63.75 262.35 L66.1 261.45 69.55 260.2 72.7 260.25 Q74.1 260.9 74.55 262.3 75.0 263.65 75.8 262.7 76.55 261.75 78.55 261.9 80.55 262.05 80.35 263.4 80.1 264.7 80.5 265.1 L81.45 266.75 Q82.0 267.95 82.0 269.9 L82.0 271.55 81.85 272.15 79.0 268.85 Q77.45 267.0 73.6 266.8 L72.6 265.85 Q71.6 264.9 69.55 266.4 67.5 267.9 66.35 267.95 L65.15 268.0 60.3 267.4 Q59.05 266.8 57.85 266.8 56.6 266.8 55.95 267.35 55.3 267.95 53.4 268.0 L50.35 267.95 Q49.1 267.95 47.85 268.5 46.35 269.15 46.45 271.75 46.6 274.55 44.95 275.8 M38.25 229.5 L38.05 227.2 Q37.8 225.75 36.95 225.55 34.95 225.1 34.55 223.65 34.2 222.4 32.95 222.4 L31.45 222.6 27.4 222.2 Q26.65 222.0 25.45 221.15 L22.6 220.75 19.15 220.45 Q18.2 220.45 15.95 221.25 13.75 222.05 12.75 222.05 L10.65 221.55 Q9.4 221.0 8.0 221.0 6.2 221.0 5.05 222.5 L3.5 224.85 Q2.5 225.9 1.7 227.5 0.95 228.85 0.8 229.75 0.2 228.75 0.0 226.3 0.0 225.2 0.45 224.15 L1.5 221.6 Q1.55 220.1 1.95 219.05 2.75 217.0 5.4 217.0 6.6 217.0 7.25 217.5 L8.4 217.95 Q13.05 217.95 14.05 217.05 15.0 216.1 16.25 216.1 17.75 216.1 18.45 216.85 19.15 217.55 20.25 217.55 L22.8 217.35 Q25.25 217.35 25.95 217.85 26.65 218.3 27.6 218.3 L30.2 217.45 Q32.75 216.55 33.45 216.55 35.3 216.55 36.1 217.95 L36.55 219.6 36.55 220.45 Q36.65 220.85 38.05 221.15 38.9 221.3 39.15 221.85 L39.3 222.8 38.85 224.05 38.45 225.15 38.75 228.85 38.7 229.2 38.25 229.5 M43.95 358.95 Q43.35 357.95 43.15 355.5 43.15 354.4 43.6 353.35 L44.65 350.8 Q44.7 349.3 45.1 348.25 45.9 346.2 48.55 346.2 49.75 346.2 50.4 346.7 L51.55 347.15 Q56.2 347.15 57.2 346.25 58.15 345.3 59.4 345.3 60.9 345.3 61.6 346.05 62.3 346.75 63.4 346.75 L65.95 346.55 Q68.4 346.55 69.1 347.05 L70.75 347.5 73.35 346.65 Q75.9 345.75 76.6 345.75 78.45 345.75 79.25 347.15 L79.7 348.8 79.7 349.65 Q79.8 350.05 81.2 350.35 82.05 350.5 82.3 351.05 L82.45 352.0 82.0 353.25 81.6 354.35 81.9 358.05 81.85 358.4 81.4 358.7 81.2 356.4 Q80.95 354.95 80.1 354.75 78.1 354.3 77.7 352.85 77.35 351.6 76.1 351.6 L74.6 351.8 70.55 351.4 Q69.8 351.2 68.6 350.35 L65.75 349.95 62.3 349.65 59.1 350.45 Q56.9 351.25 55.9 351.25 L53.8 350.75 Q52.55 350.2 51.15 350.2 49.35 350.2 48.2 351.7 L46.65 354.05 Q45.65 355.1 44.85 356.7 44.1 358.05 43.95 358.95 M0.65 317.35 L0.2 317.05 0.15 316.7 0.45 313.0 0.05 311.9 -0.4 310.65 -0.25 309.7 Q0.0 309.15 0.85 309.0 2.25 308.7 2.35 308.3 L2.35 307.45 2.8 305.8 Q3.6 304.4 5.45 304.4 6.15 304.4 8.7 305.3 L11.3 306.15 12.95 305.7 Q13.65 305.2 16.1 305.2 L18.65 305.4 Q19.75 305.4 20.45 304.7 21.15 303.95 22.65 303.95 23.9 303.95 24.85 304.9 25.85 305.8 30.5 305.8 L31.65 305.35 Q32.3 304.85 33.5 304.85 36.15 304.85 36.95 306.9 37.35 307.95 37.4 309.45 L38.45 312.0 Q38.9 313.05 38.9 314.15 38.7 316.6 38.1 317.6 37.95 316.7 37.2 315.35 36.4 313.75 35.4 312.7 L33.85 310.35 Q32.7 308.85 30.9 308.85 29.5 308.85 28.25 309.4 L26.15 309.9 Q25.15 309.9 22.95 309.1 L19.75 308.3 16.3 308.6 13.45 309.0 11.5 310.05 7.45 310.45 5.95 310.25 Q4.7 310.25 4.35 311.5 3.95 312.95 1.95 313.4 1.1 313.6 0.85 315.05 L0.65 317.35 M-223.15 -28.5 Q-224.8 -29.75 -224.65 -32.55 -224.55 -35.15 -226.05 -35.8 -227.3 -36.35 -228.55 -36.35 L-231.6 -36.3 Q-233.5 -36.35 -234.15 -36.95 -234.8 -37.5 -236.05 -37.5 -237.25 -37.5 -238.5 -36.9 L-243.35 -36.3 -243.45 -36.3 -248.05 -36.9 Q-250.25 -37.5 -251.7 -37.5 L-251.8 -37.5 Q-255.65 -37.3 -257.2 -35.45 L-260.05 -32.15 -260.2 -32.75 -260.2 -34.4 Q-260.2 -36.35 -259.85 -37.6 L-258.5 -41.05 -258.4 -41.9 -258.4 -42.75 Q-258.15 -43.6 -257.9 -43.7 L-253.7 -43.55 Q-252.3 -43.4 -251.3 -42.0 -250.4 -40.7 -248.7 -40.7 L-246.8 -41.0 -245.35 -41.35 Q-244.65 -41.35 -243.9 -40.95 -243.15 -40.6 -242.8 -40.6 -238.25 -42.45 -236.7 -42.45 -235.4 -42.45 -234.45 -41.45 -233.45 -40.5 -230.7 -40.5 -230.15 -40.7 -229.55 -40.95 L-227.5 -41.4 Q-225.85 -41.4 -225.25 -40.3 L-224.75 -39.05 -222.7 -38.35 Q-221.95 -38.15 -221.95 -36.65 L-222.55 -31.3 -222.2 -30.15 -221.8 -29.4 -222.05 -28.85 Q-222.35 -28.5 -222.95 -28.5 L-223.15 -28.5 M-259.65 12.4 Q-260.25 11.4 -260.45 8.95 -260.45 7.85 -260.0 6.8 L-258.95 4.25 Q-258.9 2.75 -258.5 1.7 -257.7 -0.35 -255.05 -0.35 -253.85 -0.35 -253.2 0.15 L-252.05 0.6 Q-247.4 0.6 -246.4 -0.3 -245.45 -1.25 -244.2 -1.25 -242.7 -1.25 -242.0 -0.5 -241.3 0.2 -240.2 0.2 L-237.65 0.0 Q-235.2 0.0 -234.5 0.5 L-232.85 0.95 -230.25 0.1 -227.0 -0.8 Q-225.15 -0.8 -224.35 0.6 L-223.9 2.25 -223.9 3.1 Q-223.8 3.5 -222.4 3.8 -221.55 3.95 -221.3 4.5 -221.15 4.75 -221.15 5.45 -221.15 6.0 -221.6 6.7 L-222.0 7.8 -221.7 11.5 -221.75 11.85 -222.2 12.15 -222.4 9.85 Q-222.65 8.4 -223.5 8.2 -225.5 7.75 -225.9 6.3 -226.25 5.05 -227.5 5.05 L-229.0 5.25 -233.05 4.85 -235.0 3.8 -237.85 3.4 -241.3 3.1 -244.5 3.9 Q-246.7 4.7 -247.7 4.7 L-249.8 4.2 Q-251.05 3.65 -252.45 3.65 -254.25 3.65 -255.4 5.15 L-256.95 7.5 Q-257.95 8.55 -258.75 10.15 -259.5 11.5 -259.65 12.4 M-85.4 -112.3 L-85.55 -112.3 Q-86.35 -112.3 -86.85 -114.65 L-87.2 -117.15 Q-87.2 -118.2 -86.8 -118.9 -86.45 -119.6 -86.45 -121.0 L-86.65 -122.8 -86.85 -124.25 -86.75 -125.2 Q-86.45 -125.7 -85.3 -126.1 -84.75 -126.3 -83.6 -127.0 -82.35 -127.65 -80.95 -127.65 L-79.4 -127.4 -78.3 -127.2 -74.65 -128.25 -71.0 -129.4 Q-70.1 -129.5 -68.25 -128.75 -66.15 -127.9 -62.85 -127.9 L-60.5 -128.35 -59.0 -128.8 -56.0 -129.1 -54.15 -129.45 Q-52.75 -129.45 -52.25 -128.8 L-51.9 -127.95 -50.45 -126.45 -47.9 -123.5 -47.2 -120.15 Q-46.95 -119.2 -46.95 -117.55 -46.95 -115.65 -47.65 -114.95 -48.4 -114.25 -48.65 -113.25 -48.85 -112.65 -49.4 -112.65 L-49.45 -112.95 -49.45 -113.0 -49.45 -118.7 Q-49.8 -123.5 -51.6 -123.5 L-54.8 -123.25 -54.9 -123.25 -57.0 -123.35 -61.65 -124.2 -66.15 -124.85 -68.55 -124.35 -71.85 -124.0 Q-73.95 -124.2 -75.5 -123.95 L-77.15 -123.5 -78.25 -123.35 -79.55 -123.5 -80.85 -123.7 Q-83.15 -123.7 -83.3 -122.15 -83.6 -119.0 -83.8 -118.55 -85.05 -116.0 -85.0 -115.35 -84.85 -113.7 -85.4 -112.3 M-129.4 -115.1 Q-129.85 -115.2 -129.95 -115.65 L-130.0 -116.2 -129.55 -117.75 Q-129.1 -118.95 -129.1 -119.95 -129.1 -120.7 -129.9 -121.5 -130.75 -122.3 -130.75 -123.55 L-130.6 -124.6 Q-130.3 -125.15 -129.3 -125.4 -128.25 -125.65 -128.05 -126.35 -127.85 -126.95 -127.0 -126.95 L-126.15 -126.7 Q-125.85 -126.45 -125.65 -126.45 -125.4 -126.45 -123.35 -127.55 -121.35 -128.7 -120.1 -128.7 -118.95 -128.7 -117.2 -127.55 -116.05 -127.3 -115.05 -126.8 L-113.85 -126.4 Q-112.85 -126.4 -112.35 -127.05 -111.85 -127.7 -110.9 -127.7 L-106.5 -126.75 -101.0 -125.85 -97.9 -126.15 -96.35 -126.5 Q-93.95 -126.5 -91.6 -123.3 -90.8 -122.25 -90.8 -121.5 L-90.8 -119.85 Q-90.8 -118.55 -91.55 -116.05 L-91.6 -115.9 -92.4 -117.1 Q-92.95 -117.95 -93.05 -118.85 -93.45 -121.8 -95.3 -121.8 L-97.55 -121.4 Q-98.45 -121.05 -99.2 -121.05 -100.7 -121.05 -102.4 -122.05 -104.1 -123.05 -105.7 -123.05 -107.55 -123.05 -109.8 -122.2 L-113.1 -121.2 Q-113.1 -120.95 -114.7 -121.45 L-116.85 -122.2 -118.95 -122.75 -120.3 -122.9 -121.55 -122.8 -123.15 -122.3 Q-124.05 -122.05 -124.65 -121.25 L-125.55 -119.95 -126.8 -119.7 -127.95 -119.0 -128.4 -118.1 -128.6 -117.35 -129.4 -115.1 M-41.75 -28.65 L-41.75 -28.6 -41.8 -28.3 Q-42.35 -28.3 -42.55 -28.9 -42.8 -29.9 -43.55 -30.6 -44.25 -31.3 -44.25 -33.2 L-44.0 -35.8 -43.3 -39.15 -40.75 -42.1 Q-39.75 -42.85 -39.3 -43.6 L-38.95 -44.45 Q-38.45 -45.1 -37.05 -45.1 L-35.2 -44.75 -32.2 -44.45 -30.7 -44.0 -28.35 -43.55 Q-25.05 -43.55 -22.95 -44.4 -21.1 -45.15 -20.2 -45.05 L-16.55 -43.9 -12.9 -42.85 -11.8 -43.05 -10.25 -43.3 Q-8.85 -43.3 -7.6 -42.65 -6.45 -41.95 -5.9 -41.75 L-4.45 -40.85 -4.35 -39.9 -4.55 -38.45 -4.75 -36.65 Q-4.75 -35.25 -4.4 -34.55 -4.0 -33.85 -4.0 -32.8 -4.0 -31.9 -4.35 -30.3 -4.85 -27.95 -5.65 -27.95 L-5.8 -27.95 Q-6.35 -29.35 -6.2 -31.0 -6.15 -31.65 -7.4 -34.2 L-7.9 -37.8 Q-8.05 -39.35 -10.35 -39.35 L-11.65 -39.15 -12.95 -39.0 -14.05 -39.15 -15.7 -39.6 Q-17.25 -39.85 -19.35 -39.65 L-22.65 -40.0 -25.05 -40.5 -29.55 -39.85 -34.2 -39.0 -36.3 -38.9 -36.4 -38.9 -39.6 -39.15 Q-41.4 -39.15 -41.75 -34.35 L-41.75 -28.65 M-129.95 57.35 Q-130.55 56.35 -130.75 53.9 L-130.3 51.75 -129.25 49.2 Q-129.2 47.7 -128.8 46.65 -128.0 44.6 -125.35 44.6 -124.15 44.6 -123.5 45.1 L-122.35 45.55 Q-117.7 45.55 -116.7 44.65 -115.75 43.7 -114.5 43.7 -113.0 43.7 -112.3 44.45 -111.6 45.15 -110.5 45.15 L-107.95 44.95 Q-105.5 44.95 -104.8 45.45 L-103.15 45.9 -100.55 45.05 Q-98.0 44.15 -97.3 44.15 -95.45 44.15 -94.65 45.55 L-94.2 47.2 -94.2 48.05 Q-94.1 48.45 -92.7 48.75 -91.85 48.9 -91.6 49.45 -91.45 49.7 -91.45 50.4 -91.45 50.95 -91.9 51.65 L-92.3 52.75 -92.0 56.45 -92.05 56.8 -92.5 57.1 -92.7 54.8 Q-92.95 53.35 -93.8 53.15 -95.8 52.7 -96.2 51.25 -96.55 50.0 -97.8 50.0 L-99.3 50.2 -103.35 49.8 Q-104.1 49.6 -105.3 48.75 L-108.15 48.35 -111.6 48.05 Q-112.55 48.05 -114.8 48.85 -117.0 49.65 -118.0 49.65 L-120.1 49.15 Q-121.35 48.6 -122.75 48.6 -124.55 48.6 -125.7 50.1 L-127.25 52.45 Q-128.25 53.5 -129.05 55.1 -129.8 56.45 -129.95 57.35 M-216.4 57.35 L-216.6 57.35 Q-217.2 57.35 -217.5 57.0 L-217.75 56.45 -217.35 55.7 Q-217.0 55.15 -217.0 54.55 L-217.6 49.2 Q-217.6 47.7 -216.85 47.5 L-214.8 46.8 -214.3 45.55 Q-213.7 44.45 -212.05 44.45 -211.15 44.45 -210.0 44.9 -209.4 45.15 -208.85 45.35 -206.1 45.35 -205.1 44.4 -204.15 43.4 -202.85 43.4 -201.3 43.4 -196.75 45.25 L-195.65 44.9 Q-194.9 44.5 -194.2 44.5 -193.7 44.5 -192.75 44.85 L-190.85 45.15 Q-189.15 45.15 -188.25 43.85 -187.25 42.45 -185.85 42.3 L-181.65 42.15 Q-181.4 42.25 -181.15 43.1 L-181.15 43.95 -181.05 44.8 Q-180.0 47.2 -179.7 48.25 -179.35 49.5 -179.35 51.45 L-179.35 53.1 -179.5 53.7 -182.35 50.4 Q-183.9 48.55 -187.75 48.35 L-187.85 48.35 -191.5 48.95 -196.1 49.55 -196.2 49.55 Q-199.8 49.55 -201.05 48.95 -202.3 48.35 -203.5 48.35 -204.75 48.35 -205.4 48.9 -206.05 49.5 -207.95 49.55 L-211.0 49.5 Q-212.25 49.5 -213.5 50.05 -215.0 50.7 -214.9 53.3 -214.75 56.1 -216.4 57.35 M-129.4 360.25 L-129.85 359.95 -129.9 359.6 -129.6 355.9 -130.0 354.8 -130.45 353.55 -130.3 352.6 Q-130.05 352.05 -129.2 351.9 -127.8 351.6 -127.7 351.2 L-127.7 350.35 -127.25 348.7 Q-126.45 347.3 -124.6 347.3 -123.9 347.3 -121.35 348.2 L-118.75 349.05 -117.1 348.6 Q-116.4 348.1 -113.95 348.1 L-111.4 348.3 Q-110.3 348.3 -109.6 347.6 -108.9 346.85 -107.4 346.85 -106.15 346.85 -105.2 347.8 -104.2 348.7 -99.55 348.7 L-98.4 348.25 Q-97.75 347.75 -96.55 347.75 -93.9 347.75 -93.1 349.8 -92.7 350.85 -92.65 352.35 L-91.6 354.9 Q-91.15 355.95 -91.15 357.05 -91.35 359.5 -91.95 360.5 -92.1 359.6 -92.85 358.25 -93.65 356.65 -94.65 355.6 L-96.2 353.25 Q-97.35 351.75 -99.15 351.75 -100.55 351.75 -101.8 352.3 L-103.9 352.8 Q-104.9 352.8 -107.1 352.0 L-110.3 351.2 -113.75 351.5 -116.6 351.9 Q-117.8 352.75 -118.55 352.95 L-122.6 353.35 -124.1 353.15 Q-125.35 353.15 -125.7 354.4 -126.1 355.85 -128.1 356.3 -128.95 356.5 -129.2 357.95 L-129.4 360.25 M-42.35 363.65 L-42.35 363.7 -42.4 364.0 Q-42.95 364.0 -43.15 363.4 -43.4 362.4 -44.15 361.7 -44.85 361.0 -44.85 359.1 L-44.6 356.5 -43.9 353.15 -41.35 350.2 Q-40.35 349.45 -39.9 348.7 L-39.55 347.85 Q-39.05 347.2 -37.65 347.2 L-35.8 347.55 -32.8 347.85 -31.3 348.3 -28.95 348.75 Q-25.65 348.75 -23.55 347.9 -21.7 347.15 -20.8 347.25 L-17.15 348.4 -13.5 349.45 -12.4 349.25 -10.85 349.0 Q-9.45 349.0 -8.2 349.65 L-6.5 350.55 Q-5.35 350.95 -5.05 351.45 L-4.95 352.4 -5.15 353.85 -5.35 355.65 Q-5.35 357.05 -5.0 357.75 -4.6 358.45 -4.6 359.5 -4.6 360.4 -4.95 362.0 -5.45 364.35 -6.25 364.35 L-6.4 364.35 Q-6.95 362.95 -6.8 361.3 -6.75 360.65 -8.0 358.1 L-8.5 354.5 Q-8.65 352.95 -10.95 352.95 L-12.25 353.15 -13.55 353.3 -14.65 353.15 Q-14.95 352.9 -16.3 352.7 -17.85 352.45 -19.95 352.65 L-23.25 352.3 Q-24.8 351.8 -25.65 351.8 L-30.15 352.45 -34.8 353.3 -36.9 353.4 -37.0 353.4 -40.2 353.15 Q-42.0 353.15 -42.35 357.95 L-42.35 363.65" fill="#ffffff" fill-rule="evenodd" stroke="none"/>
    <path d="M38.6 -115.1 L38.2 -115.15 Q37.8 -115.3 37.05 -116.35 36.05 -117.7 35.05 -118.0 L33.15 -117.85 Q32.6 -117.5 31.45 -118.6 31.2 -118.9 31.1 -119.45 L30.2 -120.55 Q29.4 -121.1 28.35 -121.1 27.35 -121.1 26.5 -120.45 25.7 -119.85 25.05 -119.85 L21.1 -119.55 19.8 -119.3 Q19.3 -119.3 18.3 -120.1 17.3 -120.9 15.55 -120.9 14.7 -120.9 12.4 -118.9 11.6 -118.1 10.45 -118.0 L9.5 -117.45 Q8.75 -116.95 8.3 -116.95 7.45 -116.95 6.75 -118.55 L5.7 -119.5 4.45 -120.3 Q4.15 -119.7 3.8 -116.1 3.55 -113.35 2.25 -113.35 1.6 -113.35 0.85 -115.7 L0.8 -115.9 1.6 -117.1 2.25 -118.85 Q2.65 -121.8 4.5 -121.8 L6.75 -121.4 Q7.65 -121.05 8.4 -121.05 9.9 -121.05 11.6 -122.05 13.3 -123.05 14.9 -123.05 L19.0 -122.2 22.3 -121.2 23.9 -121.45 26.05 -122.2 28.15 -122.75 29.5 -122.9 30.75 -122.8 32.35 -122.3 Q33.25 -122.05 33.85 -121.25 L34.75 -119.95 36.0 -119.7 Q36.9 -119.4 37.15 -119.0 L37.6 -118.1 37.8 -117.35 38.6 -115.1 M516.55 -71.15 L514.3 -72.05 512.6 -77.65 504.35 -78.95 Q499.65 -79.35 495.9 -78.1 493.5 -77.9 493.0 -79.35 490.95 -76.65 488.4 -76.15 485.55 -75.8 484.45 -78.2 480.95 -71.65 479.35 -73.65 L478.8 -75.95 479.95 -76.75 481.35 -77.9 482.95 -79.15 Q483.65 -79.65 484.65 -79.65 486.2 -79.65 487.0 -78.9 L488.05 -78.2 490.1 -79.55 Q491.75 -80.95 493.85 -80.95 L500.2 -80.6 506.65 -80.9 511.0 -81.2 Q513.0 -81.2 514.25 -79.8 514.55 -79.5 514.55 -78.35 L514.7 -76.45 Q515.4 -73.7 516.55 -71.15 M391.2 96.5 L392.35 95.7 393.75 94.55 395.35 93.3 Q396.05 92.8 397.05 92.8 398.6 92.8 399.4 93.55 L400.45 94.25 Q400.8 94.25 402.5 92.9 404.15 91.5 406.25 91.5 L412.6 91.85 419.05 91.55 423.4 91.25 Q425.4 91.25 426.65 92.65 426.95 92.95 426.95 94.1 L427.1 96.0 Q427.8 98.75 428.95 101.3 L426.7 100.4 425.0 94.8 416.75 93.5 Q412.05 93.1 408.3 94.35 405.9 94.55 405.4 93.1 403.35 95.8 400.8 96.3 397.95 96.65 396.85 94.25 393.35 100.8 391.75 98.8 L391.2 96.5 M480.2 234.4 Q480.75 233.0 480.6 231.35 480.55 230.7 481.8 228.15 L482.3 224.55 Q482.45 223.0 484.75 223.0 L486.05 223.2 487.35 223.35 488.45 223.2 490.1 222.75 Q491.65 222.5 493.75 222.7 L497.05 222.35 499.45 221.85 503.95 222.5 508.6 223.35 510.7 223.45 510.8 223.45 514.0 223.2 Q515.8 223.2 516.15 228.0 L516.15 233.7 516.0 234.05 Q514.75 233.95 514.65 232.15 L514.65 229.4 Q514.1 227.85 514.05 227.05 L513.9 225.65 Q513.7 224.7 513.15 224.7 L512.45 225.0 511.15 225.25 510.35 225.45 509.2 225.65 Q508.4 225.65 507.0 225.05 L505.4 224.45 504.2 224.9 503.15 225.45 501.25 226.05 500.0 226.0 498.6 225.7 497.85 225.35 494.75 225.0 493.25 225.35 491.75 225.65 486.9 225.25 Q486.4 224.8 485.2 224.8 483.45 224.8 483.3 225.95 L483.0 228.0 Q482.65 228.55 482.7 229.5 L482.85 231.15 Q482.85 232.65 482.05 233.55 481.35 234.35 480.2 234.4 M393.45 234.4 Q394.0 233.0 393.85 231.35 393.8 230.7 395.05 228.15 L395.55 224.55 Q395.7 223.0 398.0 223.0 L399.3 223.2 400.6 223.35 Q401.55 223.35 401.9 222.9 402.2 222.45 403.7 222.1 L407.05 222.3 Q408.9 222.85 410.3 222.35 L412.7 221.85 417.2 222.5 421.85 223.35 423.95 223.45 424.05 223.45 427.25 223.2 Q429.05 223.2 429.4 228.0 L429.4 233.7 429.25 234.05 Q428.0 233.95 427.9 232.15 426.75 230.45 427.25 229.2 L428.0 227.15 Q428.25 226.35 427.6 225.55 426.95 224.7 426.4 224.7 L425.7 225.0 424.4 225.25 423.6 225.45 422.45 225.65 420.25 225.05 418.65 224.45 417.45 224.9 416.4 225.45 414.9 225.45 413.6 225.55 412.05 225.3 411.1 225.35 408.0 225.0 406.5 225.35 405.0 225.65 400.15 225.25 Q399.65 224.8 398.45 224.8 396.7 224.8 396.55 225.95 L396.25 228.0 Q395.9 228.55 395.8 229.25 L395.25 231.2 Q394.8 232.4 394.7 233.4 394.6 234.35 393.45 234.4 M393.05 316.95 L393.25 314.65 Q393.5 313.2 394.35 313.0 396.35 312.55 396.75 311.1 397.1 309.85 398.35 309.85 L399.85 310.05 403.9 309.65 405.85 308.6 408.7 308.2 412.15 307.9 Q413.1 307.9 415.05 309.0 L417.75 310.25 Q418.45 310.45 420.2 309.45 421.9 308.45 423.3 308.45 425.1 308.45 426.25 309.95 L427.8 312.3 Q428.8 313.35 429.6 314.95 430.35 316.3 430.5 317.2 430.1 317.85 429.5 317.85 428.2 317.85 427.05 314.45 425.9 311.0 425.3 311.0 424.95 311.0 424.65 311.25 L423.95 311.5 423.5 311.4 421.55 311.25 Q419.75 311.25 418.45 311.85 417.15 312.4 413.9 311.0 410.65 309.55 409.85 309.55 L409.05 310.05 Q408.4 310.45 408.35 310.9 408.3 311.35 407.2 311.5 L404.95 311.8 Q403.75 312.0 403.1 312.75 402.4 313.5 401.6 313.5 L400.35 313.25 398.65 313.15 Q397.45 313.25 396.1 315.1 394.75 316.95 393.1 316.95 L393.05 316.95 M479.65 361.3 L479.85 359.0 Q480.1 357.55 480.95 357.35 482.95 356.9 483.35 355.45 483.7 354.2 484.95 354.2 L486.45 354.4 490.5 354.0 Q491.25 353.8 492.45 352.95 L495.3 352.55 498.75 352.25 Q499.7 352.25 501.65 353.35 L504.35 354.6 Q505.05 354.8 506.8 353.8 508.5 352.8 509.9 352.8 511.7 352.8 512.85 354.3 L514.4 356.65 Q515.4 357.7 516.2 359.3 516.95 360.65 517.1 361.55 516.7 362.2 516.1 362.2 514.8 362.2 513.65 358.8 512.5 355.35 511.9 355.35 511.55 355.35 511.25 355.6 L510.55 355.85 510.1 355.75 508.15 355.6 Q506.35 355.6 505.05 356.2 503.75 356.75 500.5 355.35 497.25 353.9 496.45 353.9 L495.65 354.4 Q495.0 354.8 494.95 355.25 494.9 355.7 493.8 355.85 L491.55 356.15 Q490.35 356.35 489.7 357.1 489.0 357.85 488.2 357.85 L486.95 357.6 485.25 357.5 Q484.05 357.6 482.7 359.45 481.35 361.3 479.7 361.3 L479.65 361.3 M81.85 272.15 Q81.5 272.95 80.65 272.95 79.5 272.95 78.65 271.15 77.8 269.3 76.45 269.3 L75.2 269.5 74.15 269.65 73.05 269.5 72.3 269.3 Q71.6 269.3 70.75 269.85 69.85 270.4 67.75 270.4 L65.4 270.2 64.8 270.0 Q64.1 270.0 62.95 270.85 61.75 271.65 61.1 271.65 60.45 271.65 59.35 270.65 58.25 269.65 57.6 269.65 56.75 269.65 56.3 270.05 L53.9 270.4 51.75 270.4 50.0 270.05 Q48.2 269.7 47.7 272.7 47.2 275.7 44.95 275.8 46.6 274.55 46.45 271.75 46.35 269.15 47.85 268.5 49.1 267.95 50.35 267.95 L53.4 268.0 Q55.3 267.95 55.95 267.35 56.6 266.8 57.85 266.8 59.05 266.8 60.3 267.4 L65.15 268.0 66.35 267.95 Q67.5 267.9 69.55 266.4 71.6 264.9 72.6 265.85 L73.6 266.8 Q77.45 267.0 79.0 268.85 L81.85 272.15 M0.8 229.75 Q0.95 228.85 1.7 227.5 2.5 225.9 3.5 224.85 L5.05 222.5 Q6.2 221.0 8.0 221.0 9.4 221.0 10.65 221.55 L12.75 222.05 Q13.75 222.05 15.95 221.25 18.2 220.45 19.15 220.45 L22.6 220.75 25.45 221.15 Q26.65 222.0 27.4 222.2 L31.45 222.6 32.95 222.4 Q34.2 222.4 34.55 223.65 34.95 225.1 36.95 225.55 37.8 225.75 38.05 227.2 L38.25 229.5 38.2 229.5 Q36.55 229.5 35.5 227.55 34.4 225.55 32.8 225.55 L31.0 225.8 30.05 226.05 Q29.4 226.05 29.35 225.35 29.35 224.45 28.5 223.95 L25.75 223.65 Q23.7 223.75 23.1 223.2 L22.25 222.6 21.45 222.1 Q20.65 222.1 14.4 224.95 11.55 224.95 11.1 224.4 10.65 223.8 9.05 223.8 L7.8 223.95 7.35 224.05 6.65 223.8 6.0 223.55 Q5.4 223.55 4.25 227.0 3.1 230.4 1.8 230.4 1.2 230.4 0.8 229.75 M81.4 358.7 L81.35 358.7 Q79.7 358.7 78.65 356.75 77.55 354.75 75.95 354.75 L74.15 355.0 73.2 355.25 Q72.55 355.25 72.5 354.55 72.5 353.65 71.65 353.15 L68.9 352.85 Q66.85 352.95 66.25 352.4 L65.4 351.8 64.6 351.3 Q63.8 351.3 57.55 354.15 54.7 354.15 54.25 353.6 53.8 353.0 52.2 353.0 L50.95 353.15 50.5 353.25 49.8 353.0 Q49.5 352.75 49.15 352.75 48.55 352.75 47.4 356.2 46.25 359.6 44.95 359.6 44.35 359.6 43.95 358.95 44.1 358.05 44.85 356.7 45.65 355.1 46.65 354.05 L48.2 351.7 Q49.35 350.2 51.15 350.2 52.55 350.2 53.8 350.75 L55.9 351.25 Q56.9 351.25 59.1 350.45 L62.3 349.65 65.75 349.95 68.6 350.35 Q69.8 351.2 70.55 351.4 L74.6 351.8 76.1 351.6 Q77.35 351.6 77.7 352.85 78.1 354.3 80.1 354.75 80.95 354.95 81.2 356.4 L81.4 358.7 M0.65 317.35 L0.85 315.05 Q1.1 313.6 1.95 313.4 3.95 312.95 4.35 311.5 4.7 310.25 5.95 310.25 L7.45 310.45 11.5 310.05 13.45 309.0 16.3 308.6 19.75 308.3 22.95 309.1 Q25.15 309.9 26.15 309.9 L28.25 309.4 Q29.5 308.85 30.9 308.85 32.7 308.85 33.85 310.35 L35.4 312.7 Q36.4 313.75 37.2 315.35 37.95 316.7 38.1 317.6 37.7 318.25 37.1 318.25 35.8 318.25 34.65 314.85 33.5 311.4 32.9 311.4 32.55 311.4 32.25 311.65 L31.55 311.9 31.1 311.8 29.85 311.65 Q28.25 311.65 27.8 312.25 27.35 312.8 24.5 312.8 18.25 309.95 17.45 309.95 L16.65 310.45 15.8 311.05 Q15.2 311.6 13.15 311.5 L10.4 311.8 Q9.55 312.3 9.55 313.2 9.5 313.9 8.85 313.9 L7.9 313.65 6.1 313.4 Q4.5 313.4 3.4 315.4 2.35 317.35 0.7 317.35 L0.65 317.35 M-260.05 -32.15 L-257.2 -35.45 Q-255.65 -37.3 -251.8 -37.5 L-251.7 -37.5 Q-250.25 -37.5 -248.05 -36.9 L-243.45 -36.3 -243.35 -36.3 -238.5 -36.9 Q-237.25 -37.5 -236.05 -37.5 -234.8 -37.5 -234.15 -36.95 -233.5 -36.35 -231.6 -36.3 L-228.55 -36.35 Q-227.3 -36.35 -226.05 -35.8 -224.55 -35.15 -224.65 -32.55 -224.8 -29.75 -223.15 -28.5 -225.4 -28.6 -225.9 -31.6 -226.4 -34.6 -228.2 -34.25 L-229.95 -33.9 -232.1 -33.9 Q-234.05 -33.9 -234.5 -34.25 -234.95 -34.65 -235.8 -34.65 -236.45 -34.65 -237.55 -33.65 -238.65 -32.65 -239.3 -32.65 -239.95 -32.65 -241.15 -33.45 -242.3 -34.3 -243.0 -34.3 L-243.6 -34.1 -245.95 -33.9 Q-248.05 -33.9 -248.95 -34.45 -249.8 -35.0 -250.5 -35.0 L-251.25 -34.8 -252.35 -34.65 -253.4 -34.8 -254.65 -35.0 Q-256.0 -35.0 -256.85 -33.15 -257.7 -31.35 -258.85 -31.35 -259.7 -31.35 -260.05 -32.15 M-222.2 12.15 L-222.25 12.15 Q-223.9 12.15 -224.95 10.2 -226.05 8.2 -227.65 8.2 L-229.45 8.45 -230.4 8.7 Q-231.05 8.7 -231.1 8.0 -231.1 7.1 -231.95 6.6 L-234.7 6.3 Q-236.75 6.4 -237.35 5.85 L-238.2 5.25 -239.0 4.75 Q-239.8 4.75 -246.05 7.6 -248.9 7.6 -249.35 7.05 -249.8 6.45 -251.4 6.45 L-252.65 6.6 -253.1 6.7 -253.8 6.45 -254.45 6.2 Q-255.05 6.2 -256.2 9.65 -257.35 13.05 -258.65 13.05 -259.25 13.05 -259.65 12.4 -259.5 11.5 -258.75 10.15 -257.95 8.55 -256.95 7.5 L-255.4 5.15 Q-254.25 3.65 -252.45 3.65 -251.05 3.65 -249.8 4.2 L-247.7 4.7 Q-246.7 4.7 -244.5 3.9 L-241.3 3.1 -237.85 3.4 -235.0 3.8 -233.05 4.85 -229.0 5.25 -227.5 5.05 Q-226.25 5.05 -225.9 6.3 -225.5 7.75 -223.5 8.2 -222.65 8.4 -222.4 9.85 L-222.2 12.15 M-85.4 -112.3 Q-84.85 -113.7 -85.0 -115.35 -85.05 -116.0 -83.8 -118.55 -83.6 -119.0 -83.3 -122.15 -83.15 -123.7 -80.85 -123.7 L-79.55 -123.5 -78.25 -123.35 -77.15 -123.5 -75.5 -123.95 Q-73.95 -124.2 -71.85 -124.0 L-68.55 -124.35 -66.15 -124.85 -61.65 -124.2 -57.0 -123.35 -54.9 -123.25 -54.8 -123.25 -51.6 -123.5 Q-49.8 -123.5 -49.45 -118.7 L-49.45 -113.0 -49.6 -112.65 Q-50.85 -112.75 -50.95 -114.55 -50.8 -116.7 -50.95 -117.3 L-51.55 -119.65 -51.7 -121.05 Q-51.9 -122.0 -52.45 -122.0 L-53.15 -121.7 -54.45 -121.45 -55.25 -121.25 -56.4 -121.05 -58.6 -121.65 -60.2 -122.25 -61.4 -121.8 -62.45 -121.25 -64.35 -120.65 -65.6 -120.7 -67.0 -121.0 -67.75 -121.35 -70.85 -121.7 -72.35 -121.35 -73.85 -121.05 -78.7 -121.45 Q-79.2 -121.9 -80.4 -121.9 -82.15 -121.9 -82.3 -120.75 L-82.6 -118.7 Q-82.95 -118.15 -82.9 -117.2 L-82.75 -115.55 Q-82.75 -114.05 -83.55 -113.15 -84.25 -112.35 -85.4 -112.3 M-129.4 -115.1 L-128.6 -117.35 -128.4 -118.1 -127.95 -119.0 -126.8 -119.7 -125.55 -119.95 -124.65 -121.25 Q-124.05 -122.05 -123.15 -122.3 L-121.55 -122.8 -120.3 -122.9 -118.95 -122.75 -116.85 -122.2 -114.7 -121.45 Q-113.1 -120.95 -113.1 -121.2 L-109.8 -122.2 Q-107.55 -123.05 -105.7 -123.05 -104.1 -123.05 -102.4 -122.05 -100.7 -121.05 -99.2 -121.05 -98.45 -121.05 -97.55 -121.4 L-95.3 -121.8 Q-93.45 -121.8 -93.05 -118.85 -92.95 -117.95 -92.4 -117.1 L-91.6 -115.9 -91.65 -115.7 Q-92.4 -113.35 -93.05 -113.35 -94.35 -113.35 -94.6 -116.1 -94.95 -119.7 -95.25 -120.3 L-96.5 -119.5 -97.55 -118.55 Q-98.25 -116.95 -99.1 -116.95 -99.55 -116.95 -100.3 -117.45 L-101.25 -118.0 Q-102.4 -118.1 -103.2 -118.9 -105.5 -120.9 -106.35 -120.9 -108.1 -120.9 -109.1 -120.1 -110.1 -119.3 -110.6 -119.3 L-111.9 -119.55 -115.85 -119.85 Q-116.5 -119.85 -117.3 -120.45 -118.15 -121.1 -119.15 -121.1 -120.2 -121.1 -121.0 -120.55 L-121.9 -119.45 Q-122.0 -118.9 -122.25 -118.6 -123.4 -117.5 -123.95 -117.85 L-125.85 -118.0 Q-126.85 -117.7 -127.85 -116.35 -128.6 -115.3 -129.0 -115.15 L-129.4 -115.1 M-5.8 -27.95 Q-6.95 -28.0 -7.65 -28.8 -8.45 -29.7 -8.45 -31.2 L-8.3 -32.85 Q-8.25 -33.8 -8.6 -34.35 L-8.9 -36.4 Q-9.05 -37.55 -10.8 -37.55 -12.0 -37.55 -12.5 -37.1 L-17.35 -36.7 -18.85 -37.0 -20.35 -37.35 -23.45 -37.0 -24.2 -36.65 -25.6 -36.35 -26.85 -36.3 -28.75 -36.9 -29.8 -37.45 -31.0 -37.9 -32.6 -37.3 Q-34.0 -36.7 -34.8 -36.7 L-35.95 -36.9 -36.75 -37.1 -38.05 -37.35 -38.75 -37.65 Q-39.3 -37.65 -39.5 -36.7 L-39.65 -35.3 Q-39.7 -34.5 -40.25 -32.95 L-40.25 -30.2 Q-40.35 -28.4 -41.6 -28.3 L-41.75 -28.65 -41.75 -34.35 Q-41.4 -39.15 -39.6 -39.15 L-36.4 -38.9 -36.3 -38.9 -34.2 -39.0 -29.55 -39.85 -25.05 -40.5 -22.65 -40.0 -19.35 -39.65 Q-17.25 -39.85 -15.7 -39.6 L-14.05 -39.15 -12.95 -39.0 -11.65 -39.15 -10.35 -39.35 Q-8.05 -39.35 -7.9 -37.8 L-7.4 -34.2 Q-6.15 -31.65 -6.2 -31.0 -6.35 -29.35 -5.8 -27.95 M-92.5 57.1 L-92.55 57.1 Q-94.2 57.1 -95.25 55.15 -96.35 53.15 -97.95 53.15 L-99.75 53.4 -100.7 53.65 Q-101.35 53.65 -101.4 52.95 -101.4 52.05 -102.25 51.55 L-105.0 51.25 Q-107.05 51.35 -107.65 50.8 L-108.5 50.2 Q-109.15 49.7 -109.3 49.7 -110.1 49.7 -116.35 52.55 -119.2 52.55 -119.65 52.0 -120.1 51.4 -121.7 51.4 L-122.95 51.55 -123.4 51.65 -124.1 51.4 Q-124.4 51.15 -124.75 51.15 -125.35 51.15 -126.5 54.6 -127.65 58.0 -128.95 58.0 -129.55 58.0 -129.95 57.35 -129.8 56.45 -129.05 55.1 -128.25 53.5 -127.25 52.45 L-125.7 50.1 Q-124.55 48.6 -122.75 48.6 -121.35 48.6 -120.1 49.15 L-118.0 49.65 Q-117.0 49.65 -114.8 48.85 -112.55 48.05 -111.6 48.05 L-108.15 48.35 -105.3 48.75 Q-104.1 49.6 -103.35 49.8 L-99.3 50.2 -97.8 50.0 Q-96.55 50.0 -96.2 51.25 -95.8 52.7 -93.8 53.15 -92.95 53.35 -92.7 54.8 L-92.5 57.1 M-216.4 57.35 Q-214.75 56.1 -214.9 53.3 -215.0 50.7 -213.5 50.05 -212.25 49.5 -211.0 49.5 L-207.95 49.55 Q-206.05 49.5 -205.4 48.9 -204.75 48.35 -203.5 48.35 -202.3 48.35 -201.05 48.95 -199.8 49.55 -196.2 49.55 L-196.1 49.55 -191.5 48.95 -187.85 48.35 -187.75 48.35 Q-183.9 48.55 -182.35 50.4 L-179.5 53.7 Q-179.85 54.5 -180.7 54.5 -181.85 54.5 -182.7 52.7 -183.55 50.85 -184.9 50.85 L-186.15 51.05 -187.2 51.2 -188.3 51.05 -189.05 50.85 Q-189.75 50.85 -190.6 51.4 -191.5 51.95 -193.6 51.95 L-195.95 51.75 -196.55 51.55 Q-197.25 51.55 -198.4 52.4 -199.6 53.2 -200.25 53.2 -200.9 53.2 -202.0 52.2 -203.1 51.2 -203.75 51.2 -204.6 51.2 -205.05 51.6 L-207.45 51.95 -209.6 51.95 -211.35 51.6 Q-213.15 51.25 -213.65 54.25 -214.15 57.25 -216.4 57.35 M-129.4 360.25 L-129.2 357.95 Q-128.95 356.5 -128.1 356.3 -126.1 355.85 -125.7 354.4 -125.35 353.15 -124.1 353.15 L-122.6 353.35 -118.55 352.95 Q-117.8 352.75 -116.6 351.9 L-113.75 351.5 -110.3 351.2 -107.1 352.0 Q-104.9 352.8 -103.9 352.8 L-101.8 352.3 Q-100.55 351.75 -99.15 351.75 -97.35 351.75 -96.2 353.25 L-94.65 355.6 Q-93.65 356.65 -92.85 358.25 -92.1 359.6 -91.95 360.5 -92.35 361.15 -92.95 361.15 -94.25 361.15 -95.4 357.75 -96.55 354.3 -97.15 354.3 -97.5 354.3 -97.8 354.55 -98.1 354.8 -98.5 354.8 L-98.95 354.7 -100.2 354.55 Q-101.8 354.55 -102.25 355.15 -102.7 355.7 -105.55 355.7 -111.8 352.85 -112.6 352.85 L-113.4 353.35 -114.25 353.95 Q-114.85 354.5 -116.9 354.4 L-119.65 354.7 Q-120.5 355.2 -120.5 356.1 -120.55 356.8 -121.2 356.8 L-122.15 356.55 -123.95 356.3 Q-125.55 356.3 -126.65 358.3 -127.7 360.25 -129.35 360.25 L-129.4 360.25 M-6.4 364.35 Q-7.55 364.3 -8.25 363.5 -9.05 362.6 -9.05 361.1 L-8.9 359.45 Q-8.85 358.5 -9.2 357.95 L-9.5 355.9 Q-9.65 354.75 -11.4 354.75 -12.6 354.75 -13.1 355.2 L-17.95 355.6 -19.45 355.3 Q-20.4 354.95 -20.95 354.95 L-24.05 355.3 Q-24.1 355.3 -24.8 355.65 L-26.2 355.95 -27.45 356.0 -29.35 355.4 -30.4 354.85 Q-31.2 354.4 -31.6 354.4 L-33.2 355.0 -35.4 355.6 -36.55 355.4 -37.35 355.2 -38.65 354.95 -39.35 354.65 Q-39.9 354.65 -40.1 355.6 L-40.25 357.0 Q-40.3 357.8 -40.85 359.35 L-40.85 362.1 Q-40.95 363.9 -42.2 364.0 L-42.35 363.65 -42.35 357.95 Q-42.0 353.15 -40.2 353.15 L-37.0 353.4 -36.9 353.4 -34.8 353.3 -30.15 352.45 -25.65 351.8 Q-24.8 351.8 -23.25 352.3 L-19.95 352.65 Q-17.85 352.45 -16.3 352.7 -14.95 352.9 -14.65 353.15 L-13.55 353.3 -12.25 353.15 -10.95 352.95 Q-8.65 352.95 -8.5 354.5 L-8.0 358.1 Q-6.75 360.65 -6.8 361.3 -6.95 362.95 -6.4 364.35" fill="#d5d5ff" fill-rule="evenodd" stroke="none"/>
  </g>
</svg>
