<?xml version="1.0" encoding="UTF-8" standalone="no"?>
<svg xmlns:ffdec="https://www.free-decompiler.com/flash" xmlns:xlink="http://www.w3.org/1999/xlink" ffdec:objectType="shape" height="50.0px" width="50.0px" xmlns="http://www.w3.org/2000/svg">
  <g transform="matrix(1.0, 0.0, 0.0, 1.0, 0.0, 0.0)">
    <path d="M2.45 35.9 L19.3 35.9 19.3 42.75 25.7 42.75 25.7 35.9 47.6 35.9 Q45.8 39.55 42.7 42.65 35.35 50.0 25.0 50.0 14.65 50.0 7.35 42.65 4.2 39.55 2.45 35.9" fill="#6d83b2" fill-rule="evenodd" stroke="none"/>
    <path d="M2.45 35.9 Q0.0 30.95 0.0 25.0 0.0 14.65 7.35 7.3 14.65 0.0 25.0 0.0 35.35 0.0 42.7 7.3 50.0 14.65 50.0 25.0 50.0 30.95 47.6 35.9 L25.7 35.9 25.7 25.9 31.8 25.9 32.45 19.65 25.7 19.65 25.7 14.55 Q25.6 12.65 27.7 12.65 L32.45 12.65 32.45 6.95 26.35 6.95 Q21.65 7.3 20.0 11.05 19.3 12.85 19.3 14.85 L19.3 19.65 14.95 19.65 14.95 25.9 19.3 25.9 19.3 35.9 2.45 35.9" fill="#3c5a98" fill-rule="evenodd" stroke="none"/>
    <path d="M19.3 35.9 L19.3 25.9 14.95 25.9 14.95 19.65 19.3 19.65 19.3 14.85 Q19.3 12.85 20.0 11.05 21.65 7.3 26.35 6.95 L32.45 6.95 32.45 12.65 27.7 12.65 Q25.6 12.65 25.7 14.55 L25.7 19.65 32.45 19.65 31.8 25.9 25.7 25.9 25.7 35.9 25.7 42.75 19.3 42.75 19.3 35.9" fill="#ffffff" fill-rule="evenodd" stroke="none"/>
    <path d="M42.7 42.7 Q35.35 50.0 25.0 50.0 14.65 50.0 7.35 42.7 0.0 35.4 0.0 25.0 0.0 14.65 7.35 7.35 14.65 0.0 25.0 0.0 35.35 0.0 42.7 7.35 50.0 14.65 50.0 25.0 50.0 35.4 42.7 42.7 M30.3 2.55 L29.3 2.9 Q31.45 4.7 33.2 8.5 L34.75 12.8 36.55 14.05 Q38.4 15.9 38.4 18.55 38.4 21.15 36.55 22.95 L36.35 23.15 36.4 25.55 Q36.4 35.55 33.2 42.6 31.9 45.4 30.45 47.1 32.8 47.7 38.5 43.75 49.4 36.3 48.65 24.75 46.15 4.5 30.3 2.55 M32.1 12.25 L33.15 12.3 31.9 9.1 Q30.25 5.4 28.2 3.8 27.15 2.95 25.95 2.7 26.55 3.75 26.55 5.15 26.55 7.0 25.45 8.35 24.35 9.65 22.8 9.65 21.25 9.65 20.15 8.35 19.55 7.6 19.25 6.65 L17.95 9.1 16.55 12.9 Q17.85 12.25 19.4 12.25 22.05 12.25 23.85 14.05 25.7 15.9 25.7 18.55 25.7 21.15 23.85 22.95 22.05 24.8 19.4 24.8 16.8 24.8 14.95 22.95 L14.9 25.55 Q14.9 35.2 17.95 42.0 19.25 44.8 20.7 46.4 22.65 48.5 24.95 48.55 27.3 48.5 29.25 46.35 30.65 44.7 31.9 42.0 35.0 35.2 35.0 25.55 L35.0 24.15 Q33.65 24.8 32.1 24.8 29.5 24.8 27.65 22.95 25.8 21.15 25.8 18.55 25.8 15.9 27.65 14.05 29.5 12.25 32.1 12.25 M19.25 3.6 L16.95 3.75 Q4.15 4.5 1.65 24.75 0.9 36.3 11.8 43.75 18.05 48.05 19.7 47.4 L19.7 47.35 Q18.05 45.6 16.7 42.6 13.5 35.55 13.5 25.55 13.5 23.25 13.65 21.1 13.15 19.95 13.15 18.55 13.15 16.1 14.7 14.35 15.45 11.2 16.7 8.5 17.8 6.05 19.1 4.45 L19.25 3.6" fill="#954a00" fill-rule="evenodd" stroke="none"/>
    <path d="M32.1 12.25 Q29.5 12.25 27.65 14.05 25.8 15.9 25.8 18.55 25.8 21.15 27.65 22.95 29.5 24.8 32.1 24.8 33.65 24.8 35.0 24.15 L35.0 25.55 Q35.0 35.2 31.9 42.0 30.65 44.7 29.25 46.35 27.3 48.5 24.95 48.55 22.65 48.5 20.7 46.4 19.25 44.8 17.95 42.0 14.9 35.2 14.9 25.55 L14.95 22.95 Q16.8 24.8 19.4 24.8 22.05 24.8 23.85 22.95 25.7 21.15 25.7 18.55 25.7 15.9 23.85 14.05 22.05 12.25 19.4 12.25 17.85 12.25 16.55 12.9 L17.95 9.1 19.25 6.65 Q19.55 7.6 20.15 8.35 21.25 9.65 22.8 9.65 24.35 9.65 25.45 8.35 26.55 7.0 26.55 5.15 26.55 3.75 25.95 2.7 27.15 2.95 28.2 3.8 30.25 5.4 31.9 9.1 L33.15 12.3 32.1 12.25 M30.3 2.55 Q46.15 4.5 48.65 24.75 49.4 36.3 38.5 43.75 32.8 47.7 30.45 47.1 31.9 45.4 33.2 42.6 36.4 35.55 36.4 25.55 L36.35 23.15 36.55 22.95 Q38.4 21.15 38.4 18.55 38.4 15.9 36.55 14.05 L34.75 12.8 33.2 8.5 Q31.45 4.7 29.3 2.9 L30.3 2.55 M15.5 5.45 L12.65 5.5 Q10.6 6.35 8.6 8.4 6.5 10.45 5.65 12.5 4.8 14.55 5.6 15.35 L8.45 15.25 Q10.45 14.4 12.5 12.35 14.55 10.3 15.45 8.25 16.3 6.25 15.5 5.45 M19.25 3.6 L19.1 4.45 Q17.8 6.05 16.7 8.5 15.45 11.2 14.7 14.35 13.15 16.1 13.15 18.55 13.15 19.95 13.65 21.1 13.5 23.25 13.5 25.55 13.5 35.55 16.7 42.6 18.05 45.6 19.7 47.35 L19.7 47.4 Q18.05 48.05 11.8 43.75 0.9 36.3 1.65 24.75 4.15 4.5 16.95 3.75 L19.25 3.6 M7.4 17.65 Q6.75 17.0 5.85 17.0 4.95 17.0 4.3 17.65 3.65 18.3 3.65 19.2 3.65 20.15 4.3 20.75 4.95 21.4 5.85 21.4 6.75 21.4 7.4 20.75 8.05 20.15 8.05 19.2 8.05 18.3 7.4 17.65" fill="#cc6600" fill-rule="evenodd" stroke="none"/>
    <path d="M15.5 5.45 Q16.3 6.25 15.45 8.25 14.55 10.3 12.5 12.35 10.45 14.4 8.45 15.25 L5.6 15.35 Q4.8 14.55 5.65 12.5 6.5 10.45 8.6 8.4 10.6 6.35 12.65 5.5 L15.5 5.45 M7.4 17.65 Q8.05 18.3 8.05 19.2 8.05 20.15 7.4 20.75 6.75 21.4 5.85 21.4 4.95 21.4 4.3 20.75 3.65 20.15 3.65 19.2 3.65 18.3 4.3 17.65 4.95 17.0 5.85 17.0 6.75 17.0 7.4 17.65" fill="#ff8000" fill-rule="evenodd" stroke="none"/>
    <path d="M13.65 41.6 Q6.1 37.7 10.8 28.55 7.2 26.35 11.6 24.0 8.05 26.5 12.65 28.65 L12.65 30.85 Q14.6 31.8 16.85 32.15 L17.65 30.2 18.75 30.4 18.0 34.25 Q19.25 34.8 20.75 34.8 L21.4 30.8 31.05 30.4 33.55 34.55 33.85 29.6 37.4 27.95 Q40.4 26.4 37.25 23.85 40.25 25.55 39.95 26.75 39.75 27.5 38.4 28.35 42.45 37.0 37.45 40.15 L35.55 37.1 34.8 41.7 Q23.85 44.65 13.65 41.6 M24.65 38.6 Q20.9 35.15 19.05 41.45 24.5 42.7 30.25 41.45 28.55 35.15 24.65 38.6" fill="#000000" fill-rule="evenodd" stroke="none"/>
    <path d="M39.95 26.75 Q40.7 27.95 39.35 28.7 41.25 31.65 41.2 35.55 41.15 39.45 36.65 41.95 32.1 44.5 23.2 44.1 14.3 43.7 13.65 41.6 23.85 44.65 34.8 41.7 L35.55 37.1 37.45 40.15 Q42.45 37.0 38.4 28.35 39.75 27.5 39.95 26.75" fill="#954a00" fill-rule="evenodd" stroke="none"/>
    <path d="M24.65 38.6 Q28.55 35.15 30.25 41.45 24.5 42.7 19.05 41.45 20.9 35.15 24.65 38.6" fill="#3c0000" fill-rule="evenodd" stroke="none"/>
    <path d="M22.9 22.0 Q21.2 23.7 18.8 23.7 16.4 23.7 14.7 22.0 13.0 20.3 13.0 17.9 13.0 15.5 14.7 13.8 16.4 12.1 18.8 12.1 21.2 12.1 22.9 13.8 24.6 15.5 24.6 17.9 24.6 20.3 22.9 22.0 M22.5 14.55 L22.35 14.35 Q20.9 12.9 18.8 12.9 16.75 12.9 15.3 14.35 13.85 15.85 13.85 17.9 13.85 19.05 14.3 20.0 L15.3 21.4 Q16.75 22.85 18.8 22.85 20.9 22.85 22.35 21.4 23.8 19.95 23.8 17.9 23.8 15.95 22.5 14.55" fill="#000000" fill-rule="evenodd" stroke="none"/>
    <path d="M14.3 20.0 Q13.85 19.05 13.85 17.9 13.85 15.85 15.3 14.35 16.75 12.9 18.8 12.9 20.9 12.9 22.35 14.35 L22.5 14.55 Q23.0 15.55 23.0 16.7 23.0 18.75 21.5 20.2 20.05 21.65 18.0 21.65 15.95 21.65 14.5 20.2 L14.3 20.0" fill="#ffffff" fill-rule="evenodd" stroke="none"/>
    <path d="M22.5 14.55 Q23.8 15.95 23.8 17.9 23.8 19.95 22.35 21.4 20.9 22.85 18.8 22.85 16.75 22.85 15.3 21.4 L14.3 20.0 14.5 20.2 Q15.95 21.65 18.0 21.65 20.05 21.65 21.5 20.2 23.0 18.75 23.0 16.7 23.0 15.55 22.5 14.55" fill="#ffff99" fill-rule="evenodd" stroke="none"/>
    <path d="M27.15 20.05 L28.1 21.45 Q29.55 22.9 31.65 22.9 33.7 22.9 35.15 21.45 36.6 20.0 36.6 17.95 36.6 16.0 35.35 14.6 L35.15 14.4 Q33.7 12.95 31.65 12.95 29.55 12.95 28.1 14.4 26.65 15.9 26.65 17.95 26.65 19.1 27.15 20.05 M27.45 13.8 Q29.15 12.1 31.6 12.1 34.0 12.1 35.7 13.8 37.4 15.5 37.4 17.9 37.4 20.3 35.7 22.0 34.0 23.7 31.6 23.7 29.15 23.7 27.45 22.0 25.8 20.3 25.8 17.9 25.8 15.5 27.45 13.8" fill="#000000" fill-rule="evenodd" stroke="none"/>
    <path d="M35.35 14.6 Q35.8 15.55 35.8 16.75 35.8 18.8 34.35 20.25 32.9 21.7 30.8 21.7 28.75 21.7 27.3 20.25 L27.15 20.05 Q26.65 19.1 26.65 17.95 26.65 15.9 28.1 14.4 29.55 12.95 31.65 12.95 33.7 12.95 35.15 14.4 L35.35 14.6" fill="#ffffff" fill-rule="evenodd" stroke="none"/>
    <path d="M35.35 14.6 Q36.6 16.0 36.6 17.95 36.6 20.0 35.15 21.45 33.7 22.9 31.65 22.9 29.55 22.9 28.1 21.45 L27.15 20.05 27.3 20.25 Q28.75 21.7 30.8 21.7 32.9 21.7 34.35 20.25 35.8 18.8 35.8 16.75 35.8 15.55 35.35 14.6" fill="#ffff99" fill-rule="evenodd" stroke="none"/>
    <path d="M20.7 15.65 Q21.05 15.3 21.55 15.3 22.05 15.3 22.4 15.65 22.75 16.0 22.75 16.5 L22.4 17.35 Q22.05 17.7 21.55 17.7 L20.7 17.35 Q20.35 17.0 20.35 16.5 20.35 16.0 20.7 15.65" fill="#000000" fill-rule="evenodd" stroke="none"/>
    <path d="M29.45 19.5 L28.6 19.85 Q28.1 19.85 27.75 19.5 27.4 19.2 27.4 18.65 27.4 18.15 27.75 17.85 28.1 17.45 28.6 17.45 29.1 17.45 29.45 17.85 29.8 18.15 29.8 18.65 L29.45 19.5" fill="#000000" fill-rule="evenodd" stroke="none"/>
    <path d="M25.4 1.65 L25.45 1.75 25.45 1.85 25.45 1.95 25.55 7.3 25.45 7.6 Q23.7 9.4 21.2 8.65 L21.05 8.6 20.95 8.45 18.5 3.5 18.45 3.5 18.45 3.4 18.3 3.05 Q18.1 2.2 19.15 1.4 20.05 0.7 21.5 0.45 22.9 0.2 24.0 0.45 25.3 0.8 25.4 1.65 M24.7 3.15 L24.55 3.3 Q23.65 3.95 22.2 4.2 20.85 4.5 19.75 4.2 L21.6 7.95 Q23.45 8.4 24.75 7.15 L24.7 3.15 M24.65 1.95 L24.65 1.85 24.65 1.8 23.8 1.2 Q22.85 1.0 21.65 1.2 20.45 1.45 19.6 2.0 19.05 2.45 19.05 2.85 L19.1 3.0 19.15 3.05 19.9 3.45 Q20.85 3.7 22.05 3.45 23.25 3.25 24.05 2.65 L24.65 1.95" fill="#402000" fill-rule="evenodd" stroke="none"/>
    <path d="M24.65 1.95 L24.05 2.65 Q23.25 3.25 22.05 3.45 20.85 3.7 19.9 3.45 L19.15 3.05 19.1 3.0 19.05 2.85 Q19.05 2.45 19.6 2.0 20.45 1.45 21.65 1.2 22.85 1.0 23.8 1.2 L24.65 1.8 24.65 1.85 24.65 1.95 M24.7 3.15 L24.75 7.15 Q23.45 8.4 21.6 7.95 L19.75 4.2 Q20.85 4.5 22.2 4.2 23.65 3.95 24.55 3.3 L24.7 3.15" fill="#552b00" fill-rule="evenodd" stroke="none"/>
    <path d="M42.65 42.7 Q35.35 50.0 25.0 50.0 14.6 50.0 7.3 42.7 0.0 35.4 0.0 25.0 0.0 14.65 7.3 7.35 14.6 0.0 25.0 0.0 35.35 0.0 42.65 7.35 50.0 14.65 50.0 25.0 50.0 35.4 42.65 42.7" fill="url(#gradient0)" fill-rule="evenodd" stroke="none"/>
    <path d="M37.6 15.7 Q37.7 16.95 36.95 19.45 L32.7 33.4 Q32.3 34.75 31.6 35.7 31.95 36.7 31.95 37.95 32.0 40.7 29.95 42.85 L29.8 42.95 Q27.8 44.85 24.65 44.85 21.5 44.85 20.1 43.2 18.2 41.6 18.2 38.85 18.05 36.25 20.25 34.15 20.1 33.4 20.1 32.55 L20.15 31.75 21.85 17.75 21.85 17.85 Q22.2 15.0 23.05 13.45 23.95 11.45 26.25 10.15 L26.35 10.1 Q28.5 8.8 30.55 8.85 33.6 8.85 35.5 10.75 37.65 12.8 37.6 15.7" fill="#000000" fill-opacity="0.2" fill-rule="evenodd" stroke="none"/>
    <path d="M28.2 6.55 Q31.2 6.55 33.15 8.5 35.3 10.5 35.25 13.4 35.35 14.65 34.6 17.15 L34.6 17.1 30.3 31.05 29.2 33.4 Q29.6 34.35 29.6 35.55 29.65 38.35 27.55 40.45 L27.4 40.6 Q25.4 42.5 22.25 42.5 19.15 42.5 17.75 40.95 15.85 39.25 15.85 36.5 15.7 33.9 17.9 31.75 L17.75 30.2 17.8 29.35 19.5 15.4 19.5 15.5 Q19.8 12.65 20.65 11.15 21.6 9.15 23.85 7.85 L23.9 7.8 Q26.1 6.5 28.2 6.55 M28.2 8.6 Q26.55 8.6 24.9 9.6 L24.95 9.5 Q23.15 10.55 22.45 12.1 21.75 13.35 21.55 15.7 L19.85 29.5 19.75 30.2 Q19.75 31.55 20.25 32.45 L19.45 33.05 19.4 33.1 Q17.8 34.65 17.85 36.5 17.85 38.4 19.2 39.45 20.15 40.45 22.25 40.45 24.6 40.45 26.05 39.1 L26.1 39.05 Q27.6 37.55 27.55 35.55 27.55 34.05 26.7 33.05 27.9 32.15 28.4 30.45 L32.65 16.5 33.2 13.4 Q33.2 11.35 31.75 9.95 30.35 8.6 28.2 8.6" fill="#ffffff" fill-rule="evenodd" stroke="none"/>
    <path d="M30.35 11.25 Q29.5 10.45 28.2 10.45 27.1 10.45 25.95 11.15 24.8 11.8 24.25 12.8 23.75 13.85 23.55 15.7 L21.8 29.75 21.75 30.05 Q21.75 31.0 22.3 31.5 22.8 31.95 23.75 31.95 24.6 31.95 25.35 31.4 26.1 30.85 26.45 29.75 L30.65 15.7 31.2 13.15 Q31.2 12.1 30.35 11.25 M28.2 8.6 Q30.35 8.6 31.75 9.95 33.2 11.35 33.2 13.4 L32.65 16.5 28.4 30.45 Q27.9 32.15 26.7 33.05 27.55 34.05 27.55 35.55 27.6 37.55 26.1 39.05 L26.05 39.1 Q24.6 40.45 22.25 40.45 20.15 40.45 19.2 39.45 17.85 38.4 17.85 36.5 17.8 34.65 19.4 33.1 L19.45 33.05 20.25 32.45 Q19.75 31.55 19.75 30.2 L19.85 29.5 21.55 15.7 Q21.75 13.35 22.45 12.1 23.15 10.55 24.95 9.5 L24.9 9.6 Q26.55 8.6 28.2 8.6 M25.0 34.05 Q24.4 33.55 23.2 33.55 21.7 33.55 20.85 34.4 19.9 35.3 19.9 36.35 19.9 37.25 20.45 37.75 21.05 38.25 22.25 38.25 23.75 38.25 24.65 37.45 25.55 36.55 25.55 35.4 25.55 34.65 25.0 34.05" fill="#000000" fill-rule="evenodd" stroke="none"/>
    <path d="M30.35 11.25 Q31.2 12.1 31.2 13.15 L30.65 15.7 26.45 29.75 Q26.1 30.85 25.35 31.4 24.6 31.95 23.75 31.95 22.8 31.95 22.3 31.5 21.75 31.0 21.75 30.05 L21.8 29.75 23.55 15.7 Q23.75 13.85 24.25 12.8 24.8 11.8 25.95 11.15 27.1 10.45 28.2 10.45 29.5 10.45 30.35 11.25 M25.0 34.05 Q25.55 34.65 25.55 35.4 25.55 36.55 24.65 37.45 23.75 38.25 22.25 38.25 21.05 38.25 20.45 37.75 19.9 37.25 19.9 36.35 19.9 35.3 20.85 34.4 21.7 33.55 23.2 33.55 24.4 33.55 25.0 34.05" fill="#800000" fill-rule="evenodd" stroke="none"/>
    <path d="M49.95 22.85 L50.0 23.75 50.0 25.0 Q50.0 35.35 42.7 42.65 35.35 50.0 25.0 50.0 16.1 50.0 9.45 44.55 L7.35 42.65 Q0.0 35.35 0.0 25.0 0.0 21.15 1.0 17.75 L1.0 17.7 1.2 17.15 Q1.5 16.1 1.95 15.1 L2.4 14.15 2.4 15.25 Q2.3 19.1 3.1 22.45 3.9 25.75 5.7 28.5 7.6 31.3 9.2 30.3 10.9 29.15 12.4 23.95 14.0 18.35 16.25 19.2 18.35 19.9 20.9 26.8 23.3 33.35 25.4 33.35 27.5 33.3 29.5 26.7 31.65 19.7 34.3 19.0 37.0 18.2 40.1 23.85 L41.7 26.4 Q42.95 28.15 44.1 28.75 45.6 29.55 46.9 28.4 48.3 27.1 49.5 23.8 L49.5 23.7 49.55 23.7 49.95 22.85 M43.95 29.2 L43.9 29.2 Q41.9 28.15 39.65 24.1 36.8 18.9 34.4 19.5 32.0 20.2 30.0 26.85 27.85 33.9 25.4 33.85 22.95 33.95 20.4 27.0 18.0 20.4 16.1 19.65 14.3 19.05 12.9 24.1 11.3 29.55 9.45 30.7 7.5 32.05 5.3 28.8 1.95 23.65 1.9 16.55 L1.65 17.35 1.65 17.4 1.5 17.8 1.5 17.85 1.45 17.9 Q0.5 21.25 0.5 25.0 0.5 35.15 7.7 42.3 L9.75 44.2 10.05 44.45 Q16.5 49.5 25.0 49.5 35.15 49.5 42.35 42.3 49.5 35.15 49.5 25.05 48.45 27.65 47.25 28.75 45.7 30.15 43.95 29.2 M33.85 5.55 Q34.65 10.5 39.5 11.0 L39.6 11.05 39.7 11.2 39.65 11.35 Q37.65 14.5 39.9 17.25 L39.95 17.4 39.9 17.55 39.7 17.65 39.55 17.6 Q36.4 15.4 32.35 17.75 L32.2 17.8 32.05 17.7 32.0 17.55 Q31.75 13.45 28.4 12.5 26.2 15.4 28.8 18.8 L28.85 18.95 28.75 19.1 28.6 19.2 Q24.45 19.55 23.75 23.0 L23.65 23.15 23.5 23.2 23.35 23.15 23.25 23.0 Q22.95 19.15 18.6 17.5 L18.45 17.4 18.4 17.25 18.5 17.1 Q22.2 13.7 19.25 9.65 L19.2 9.5 19.25 9.35 Q19.3 9.25 19.4 9.25 22.6 8.85 24.15 6.7 23.3 6.55 22.65 5.95 21.85 5.15 21.85 4.0 21.85 2.9 22.65 2.1 23.45 1.3 24.6 1.3 25.55 1.3 26.3 1.9 L27.25 1.75 Q28.3 1.75 29.05 2.45 29.8 3.2 29.8 4.25 L29.5 5.4 Q31.7 6.3 33.5 5.35 L33.65 5.35 33.75 5.4 33.85 5.55 M34.85 9.25 Q33.8 7.95 33.4 5.95 L29.25 5.85 29.05 6.05 28.05 6.65 Q28.4 8.25 27.95 9.9 L29.45 10.9 29.6 11.05 29.6 11.2 29.55 11.35 28.75 12.1 Q30.05 12.5 30.85 13.35 32.2 14.65 32.45 17.15 33.05 16.8 33.6 16.6 35.8 15.7 37.75 16.2 L38.85 16.6 Q37.45 14.15 39.05 11.45 36.3 11.05 34.85 9.25 M28.75 2.9 Q28.25 2.35 27.45 2.25 26.5 2.15 25.85 2.8 25.4 3.25 25.3 3.85 25.1 5.0 25.95 5.8 26.5 6.3 27.25 6.3 28.1 6.3 28.7 5.7 29.3 5.1 29.3 4.25 29.3 3.45 28.75 2.9 M23.0 5.55 L23.4 5.85 Q24.4 6.5 25.5 6.05 24.7 5.25 24.75 4.15 24.85 2.95 25.8 2.15 25.25 1.8 24.6 1.8 23.3 1.9 22.65 3.0 22.25 3.7 22.45 4.5 22.55 5.1 23.0 5.55 M20.65 11.1 L21.0 12.2 Q21.5 14.85 19.1 17.2 L20.6 17.95 Q23.0 19.4 23.6 21.85 24.25 20.15 25.95 19.35 26.9 18.9 28.15 18.75 25.6 15.15 28.1 12.1 L28.15 12.05 28.95 11.2 Q28.1 10.8 27.5 10.2 L27.45 10.15 Q26.05 8.8 25.6 6.55 L24.7 6.75 24.05 7.6 Q22.55 9.25 19.85 9.7 L20.65 11.1 M27.25 6.8 L26.15 6.55 Q26.5 8.35 27.55 9.5 27.9 8.1 27.55 6.75 L27.25 6.8" fill="#000000" fill-rule="evenodd" stroke="none"/>
    <path d="M2.4 14.15 Q4.2 10.45 7.35 7.3 14.65 0.0 25.0 0.0 35.35 0.0 42.7 7.3 49.2 13.85 49.95 22.85 L49.55 23.7 49.5 23.7 Q49.05 14.4 42.35 7.65 L40.55 6.0 Q33.9 0.5 25.0 0.5 L19.2 1.1 Q12.7 2.6 7.7 7.65 4.2 11.1 2.4 15.25 L2.4 14.15" fill="#aa9640" fill-rule="evenodd" stroke="none"/>
    <path d="M49.5 23.7 L49.5 23.8 Q48.3 27.1 46.9 28.4 45.6 29.55 44.1 28.75 42.95 28.15 41.7 26.4 45.8 20.95 40.55 6.0 L42.35 7.65 Q49.05 14.4 49.5 23.7" fill="#ffff80" fill-rule="evenodd" stroke="none"/>
    <path d="M10.05 44.45 L9.75 44.2 7.7 42.3 Q0.5 35.15 0.5 25.0 0.5 21.25 1.45 17.9 L1.5 17.85 1.5 17.8 1.65 17.4 1.65 17.35 1.9 16.55 Q1.95 23.65 5.3 28.8 7.5 32.05 9.45 30.7 11.3 29.55 12.9 24.1 14.3 19.05 16.1 19.65 18.0 20.4 20.4 27.0 22.95 33.95 25.4 33.85 27.85 33.9 30.0 26.85 32.0 20.2 34.4 19.5 36.8 18.9 39.65 24.1 41.9 28.15 43.9 29.2 L43.95 29.2 Q43.05 31.95 41.7 34.15 L41.45 33.8 Q40.6 33.0 39.5 33.0 38.35 33.0 37.5 33.8 36.7 34.65 36.7 35.8 36.7 36.9 37.5 37.75 L38.4 38.35 Q32.25 44.2 20.7 44.85 20.65 43.95 20.0 43.35 19.4 42.7 18.45 42.7 17.55 42.7 16.9 43.35 16.25 44.0 16.25 44.9 L10.05 44.45 M15.0 36.9 Q15.0 37.5 15.45 37.95 15.9 38.4 16.55 38.4 17.15 38.4 17.6 37.95 18.05 37.5 18.05 36.9 18.05 36.25 17.6 35.8 17.15 35.35 16.55 35.35 15.9 35.35 15.45 35.8 15.0 36.25 15.0 36.9 M32.2 29.15 Q32.75 29.7 33.5 29.7 34.3 29.7 34.85 29.15 35.4 28.6 35.4 27.85 35.4 27.05 34.85 26.5 34.3 25.95 33.5 25.95 32.75 25.95 32.2 26.5 31.65 27.05 31.65 27.85 31.65 28.6 32.2 29.15 M22.1 39.5 Q22.1 40.4 22.75 41.05 23.4 41.7 24.35 41.7 25.25 41.7 25.9 41.05 26.55 40.4 26.55 39.5 26.55 38.55 25.9 37.9 25.25 37.25 24.35 37.25 23.4 37.25 22.75 37.9 22.1 38.55 22.1 39.5 M33.2 37.9 Q33.2 37.45 32.85 37.15 32.55 36.85 32.1 36.85 31.7 36.85 31.35 37.15 31.05 37.45 31.05 37.9 31.05 38.35 31.35 38.65 L32.1 38.95 32.85 38.65 33.2 37.9" fill="#2b1400" fill-rule="evenodd" stroke="none"/>
    <path d="M10.05 44.45 L16.25 44.9 Q16.25 44.0 16.9 43.35 17.55 42.7 18.45 42.7 19.4 42.7 20.0 43.35 20.65 43.95 20.7 44.85 32.25 44.2 38.4 38.35 L37.5 37.75 Q36.7 36.9 36.7 35.8 36.7 34.65 37.5 33.8 38.35 33.0 39.5 33.0 40.6 33.0 41.45 33.8 L41.7 34.15 Q43.05 31.95 43.95 29.2 45.7 30.15 47.25 28.75 48.45 27.65 49.5 25.05 49.5 35.15 42.35 42.3 35.15 49.5 25.0 49.5 16.5 49.5 10.05 44.45 M33.2 37.9 L32.85 38.65 32.1 38.95 31.35 38.65 Q31.05 38.35 31.05 37.9 31.05 37.45 31.35 37.15 31.7 36.85 32.1 36.85 32.55 36.85 32.85 37.15 33.2 37.45 33.2 37.9 M22.1 39.5 Q22.1 38.55 22.75 37.9 23.4 37.25 24.35 37.25 25.25 37.25 25.9 37.9 26.55 38.55 26.55 39.5 26.55 40.4 25.9 41.05 25.25 41.7 24.35 41.7 23.4 41.7 22.75 41.05 22.1 40.4 22.1 39.5 M32.2 29.15 Q31.65 28.6 31.65 27.85 31.65 27.05 32.2 26.5 32.75 25.95 33.5 25.95 34.3 25.95 34.85 26.5 35.4 27.05 35.4 27.85 35.4 28.6 34.85 29.15 34.3 29.7 33.5 29.7 32.75 29.7 32.2 29.15 M15.0 36.9 Q15.0 36.25 15.45 35.8 15.9 35.35 16.55 35.35 17.15 35.35 17.6 35.8 18.05 36.25 18.05 36.9 18.05 37.5 17.6 37.95 17.15 38.4 16.55 38.4 15.9 38.4 15.45 37.95 15.0 37.5 15.0 36.9" fill="#200f00" fill-rule="evenodd" stroke="none"/>
    <path d="M41.7 26.4 L40.1 23.85 Q37.0 18.2 34.3 19.0 31.65 19.7 29.5 26.7 27.5 33.3 25.4 33.35 23.3 33.35 20.9 26.8 18.35 19.9 16.25 19.2 14.0 18.35 12.4 23.95 10.9 29.15 9.2 30.3 7.6 31.3 5.7 28.5 3.9 25.75 3.1 22.45 6.05 7.25 19.2 1.1 L25.0 0.5 Q33.9 0.5 40.55 6.0 45.8 20.95 41.7 26.4 M33.85 5.55 L33.75 5.4 33.65 5.35 33.5 5.35 Q31.7 6.3 29.5 5.4 L29.8 4.25 Q29.8 3.2 29.05 2.45 28.3 1.75 27.25 1.75 L26.3 1.9 Q25.55 1.3 24.6 1.3 23.45 1.3 22.65 2.1 21.85 2.9 21.85 4.0 21.85 5.15 22.65 5.95 23.3 6.55 24.15 6.7 22.6 8.85 19.4 9.25 19.3 9.25 19.25 9.35 L19.2 9.5 19.25 9.65 Q22.2 13.7 18.5 17.1 L18.4 17.25 18.45 17.4 18.6 17.5 Q22.95 19.15 23.25 23.0 L23.35 23.15 23.5 23.2 23.65 23.15 23.75 23.0 Q24.45 19.55 28.6 19.2 L28.75 19.1 28.85 18.95 28.8 18.8 Q26.2 15.4 28.4 12.5 31.75 13.45 32.0 17.55 L32.05 17.7 32.2 17.8 32.35 17.75 Q36.4 15.4 39.55 17.6 L39.7 17.65 39.9 17.55 39.95 17.4 39.9 17.25 Q37.65 14.5 39.65 11.35 L39.7 11.2 39.6 11.05 39.5 11.0 Q34.65 10.5 33.85 5.55 M27.25 6.8 L27.55 6.75 Q27.9 8.1 27.55 9.5 26.5 8.35 26.15 6.55 L27.25 6.8" fill="#ffff99" fill-rule="evenodd" stroke="none"/>
    <path d="M29.25 5.85 L33.4 5.95 Q33.8 7.95 34.85 9.25 35.25 12.2 37.15 15.25 35.05 14.9 33.6 16.6 33.05 16.8 32.45 17.15 32.2 14.65 30.85 13.35 28.25 7.45 29.25 5.85 M21.0 12.2 L20.65 11.1 Q23.5 10.1 24.05 7.6 L24.7 6.75 25.6 6.55 Q23.7 16.15 25.95 19.35 24.25 20.15 23.6 21.85 23.0 19.4 20.6 17.95 21.75 15.05 21.0 12.2 M29.75 7.85 Q32.5 11.1 35.5 13.55 33.65 10.75 29.75 7.85 M24.6 9.65 Q23.45 14.05 23.75 18.65 24.55 15.15 24.6 9.65" fill="#006600" fill-rule="evenodd" stroke="none"/>
    <path d="M29.25 5.85 Q28.25 7.45 30.85 13.35 30.05 12.5 28.75 12.1 L29.55 11.35 29.6 11.2 29.6 11.05 29.45 10.9 27.95 9.9 Q28.4 8.25 28.05 6.65 L29.05 6.05 29.25 5.85 M33.6 16.6 Q35.05 14.9 37.15 15.25 35.25 12.2 34.85 9.25 36.3 11.05 39.05 11.45 37.45 14.15 38.85 16.6 L37.75 16.2 Q35.8 15.7 33.6 16.6 M25.95 19.35 Q23.7 16.15 25.6 6.55 26.05 8.8 27.45 10.15 L27.5 10.2 Q28.1 10.8 28.95 11.2 L28.15 12.05 28.1 12.1 Q25.6 15.15 28.15 18.75 26.9 18.9 25.95 19.35 M29.75 7.85 Q33.65 10.75 35.5 13.55 32.5 11.1 29.75 7.85 M24.6 9.65 Q24.55 15.15 23.75 18.65 23.45 14.05 24.6 9.65" fill="#004a00" fill-rule="evenodd" stroke="none"/>
    <path d="M26.9 2.95 L26.5 2.8 Q26.25 2.8 26.1 2.95 25.95 3.1 25.95 3.35 L26.1 3.75 Q26.25 3.95 26.5 3.95 L26.9 3.75 27.05 3.35 26.9 2.95 M25.95 5.8 Q25.1 5.0 25.3 3.85 25.4 3.25 25.85 2.8 26.5 2.15 27.45 2.25 28.25 2.35 28.75 2.9 28.3 5.8 25.95 5.8 M23.55 2.5 Q23.3 2.5 23.15 2.65 L23.0 3.1 Q23.0 3.3 23.15 3.5 23.3 3.65 23.55 3.65 L23.95 3.5 24.15 3.1 23.95 2.65 23.55 2.5 M24.75 4.15 Q24.45 5.45 23.0 5.55 22.55 5.1 22.45 4.5 22.25 3.7 22.65 3.0 23.3 1.9 24.6 1.8 25.25 1.8 25.8 2.15 24.85 2.95 24.75 4.15" fill="#ff0000" fill-rule="evenodd" stroke="none"/>
    <path d="M26.9 2.95 L27.05 3.35 26.9 3.75 26.5 3.95 Q26.25 3.95 26.1 3.75 L25.95 3.35 Q25.95 3.1 26.1 2.95 26.25 2.8 26.5 2.8 L26.9 2.95 M23.55 2.5 L23.95 2.65 24.15 3.1 23.95 3.5 23.55 3.65 Q23.3 3.65 23.15 3.5 23.0 3.3 23.0 3.1 L23.15 2.65 Q23.3 2.5 23.55 2.5" fill="#ffffff" fill-rule="evenodd" stroke="none"/>
    <path d="M25.95 5.8 Q28.3 5.8 28.75 2.9 29.3 3.45 29.3 4.25 29.3 5.1 28.7 5.7 28.1 6.3 27.25 6.3 26.5 6.3 25.95 5.8 M24.75 4.15 Q24.7 5.25 25.5 6.05 24.4 6.5 23.4 5.85 L23.0 5.55 Q24.45 5.45 24.75 4.15" fill="#990000" fill-rule="evenodd" stroke="none"/>
    <path d="M21.0 12.2 Q21.75 15.05 20.6 17.95 L19.1 17.2 Q21.5 14.85 21.0 12.2 M24.05 7.6 Q23.5 10.1 20.65 11.1 L19.85 9.7 Q22.55 9.25 24.05 7.6" fill="#008000" fill-rule="evenodd" stroke="none"/>
    <path d="M3.1 22.45 Q2.3 19.1 2.4 15.25 4.2 11.1 7.7 7.65 12.7 2.6 19.2 1.1 6.05 7.25 3.1 22.45" fill="#ffffbf" fill-rule="evenodd" stroke="none"/>
  </g>
  <defs>
    <linearGradient gradientTransform="matrix(0.0, -0.4493, 0.1531, 0.0, 119.35, -247.85)" gradientUnits="userSpaceOnUse" id="gradient0" spreadMethod="pad" x1="-819.2" x2="819.2">
      <stop offset="0.0" stop-color="#ff0000"/>
      <stop offset="0.16470588235294117" stop-color="#ffff00"/>
      <stop offset="0.36470588235294116" stop-color="#00ff00"/>
      <stop offset="0.4980392156862745" stop-color="#00ffff"/>
      <stop offset="0.6666666666666666" stop-color="#0000ff"/>
      <stop offset="0.8313725490196079" stop-color="#ff00ff"/>
      <stop offset="1.0" stop-color="#ff0000"/>
    </linearGradient>
  </defs>
</svg>
