<?xml version="1.0" encoding="UTF-8"?>
<svg id="Capa_1" data-name="Capa 1" xmlns="http://www.w3.org/2000/svg" width="1919.25" height="1079.25" xmlns:xlink="http://www.w3.org/1999/xlink" viewBox="0 0 1919.25 1079.25">
  <defs>
    <style>
      .cls-1 {
        fill: rgba(255, 255, 255, .23);
      }

      .cls-2 {
        fill: rgba(255, 255, 255, .14);
      }

      .cls-3 {
        fill: rgba(255, 255, 255, .17);
      }

      .cls-4 {
        fill: rgba(255, 255, 255, .11);
      }

      .cls-5 {
        fill: rgba(255, 255, 255, .11);
      }

      .cls-6 {
        fill: rgba(255, 255, 255, .18);
      }

      .cls-7 {
        fill: rgba(255, 255, 255, .11);
      }

      .cls-8 {
        fill: rgba(255, 255, 255, .18);
      }

      .cls-9 {
        fill: rgba(255, 255, 255, .06);
      }

      .cls-10 {
        fill: rgba(255, 255, 255, .2);
      }

      .cls-11 {
        fill: rgba(255, 255, 255, .07);
      }

      .cls-12 {
        fill: rgba(255, 255, 255, .17);
      }

      .cls-13 {
        fill: rgba(255, 255, 255, .11);
      }

      .cls-14 {
        stroke: rgba(255, 255, 255, .06);
      }

      .cls-14, .cls-15, .cls-16, .cls-17, .cls-18, .cls-19, .cls-20, .cls-21, .cls-22, .cls-23, .cls-24, .cls-25, .cls-26, .cls-27, .cls-28, .cls-29, .cls-30, .cls-31, .cls-32, .cls-33, .cls-34, .cls-35, .cls-36, .cls-37, .cls-38, .cls-39 {
        fill: none;
      }

      .cls-40 {
        fill: rgba(255, 255, 255, .17);
      }

      .cls-41 {
        fill: rgba(255, 255, 255, .08);
      }

      .cls-42 {
        fill: rgba(255, 255, 255, .25);
      }

      .cls-43 {
        fill: rgba(255, 255, 255, .22);
      }

      .cls-44 {
        fill: rgba(255, 255, 255, .13);
      }

      .cls-15 {
        stroke: rgba(255, 255, 255, .03);
      }

      .cls-45 {
        fill: rgba(255, 255, 255, .07);
      }

      .cls-16 {
        stroke: rgba(255, 255, 255, .07);
      }

      .cls-46 {
        fill: rgba(255, 255, 255, .09);
      }

      .cls-17 {
        stroke: rgba(255, 255, 255, .04);
      }

      .cls-47 {
        fill: rgba(255, 255, 255, .13);
      }

      .cls-48 {
        fill: rgba(255, 255, 255, .15);
      }

      .cls-49 {
        fill: rgba(255, 255, 255, .08);
      }

      .cls-18 {
        stroke: rgba(255, 255, 255, .05);
      }

      .cls-50 {
        fill: rgba(255, 255, 255, .09);
      }

      .cls-19 {
        stroke: rgba(255, 255, 255, .05);
      }

      .cls-51 {
        fill: rgba(255, 255, 255, .22);
      }

      .cls-52 {
        fill: rgba(255, 255, 255, .2);
      }

      .cls-53 {
        fill: rgba(255, 255, 255, .13);
      }

      .cls-54 {
        fill: rgba(255, 255, 255, .22);
      }

      .cls-55 {
        fill: rgba(255, 255, 255, .19);
      }

      .cls-56 {
        fill: rgba(255, 255, 255, .05);
      }

      .cls-57 {
        fill: rgba(255, 255, 255, .14);
      }

      .cls-20 {
        stroke: rgba(255, 255, 255, .05);
      }

      .cls-58 {
        fill: rgba(255, 255, 255, .2);
      }

      .cls-21 {
        stroke: rgba(255, 255, 255, .06);
      }

      .cls-59 {
        fill: rgba(255, 255, 255, .14);
      }

      .cls-60 {
        fill: rgba(255, 255, 255, .17);
      }

      .cls-61 {
        fill: rgba(255, 255, 255, .16);
      }

      .cls-62 {
        fill: rgba(255, 255, 255, .11);
      }

      .cls-22 {
        stroke: rgba(255, 255, 255, .08);
      }

      .cls-63 {
        fill: rgba(255, 255, 255, .11);
      }

      .cls-64 {
        fill: url(#Degradado_sin_nombre_2);
      }

      .cls-65 {
        fill: rgba(255, 255, 255, .1);
      }

      .cls-66 {
        fill: rgba(255, 255, 255, .07);
      }

      .cls-23 {
        stroke: rgba(255, 255, 255, .07);
      }

      .cls-24 {
        stroke: rgba(255, 255, 255, .04);
      }

      .cls-25 {
        stroke: rgba(255, 255, 255, .06);
      }

      .cls-26 {
        stroke: rgba(255, 255, 255, .06);
      }

      .cls-67 {
        fill: rgba(255, 255, 255, .23);
      }

      .cls-68 {
        fill: rgba(255, 255, 255, .07);
      }

      .cls-69 {
        fill: rgba(255, 255, 255, .09);
      }

      .cls-70 {
        fill: rgba(255, 255, 255, .22);
      }

      .cls-71 {
        fill: rgba(255, 255, 255, .2);
      }

      .cls-72 {
        fill: rgba(255, 255, 255, .22);
      }

      .cls-73 {
        fill: rgba(255, 255, 255, .24);
      }

      .cls-74 {
        fill: rgba(255, 255, 255, .09);
      }

      .cls-27 {
        stroke: rgba(255, 255, 255, .07);
      }

      .cls-28 {
        stroke: rgba(255, 255, 255, .05);
      }

      .cls-75 {
        fill: rgba(255, 255, 255, .08);
      }

      .cls-76 {
        fill: rgba(255, 255, 255, .17);
      }

      .cls-29 {
        stroke: rgba(255, 255, 255, .05);
      }

      .cls-77 {
        fill: rgba(255, 255, 255, .07);
      }

      .cls-30 {
        stroke: rgba(255, 255, 255, .04);
      }

      .cls-78 {
        fill: rgba(255, 255, 255, .24);
      }

      .cls-79 {
        fill: rgba(255, 255, 255, .11);
      }

      .cls-80 {
        fill: rgba(255, 255, 255, .06);
      }

      .cls-81 {
        fill: rgba(255, 255, 255, .09);
      }

      .cls-82 {
        fill: rgba(255, 255, 255, .15);
      }

      .cls-83 {
        fill: rgba(255, 255, 255, .16);
      }

      .cls-84 {
        fill: rgba(255, 255, 255, .1);
      }

      .cls-85 {
        fill: rgba(255, 255, 255, .19);
      }

      .cls-86 {
        fill: rgba(255, 255, 255, .25);
      }

      .cls-87 {
        fill: rgba(255, 255, 255, .1);
      }

      .cls-88 {
        fill: rgba(255, 255, 255, .09);
      }

      .cls-89 {
        fill: rgba(255, 255, 255, .06);
      }

      .cls-90 {
        fill: rgba(255, 255, 255, .2);
      }

      .cls-91 {
        fill: rgba(255, 255, 255, .16);
      }

      .cls-92 {
        fill: rgba(255, 255, 255, .15);
      }

      .cls-93 {
        fill: rgba(255, 255, 255, .08);
      }

      .cls-31 {
        stroke: rgba(255, 255, 255, .07);
      }

      .cls-32 {
        stroke: rgba(255, 255, 255, .06);
      }

      .cls-33 {
        stroke: rgba(255, 255, 255, .07);
      }

      .cls-94 {
        fill: rgba(255, 255, 255, .15);
      }

      .cls-95 {
        fill: rgba(255, 255, 255, .06);
      }

      .cls-96 {
        fill: rgba(255, 255, 255, .24);
      }

      .cls-97 {
        fill: rgba(255, 255, 255, .16);
      }

      .cls-98 {
        fill: rgba(255, 255, 255, .23);
      }

      .cls-99 {
        fill: rgba(255, 255, 255, .13);
      }

      .cls-100 {
        fill: rgba(255, 255, 255, .23);
      }

      .cls-101 {
        fill: rgba(255, 255, 255, .17);
      }

      .cls-34 {
        stroke: rgba(255, 255, 255, .03);
      }

      .cls-102 {
        fill: rgba(255, 255, 255, .06);
      }

      .cls-103 {
        fill: rgba(255, 255, 255, .17);
      }

      .cls-104 {
        fill: rgba(255, 255, 255, .1);
      }

      .cls-105 {
        fill: rgba(255, 255, 255, .18);
      }

      .cls-106 {
        fill: rgba(255, 255, 255, .05);
      }

      .cls-35 {
        stroke: rgba(255, 255, 255, .04);
      }

      .cls-36 {
        stroke: rgba(255, 255, 255, .07);
      }

      .cls-107 {
        fill: rgba(255, 255, 255, .09);
      }

      .cls-108 {
        fill: rgba(255, 255, 255, .16);
      }

      .cls-37 {
        stroke: rgba(255, 255, 255, .04);
      }

      .cls-109 {
        fill: rgba(255, 255, 255, .21);
      }

      .cls-38 {
        stroke: rgba(255, 255, 255, .07);
      }

      .cls-110 {
        fill: rgba(255, 255, 255, .19);
      }

      .cls-111 {
        fill: rgba(255, 255, 255, .07);
      }

      .cls-39 {
        stroke: rgba(255, 255, 255, .04);
      }
    </style>
    <radialGradient id="Degradado_sin_nombre_2" data-name="Degradado sin nombre 2" cx="-1538.69" cy="2038.7" fx="-1538.69" fy="2038.7" r=".82" gradientTransform="translate(2893085.28 2156187.56) scale(1879.61 -1057.42)" gradientUnits="userSpaceOnUse">
      <stop offset="0" stop-color="#1b0b5e"/>
      <stop offset="1" stop-color="#060b46"/>
    </radialGradient>
  </defs>
  <rect class="cls-64" x="-1.42" y="1.1" width="1920.67" height="1080.51"/>
  <g id="stars">
    <circle class="cls-88" cx="1215.05" cy="21.88" r="1.15"/>
    <circle class="cls-68" cx="1405.44" cy="741.09" r="1.91"/>
    <circle class="cls-94" cx="788.31" cy="27.16" r="1.08"/>
    <circle class="cls-83" cx="12.59" cy="213.71" r="1.61"/>
    <circle class="cls-106" cx="393.02" cy="644.59" r="1.81"/>
    <circle class="cls-49" cx="1541.49" cy="764.74" r="1.24"/>
    <circle class="cls-45" cx="1838.52" cy="365.74" r=".93"/>
    <circle class="cls-10" cx="1623.26" cy="660.54" r="1.81"/>
    <circle class="cls-61" cx="1012.58" cy="1068.21" r="1.28"/>
    <circle class="cls-3" cx="1587.77" cy="676.87" r="1.87"/>
    <circle class="cls-63" cx="1342.86" cy="44.85" r="1.09"/>
    <circle class="cls-62" cx="117.07" cy="251.18" r=".94"/>
    <circle class="cls-107" cx="1207.7" cy="396.91" r="1.27"/>
    <path class="cls-101" d="M484.32,1026.35c.89,0,1.61.72,1.61,1.61s-.72,1.61-1.61,1.61-1.61-.72-1.61-1.61.72-1.61,1.61-1.61Z"/>
    <circle class="cls-99" cx="296.29" cy="798.94" r="1.02"/>
    <circle class="cls-55" cx="1901.91" cy="700.58" r="1.5"/>
    <circle class="cls-80" cx="1614.16" cy="850.67" r="1.09"/>
    <circle class="cls-78" cx="579.43" cy="289.76" r="1.07"/>
    <circle class="cls-44" cx="1679.91" cy="341.55" r="1.62"/>
    <circle class="cls-104" cx="1754.81" cy="500.67" r="1.14"/>
    <circle class="cls-1" cx="1061.9" cy="284.24" r="1.53"/>
    <circle class="cls-48" cx="744.13" cy="236.33" r="2.04"/>
    <circle class="cls-12" cx="138.89" cy="46.28" r=".95"/>
    <circle class="cls-99" cx="1514.54" cy="460.17" r=".9"/>
    <circle class="cls-43" cx="1914.86" cy="578.2" r="2.01"/>
    <circle class="cls-57" cx="484.02" cy="701.64" r=".95"/>
    <circle class="cls-84" cx="850.71" cy="1046.9" r="1.89"/>
    <circle class="cls-51" cx="942.65" cy="191.44" r="1.94"/>
    <circle class="cls-49" cx="546.05" cy="699.43" r="1.56"/>
    <circle class="cls-97" cx="1456.53" cy="589.54" r="1.77"/>
    <circle class="cls-89" cx="1684.53" cy="912.1" r="1.2"/>
    <circle class="cls-92" cx="1683.13" cy="1039.33" r=".92"/>
    <circle class="cls-93" cx="96.32" cy="833.68" r="1.76"/>
    <circle class="cls-51" cx="893" cy="601.04" r="1.14"/>
    <circle class="cls-10" cx="790.69" cy="228.02" r="1.48"/>
    <circle class="cls-8" cx="355.17" cy="338.28" r="2.03"/>
    <circle class="cls-88" cx="820.05" cy="565.47" r=".97"/>
    <circle class="cls-81" cx="623.83" cy="643.53" r="1.1"/>
    <circle class="cls-67" cx="99.81" cy="690.76" r="1.09"/>
    <circle class="cls-6" cx="1647.08" cy="72.48" r="1.11"/>
    <circle class="cls-108" cx="380.84" cy="140.3" r="1.96"/>
    <circle class="cls-74" cx="887.88" cy="860.18" r="1.81"/>
    <circle class="cls-59" cx="150.7" cy="469.99" r="1.34"/>
    <circle class="cls-11" cx="1390.94" cy="737.4" r="2.02"/>
    <circle class="cls-87" cx="750.44" cy="368.74" r="1.87"/>
    <circle class="cls-62" cx="333.7" cy="489.36" r="1.34"/>
    <circle class="cls-43" cx="450.63" cy="1013.19" r="1.36"/>
    <circle class="cls-54" cx="1040.23" cy="50.11" r="2.04"/>
    <circle class="cls-41" cx="1861.64" cy="1016.62" r="1.86"/>
    <circle class="cls-89" cx="913.33" cy="230.17" r="1.31"/>
    <circle class="cls-42" cx="853.23" cy="461.11" r="1.99"/>
    <circle class="cls-13" cx="1050.92" cy="787.11" r="1.01"/>
    <circle class="cls-90" cx="1861.08" cy="633.46" r="1.48"/>
    <circle class="cls-72" cx="72.68" cy="638.97" r="1.43"/>
    <circle class="cls-46" cx="269.4" cy="1054.59" r=".92"/>
    <circle class="cls-77" cx="1127.95" cy="739.44" r="1.1"/>
    <circle class="cls-103" cx="1707.22" cy="266" r="1.54"/>
    <circle class="cls-73" cx="783.02" cy="638.42" r="1.46"/>
    <circle class="cls-44" cx="361.27" cy="784.67" r="1.11"/>
    <circle class="cls-90" cx="1278.35" cy="325.36" r="1.21"/>
    <circle class="cls-42" cx="102.85" cy="500.04" r="2.04"/>
    <circle class="cls-73" cx="104.26" cy="229.52" r="1.14"/>
    <circle class="cls-75" cx="1688.73" cy="964.63" r="1.27"/>
    <circle class="cls-86" cx="1596.29" cy="770.7" r="1.56"/>
    <circle class="cls-7" cx="1243.59" cy="2.92" r="1.82"/>
    <circle class="cls-111" cx="1262.06" cy="1030.47" r=".98"/>
    <circle class="cls-60" cx="170.53" cy="604.81" r="1.15"/>
    <circle class="cls-84" cx="1368.44" cy="218.97" r="1.59"/>
    <circle class="cls-66" cx="919" cy="993.4" r="1.86"/>
    <circle class="cls-52" cx="791.56" cy="299.62" r=".82"/>
    <circle class="cls-61" cx="1210.51" cy="283.37" r="1.73"/>
    <circle class="cls-100" cx="799.62" cy="4.95" r=".91"/>
    <circle class="cls-40" cx="1733.98" cy="596.39" r="1.84"/>
    <circle class="cls-1" cx="251.08" cy="134.93" r="1.2"/>
    <circle class="cls-107" cx="1522.47" cy="944.15" r="1.92"/>
    <circle class="cls-100" cx="450.09" cy="107.73" r="1.78"/>
    <circle class="cls-96" cx="757.81" cy="679.23" r="1.01"/>
    <circle class="cls-98" cx="1656.83" cy="1071.61" r="1.81"/>
    <circle class="cls-96" cx="9.16" cy="807.15" r="1.23"/>
    <circle class="cls-84" cx="1534.46" cy="947.86" r="1.81"/>
    <circle class="cls-43" cx="1505.31" cy="113.57" r="1.89"/>
    <circle class="cls-5" cx="396.93" cy="895.46" r="1.38"/>
    <circle class="cls-50" cx="1520.94" cy="245.45" r=".85"/>
    <circle class="cls-62" cx="604.55" cy="948.17" r="2"/>
    <circle class="cls-91" cx="1219.07" cy="435.36" r="2.02"/>
    <circle class="cls-69" cx="1803.26" cy="121.57" r="2"/>
    <circle class="cls-57" cx="1848.97" cy="287.24" r=".95"/>
    <circle class="cls-48" cx="1389.89" cy="340.45" r="1.56"/>
    <circle class="cls-110" cx="716.26" cy="630.6" r="1.13"/>
    <circle class="cls-9" cx="1416.19" cy="734.38" r="1.27"/>
    <circle class="cls-70" cx="1263.73" cy="358.69" r="1.21"/>
    <circle class="cls-53" cx="1372.64" cy="325.72" r="1.2"/>
    <circle class="cls-47" cx="750.01" cy="320.57" r=".97"/>
    <circle class="cls-76" cx="1805.47" cy="741.76" r="1.92"/>
    <circle class="cls-4" cx="550.97" cy="598.98" r=".82"/>
    <circle class="cls-59" cx="803.95" cy="634.34" r="1.62"/>
    <circle class="cls-1" cx="828.02" cy="230.12" r="1.4"/>
    <circle class="cls-82" cx="1522.28" cy="181.55" r=".92"/>
    <circle class="cls-90" cx="1202.32" cy="364.19" r="1.82"/>
    <circle class="cls-56" cx="1280.52" cy="242.19" r="1.06"/>
    <circle class="cls-95" cx="440.9" cy="518.64" r="1.86"/>
    <circle class="cls-85" cx="773.64" cy="689.29" r="1.05"/>
    <circle class="cls-106" cx="930.46" cy="263.54" r="1.62"/>
    <circle class="cls-2" cx="1433.87" cy="844.1" r=".95"/>
    <circle class="cls-102" cx="305.6" cy="1051.48" r="1.45"/>
    <circle class="cls-109" cx="449.44" cy="930.5" r="1.38"/>
    <circle class="cls-94" cx="1709.45" cy="670.39" r="1.7"/>
    <circle class="cls-71" cx="1590.05" cy="598.91" r="1.92"/>
    <circle class="cls-105" cx="891.81" cy="280.33" r="1.12"/>
    <circle class="cls-65" cx="1463.01" cy="569.58" r="1.58"/>
    <circle class="cls-79" cx="112.55" cy="309.61" r="1.15"/>
    <circle class="cls-85" cx="1020.27" cy="146.99" r="1.1"/>
    <circle class="cls-83" cx="1346.48" cy="65.17" r="1.32"/>
    <circle class="cls-67" cx="776.25" cy="222.54" r="1.33"/>
    <circle class="cls-58" cx="1106.45" cy="761.85" r="1.87"/>
  </g>
  <g id="lines">
    <line class="cls-27" x1="706.81" y1=".79" x2="607.42" y2="134.47"/>
    <line class="cls-25" x1="1831.11" y1="456.71" x2="1829" y2="321.93"/>
    <line class="cls-28" x1="393.21" y1="236.44" x2="342.12" y2="258.22"/>
    <line class="cls-24" x1="1292.96" y1="440.48" x2="1355.41" y2="546.14"/>
    <line class="cls-15" x1="1181.36" y1="24.04" x2="1073.15" y2="109.04"/>
    <line class="cls-18" x1="1221.56" y1="144.04" x2="1164.45" y2="158.05"/>
    <line class="cls-33" x1="375.79" y1="354.98" x2="383.49" y2="246.05"/>
    <line class="cls-32" x1="1592.71" y1="272.68" x2="1639.78" y2="299.3"/>
    <line class="cls-14" x1="1922.28" y1="380.5" x2="1822" y2="242.19"/>
    <line class="cls-37" x1="1440.29" y1="1042.26" x2="1457.25" y2="1093.76"/>
    <line class="cls-26" x1="208.16" y1="733.1" x2="130.4" y2="700.04"/>
    <line class="cls-24" x1="1465.13" y1="179.45" x2="1335.63" y2="76.04"/>
    <line class="cls-29" x1="1567.95" y1="1058.94" x2="1610.77" y2="1093.51"/>
    <line class="cls-34" x1="1289.45" y1="1051.72" x2="1161.46" y2="1148.87"/>
    <line class="cls-27" x1="1315.47" y1="686.5" x2="1451.4" y2="787.76"/>
    <line class="cls-28" x1="1138.5" y1="127.88" x2="1308.67" y2="110.55"/>
    <line class="cls-16" x1="800.98" y1="403.24" x2="697.65" y2="399.37"/>
    <line class="cls-36" x1="1573.9" y1="110.75" x2="1717.92" y2="74.53"/>
    <line class="cls-17" x1="1348.22" y1="474.89" x2="1327.99" y2="276.83"/>
    <line class="cls-38" x1="1546.16" y1="588.21" x2="1428.95" y2="600.4"/>
    <line class="cls-23" x1="487.1" y1="934.22" x2="518.37" y2="877.95"/>
    <line class="cls-15" x1="438.97" y1="507.13" x2="354.99" y2="437.36"/>
    <line class="cls-28" x1="1630.05" y1="194.96" x2="1670.92" y2="363.45"/>
    <line class="cls-22" x1="1687.66" y1="768.1" x2="1679.01" y2="820.03"/>
    <line class="cls-26" x1="128.5" y1="788.95" x2="-38.38" y2="800.95"/>
    <line class="cls-35" x1="1227.75" y1="535.95" x2="1245.17" y2="472.95"/>
    <line class="cls-32" x1="1317.77" y1="332.2" x2="1210.02" y2="271.59"/>
    <line class="cls-17" x1="795.34" y1="817.49" x2="718.13" y2="956.29"/>
    <line class="cls-32" x1="453.77" y1="127.44" x2="478.26" y2="192.39"/>
    <line class="cls-31" x1="1455.89" y1="198.61" x2="1482.17" y2="321.14"/>
    <line class="cls-39" x1="1876.58" y1="573.27" x2="1862.88" y2="638.34"/>
    <line class="cls-17" x1="406.84" y1="192.31" x2="539.27" y2="204.12"/>
    <line class="cls-27" x1="1872.04" y1="604.97" x2="1849.18" y2="538.32"/>
    <line class="cls-19" x1="923.6" y1="957.41" x2="813.64" y2="902.19"/>
    <line class="cls-36" x1="322.24" y1="50.98" x2="438.13" y2="5.99"/>
    <line class="cls-30" x1="746.69" y1="76.04" x2="705.94" y2="32.95"/>
    <line class="cls-33" x1="1064.78" y1="329.59" x2="1133.98" y2="326.94"/>
    <line class="cls-20" x1="1150.09" y1="866.94" x2="1170.05" y2="996.6"/>
    <line class="cls-21" x1="829.11" y1="943.55" x2="926.82" y2="937.42"/>
    <line class="cls-35" x1="1156.59" y1="811.04" x2="1235.07" y2="784.22"/>
  </g>
</svg>